<?xml version="1.0" encoding="UTF-8" standalone="no"?>
<svg xmlns:xlink="http://www.w3.org/1999/xlink" height="174.5px" width="531.45px" xmlns="http://www.w3.org/2000/svg">
  <g transform="matrix(1.0, 0.0, 0.0, 1.0, 265.7, 87.25)">
    <path d="M56.2 -60.05 L60.8 -63.25 66.45 -67.0 67.55 -67.65 Q79.6 -74.5 85.6 -61.8 87.2 -58.05 88.1 -54.2 90.9 -42.05 82.3 -34.3 74.6 -27.35 64.4 -25.7 57.0 -24.35 50.8 -20.35 40.8 -13.85 47.9 -6.25 49.55 -4.55 52.35 -4.35 54.95 -4.35 57.4 -5.45 64.4 -8.35 67.15 -1.8 54.85 19.7 54.95 24.25 55.0 28.8 42.9 33.15 43.2 44.65 44.45 56.15 45.7 67.25 36.4 73.25 19.35 84.25 2.15 73.4 -0.55 71.7 -1.9 68.8 -4.4 63.5 -2.85 57.55 -0.55 48.5 3.95 40.25 17.0 16.2 18.25 -11.1 10.8 -6.45 2.95 -5.6 1.6 -8.5 2.15 -11.6 2.5 -13.45 3.6 -14.75 9.45 -21.6 10.65 -30.3 11.15 -34.15 9.65 -37.6 6.75 -44.25 12.95 -46.95 17.5 -48.8 22.45 -48.0 33.45 -48.25 43.5 -52.95 50.1 -56.05 56.2 -60.05 M80.55 -61.8 L78.8 -63.65 77.4 -64.5 Q69.35 -69.1 61.35 -61.55 41.5 -44.8 15.75 -41.6 19.75 -30.35 14.55 -20.1 L13.2 -17.7 Q15.1 -18.75 17.15 -19.05 L19.15 -19.2 19.9 -19.2 20.6 -18.7 21.4 -17.1 Q26.25 -6.45 23.45 5.95 19.6 22.9 9.95 37.7 2.4 49.4 4.6 63.2 4.7 63.85 5.15 64.3 L5.5 64.55 6.7 65.35 Q17.85 72.25 30.0 66.5 L31.45 65.3 Q40.5 53.35 38.75 41.0 36.95 28.6 49.2 22.65 L57.8 1.75 58.7 -0.45 56.4 -0.35 Q49.65 -0.35 44.75 -4.1 L43.65 -4.95 Q41.55 -6.75 39.8 -9.3 40.45 -15.5 43.7 -20.55 50.4 -30.9 62.15 -35.3 69.6 -38.1 76.4 -42.1 87.6 -48.8 80.95 -61.1 L80.55 -61.8 M-81.75 -9.4 L-80.75 -7.55 -80.35 -6.9 Q-78.6 -4.05 -76.2 -1.8 -74.4 -0.15 -71.95 0.25 L-68.25 0.15 Q-66.5 -0.15 -65.1 -1.15 -63.35 -2.35 -62.35 -4.3 L-59.45 -9.6 Q-57.95 -12.15 -55.9 -14.15 -54.05 -16.0 -51.9 -17.35 -49.8 -18.65 -47.35 -19.15 -43.95 -19.9 -40.5 -19.2 -35.4 -18.35 -32.4 -14.05 -30.25 -11.0 -29.55 -7.6 -27.55 -9.2 -26.3 -11.15 -24.1 -14.6 -24.55 -18.55 L-26.1 -18.9 Q-29.45 -19.75 -32.2 -22.05 -33.65 -23.2 -34.55 -24.85 -35.55 -26.75 -36.0 -28.75 -36.1 -31.35 -35.1 -33.4 -28.05 -47.7 -11.55 -46.6 4.65 -45.6 5.25 -28.75 L5.1 -24.55 Q4.75 -21.9 3.95 -19.5 3.15 -17.05 1.9 -14.65 0.1 -11.3 -2.35 -8.55 -7.75 -2.45 -15.0 1.35 -21.4 4.7 -28.4 5.7 -22.25 25.0 -18.1 44.85 -17.15 49.4 -16.55 54.05 -16.1 57.6 -16.8 61.05 -17.5 64.75 -18.85 67.85 -19.8 70.05 -21.25 72.1 -22.6 74.05 -24.45 75.45 L-28.4 77.9 Q-30.7 79.1 -33.1 79.7 L-39.0 80.6 Q-43.55 81.0 -48.1 80.5 -52.45 79.9 -56.65 78.45 -61.85 76.6 -66.4 73.3 -68.8 71.5 -70.8 69.35 -71.6 68.45 -71.65 67.35 -72.05 53.6 -69.1 40.15 -71.1 41.1 -73.35 41.55 -77.1 42.3 -80.85 41.55 -78.7 44.2 -77.1 47.2 -75.65 49.95 -74.95 52.85 -74.3 55.6 -74.3 58.55 -74.25 61.5 -75.05 64.25 -75.95 67.3 -77.35 70.1 -78.4 72.1 -79.75 73.7 -80.75 74.8 -82.1 75.65 L-85.1 76.9 Q-94.85 79.9 -104.95 79.75 -112.5 79.65 -119.75 77.75 -123.2 76.9 -126.5 75.65 L-129.65 73.9 Q-133.55 70.95 -134.7 66.2 -137.75 68.2 -141.35 69.15 -147.0 70.6 -152.6 68.65 -156.85 67.2 -160.55 64.2 L-162.0 67.9 Q-164.5 73.9 -169.3 78.3 -173.45 82.15 -178.45 84.35 -185.85 87.7 -194.0 87.15 -200.55 86.55 -206.8 83.85 -208.75 83.1 -210.55 82.05 -213.25 80.55 -215.75 78.75 -217.95 77.2 -219.0 74.7 -220.05 72.25 -219.75 69.5 -219.05 62.65 -216.75 56.05 -214.8 50.55 -212.25 45.1 L-210.25 40.5 -208.65 35.8 Q-206.9 30.5 -206.45 24.95 -205.9 18.25 -207.2 11.6 -208.3 6.05 -210.6 1.05 L-216.3 -10.35 Q-219.35 -9.2 -222.4 -8.2 L-228.5 -6.15 Q-234.7 -4.35 -241.05 -3.5 L-246.65 -3.7 Q-248.4 -4.25 -250.0 -5.05 -252.65 -6.55 -254.35 -9.0 L-257.35 -13.25 Q-262.55 -20.95 -264.9 -29.7 -266.1 -34.25 -265.5 -38.8 L-264.8 -43.3 Q-264.2 -46.55 -262.15 -49.05 -260.35 -51.25 -257.8 -52.4 L-249.85 -55.6 Q-236.65 -60.8 -223.95 -67.05 -217.65 -70.15 -211.55 -73.7 -198.8 -80.95 -184.9 -85.2 L-177.8 -87.05 Q-174.35 -87.75 -171.25 -85.85 -169.9 -85.05 -168.8 -83.75 -167.65 -82.4 -166.95 -80.7 L-165.35 -76.8 -163.3 -71.85 -160.35 -65.9 Q-159.1 -63.55 -158.3 -61.3 -157.6 -59.4 -157.45 -57.45 -157.25 -55.45 -157.4 -53.3 -157.85 -46.45 -160.45 -40.35 -161.2 -38.6 -162.3 -37.1 L-163.85 -35.4 Q-169.4 -30.85 -175.8 -27.7 -170.8 -20.6 -168.15 -12.25 L-163.75 -18.75 Q-161.45 -21.9 -158.75 -24.65 -156.05 -27.45 -153.0 -29.85 -149.9 -32.25 -146.45 -34.1 -144.65 -35.15 -142.6 -35.4 L-138.3 -35.3 Q-134.3 -34.5 -130.9 -32.3 -128.25 -30.6 -125.95 -28.25 L-123.15 -24.6 Q-122.0 -22.75 -121.5 -20.65 -121.05 -18.55 -121.25 -16.05 -121.4 -13.6 -122.1 -11.15 -122.85 -8.5 -123.9 -5.8 L-125.7 -1.0 -128.1 5.35 Q-131.05 13.2 -131.55 21.5 -132.05 30.5 -129.6 39.25 L-128.9 35.75 Q-127.8 30.55 -126.2 25.6 -124.6 20.65 -122.6 15.85 -120.7 11.2 -118.05 6.6 -115.45 2.2 -112.45 -2.0 -109.4 -6.3 -105.95 -10.2 -102.7 -13.85 -98.65 -16.7 -96.0 -18.5 -91.55 -19.15 -88.75 -18.75 -87.85 -17.95 -83.8 -14.5 -81.75 -9.4 L-84.15 -12.25 Q-85.15 -13.4 -86.4 -14.2 L-86.5 -14.3 Q-87.65 -15.05 -88.9 -15.4 -92.45 -16.2 -95.45 -14.1 -98.75 -11.75 -101.15 -8.55 -109.85 3.15 -116.3 16.3 -119.0 21.85 -120.55 28.0 -121.8 33.1 -122.4 38.35 -123.45 48.1 -126.0 57.6 -126.55 59.65 -128.05 61.35 L-126.75 63.35 -126.65 63.5 -125.5 64.8 -124.3 65.85 Q-122.8 67.0 -121.1 67.75 -112.55 71.95 -103.1 71.2 -95.3 71.05 -88.6 67.15 -86.3 65.7 -85.05 63.5 -83.1 60.15 -83.0 56.1 -82.9 51.7 -84.45 47.95 L-84.9 46.9 Q-86.3 44.05 -88.65 41.65 L-91.55 38.0 -92.1 37.05 Q-94.35 33.2 -94.95 28.7 -95.35 25.65 -94.45 22.45 -93.75 19.75 -91.45 18.55 L-90.6 18.15 -89.5 20.3 -87.65 23.6 -84.6 28.3 -83.5 29.65 Q-81.05 32.25 -77.35 32.6 -72.65 30.65 -71.3 25.75 L-70.4 22.8 Q-69.65 20.5 -68.1 18.75 -65.0 15.3 -61.15 16.8 L-59.75 17.5 -58.9 19.4 -58.75 19.8 -58.7 19.95 -57.9 22.75 Q-57.15 26.25 -57.8 29.75 L-59.05 35.85 Q-62.35 50.35 -66.5 64.85 L-66.55 65.05 -65.05 66.1 -64.95 66.15 -60.05 68.85 Q-52.0 72.2 -43.25 71.25 -39.25 70.7 -35.65 69.05 L-32.85 67.45 Q-29.45 65.0 -27.55 61.35 -26.45 59.2 -25.85 56.85 -25.3 54.55 -25.2 52.25 -24.8 40.85 -28.0 29.9 -31.0 19.6 -30.8 8.9 L-30.8 8.6 -30.75 6.4 -32.6 6.5 -34.5 6.65 Q-41.8 6.2 -48.25 3.4 L-48.75 3.2 -52.0 1.5 -51.25 1.35 -47.85 0.65 Q-41.05 -0.8 -35.1 -4.3 L-35.35 -5.95 -35.7 -7.35 -35.9 -7.95 Q-36.9 -10.5 -39.3 -12.05 L-39.35 -12.1 Q-41.45 -13.5 -43.8 -13.9 L-46.7 -13.35 Q-52.95 -11.65 -56.55 -6.05 -59.25 -1.95 -62.65 1.65 -64.25 3.35 -66.1 4.8 -69.9 7.7 -74.55 6.1 L-74.7 6.05 -74.85 6.0 -80.85 -7.35 -81.75 -9.4 M119.1 -0.45 L116.9 -1.85 Q101.7 -10.95 89.15 -5.9 76.6 -0.85 71.0 9.65 66.0 20.4 65.75 32.2 65.5 45.75 72.8 57.1 75.0 60.55 77.85 63.15 L81.4 65.9 Q85.55 68.55 90.7 69.75 102.35 72.25 112.3 65.75 120.2 60.55 124.55 51.95 128.15 44.85 129.9 35.95 L130.8 30.1 131.3 23.75 Q132.0 9.45 120.75 0.75 L120.7 0.7 119.1 -0.45 M126.5 -1.9 Q128.35 0.1 129.7 2.4 133.55 -6.2 142.25 -9.6 155.2 -14.9 168.4 -10.4 180.5 -6.15 186.95 4.9 L192.8 -19.95 Q183.7 -24.4 179.75 -33.75 172.95 -50.1 185.65 -63.05 190.4 -67.85 196.85 -69.05 202.65 -70.2 208.1 -67.75 226.9 -59.05 243.05 -48.6 254.55 -41.25 262.0 -31.6 269.3 -22.1 262.3 -11.7 257.9 -5.15 252.15 0.5 244.85 7.55 234.9 4.75 227.1 2.4 220.55 -2.75 219.55 13.95 224.4 30.0 225.15 32.6 233.5 46.8 237.4 53.45 239.8 58.75 244.05 68.1 235.35 72.95 226.65 77.75 216.7 77.1 206.9 76.6 198.3 71.85 193.95 69.4 192.15 64.8 189.3 57.35 188.0 49.45 184.7 58.9 177.5 65.85 172.2 71.0 165.0 72.35 154.0 74.45 143.75 69.7 135.8 66.0 129.85 59.6 125.05 68.35 116.45 73.65 106.65 79.75 95.15 79.1 83.7 78.45 75.0 71.25 62.55 61.0 59.05 45.1 56.95 35.5 58.5 25.85 60.25 14.6 67.05 5.7 80.2 -11.6 101.85 -12.1 116.4 -12.4 126.5 -1.9 M228.0 -53.7 L225.15 -55.6 Q216.65 -61.4 207.15 -65.15 198.05 -68.7 192.25 -62.0 183.25 -51.65 187.4 -38.75 188.65 -34.85 190.85 -32.1 192.55 -30.05 194.85 -28.6 196.2 -27.75 197.8 -27.15 L200.4 -26.35 200.25 -25.15 Q197.85 -9.0 194.9 7.0 192.65 19.2 194.45 31.35 196.9 48.25 203.0 64.3 L203.75 66.3 205.85 66.8 208.0 67.35 Q221.95 70.7 235.4 65.9 234.85 60.1 232.45 54.5 228.15 44.25 222.75 34.2 216.6 22.75 214.4 9.8 212.25 -2.95 220.15 -12.9 229.55 -8.1 239.6 -5.9 247.95 -4.1 252.95 -11.05 258.7 -19.1 258.3 -28.9 L256.7 -31.05 Q253.75 -35.1 250.15 -38.45 L247.75 -40.6 245.25 -42.55 242.4 -44.5 Q235.05 -48.95 228.0 -53.7 M173.9 -2.0 L172.9 -2.75 170.7 -4.2 Q160.75 -10.15 149.5 -7.5 137.6 -4.85 131.65 5.6 138.1 14.85 138.8 26.0 139.55 38.6 134.7 50.15 L138.9 54.4 Q141.05 56.3 143.4 57.9 148.1 61.05 153.65 62.85 165.2 66.75 174.1 58.0 182.8 49.4 185.5 37.4 188.1 25.65 184.75 14.15 181.85 4.15 173.9 -2.0 M154.8 18.9 L156.25 20.05 157.15 21.05 Q159.7 24.25 159.7 28.8 159.7 33.35 157.15 36.55 154.6 39.75 151.0 39.75 149.3 39.75 147.85 39.05 146.55 38.4 145.4 37.2 L144.85 36.55 Q142.3 33.35 142.3 28.8 142.3 24.25 144.85 21.05 147.4 17.85 151.0 17.85 153.1 17.85 154.8 18.9 M150.75 23.5 Q149.8 21.9 148.4 21.9 147.75 21.9 147.25 22.25 146.55 22.6 146.0 23.5 145.45 24.4 145.25 25.6 L145.05 27.4 Q145.05 29.7 146.0 31.3 147.0 32.9 148.4 32.9 149.8 32.9 150.75 31.3 151.75 29.7 151.75 27.4 151.75 25.1 150.75 23.5 M124.95 20.2 L125.9 21.2 Q128.7 24.6 128.7 29.4 128.7 34.2 125.9 37.6 123.1 41.0 119.1 41.0 117.05 41.0 115.35 40.15 114.0 39.45 112.85 38.25 L112.3 37.6 Q109.5 34.2 109.5 29.4 109.5 24.6 112.3 21.2 115.1 17.8 119.1 17.8 121.55 17.8 123.55 19.1 L124.95 20.2 M116.2 21.6 L115.2 21.85 Q114.4 22.2 113.8 23.2 L113.3 24.3 Q112.85 25.5 112.85 27.1 112.85 29.4 113.8 31.0 114.8 32.6 116.2 32.6 117.6 32.6 118.55 31.0 119.55 29.4 119.55 27.1 119.55 24.8 118.55 23.2 117.6 21.6 116.2 21.6 M-174.65 -81.9 L-175.75 -83.05 -177.15 -82.6 -180.95 -81.3 -191.25 -77.5 -201.45 -73.45 -211.45 -69.05 Q-216.4 -66.75 -221.25 -64.25 L-230.85 -59.05 -240.3 -53.45 -249.55 -47.4 Q-252.35 -45.5 -254.9 -43.25 -256.3 -42.15 -256.6 -40.4 L-256.55 -37.15 Q-256.3 -34.1 -255.65 -31.1 -255.0 -28.15 -253.9 -25.3 L-252.55 -22.55 Q-249.4 -17.1 -244.65 -12.9 L-243.5 -11.95 -242.0 -12.4 -229.5 -16.0 -215.3 -19.35 -214.4 -19.45 -213.1 -19.35 Q-212.45 -19.2 -211.95 -18.85 L-211.4 -18.3 Q-207.15 -13.1 -204.4 -7.15 -201.65 -1.15 -200.15 5.15 L-198.25 13.7 Q-198.05 14.9 -198.0 16.15 L-198.05 18.45 -198.45 20.8 -200.85 28.05 -204.35 37.9 -207.9 47.7 Q-209.65 52.65 -211.65 57.45 -213.9 62.9 -214.4 68.85 -211.75 71.5 -208.3 73.55 -205.15 75.35 -201.7 76.35 L-198.6 77.1 -198.4 77.15 -190.6 77.7 -187.25 77.3 -184.2 76.45 -181.4 75.3 -178.8 73.85 -176.45 71.85 -174.35 69.6 -172.45 66.8 Q-169.1 61.25 -167.45 54.95 L-169.0 50.95 Q-171.3 44.9 -172.45 38.5 -174.45 27.05 -173.05 15.5 L-172.0 6.05 Q-171.7 2.5 -171.95 -1.0 -172.15 -4.45 -173.0 -7.75 -173.85 -11.1 -175.15 -14.3 L-177.3 -18.7 -178.9 -21.55 -180.8 -24.9 -183.1 -28.7 -184.45 -31.2 Q-184.75 -31.65 -184.7 -32.5 -178.3 -36.15 -172.2 -39.9 -169.5 -41.55 -166.95 -43.45 L-165.1 -45.4 Q-164.35 -46.5 -163.95 -47.7 -163.5 -49.0 -163.5 -50.35 -163.45 -53.05 -163.85 -55.65 -164.4 -59.5 -165.3 -63.25 -166.05 -66.35 -167.1 -69.35 -167.9 -71.55 -168.95 -73.6 -171.3 -78.2 -174.65 -81.9 M-135.05 -30.45 L-135.25 -30.55 -135.4 -30.55 -135.5 -30.6 -137.7 -31.1 Q-140.25 -31.25 -142.65 -30.35 -146.3 -28.85 -149.55 -26.8 -155.95 -22.7 -159.5 -15.95 -164.65 -6.25 -165.6 4.75 -166.5 15.5 -165.55 26.25 -164.8 34.9 -162.15 43.15 -160.5 48.45 -157.6 52.95 -155.85 55.75 -153.0 57.65 L-151.5 58.5 -149.2 59.35 -147.5 59.75 -145.5 59.9 -141.05 59.5 -139.05 58.7 Q-138.05 58.25 -137.15 57.6 -134.7 55.75 -132.95 53.3 L-134.15 45.9 Q-135.1 40.65 -136.45 35.4 -137.55 31.1 -137.7 26.35 -137.85 21.3 -136.9 16.2 -135.95 11.05 -133.95 6.3 L-130.05 -3.6 -126.55 -13.8 Q-125.05 -18.3 -127.25 -22.5 L-128.05 -23.9 -129.65 -26.3 -131.5 -28.25 -133.4 -29.7 -135.05 -30.45 M-7.75 -39.35 L-9.7 -40.1 Q-19.35 -43.15 -26.4 -34.7 -27.7 -33.2 -27.85 -31.8 -28.05 -30.45 -27.05 -29.25 L-26.6 -28.75 -25.85 -28.2 -24.85 -27.65 -24.05 -27.3 -23.95 -27.25 -21.5 -26.35 -19.55 -25.4 -17.7 -23.85 -17.1 -23.15 Q-15.65 -21.15 -15.9 -18.45 -16.55 -11.55 -21.25 -6.6 -23.0 -4.75 -25.15 -3.45 -26.75 -2.45 -28.6 -1.8 L-36.1 1.0 -40.95 2.75 -37.9 2.55 -35.45 2.3 Q-31.05 1.75 -26.85 0.5 -22.05 -0.9 -17.65 -3.3 -12.55 -6.2 -8.75 -10.75 -6.5 -13.4 -4.6 -16.3 -1.5 -21.05 -0.4 -26.45 L-0.1 -28.75 Q-0.45 -31.8 -1.75 -34.05 -3.1 -36.45 -5.45 -38.05 L-6.25 -38.6 -7.75 -39.35" fill="#000000" fill-rule="evenodd" stroke="none"/>
    <path d="M79.3 -62.55 L80.55 -61.8 80.95 -61.1 Q87.6 -48.8 76.4 -42.1 69.6 -38.1 62.15 -35.3 50.4 -30.9 43.7 -20.55 40.45 -15.5 39.8 -9.3 41.55 -6.75 43.65 -4.95 L43.6 -4.8 Q41.5 -6.2 39.75 -8.25 L38.0 -10.5 Q38.65 -16.7 41.9 -21.75 48.6 -32.1 60.35 -36.5 67.8 -39.3 74.6 -43.3 85.8 -50.0 79.15 -62.3 L79.3 -62.55 M57.8 1.75 L49.2 22.65 Q36.95 28.6 38.75 41.0 40.5 53.35 31.45 65.3 L30.0 66.5 Q17.85 72.25 6.7 65.35 L6.7 65.3 6.75 65.2 Q17.05 70.55 28.2 65.3 L29.65 64.1 Q38.7 52.15 36.95 39.8 35.15 27.4 47.4 21.45 L55.6 1.6 57.8 1.75 M-35.7 -7.35 L-35.35 -5.95 -35.1 -4.3 Q-41.05 -0.8 -47.85 0.65 L-51.25 1.35 -53.8 0.0 -51.25 -0.5 -49.65 -0.85 Q-42.85 -2.3 -36.9 -5.8 L-37.15 -7.45 -37.65 -9.35 Q-36.5 -8.5 -35.7 -7.35 M-32.6 6.5 L-30.75 6.4 -30.8 8.6 -30.8 8.9 Q-31.0 19.6 -28.0 29.9 -24.8 40.85 -25.2 52.25 -25.3 54.55 -25.85 56.85 -26.45 59.2 -27.55 61.35 -29.45 65.0 -32.85 67.45 L-35.65 69.05 Q-39.25 70.7 -43.25 71.25 -52.0 72.2 -60.05 68.85 L-64.95 66.15 -64.85 65.85 -61.85 67.35 Q-53.8 70.7 -45.05 69.75 -41.05 69.2 -37.45 67.55 -35.95 66.9 -34.65 65.95 -31.25 63.5 -29.35 59.85 -28.25 57.7 -27.65 55.35 -27.1 53.05 -27.0 50.75 -26.6 39.35 -29.8 28.4 -32.6 18.75 -32.65 8.7 L-32.6 6.5 M-61.15 16.8 Q-65.0 15.3 -68.1 18.75 -69.65 20.5 -70.4 22.8 L-71.3 25.75 Q-72.65 30.65 -77.35 32.6 -81.05 32.25 -83.5 29.65 -81.6 30.85 -79.15 31.1 -74.45 29.15 -73.1 24.25 L-72.2 21.3 Q-71.45 19.0 -69.9 17.25 -66.35 13.25 -61.75 15.9 L-61.55 16.0 -61.15 16.8 M-91.45 18.55 Q-93.75 19.75 -94.45 22.45 -95.35 25.65 -94.95 28.7 -94.35 33.2 -92.1 37.05 L-91.55 38.0 -88.65 41.65 Q-86.3 44.05 -84.9 46.9 L-84.45 47.95 Q-82.9 51.7 -83.0 56.1 -83.1 60.15 -85.05 63.5 -86.3 65.7 -88.6 67.15 -95.3 71.05 -103.1 71.2 -112.55 71.95 -121.1 67.75 -122.8 67.0 -124.3 65.85 L-125.5 64.8 -122.9 66.25 Q-114.35 70.45 -104.9 69.7 -97.1 69.55 -90.4 65.65 -88.1 64.2 -86.85 62.0 -84.9 58.65 -84.8 54.6 -84.65 48.75 -87.45 44.05 L-88.05 43.1 -89.95 40.7 -90.45 40.15 Q-93.5 36.95 -95.1 33.15 -96.35 30.35 -96.75 27.2 -97.15 24.15 -96.25 20.95 -95.4 17.75 -92.4 16.65 L-91.45 18.55 M205.1 64.85 L205.6 64.95 Q219.55 68.3 233.0 63.5 232.45 57.7 230.05 52.1 225.75 41.85 220.35 31.8 214.2 20.35 212.0 7.4 209.85 -5.35 217.75 -15.3 227.15 -10.5 237.2 -8.3 245.55 -6.5 250.55 -13.45 256.3 -21.5 255.9 -31.3 L254.3 -33.45 250.15 -38.45 Q253.75 -35.1 256.7 -31.05 L258.3 -28.9 Q258.7 -19.1 252.95 -11.05 247.95 -4.1 239.6 -5.9 229.55 -8.1 220.15 -12.9 212.25 -2.95 214.4 9.8 216.6 22.75 222.75 34.2 228.15 44.25 232.45 54.5 234.85 60.1 235.4 65.9 221.95 70.7 208.0 67.35 L205.85 66.8 205.1 64.85 M-176.1 -81.4 L-174.65 -81.9 Q-171.3 -78.2 -168.95 -73.6 -167.9 -71.55 -167.1 -69.35 -166.05 -66.35 -165.3 -63.25 -164.4 -59.5 -163.85 -55.65 -163.45 -53.05 -163.5 -50.35 -163.5 -49.0 -163.95 -47.7 -164.35 -46.5 -165.1 -45.4 L-166.95 -43.45 Q-169.5 -41.55 -172.2 -39.9 -178.3 -36.15 -184.7 -32.5 -184.75 -31.65 -184.45 -31.2 L-183.1 -28.7 -180.8 -24.9 -178.9 -21.55 -177.3 -18.7 -175.15 -14.3 Q-173.85 -11.1 -173.0 -7.75 -172.15 -4.45 -171.95 -1.0 -171.7 2.5 -172.0 6.05 L-173.05 15.5 Q-174.45 27.05 -172.45 38.5 -171.3 44.9 -169.0 50.95 L-167.45 54.95 Q-169.1 61.25 -172.45 66.8 L-174.35 69.6 -176.45 71.85 -178.8 73.85 -181.4 75.3 -184.2 76.45 -187.25 77.3 -190.6 77.7 -198.4 77.15 -198.6 77.1 -200.0 76.65 -193.0 77.1 -189.65 76.7 -186.6 75.85 -183.8 74.7 -181.2 73.25 -178.85 71.25 -176.75 69.0 -174.85 66.2 Q-171.5 60.65 -169.85 54.35 L-171.4 50.35 Q-173.7 44.3 -174.85 37.9 -176.85 26.45 -175.45 14.9 L-174.4 5.45 Q-174.1 1.9 -174.35 -1.6 -174.55 -5.05 -175.4 -8.35 -176.25 -11.7 -177.55 -14.9 L-179.7 -19.3 -181.3 -22.15 -183.2 -25.5 -185.5 -29.3 -186.85 -31.8 Q-187.15 -32.25 -187.1 -33.1 -180.7 -36.75 -174.6 -40.5 -171.9 -42.15 -169.35 -44.05 L-167.5 -46.0 Q-166.75 -47.1 -166.35 -48.3 -165.9 -49.6 -165.9 -50.95 -165.85 -53.65 -166.25 -56.25 -166.8 -60.1 -167.7 -63.85 -168.45 -66.95 -169.5 -69.95 L-171.35 -74.2 Q-173.35 -78.15 -176.1 -81.4 M-149.0 59.15 L-147.0 59.3 -142.55 58.9 -140.55 58.1 Q-139.55 57.65 -138.65 57.0 -136.2 55.15 -134.45 52.7 L-135.65 45.3 Q-136.6 40.05 -137.95 34.8 -139.05 30.5 -139.2 25.75 -139.35 20.7 -138.4 15.6 -137.45 10.45 -135.45 5.7 L-131.55 -4.2 -128.05 -14.4 Q-126.55 -18.9 -128.75 -23.1 L-129.55 -24.5 -131.15 -26.9 -133.0 -28.85 -134.9 -30.3 -135.05 -30.45 -133.4 -29.7 -131.5 -28.25 -129.65 -26.3 -128.05 -23.9 -127.25 -22.5 Q-125.05 -18.3 -126.55 -13.8 L-130.05 -3.6 -133.95 6.3 Q-135.95 11.05 -136.9 16.2 -137.85 21.3 -137.7 26.35 -137.55 31.1 -136.45 35.4 -135.1 40.65 -134.15 45.9 L-132.95 53.3 Q-134.7 55.75 -137.15 57.6 -138.05 58.25 -139.05 58.7 L-141.05 59.5 -145.5 59.9 -147.5 59.75 -149.0 59.15" fill="#b86f01" fill-rule="evenodd" stroke="none"/>
    <path d="M17.15 -19.05 L17.75 -20.4 Q21.35 -29.6 17.85 -39.5 43.6 -42.7 63.45 -59.45 71.15 -66.7 78.9 -62.75 L79.3 -62.55 79.15 -62.3 Q85.8 -50.0 74.6 -43.3 67.8 -39.3 60.35 -36.5 48.6 -32.1 41.9 -21.75 38.65 -16.7 38.0 -10.5 L39.75 -8.25 Q41.5 -6.2 43.6 -4.8 L43.65 -4.95 44.05 -4.5 Q48.8 0.65 55.6 1.6 L47.4 21.45 Q35.15 27.4 36.95 39.8 38.7 52.15 29.65 64.1 L28.2 65.3 Q17.05 70.55 6.75 65.2 L6.7 65.3 6.7 65.15 Q4.55 51.45 12.05 39.8 21.7 25.0 25.55 8.05 28.55 -5.3 22.7 -16.6 L22.0 -17.1 21.4 -17.1 20.6 -18.7 19.9 -19.2 19.15 -19.2 17.15 -19.05 M-80.85 -7.35 L-74.85 6.0 -74.7 6.05 -73.65 8.4 Q-68.85 10.2 -64.9 7.2 L-61.45 4.05 Q-58.05 0.45 -55.35 -3.65 -51.75 -9.25 -45.5 -10.95 L-42.6 -11.5 Q-40.2 -11.1 -38.1 -9.65 L-37.65 -9.35 -37.15 -7.45 -36.9 -5.8 Q-42.85 -2.3 -49.65 -0.85 L-51.25 -0.5 -53.8 0.0 -51.25 1.35 -52.0 1.5 -48.75 3.2 -50.8 3.6 -48.25 4.95 Q-41.25 8.3 -33.3 8.75 L-32.65 8.7 Q-32.6 18.75 -29.8 28.4 -26.6 39.35 -27.0 50.75 -27.1 53.05 -27.65 55.35 -28.25 57.7 -29.35 59.85 -31.25 63.5 -34.65 65.95 -35.95 66.9 -37.45 67.55 -41.05 69.2 -45.05 69.75 -53.8 70.7 -61.85 67.35 L-64.85 65.85 Q-60.95 52.05 -57.85 38.25 L-56.6 32.15 -56.3 29.55 -56.3 28.75 -56.3 27.85 -56.7 25.15 Q-57.3 22.45 -58.55 19.9 L-58.7 19.95 -58.75 19.8 -58.9 19.4 -59.75 17.5 -61.15 16.8 -61.55 16.0 -61.75 15.9 Q-66.35 13.25 -69.9 17.25 -71.45 19.0 -72.2 21.3 L-73.1 24.25 Q-74.45 29.15 -79.15 31.1 -81.6 30.85 -83.5 29.65 L-84.6 28.3 -87.65 23.6 -89.5 20.3 -90.6 18.15 -91.45 18.55 -92.4 16.65 Q-95.4 17.75 -96.25 20.95 -97.15 24.15 -96.75 27.2 -96.35 30.35 -95.1 33.15 -93.5 36.95 -90.45 40.15 L-89.95 40.7 -88.05 43.1 -87.45 44.05 Q-84.65 48.75 -84.8 54.6 -84.9 58.65 -86.85 62.0 -88.1 64.2 -90.4 65.65 -97.1 69.55 -104.9 69.7 -114.35 70.45 -122.9 66.25 L-125.5 64.8 -126.65 63.5 Q-125.3 61.9 -124.8 60.0 -122.25 50.5 -121.2 40.75 -120.6 35.5 -119.35 30.4 -117.8 24.25 -115.1 18.7 -108.65 5.55 -99.95 -6.15 -97.55 -9.35 -94.25 -11.7 -91.25 -13.8 -87.7 -13.0 -86.45 -12.65 -85.3 -11.9 L-83.2 -10.1 -82.95 -9.85 -80.85 -7.35 M194.85 -28.6 L193.1 -30.6 Q191.2 -33.2 190.1 -36.65 185.95 -49.55 194.95 -59.9 200.75 -66.6 209.85 -63.05 219.35 -59.3 227.85 -53.5 L228.0 -53.7 Q235.05 -48.95 242.4 -44.5 L245.25 -42.55 247.75 -40.6 250.15 -38.45 254.3 -33.45 255.9 -31.3 Q256.3 -21.5 250.55 -13.45 245.55 -6.5 237.2 -8.3 227.15 -10.5 217.75 -15.3 209.85 -5.35 212.0 7.4 214.2 20.35 220.35 31.8 225.75 41.85 230.05 52.1 232.45 57.7 233.0 63.5 219.55 68.3 205.6 64.95 L205.1 64.85 Q199.5 49.5 197.15 33.45 195.35 21.3 197.6 9.1 200.65 -7.5 203.1 -24.25 L200.25 -25.15 200.4 -26.35 197.8 -27.15 Q196.2 -27.75 194.85 -28.6 M-242.0 -12.4 L-243.1 -13.4 Q-247.05 -17.2 -249.85 -21.95 L-251.2 -24.7 Q-252.3 -27.55 -252.95 -30.5 -253.6 -33.5 -253.85 -36.55 L-253.9 -39.8 Q-253.6 -41.55 -252.2 -42.65 L-246.85 -46.8 -237.6 -52.85 -228.15 -58.45 -218.55 -63.65 -208.75 -68.45 -198.75 -72.85 -188.55 -76.9 -178.25 -80.7 -176.1 -81.4 Q-173.35 -78.15 -171.35 -74.2 L-169.5 -69.95 Q-168.45 -66.95 -167.7 -63.85 -166.8 -60.1 -166.25 -56.25 -165.85 -53.65 -165.9 -50.95 -165.9 -49.6 -166.35 -48.3 -166.75 -47.1 -167.5 -46.0 L-169.35 -44.05 Q-171.9 -42.15 -174.6 -40.5 -180.7 -36.75 -187.1 -33.1 -187.15 -32.25 -186.85 -31.8 L-185.5 -29.3 -183.2 -25.5 -181.3 -22.15 -179.7 -19.3 -177.55 -14.9 Q-176.25 -11.7 -175.4 -8.35 -174.55 -5.05 -174.35 -1.6 -174.1 1.9 -174.4 5.45 L-175.45 14.9 Q-176.85 26.45 -174.85 37.9 -173.7 44.3 -171.4 50.35 L-169.85 54.35 Q-171.5 60.65 -174.85 66.2 L-176.75 69.0 -178.85 71.25 -181.2 73.25 -183.8 74.7 -186.6 75.85 -189.65 76.7 -193.0 77.1 -200.0 76.65 Q-202.9 75.7 -205.6 74.15 -209.05 72.1 -211.7 69.45 -211.2 63.5 -208.95 58.05 L-205.2 48.3 -201.65 38.5 -198.15 28.65 -195.75 21.4 -195.35 19.05 Q-195.25 17.9 -195.3 16.75 -195.35 15.5 -195.55 14.3 L-197.45 5.75 Q-198.95 -0.55 -201.7 -6.55 -204.45 -12.5 -208.7 -17.7 -209.35 -18.5 -210.4 -18.75 L-211.95 -18.85 Q-212.45 -19.2 -213.1 -19.35 L-214.4 -19.45 -215.3 -19.35 -229.5 -16.0 -242.0 -12.4 M-135.5 -30.6 L-135.4 -30.55 -135.25 -30.55 -135.05 -30.45 -134.9 -30.3 -133.0 -28.85 -131.15 -26.9 -129.55 -24.5 -128.75 -23.1 Q-126.55 -18.9 -128.05 -14.4 L-131.55 -4.2 -135.45 5.7 Q-137.45 10.45 -138.4 15.6 -139.35 20.7 -139.2 25.75 -139.05 30.5 -137.95 34.8 -136.6 40.05 -135.65 45.3 L-134.45 52.7 Q-136.2 55.15 -138.65 57.0 -139.55 57.65 -140.55 58.1 L-142.55 58.9 -147.0 59.3 -149.0 59.15 -150.6 58.25 Q-153.45 56.35 -155.2 53.55 -158.1 49.05 -159.75 43.75 -162.4 35.5 -163.15 26.85 -164.1 16.1 -163.2 5.35 -162.25 -5.65 -157.1 -15.35 -153.55 -22.1 -147.15 -26.2 -143.9 -28.25 -140.25 -29.75 -137.95 -30.6 -135.5 -30.5 L-135.5 -30.6 M-198.4 77.15 L-198.6 77.1 -198.4 77.15" fill="#ff9801" fill-rule="evenodd" stroke="none"/>
    <path d="M17.15 -19.05 Q15.1 -18.75 13.2 -17.7 L14.55 -20.1 Q19.75 -30.35 15.75 -41.6 41.5 -44.8 61.35 -61.55 69.35 -69.1 77.4 -64.5 L78.8 -63.65 80.55 -61.8 79.3 -62.55 78.9 -62.75 Q71.15 -66.7 63.45 -59.45 43.6 -42.7 17.85 -39.5 21.35 -29.6 17.75 -20.4 L17.15 -19.05 M43.65 -4.95 L44.75 -4.1 Q49.65 -0.35 56.4 -0.35 L58.7 -0.45 57.8 1.75 55.6 1.6 Q48.8 0.65 44.05 -4.5 L43.65 -4.95 M6.7 65.35 L5.5 64.55 5.15 64.3 Q4.7 63.85 4.6 63.2 2.4 49.4 9.95 37.7 19.6 22.9 23.45 5.95 26.25 -6.45 21.4 -17.1 L22.0 -17.1 22.7 -16.6 Q28.55 -5.3 25.55 8.05 21.7 25.0 12.05 39.8 4.55 51.45 6.7 65.15 L6.7 65.3 6.7 65.35 M-81.75 -9.4 L-80.85 -7.35 -82.95 -9.85 -83.2 -10.1 -85.3 -11.9 Q-86.45 -12.65 -87.7 -13.0 -91.25 -13.8 -94.25 -11.7 -97.55 -9.35 -99.95 -6.15 -108.65 5.55 -115.1 18.7 -117.8 24.25 -119.35 30.4 -120.6 35.5 -121.2 40.75 -122.25 50.5 -124.8 60.0 -125.3 61.9 -126.65 63.5 L-126.75 63.35 -128.05 61.35 Q-126.55 59.65 -126.0 57.6 -123.45 48.1 -122.4 38.35 -121.8 33.1 -120.55 28.0 -119.0 21.85 -116.3 16.3 -109.85 3.15 -101.15 -8.55 -98.75 -11.75 -95.45 -14.1 -92.45 -16.2 -88.9 -15.4 -87.65 -15.05 -86.5 -14.3 L-86.4 -14.2 Q-85.15 -13.4 -84.15 -12.25 L-81.75 -9.4 M-74.7 6.05 L-74.55 6.1 Q-69.9 7.7 -66.1 4.8 -64.25 3.35 -62.65 1.65 -59.25 -1.95 -56.55 -6.05 -52.95 -11.65 -46.7 -13.35 L-43.8 -13.9 Q-41.45 -13.5 -39.35 -12.1 L-39.3 -12.05 Q-36.9 -10.5 -35.9 -7.95 L-35.7 -7.35 Q-36.5 -8.5 -37.65 -9.35 L-38.1 -9.65 Q-40.2 -11.1 -42.6 -11.5 L-45.5 -10.95 Q-51.75 -9.25 -55.35 -3.65 -58.05 0.45 -61.45 4.05 L-64.9 7.2 Q-68.85 10.2 -73.65 8.4 L-74.7 6.05 M-48.75 3.2 L-48.25 3.4 Q-41.8 6.2 -34.5 6.65 L-32.6 6.5 -32.65 8.7 -33.3 8.75 Q-41.25 8.3 -48.25 4.95 L-50.8 3.6 -48.75 3.2 M-64.95 66.15 L-65.05 66.1 -66.55 65.05 -66.5 64.85 Q-62.35 50.35 -59.05 35.85 L-57.8 29.75 Q-57.15 26.25 -57.9 22.75 L-58.7 19.95 -58.55 19.9 Q-57.3 22.45 -56.7 25.15 L-56.3 27.85 -56.3 28.75 -56.3 29.55 -56.6 32.15 -57.85 38.25 Q-60.95 52.05 -64.85 65.85 L-64.95 66.15 M228.0 -53.7 L227.85 -53.5 Q219.35 -59.3 209.85 -63.05 200.75 -66.6 194.95 -59.9 185.95 -49.55 190.1 -36.65 191.2 -33.2 193.1 -30.6 L194.85 -28.6 Q192.55 -30.05 190.85 -32.1 188.65 -34.85 187.4 -38.75 183.25 -51.65 192.25 -62.0 198.05 -68.7 207.15 -65.15 216.65 -61.4 225.15 -55.6 L228.0 -53.7 M200.25 -25.15 L203.1 -24.25 Q200.65 -7.5 197.6 9.1 195.35 21.3 197.15 33.45 199.5 49.5 205.1 64.85 L205.85 66.8 203.75 66.3 203.0 64.3 Q196.9 48.25 194.45 31.35 192.65 19.2 194.9 7.0 197.85 -9.0 200.25 -25.15 M-176.1 -81.4 L-178.25 -80.7 -188.55 -76.9 -198.75 -72.85 -208.75 -68.45 -218.55 -63.65 -228.15 -58.45 -237.6 -52.85 -246.85 -46.8 -252.2 -42.65 Q-253.6 -41.55 -253.9 -39.8 L-253.85 -36.55 Q-253.6 -33.5 -252.95 -30.5 -252.3 -27.55 -251.2 -24.7 L-249.85 -21.95 Q-247.05 -17.2 -243.1 -13.4 L-242.0 -12.4 -243.5 -11.95 -244.65 -12.9 Q-249.4 -17.1 -252.55 -22.55 L-253.9 -25.3 Q-255.0 -28.15 -255.65 -31.1 -256.3 -34.1 -256.55 -37.15 L-256.6 -40.4 Q-256.3 -42.15 -254.9 -43.25 -252.35 -45.5 -249.55 -47.4 L-240.3 -53.45 -230.85 -59.05 -221.25 -64.25 Q-216.4 -66.75 -211.45 -69.05 L-201.45 -73.45 -191.25 -77.5 -180.95 -81.3 -177.15 -82.6 -175.75 -83.05 -174.65 -81.9 -176.1 -81.4 M-211.95 -18.85 L-210.4 -18.75 Q-209.35 -18.5 -208.7 -17.7 -204.45 -12.5 -201.7 -6.55 -198.95 -0.55 -197.45 5.75 L-195.55 14.3 Q-195.35 15.5 -195.3 16.75 -195.25 17.9 -195.35 19.05 L-195.75 21.4 -198.15 28.65 -201.65 38.5 -205.2 48.3 -208.95 58.05 Q-211.2 63.5 -211.7 69.45 -209.05 72.1 -205.6 74.15 -202.9 75.7 -200.0 76.65 L-198.6 77.1 -201.7 76.35 Q-205.15 75.35 -208.3 73.55 -211.75 71.5 -214.4 68.85 -213.9 62.9 -211.65 57.45 -209.65 52.65 -207.9 47.7 L-204.35 37.9 -200.85 28.05 -198.45 20.8 -198.05 18.45 -198.0 16.15 Q-198.05 14.9 -198.25 13.7 L-200.15 5.15 Q-201.65 -1.15 -204.4 -7.15 -207.15 -13.1 -211.4 -18.3 L-211.95 -18.85 M-135.5 -30.6 L-135.5 -30.5 Q-137.95 -30.6 -140.25 -29.75 -143.9 -28.25 -147.15 -26.2 -153.55 -22.1 -157.1 -15.35 -162.25 -5.65 -163.2 5.35 -164.1 16.1 -163.15 26.85 -162.4 35.5 -159.75 43.75 -158.1 49.05 -155.2 53.55 -153.45 56.35 -150.6 58.25 L-149.0 59.15 -147.5 59.75 -149.2 59.35 -151.5 58.5 -153.0 57.65 Q-155.85 55.75 -157.6 52.95 -160.5 48.45 -162.15 43.15 -164.8 34.9 -165.55 26.25 -166.5 15.5 -165.6 4.75 -164.65 -6.25 -159.5 -15.95 -155.95 -22.7 -149.55 -26.8 -146.3 -28.85 -142.65 -30.35 -140.25 -31.25 -137.7 -31.1 L-135.5 -30.6" fill="#ffe7c1" fill-rule="evenodd" stroke="none"/>
    <path d="M81.4 65.9 L79.8 64.5 Q77.05 61.95 74.9 58.6 67.6 47.25 67.85 33.7 68.1 21.9 73.1 11.15 78.7 0.65 91.25 -4.4 103.8 -9.45 119.0 -0.35 L119.1 -0.45 120.7 0.7 120.75 0.75 Q130.15 9.15 129.5 22.25 L129.35 24.75 128.0 22.7 Q126.6 21.0 124.95 20.2 L123.55 19.1 Q122.4 17.85 121.05 17.2 119.35 16.3 117.3 16.3 113.85 16.3 111.3 18.85 L110.5 19.7 109.4 21.3 Q107.7 24.15 107.7 27.9 107.7 32.7 110.5 36.1 L111.45 37.15 112.2 37.75 112.3 37.6 112.85 38.25 Q114.0 39.45 115.35 40.15 117.85 42.5 121.2 42.5 124.25 42.5 126.65 40.5 L128.0 39.1 Q129.2 37.65 129.9 35.95 128.15 44.85 124.55 51.95 120.2 60.55 112.3 65.75 102.35 72.25 90.7 69.75 85.55 68.55 81.4 65.9 M172.9 -2.75 L173.9 -2.0 Q180.4 3.85 182.95 12.65 186.3 24.15 183.7 35.9 181.0 47.9 172.3 56.5 163.4 65.25 151.85 61.35 146.15 59.5 141.35 56.2 138.95 54.15 136.8 51.65 140.95 41.75 141.0 31.1 141.65 33.25 143.05 35.05 L143.95 36.05 144.75 36.75 144.85 36.55 145.4 37.2 Q146.55 38.4 147.85 39.05 150.1 41.25 153.1 41.25 156.7 41.25 159.25 38.05 161.8 34.85 161.8 30.3 161.8 25.75 159.25 22.55 157.9 20.85 156.25 20.05 L154.8 18.9 Q153.65 17.7 152.35 17.05 150.9 16.35 149.2 16.35 145.8 16.35 143.35 19.25 L143.05 19.55 Q141.95 20.95 141.35 22.6 140.9 23.75 140.7 25.05 139.5 15.3 133.75 7.1 139.7 -3.35 151.6 -6.0 162.85 -8.65 172.8 -2.7 L172.9 -2.75" fill="#ebebeb" fill-rule="evenodd" stroke="none"/>
    <path d="M81.4 65.9 L77.85 63.15 Q75.0 60.55 72.8 57.1 65.5 45.75 65.75 32.2 66.0 20.4 71.0 9.65 76.6 -0.85 89.15 -5.9 101.7 -10.95 116.9 -1.85 L119.1 -0.45 119.0 -0.35 Q103.8 -9.45 91.25 -4.4 78.7 0.65 73.1 11.15 68.1 21.9 67.85 33.7 67.6 47.25 74.9 58.6 77.05 61.95 79.8 64.5 L81.4 65.9 M130.8 30.1 L129.9 35.95 Q129.2 37.65 128.0 39.1 L126.65 40.5 Q124.25 42.5 121.2 42.5 117.85 42.5 115.35 40.15 117.05 41.0 119.1 41.0 123.1 41.0 125.9 37.6 128.7 34.2 128.7 29.4 128.7 24.6 125.9 21.2 L124.95 20.2 Q126.6 21.0 128.0 22.7 L129.35 24.75 Q130.65 27.1 130.8 30.1 M172.9 -2.75 L172.8 -2.7 Q162.85 -8.65 151.6 -6.0 139.7 -3.35 133.75 7.1 139.5 15.3 140.7 25.05 L140.9 27.5 141.0 31.1 Q140.95 41.75 136.8 51.65 138.95 54.15 141.35 56.2 L143.4 57.9 Q141.05 56.3 138.9 54.4 L134.7 50.15 Q139.55 38.6 138.8 26.0 138.1 14.85 131.65 5.6 137.6 -4.85 149.5 -7.5 160.75 -10.15 170.7 -4.2 L172.9 -2.75 M156.25 20.05 Q157.9 20.85 159.25 22.55 161.8 25.75 161.8 30.3 161.8 34.85 159.25 38.05 156.7 41.25 153.1 41.25 150.1 41.25 147.85 39.05 149.3 39.75 151.0 39.75 154.6 39.75 157.15 36.55 159.7 33.35 159.7 28.8 159.7 24.25 157.15 21.05 L156.25 20.05 M150.75 23.5 Q151.75 25.1 151.75 27.4 151.75 29.7 150.75 31.3 149.8 32.9 148.4 32.9 147.0 32.9 146.0 31.3 145.05 29.7 145.05 27.4 L145.25 25.6 Q145.45 24.4 146.0 23.5 146.55 22.6 147.25 22.25 147.75 21.9 148.4 21.9 149.8 21.9 150.75 23.5 M116.2 21.6 Q117.6 21.6 118.55 23.2 119.55 24.8 119.55 27.1 119.55 29.4 118.55 31.0 117.6 32.6 116.2 32.6 114.8 32.6 113.8 31.0 112.85 29.4 112.85 27.1 112.85 25.5 113.3 24.3 L113.8 23.2 Q114.4 22.2 115.2 21.85 L116.2 21.6" fill="#ffffff" fill-rule="evenodd" stroke="none"/>
    <path d="M120.75 0.75 Q132.0 9.45 131.3 23.75 L130.8 30.1 Q130.65 27.1 129.35 24.75 L129.5 22.25 Q130.15 9.15 120.75 0.75 M140.7 25.05 Q140.9 23.75 141.35 22.6 141.95 20.95 143.05 19.55 L143.35 19.25 Q145.8 16.35 149.2 16.35 150.9 16.35 152.35 17.05 153.65 17.7 154.8 18.9 153.1 17.85 151.0 17.85 147.4 17.85 144.85 21.05 142.3 24.25 142.3 28.8 142.3 33.35 144.85 36.55 L144.75 36.75 143.95 36.05 143.05 35.05 Q141.65 33.25 141.0 31.1 L140.9 27.5 140.7 25.05 M141.35 56.2 Q146.15 59.5 151.85 61.35 163.4 65.25 172.3 56.5 181.0 47.9 183.7 35.9 186.3 24.15 182.95 12.65 180.4 3.85 173.9 -2.0 181.85 4.15 184.75 14.15 188.1 25.65 185.5 37.4 182.8 49.4 174.1 58.0 165.2 66.75 153.65 62.85 148.1 61.05 143.4 57.9 L141.35 56.2 M112.3 37.6 L112.2 37.75 111.45 37.15 110.5 36.1 Q107.7 32.7 107.7 27.9 107.7 24.15 109.4 21.3 L110.5 19.7 111.3 18.85 Q113.85 16.3 117.3 16.3 119.35 16.3 121.05 17.2 122.4 17.85 123.55 19.1 121.55 17.8 119.1 17.8 115.1 17.8 112.3 21.2 109.5 24.6 109.5 29.4 109.5 34.2 112.3 37.6" fill="#cccccc" fill-rule="evenodd" stroke="none"/>
    <path d="M-24.85 -27.65 L-24.8 -27.85 -25.3 -28.35 Q-26.15 -29.45 -26.1 -30.7 -26.0 -32.15 -24.6 -33.8 -17.55 -42.25 -7.9 -39.2 L-7.75 -39.35 -6.25 -38.6 -5.45 -38.05 Q-3.0 -35.75 -2.05 -32.25 -1.75 -31.15 -1.6 -29.95 L-1.9 -27.65 Q-3.0 -22.25 -6.1 -17.5 -8.0 -14.6 -10.25 -11.95 -14.05 -7.4 -19.15 -4.5 L-19.25 -4.45 Q-21.45 -3.25 -23.75 -2.3 -21.4 -3.65 -19.45 -5.7 L-18.95 -6.25 Q-14.7 -11.05 -14.1 -17.55 -13.8 -20.75 -15.9 -22.95 L-17.35 -24.2 -19.55 -25.4 -21.5 -26.35 -23.95 -27.25 -24.05 -27.3 -24.85 -27.65" fill="#128bbe" fill-rule="evenodd" stroke="none"/>
    <path d="M-7.75 -39.35 L-7.9 -39.2 Q-17.55 -42.25 -24.6 -33.8 -26.0 -32.15 -26.1 -30.7 -26.15 -29.45 -25.3 -28.35 L-24.8 -27.85 -24.85 -27.65 -25.85 -28.2 -26.6 -28.75 -27.05 -29.25 Q-28.05 -30.45 -27.85 -31.8 -27.7 -33.2 -26.4 -34.7 -19.35 -43.15 -9.7 -40.1 L-7.75 -39.35 M-19.55 -25.4 L-17.35 -24.2 -15.9 -22.95 Q-13.8 -20.75 -14.1 -17.55 -14.7 -11.05 -18.95 -6.25 L-19.45 -5.7 Q-21.4 -3.65 -23.75 -2.3 -25.2 -1.5 -26.8 -0.9 L-35.45 2.3 -37.9 2.55 -40.95 2.75 -36.1 1.0 -28.6 -1.8 Q-26.75 -2.45 -25.15 -3.45 -23.0 -4.75 -21.25 -6.6 -16.55 -11.55 -15.9 -18.45 -15.65 -21.15 -17.1 -23.15 L-17.7 -23.85 -19.55 -25.4" fill="#a4def7" fill-rule="evenodd" stroke="none"/>
    <path d="M-23.75 -2.3 Q-21.45 -3.25 -19.25 -4.45 L-19.15 -4.5 Q-14.05 -7.4 -10.25 -11.95 -8.0 -14.6 -6.1 -17.5 -3.0 -22.25 -1.9 -27.65 L-1.6 -29.95 Q-1.75 -31.15 -2.05 -32.25 -3.0 -35.75 -5.45 -38.05 -3.1 -36.45 -1.75 -34.05 -0.45 -31.8 -0.1 -28.75 L-0.4 -26.45 Q-1.5 -21.05 -4.6 -16.3 -6.5 -13.4 -8.75 -10.75 -12.55 -6.2 -17.65 -3.3 -22.05 -0.9 -26.85 0.5 -31.05 1.75 -35.45 2.3 L-26.8 -0.9 Q-25.2 -1.5 -23.75 -2.3" fill="#0c5a7c" fill-rule="evenodd" stroke="none"/>
  </g>
</svg>
