<?xml version="1.0" encoding="UTF-8" standalone="no"?>
<svg xmlns:xlink="http://www.w3.org/1999/xlink" height="444.7px" width="425.55px" xmlns="http://www.w3.org/2000/svg">
  <g transform="matrix(1.0, 0.0, 0.0, 1.0, 210.3, 224.15)">
    <path d="M191.3 -111.3 Q222.8 -60.5 212.9 -1.6 203.3 55.6 178.1 107.85 152.4 161.0 100.4 190.5 48.3 220.1 -11.55 220.55 -70.65 220.95 -119.7 188.2 -167.8 156.15 -191.7 103.35 -216.55 48.45 -208.2 -11.65 -200.45 -67.5 -172.45 -116.5 -142.6 -168.8 -90.85 -199.4 -62.25 -216.35 -27.5 -222.25 35.55 -231.3 89.05 -197.4 131.0 -170.85 168.55 -138.05 181.9 -126.45 191.3 -111.3 M104.75 -167.85 Q54.5 -198.4 -5.8 -200.2 -39.3 -202.1 -69.3 -190.15 -123.85 -168.55 -154.35 -117.8 -184.85 -67.2 -187.95 -8.1 -191.0 49.4 -165.4 101.35 -138.15 156.6 -82.35 182.85 -26.75 208.85 31.85 191.65 87.85 175.25 126.2 131.25 165.6 86.0 178.85 27.45 190.35 -23.45 181.5 -74.75 141.35 -119.9 104.75 -167.85" fill="#000000" fill-rule="evenodd" stroke="none"/>
    <path d="M-168.8 -96.2 L-168.35 -99.55 -168.4 -98.8 -163.05 -111.25 Q-154.95 -128.05 -143.2 -142.6 -133.9 -154.15 -121.75 -163.2 L-118.65 -165.9 -118.5 -166.05 Q-110.3 -176.3 -99.3 -184.2 -94.15 -188.0 -88.55 -191.15 -71.6 -201.25 -52.9 -207.85 L-45.35 -210.4 -39.65 -209.35 -35.4 -210.15 Q-14.65 -216.4 6.95 -216.3 21.5 -216.25 35.6 -212.25 41.0 -210.7 46.4 -208.6 L59.6 -203.35 64.55 -201.35 67.85 -199.9 65.7 -200.7 Q60.55 -202.55 55.15 -203.65 L52.05 -201.8 50.2 -188.9 Q64.1 -193.55 73.35 -187.55 79.15 -183.75 83.15 -175.65 90.8 -160.15 97.7 -144.45 L102.75 -132.75 128.45 -155.5 129.4 -156.8 Q116.35 -174.1 95.15 -185.0 87.65 -188.9 80.6 -193.4 L79.95 -193.8 74.3 -197.0 Q101.8 -184.2 126.1 -165.6 132.0 -161.05 134.95 -154.2 137.8 -147.5 144.5 -150.4 L149.05 -146.75 Q160.4 -136.9 168.1 -123.9 177.55 -107.95 180.1 -88.95 186.45 -84.5 192.95 -77.6 195.55 -74.75 195.75 -70.85 195.9 -68.15 194.5 -65.9 L192.9 -63.6 196.35 -50.3 Q200.4 -32.55 201.7 -14.3 203.2 6.2 198.35 26.15 196.4 34.1 192.5 41.1 197.05 53.85 194.35 67.05 191.4 81.75 177.8 90.5 L174.65 90.8 161.8 114.95 Q153.45 130.65 148.9 135.15 144.3 139.65 141.0 140.15 L140.35 140.85 Q139.9 145.95 139.05 150.5 135.2 155.45 121.8 165.5 108.35 175.5 92.85 182.3 77.35 189.1 72.1 192.4 66.85 195.65 58.45 195.3 L56.9 192.35 56.05 192.2 52.8 196.65 Q47.65 203.45 39.35 206.4 18.75 213.9 -3.15 215.85 -21.3 217.8 -37.55 211.25 L-41.7 209.2 Q-47.85 201.15 -58.0 207.5 -63.75 206.75 -72.15 204.8 -94.55 199.45 -113.1 185.3 -129.9 172.6 -143.7 157.0 -149.4 150.55 -154.4 143.6 -158.1 138.45 -160.3 132.45 -170.7 120.55 -177.6 109.0 -184.55 97.45 -187.35 85.45 -192.65 81.25 -195.8 75.8 -197.45 72.95 -198.5 69.75 -202.05 59.15 -196.45 49.7 -194.9 47.05 -194.35 43.95 -197.8 40.7 -199.6 36.7 -201.25 33.05 -201.55 28.75 -202.85 9.7 -200.2 -8.9 -198.25 -22.75 -194.1 -36.4 -187.7 -57.4 -178.85 -77.4 L-173.2 -89.6 -173.0 -90.0 -172.25 -91.6 -171.8 -92.45 -171.95 -92.1 -185.35 -58.4 Q-182.95 -59.1 -180.95 -60.4 -173.9 -66.75 -171.25 -75.65 -170.75 -77.4 -170.4 -79.25 -169.85 -82.3 -169.8 -85.35 L-168.8 -96.2 M42.15 -204.35 L42.75 -183.3 48.95 -188.1 49.95 -201.8 42.15 -204.35 M133.6 -143.35 L138.1 -147.5 Q136.4 -148.45 135.1 -149.8 133.45 -151.4 132.55 -153.35 L114.0 -136.7 104.65 -128.9 107.5 -123.25 123.7 -134.55 112.85 -125.55 107.9 -122.5 Q121.15 -95.4 137.25 -69.8 150.85 -65.85 158.75 -54.25 172.8 -73.6 177.05 -88.35 176.05 -92.15 175.55 -96.2 174.35 -105.65 169.9 -114.05 161.1 -130.45 148.3 -143.95 L146.15 -146.15 Q139.75 -146.0 133.6 -143.35 M68.85 -186.2 Q59.9 -193.05 51.3 -186.2 44.9 -181.2 39.25 -175.25 32.2 -167.85 24.15 -162.5 22.0 -161.15 19.6 -161.8 10.35 -167.6 9.4 -179.15 8.7 -187.7 2.25 -192.75 L0.6 -193.6 -0.95 -194.15 Q-20.35 -187.95 -33.15 -172.1 L-45.35 -158.9 Q-70.8 -121.1 -83.5 -77.4 -85.55 -70.4 -87.25 -63.2 -90.15 -51.1 -96.0 -39.85 -104.4 -23.45 -117.15 -9.9 L-118.05 -8.9 Q-136.75 11.3 -148.05 36.3 -149.7 39.9 -150.7 43.2 -152.95 50.25 -154.4 57.3 -161.5 90.5 -152.5 122.8 -149.75 132.7 -145.5 142.5 -140.4 154.25 -132.25 164.15 -126.05 171.7 -116.6 174.15 L-109.8 175.1 Q-104.25 175.05 -98.9 172.5 -90.2 168.4 -81.85 163.45 L-74.6 158.95 Q-44.25 139.3 -10.4 126.0 L-7.1 124.9 Q33.05 110.3 72.4 129.0 87.35 136.05 103.4 139.65 115.5 142.4 127.55 139.75 135.75 137.95 138.9 130.25 145.6 113.75 146.5 95.9 148.55 54.15 157.2 13.2 160.6 -2.75 162.05 -18.95 163.25 -32.05 158.8 -44.25 155.3 -53.8 147.3 -59.95 142.15 -63.85 135.65 -65.8 103.4 -119.25 76.9 -176.05 74.05 -182.2 68.85 -186.2 M46.7 -34.2 Q40.9 -37.7 35.5 -43.85 31.7 -48.2 29.9 -53.8 L31.05 -54.3 Q35.65 -48.85 41.0 -44.85 L43.15 -43.3 Q58.6 -32.85 79.55 -34.3 61.75 -25.1 46.7 -34.2 M16.05 -131.85 Q18.2 -128.25 19.65 -123.95 28.65 -150.45 54.65 -153.2 L56.55 -153.25 Q62.55 -153.35 68.0 -150.85 71.3 -148.95 74.25 -146.75 89.25 -135.55 95.6 -116.7 103.95 -91.95 92.25 -68.9 82.4 -49.5 65.05 -50.4 59.45 -50.7 53.1 -53.1 42.85 -56.9 35.35 -65.2 25.9 -75.7 21.0 -89.05 12.1 -68.05 -5.0 -53.05 -20.6 -39.4 -39.25 -45.1 -44.0 -46.45 -47.2 -49.7 -49.35 -51.85 -50.8 -54.9 -64.35 -83.35 -53.7 -113.45 -44.05 -140.55 -18.0 -148.25 -9.65 -150.7 -1.55 -147.15 3.8 -144.8 7.95 -141.3 L16.05 -131.85 M37.4 -208.4 Q14.35 -218.45 -11.45 -214.05 -22.55 -214.05 -31.7 -209.4 L-35.8 -207.15 -34.3 -173.85 Q-20.45 -192.8 1.25 -196.5 4.5 -197.15 6.5 -194.65 L7.0 -194.0 Q12.2 -185.75 15.65 -176.5 L19.55 -165.4 Q26.05 -165.95 31.9 -172.05 37.7 -178.15 38.15 -188.85 38.55 -199.55 37.4 -208.4 M8.45 -105.8 Q9.65 -114.2 0.9 -112.25 -2.3 -105.55 3.75 -104.7 6.4 -104.4 8.45 -105.8 M-0.05 -97.75 Q-5.6 -104.4 0.45 -114.25 3.3 -118.95 8.8 -120.05 23.65 -111.0 16.95 -100.0 L16.05 -98.65 Q8.65 -87.75 -0.05 -97.75 M22.05 -93.9 L22.65 -93.65 23.35 -91.5 Q30.95 -68.85 52.65 -57.8 57.1 -55.55 61.15 -54.65 76.85 -51.15 87.1 -67.65 98.7 -86.4 93.65 -108.1 89.2 -127.0 75.15 -140.1 L71.55 -143.05 Q66.9 -146.4 61.25 -148.05 34.65 -150.7 24.5 -124.2 22.2 -118.15 20.65 -111.9 15.0 -132.7 -4.15 -141.65 -16.8 -147.6 -28.15 -139.0 -53.15 -120.05 -55.05 -87.7 -56.3 -66.45 -42.0 -52.55 -36.35 -47.0 -29.7 -47.2 -25.85 -47.3 -21.65 -49.4 1.95 -61.15 16.1 -84.6 L22.05 -93.9 M30.55 -118.65 Q48.0 -118.35 42.1 -100.0 39.05 -90.45 31.05 -94.7 24.65 -98.1 24.45 -105.3 24.25 -113.55 30.55 -118.65 M33.35 -104.85 Q37.55 -104.0 38.05 -108.55 34.55 -112.75 29.7 -111.1 26.85 -106.2 33.35 -104.85 M10.15 -49.95 Q8.25 -41.6 2.65 -35.05 -3.9 -27.4 -13.35 -23.55 -22.95 -19.55 -33.15 -17.85 -43.8 -16.15 -53.85 -19.55 L-51.25 -19.5 -50.9 -19.5 -50.2 -19.5 Q-28.15 -19.7 -9.75 -32.3 2.35 -40.55 9.4 -53.7 L10.9 -53.65 10.15 -49.95 M-55.5 9.8 Q-40.25 15.7 -24.7 20.9 L-23.7 20.45 -23.25 21.2 Q-9.2 24.7 4.95 22.75 32.6 19.55 56.35 5.45 L64.5 0.15 Q86.05 -12.5 108.75 -22.85 119.25 -27.6 130.1 -29.95 138.25 -31.75 146.6 -32.15 151.05 -32.3 151.0 -28.25 150.85 -8.45 146.7 11.2 141.25 35.5 138.25 59.8 135.2 84.5 128.9 108.6 128.2 111.35 126.65 113.85 122.45 116.75 117.75 115.75 L105.55 113.25 Q88.35 109.6 71.15 105.55 L48.65 100.0 Q33.15 96.1 17.85 96.8 0.65 97.6 -16.25 104.2 -25.85 108.05 -35.05 112.75 -44.9 117.8 -54.25 123.85 L-71.2 134.45 Q-86.45 143.6 -102.25 151.65 L-103.9 152.45 Q-111.05 155.4 -117.3 152.35 -121.45 150.45 -123.35 146.0 -128.25 134.55 -130.85 122.5 L-132.1 115.75 -132.25 114.85 -132.4 113.7 -133.0 109.3 Q-135.7 85.3 -131.15 61.55 -126.8 39.1 -116.85 18.75 -112.25 9.3 -103.0 4.25 -88.5 -3.55 -72.75 2.8 L-72.3 3.0 Q-63.95 6.5 -55.5 9.8 M109.5 15.55 Q116.05 13.45 120.85 7.9 122.55 6.0 122.5 3.25 122.4 -9.05 115.95 -19.35 L97.65 -11.3 Q91.3 -8.5 84.95 -5.75 89.5 3.45 90.4 13.65 L91.6 14.4 92.05 15.6 Q101.9 17.85 109.5 15.55 M141.2 11.7 L143.05 11.2 Q145.05 4.65 146.25 -2.1 148.6 -15.05 147.9 -28.15 L133.25 -26.85 125.95 -23.6 132.05 10.05 133.3 11.25 137.6 12.0 141.2 11.7 M120.0 -21.05 Q127.5 -8.85 126.35 5.4 L125.7 10.3 129.1 9.45 125.5 -23.45 120.0 -21.05 M80.75 -3.7 Q86.75 2.3 86.1 11.2 L86.05 13.7 88.55 13.25 83.9 -5.25 80.75 -3.7 M178.75 -86.4 Q178.1 -81.25 173.35 -72.85 L161.05 -50.5 165.05 -39.85 Q172.05 -52.15 185.55 -61.15 L191.05 -58.65 191.35 -63.65 Q188.15 -64.05 186.0 -66.45 178.9 -74.4 181.25 -84.9 L178.75 -86.4 M191.4 -67.55 L191.3 -68.6 Q190.55 -77.05 183.25 -81.9 L186.05 -70.55 191.4 -67.55 M192.95 -47.35 Q192.2 -53.05 187.85 -56.45 186.45 -57.65 185.2 -56.7 176.75 -50.2 168.95 -42.95 L165.15 -39.35 Q166.75 -13.2 162.65 12.6 161.45 20.3 159.4 28.05 162.25 32.5 169.4 33.85 176.55 35.15 183.45 36.85 190.3 38.6 190.6 39.0 194.1 34.2 195.5 27.0 203.15 -11.15 192.95 -47.35 M-96.8 -145.15 L-90.7 -141.05 Q-83.95 -146.45 -77.6 -150.5 -71.3 -154.55 -62.8 -161.35 -54.3 -168.2 -49.8 -173.5 -45.3 -178.8 -43.7 -181.6 -42.15 -184.4 -43.6 -191.05 -45.1 -197.75 -46.85 -207.65 L-48.8 -207.1 Q-58.9 -204.3 -68.5 -200.0 -74.3 -197.45 -79.8 -194.1 -97.8 -185.5 -112.15 -172.1 L-114.7 -169.3 Q-111.7 -163.65 -108.1 -158.4 -105.45 -154.5 -102.45 -150.8 -99.9 -147.7 -96.8 -145.15 M-45.7 -167.3 L-42.3 -169.9 -38.0 -169.3 -35.4 -172.55 Q-37.85 -182.6 -37.35 -190.9 -36.85 -199.25 -38.1 -207.0 L-39.95 -206.75 -43.5 -208.3 Q-41.25 -200.6 -40.6 -193.65 -39.95 -186.7 -40.0 -183.6 -40.05 -180.5 -44.8 -173.65 -49.55 -166.85 -62.1 -157.05 -74.7 -147.25 -79.8 -144.4 -84.95 -141.55 -88.4 -140.8 L-90.7 -140.4 Q-94.25 -140.1 -97.4 -142.0 -101.25 -144.25 -103.9 -147.8 -108.5 -154.05 -112.2 -160.95 L-115.45 -167.45 -116.1 -165.35 -116.5 -164.4 -116.55 -164.25 -117.85 -162.3 Q-119.15 -160.5 -121.4 -159.95 -112.1 -149.05 -105.4 -138.9 -98.7 -128.8 -94.3 -123.7 -91.9 -117.6 -91.85 -110.15 -91.8 -102.7 -92.15 -90.55 -92.55 -78.4 -92.05 -71.05 L-107.9 -55.65 Q-116.3 -47.55 -121.95 -43.95 L-129.5 -39.45 Q-131.9 -38.3 -134.35 -37.3 L-138.0 -40.55 -149.1 -50.3 Q-156.95 -57.1 -165.1 -66.55 L-164.25 -84.4 Q-164.15 -76.05 -161.85 -68.45 L-155.4 -60.95 Q-151.55 -56.25 -144.6 -50.95 -137.7 -45.65 -135.25 -42.9 L-133.95 -41.15 -131.7 -40.9 Q-112.5 -54.6 -97.45 -72.4 -97.05 -73.85 -97.15 -85.05 L-97.75 -112.55 -97.95 -122.3 -121.45 -154.65 -124.55 -159.25 Q-150.7 -138.95 -160.3 -108.4 -163.0 -99.85 -163.9 -90.95 L-163.15 -106.2 -163.65 -104.7 -164.8 -101.7 Q-165.95 -99.2 -167.8 -97.15 -165.35 -87.0 -167.4 -76.8 -168.1 -73.5 -169.25 -70.4 -171.25 -65.2 -174.65 -60.65 -179.45 -54.25 -187.5 -53.6 L-187.5 -48.1 -178.95 -52.75 Q-182.5 -50.45 -185.6 -47.05 L-191.45 -40.9 Q-199.8 -7.45 -198.85 26.85 -198.75 30.7 -197.0 34.1 -196.05 34.4 -189.45 39.5 -182.9 44.55 -176.9 47.3 -173.95 45.3 -164.8 40.55 -155.7 35.8 -150.1 33.1 -141.55 16.3 -137.8 11.15 -134.05 6.0 -135.3 -4.25 -136.55 -14.5 -136.95 -21.75 -145.1 -33.2 -164.0 -55.45 L-166.6 -57.15 Q-171.2 -56.6 -175.25 -54.75 L-166.45 -59.55 Q-158.05 -52.4 -151.75 -45.05 L-141.35 -33.2 -132.6 -24.25 Q-133.1 -14.5 -131.85 -2.65 -131.55 0.35 -131.65 2.45 L-126.2 -3.65 Q-127.15 -11.55 -125.9 -19.5 -124.45 -28.5 -118.65 -35.6 -107.85 -48.6 -93.1 -56.65 L-92.2 -56.55 Q-88.25 -63.5 -87.25 -71.3 -86.4 -77.9 -86.9 -81.9 -87.4 -85.95 -87.8 -96.9 L-88.4 -113.1 Q-88.65 -118.3 -88.0 -120.6 -86.45 -126.7 -83.3 -132.2 L-82.5 -133.2 -82.1 -133.75 -81.85 -134.1 Q-86.15 -124.7 -86.2 -117.05 -86.25 -109.35 -85.05 -77.5 -73.95 -125.35 -42.8 -163.4 L-39.3 -167.65 -45.7 -167.3 M-79.0 -137.0 L-46.8 -166.2 -47.35 -165.5 Q-53.5 -158.25 -60.4 -151.8 -67.5 -145.15 -75.55 -139.4 L-79.6 -136.4 -79.0 -137.0 M-108.25 -40.25 Q-115.45 -34.25 -119.7 -26.1 -124.75 -16.5 -124.35 -5.25 -106.65 -25.75 -95.15 -50.1 -101.9 -45.45 -108.25 -40.25 M-30.45 41.65 L-28.85 41.1 Q-30.3 32.75 -27.3 25.05 L-34.25 22.65 -62.95 12.8 -70.45 53.2 -69.7 54.35 -30.45 41.65 M-21.95 36.85 L-19.6 26.6 -24.2 25.75 Q-26.05 30.5 -25.55 35.45 L-25.2 38.65 -21.95 36.85 M-24.45 41.1 L-26.9 44.1 Q-33.75 51.3 -44.95 53.6 L-69.85 58.85 -71.1 58.25 Q-74.85 60.1 -78.65 61.8 -103.4 72.8 -130.45 77.2 -130.6 94.15 -128.7 111.0 -120.2 103.2 -107.9 106.25 L-105.6 107.7 Q-90.75 98.1 -73.1 97.85 L-70.1 101.35 -65.2 100.6 Q-47.75 83.65 -23.35 91.2 -18.2 92.75 -13.35 90.1 5.2 80.15 26.3 79.95 L30.0 83.35 30.55 83.1 Q44.75 83.7 59.15 77.85 68.8 73.85 77.9 77.15 80.05 77.95 82.2 79.15 98.35 66.45 114.35 67.75 124.5 68.55 134.6 74.95 L142.35 15.25 139.95 15.95 134.7 15.6 Q131.4 14.55 128.9 12.15 L124.65 12.6 Q117.25 19.7 108.9 20.95 101.1 22.1 92.5 18.1 L89.2 16.35 Q78.55 20.85 67.4 23.55 50.95 27.5 33.45 27.45 28.25 30.05 22.95 32.1 2.95 39.85 -18.2 40.1 -19.5 40.1 -20.75 39.45 L-24.45 41.1 M22.5 24.55 Q4.6 29.85 -14.4 27.4 L-18.2 26.8 -18.95 36.1 -16.7 38.6 Q2.9 33.9 22.55 28.65 L31.05 26.35 31.35 21.45 22.5 24.55 M-84.75 59.4 L-78.25 57.1 Q-78.6 35.5 -70.9 15.0 L-69.15 10.4 Q-72.25 8.4 -75.45 7.05 -87.1 2.0 -99.7 5.4 -102.3 6.05 -104.8 7.15 -120.85 22.15 -125.5 45.4 -128.5 60.2 -130.35 75.3 L-84.75 59.4 M-67.9 10.95 Q-73.5 33.45 -76.65 56.45 L-74.1 55.2 -64.8 12.15 -67.9 10.95 M-24.75 95.25 L-22.7 102.8 -17.5 99.8 -17.9 93.4 -24.75 95.25 M-36.45 110.1 L-26.2 103.9 -31.35 93.95 -39.4 94.45 Q-49.65 93.95 -58.55 99.1 -61.35 100.7 -63.85 102.85 L-59.6 124.15 -36.45 110.1 M19.3 84.7 Q3.05 86.95 -12.95 90.9 -17.35 92.9 -16.0 97.55 L-15.65 98.5 Q0.8 92.15 18.15 91.75 L29.3 92.1 Q29.0 87.05 24.9 83.95 L19.3 84.7 M-152.9 40.35 L-177.2 51.95 Q-185.55 50.1 -190.95 44.7 L-193.35 50.4 Q-186.3 51.55 -180.25 55.35 L-178.6 56.45 -178.45 57.95 Q-184.05 69.55 -185.85 82.3 L-186.25 83.45 -181.55 91.0 -176.95 59.2 -154.5 45.6 -152.9 40.35 M-157.8 119.75 Q-161.35 98.75 -159.65 77.4 -159.0 69.45 -157.8 61.7 -156.7 54.65 -155.1 47.7 L-174.3 62.3 Q-174.4 60.5 -175.85 69.15 -177.3 77.75 -179.75 97.25 -174.2 106.55 -156.4 127.05 L-157.8 119.75 M-80.15 102.1 Q-89.15 103.3 -97.3 107.35 L-101.2 109.35 Q-99.85 118.3 -96.85 126.8 -94.0 134.95 -90.15 142.75 L-73.25 132.35 -67.3 128.65 -74.6 101.7 -80.15 102.1 M-107.2 109.1 Q-108.55 129.8 -94.95 145.35 L-91.65 143.6 Q-101.65 128.1 -104.55 109.85 L-105.45 110.1 -107.2 109.1 M-106.0 149.9 L-98.35 147.0 Q-110.45 130.35 -109.7 109.85 L-112.1 109.45 Q-130.0 106.8 -127.1 123.9 L-125.7 129.95 Q-121.95 142.5 -111.9 149.95 -110.1 151.3 -107.9 149.75 L-109.15 151.1 -106.0 149.9 M-150.7 143.7 L-154.2 134.4 -157.4 133.75 -150.7 143.7 M-83.3 170.4 Q-91.8 175.3 -101.05 178.9 L-104.5 180.0 -110.35 180.25 Q-92.5 190.85 -72.75 197.2 -68.25 199.3 -64.2 200.55 -60.15 201.75 -58.9 203.2 -50.95 200.4 -51.4 189.8 L-52.1 171.3 Q-52.3 163.4 -53.05 158.25 -55.75 156.95 -58.15 155.5 L-60.7 154.1 Q-71.3 163.5 -83.3 170.4 M-9.45 144.95 L-9.3 144.85 Q-6.0 143.55 5.75 143.9 L21.25 144.65 30.25 145.5 48.3 147.85 Q51.35 163.3 52.1 175.4 52.85 187.5 53.7 190.45 L56.5 189.2 56.05 171.8 Q55.8 162.8 57.1 153.85 L57.65 151.2 79.9 137.15 73.65 134.65 Q66.05 141.85 55.55 142.2 36.5 143.2 18.05 135.95 10.05 132.85 1.75 130.6 -2.15 129.55 -2.45 125.5 L-6.4 126.85 Q-6.35 136.85 -15.65 143.5 -25.35 150.35 -36.5 154.25 -46.6 157.85 -51.35 148.05 L-58.1 152.35 Q-54.4 154.2 -50.6 155.1 L-48.9 166.35 Q-47.3 176.55 -47.25 187.25 -47.2 197.9 -46.4 201.15 L-41.8 205.3 Q-41.75 194.3 -40.85 184.25 L-39.2 164.2 Q-26.1 151.4 -9.5 144.9 L-36.6 164.95 -35.9 164.6 Q-37.0 187.45 -37.75 195.75 -38.5 204.0 -38.95 204.7 L-39.1 207.7 Q-21.95 211.1 -5.05 210.1 19.65 208.55 43.75 197.5 L46.45 196.2 Q47.3 170.0 43.4 152.75 38.4 151.1 36.45 150.85 L30.35 149.8 22.0 147.9 Q7.1 144.2 -8.2 145.45 L-8.7 145.1 -9.45 144.95 M-0.35 128.2 Q22.45 132.9 45.4 136.25 55.5 137.8 64.25 132.85 L65.65 132.0 Q43.8 122.65 20.25 121.35 9.4 120.5 -0.8 124.95 L-0.35 128.2 M-11.1 128.55 Q-31.3 136.2 -50.0 147.25 L-42.35 152.6 Q-25.1 144.2 -12.3 130.05 L-11.1 128.55 M-69.8 103.5 L-64.8 127.2 -60.5 124.7 Q-64.55 113.8 -65.85 102.35 L-69.8 103.5 M-182.7 58.45 L-195.7 54.35 -193.25 70.15 -189.35 80.95 -182.7 58.45 M169.15 37.8 Q158.75 34.45 158.3 33.55 L157.25 38.95 Q183.55 56.85 175.15 87.7 L177.85 87.85 Q178.4 70.65 183.15 53.85 L190.8 47.45 190.2 43.95 Q179.55 41.1 169.15 37.8 M182.9 56.35 L179.55 86.7 Q182.75 82.35 185.25 77.7 191.85 65.55 190.55 51.85 L182.9 56.35 M171.8 84.65 Q174.55 69.85 173.85 57.65 L156.75 41.4 Q150.8 65.1 151.05 89.55 151.25 112.05 144.9 133.4 148.15 131.85 155.15 119.0 162.15 106.15 166.85 96.05 171.55 85.95 171.8 84.65 M67.0 21.4 Q76.5 20.25 81.2 13.1 82.0 11.85 82.05 10.25 82.2 3.5 78.0 -2.3 L59.8 8.2 Q50.35 13.2 40.65 17.7 L41.3 22.95 42.65 24.45 Q55.3 24.65 67.0 21.4 M82.9 80.9 Q85.45 91.0 80.45 100.15 L79.05 102.55 83.15 103.65 Q87.7 92.5 86.7 80.45 L82.9 80.9 M114.65 69.9 Q110.05 69.8 104.45 71.35 97.05 73.4 89.6 78.65 89.85 90.4 85.65 101.1 L84.4 104.0 Q95.8 109.4 107.7 111.05 L121.9 111.6 132.8 81.95 130.85 78.95 Q125.15 70.1 114.65 69.9 M34.15 24.4 L39.6 22.8 39.4 18.25 34.5 20.25 34.15 24.4 M37.15 93.0 L37.75 86.65 31.6 85.75 33.2 92.5 37.15 93.0 M72.55 101.0 L76.3 101.85 Q79.9 93.7 80.3 85.05 78.85 82.7 76.9 81.2 69.4 76.45 60.6 78.7 50.75 81.4 40.8 83.7 L38.85 93.25 72.55 101.0 M73.7 187.0 Q93.2 177.85 106.45 170.4 119.7 162.9 124.65 158.75 129.6 154.6 135.15 148.65 132.45 146.2 134.1 144.45 110.0 150.9 87.75 140.7 L81.4 137.8 77.75 140.2 59.4 152.1 60.4 191.85 61.3 192.45 73.7 187.0" fill="#000000" fill-rule="evenodd" stroke="none"/>
    <path d="M65.7 -200.7 Q69.55 -198.9 74.3 -197.0 76.1 -194.8 79.95 -193.8 L80.6 -193.4 Q87.65 -188.9 95.15 -185.0 116.35 -174.1 129.4 -156.8 L128.45 -155.5 Q118.35 -157.5 109.7 -150.9 104.2 -146.75 97.7 -144.45 90.8 -160.15 83.15 -175.65 79.15 -183.75 73.35 -187.55 64.1 -193.55 50.2 -188.9 L52.05 -201.8 55.15 -203.65 Q60.55 -202.55 65.7 -200.7 M-171.95 -92.1 L-171.85 -92.3 Q-170.6 -94.4 -168.8 -96.2 L-169.8 -85.35 -181.65 -67.65 -180.95 -60.4 Q-182.95 -59.1 -185.35 -58.4 L-171.95 -92.1 M60.25 -201.0 L58.6 -201.65 57.5 -201.4 Q53.65 -197.55 56.6 -193.15 L58.5 -193.15 Q61.25 -196.5 60.25 -201.0 M123.7 -134.55 L133.6 -143.35 Q139.75 -146.0 146.15 -146.15 L148.3 -143.95 Q146.0 -133.3 139.35 -124.45 134.6 -118.1 127.45 -114.8 123.7 -121.95 116.4 -124.95 114.7 -125.7 112.85 -125.55 L123.7 -134.55 M68.85 -186.2 Q65.2 -183.15 65.7 -178.55 66.85 -167.7 72.3 -157.9 76.95 -149.45 83.7 -142.35 L93.65 -131.65 Q100.05 -124.5 102.55 -115.15 105.3 -104.75 105.3 -94.0 105.3 -83.3 102.5 -73.05 99.7 -62.8 93.2 -54.3 86.4 -45.5 75.6 -42.75 69.6 -41.1 63.9 -42.7 53.5 -45.65 44.95 -52.1 44.3 -52.6 43.7 -52.45 37.65 -50.65 41.0 -44.85 35.65 -48.85 31.05 -54.3 L29.9 -53.8 Q31.7 -48.2 35.5 -43.85 40.9 -37.7 46.7 -34.2 52.3 -24.3 63.7 -21.6 73.55 -19.4 83.5 -21.75 94.1 -24.2 104.05 -28.1 L120.75 -34.55 Q129.95 -38.05 139.75 -38.7 151.65 -39.65 154.45 -28.3 156.75 -19.1 154.95 -9.45 L151.5 10.05 Q150.1 18.85 148.2 27.5 146.25 36.45 144.7 45.55 143.1 54.85 142.45 64.4 141.8 73.75 141.55 83.1 L140.6 102.6 Q139.85 113.7 131.85 120.5 129.0 122.9 124.95 123.45 115.3 125.15 105.5 124.75 94.8 124.25 84.75 122.1 L70.0 118.4 Q60.5 115.65 50.6 113.55 40.95 111.55 30.85 111.6 L10.0 112.9 Q0.15 114.15 -9.2 117.2 -18.55 120.05 -27.55 123.95 -36.9 127.95 -46.15 132.1 -54.65 136.05 -63.05 140.25 -71.95 144.7 -80.65 149.45 -89.4 154.2 -98.3 158.7 -105.0 162.1 -109.2 168.05 -111.5 171.35 -109.8 175.1 L-116.6 174.15 Q-126.05 171.7 -132.25 164.15 -140.4 154.25 -145.5 142.5 -149.75 132.7 -152.5 122.8 -161.5 90.5 -154.4 57.3 -152.95 50.25 -150.7 43.2 -149.7 39.9 -148.05 36.3 -136.75 11.3 -118.05 -8.9 L-117.15 -9.9 Q-104.4 -23.45 -96.0 -39.85 -90.15 -51.1 -87.25 -63.2 -85.55 -70.4 -83.5 -77.4 -70.8 -121.1 -45.35 -158.9 L-33.15 -172.1 Q-20.35 -187.95 -0.95 -194.15 L0.6 -193.6 2.25 -192.75 Q-2.7 -187.0 -2.45 -179.25 -2.25 -172.2 1.65 -166.25 8.55 -155.75 19.6 -161.8 22.0 -161.15 24.15 -162.5 32.2 -167.85 39.25 -175.25 44.9 -181.2 51.3 -186.2 59.9 -193.05 68.85 -186.2 M133.5 -132.75 L133.75 -133.85 132.9 -135.35 131.65 -135.5 Q125.4 -133.4 126.95 -128.1 L127.5 -127.1 Q133.1 -127.0 133.5 -132.75 M48.65 -182.65 L45.7 -180.0 Q40.8 -176.0 44.5 -172.15 L46.75 -172.15 53.45 -178.45 Q57.3 -182.45 52.15 -184.4 50.2 -184.15 48.65 -182.65 M56.55 -153.25 Q46.8 -158.3 36.2 -155.05 26.35 -151.9 20.8 -143.05 17.5 -137.85 16.05 -131.85 L7.95 -141.3 Q3.6 -151.45 -6.95 -154.5 -17.55 -157.6 -27.95 -153.75 -36.6 -150.6 -43.45 -144.45 -50.25 -138.3 -55.4 -130.8 -61.45 -122.05 -63.4 -111.45 -65.35 -100.95 -66.85 -90.3 -68.3 -79.8 -64.75 -69.9 -61.2 -60.0 -52.95 -53.15 -50.3 -50.95 -47.2 -49.7 -44.0 -46.45 -39.25 -45.1 -20.6 -39.4 -5.0 -53.05 12.1 -68.05 21.0 -89.05 25.9 -75.7 35.35 -65.2 42.85 -56.9 53.1 -53.1 59.45 -50.7 65.05 -50.4 82.4 -49.5 92.25 -68.9 103.95 -91.95 95.6 -116.7 89.25 -135.55 74.25 -146.75 71.3 -148.95 68.0 -150.85 62.55 -153.35 56.55 -153.25 M15.65 -176.5 Q12.2 -185.75 7.0 -194.0 L6.5 -194.65 Q4.5 -197.15 1.25 -196.5 -20.45 -192.8 -34.3 -173.85 L-35.8 -207.15 -31.7 -209.4 Q-22.55 -214.05 -11.45 -214.05 14.35 -218.45 37.4 -208.4 35.6 -198.3 30.45 -189.2 25.35 -180.3 15.65 -176.5 M10.15 -49.95 Q15.05 -58.55 16.4 -68.55 L16.55 -70.9 Q12.15 -64.6 7.4 -58.6 -0.35 -48.8 -11.9 -43.6 -25.65 -37.5 -40.2 -34.95 -48.35 -33.5 -56.45 -34.75 -61.85 -35.7 -66.2 -32.9 -69.2 -30.95 -67.2 -28.25 -61.25 -20.25 -51.25 -19.5 L-53.85 -19.55 Q-43.8 -16.15 -33.15 -17.85 -22.95 -19.55 -13.35 -23.55 -3.9 -27.4 2.65 -35.05 8.25 -41.6 10.15 -49.95 M27.75 -69.25 L28.5 -70.75 26.65 -71.75 26.0 -71.55 24.5 -69.35 Q24.95 -63.95 28.4 -60.0 L29.9 -60.0 30.5 -61.0 27.75 -69.25 M39.1 -31.35 L37.45 -30.55 Q36.6 -25.5 39.2 -21.1 43.75 -13.35 50.5 -16.6 L51.85 -16.85 50.85 -17.6 50.6 -18.15 39.1 -31.35 M-55.5 9.8 Q-47.5 7.8 -39.5 9.75 -29.4 12.45 -19.2 14.45 -8.0 16.75 2.0 11.05 11.55 5.7 16.7 -3.65 22.2 -13.55 20.35 -24.55 18.9 -33.3 12.55 -39.15 8.95 -33.1 3.2 -28.85 L-3.65 -24.35 Q-16.35 -16.95 -30.65 -13.5 -53.55 -7.75 -76.75 -11.0 -93.8 -13.6 -108.05 -4.05 -120.0 4.05 -126.5 16.75 -136.05 35.3 -138.05 56.2 -140.15 78.1 -136.45 99.7 -135.25 106.9 -132.5 113.7 L-132.25 114.85 -132.1 115.75 -130.85 122.5 Q-128.25 134.55 -123.35 146.0 -121.45 150.45 -117.3 152.35 -111.05 155.4 -103.9 152.45 L-102.25 151.65 Q-86.45 143.6 -71.2 134.45 L-54.25 123.85 Q-44.9 117.8 -35.05 112.75 -25.85 108.05 -16.25 104.2 0.65 97.6 17.85 96.8 33.15 96.1 48.65 100.0 L71.15 105.55 Q88.35 109.6 105.55 113.25 L117.75 115.75 Q122.45 116.75 126.65 113.85 128.2 111.35 128.9 108.6 135.2 84.5 138.25 59.8 141.25 35.5 146.7 11.2 150.85 -8.45 151.0 -28.25 151.05 -32.3 146.6 -32.15 138.25 -31.75 130.1 -29.95 119.25 -27.6 108.75 -22.85 86.05 -12.5 64.5 0.15 L56.35 5.45 Q32.6 19.55 4.95 22.75 -9.2 24.7 -23.25 21.2 L-23.7 20.45 -24.7 20.9 Q-40.25 15.7 -55.5 9.8 M168.95 -42.95 Q176.75 -50.2 185.2 -56.7 186.45 -57.65 187.85 -56.45 192.2 -53.05 192.95 -47.35 185.85 -40.5 180.35 -32.25 177.05 -27.4 171.55 -26.35 L170.25 -26.15 Q169.3 -26.6 169.15 -27.55 167.85 -35.1 168.95 -42.95 M-96.8 -145.15 Q-99.9 -147.7 -102.45 -150.8 -105.45 -154.5 -108.1 -158.4 -111.7 -163.65 -114.7 -169.3 L-112.15 -172.1 Q-97.8 -185.5 -79.8 -194.1 -74.3 -197.45 -68.5 -200.0 -58.9 -204.3 -48.8 -207.1 -57.25 -200.45 -56.4 -189.65 -56.2 -187.0 -56.9 -184.35 -58.7 -177.15 -64.65 -172.1 -72.2 -165.8 -80.6 -160.75 -84.8 -158.3 -88.6 -155.05 -93.5 -150.8 -96.8 -145.15 M-164.25 -84.4 L-163.9 -90.95 Q-163.0 -99.85 -160.3 -108.4 -150.7 -138.95 -124.55 -159.25 -129.2 -149.4 -124.2 -139.8 -120.5 -132.65 -113.0 -129.3 -111.0 -128.45 -110.7 -126.2 -109.5 -116.4 -112.85 -106.7 -113.6 -104.5 -113.35 -102.15 -112.45 -92.75 -110.75 -83.55 -108.6 -71.6 -119.85 -65.55 -129.3 -60.4 -133.75 -50.65 -135.4 -46.95 -135.25 -42.9 -137.7 -45.65 -144.6 -50.95 -151.55 -56.25 -155.4 -60.95 L-161.85 -68.45 Q-164.15 -76.05 -164.25 -84.4 M-178.95 -52.75 L-175.25 -54.75 Q-171.2 -56.6 -166.6 -57.15 L-164.0 -55.45 Q-168.05 -51.25 -168.7 -45.65 -169.3 -40.35 -165.7 -36.35 -160.4 -30.35 -155.85 -23.75 -149.75 -14.85 -150.9 -4.1 -152.0 6.25 -157.95 14.9 -164.25 23.9 -174.4 27.95 -177.1 29.05 -179.8 29.05 -189.35 29.0 -197.0 34.1 -198.75 30.7 -198.85 26.85 -199.8 -7.45 -191.45 -40.9 L-185.6 -47.05 Q-182.5 -50.45 -178.95 -52.75 M-81.85 -134.1 L-79.65 -136.45 -79.6 -136.4 -75.55 -139.4 Q-67.5 -145.15 -60.4 -151.8 -53.5 -158.25 -47.35 -165.5 -46.15 -166.5 -45.7 -167.3 L-39.3 -167.65 -42.8 -163.4 Q-73.95 -125.35 -85.05 -77.5 -86.25 -109.35 -86.2 -117.05 -86.15 -124.7 -81.85 -134.1 M-24.65 -205.05 L-25.65 -206.5 Q-32.75 -205.3 -34.05 -196.95 -34.7 -192.9 -31.35 -190.3 -27.1 -195.75 -26.4 -202.75 L-24.75 -204.3 -24.65 -205.05 M-174.9 -48.0 Q-181.65 -45.85 -180.15 -39.6 L-174.5 -41.9 Q-170.85 -44.5 -173.85 -47.2 L-174.9 -48.0 M-10.9 -183.0 L-16.85 -178.55 Q-24.4 -172.45 -29.0 -163.75 L-27.9 -162.75 Q-25.7 -164.9 -23.1 -166.25 -13.55 -171.05 -8.9 -180.75 L-10.9 -183.0 M-183.8 -33.45 L-186.15 -33.95 Q-191.95 -28.15 -192.6 -19.7 L-193.4 -6.6 -192.65 -5.85 -191.15 -5.85 -190.25 -7.6 Q-188.95 -18.25 -184.45 -27.85 -183.15 -30.5 -183.8 -33.45 M-81.4 -129.85 L-82.15 -129.7 Q-84.75 -125.2 -84.25 -120.0 L-83.15 -119.55 -82.15 -121.75 Q-77.4 -125.4 -81.4 -129.85 M-145.8 -128.7 Q-153.95 -120.8 -153.15 -109.35 L-152.65 -109.0 -149.9 -109.0 Q-144.65 -118.65 -141.8 -129.25 L-142.3 -130.0 -143.95 -130.4 -145.8 -128.7 M-103.5 -164.55 Q-103.2 -170.1 -106.75 -173.25 L-107.65 -173.75 Q-113.55 -163.55 -102.7 -158.2 L-101.15 -157.85 -100.5 -159.0 -103.5 -164.55 M-93.6 -29.6 Q-89.95 -30.5 -86.3 -34.8 -74.8 -48.3 -78.15 -65.0 L-79.5 -65.1 -80.25 -64.45 Q-82.8 -52.25 -88.9 -41.3 -90.85 -37.85 -93.15 -34.65 -94.5 -32.75 -93.4 -30.35 L-93.6 -29.6 M-108.25 -40.25 Q-101.9 -45.45 -95.15 -50.1 -106.65 -25.75 -124.35 -5.25 -124.75 -16.5 -119.7 -26.1 -115.45 -34.25 -108.25 -40.25 M-151.95 70.15 L-153.8 71.25 Q-157.2 90.8 -152.3 109.85 -151.75 111.9 -149.8 112.55 L-149.2 114.05 -148.6 113.8 -148.65 112.75 -147.5 110.6 -149.55 80.9 Q-147.8 75.15 -151.2 70.9 L-151.95 70.15 M-157.8 61.7 Q-165.0 67.4 -166.5 76.5 -168.25 87.1 -168.5 97.75 -168.75 108.35 -161.6 116.1 L-157.8 119.75 -156.4 127.05 Q-174.2 106.55 -179.75 97.25 -177.3 77.75 -175.85 69.15 -174.4 60.5 -174.3 62.3 L-155.1 47.7 Q-156.7 54.65 -157.8 61.7 M-142.15 122.15 Q-142.65 118.9 -145.45 117.15 L-146.7 117.4 Q-149.5 123.6 -145.8 128.65 L-144.2 128.65 -143.65 128.0 Q-142.15 126.25 -142.05 123.8 L-142.15 122.15 M-72.75 197.2 Q-92.5 190.85 -110.35 180.25 L-104.5 180.0 -101.05 178.9 Q-91.8 175.3 -83.3 170.4 -88.35 173.8 -88.2 179.7 -88.15 180.85 -87.4 181.45 -79.1 188.45 -72.75 197.2 M-10.85 108.1 L-13.65 106.8 -17.8 108.6 Q-25.05 109.2 -25.35 115.5 L-25.25 115.85 Q-14.55 117.7 -10.85 108.1 M-9.5 144.9 L-9.45 144.95 -8.7 145.1 -8.2 145.45 Q7.1 144.2 22.0 147.9 20.75 153.0 16.4 156.1 11.5 159.7 5.7 161.05 -4.2 163.2 -11.0 170.65 -11.4 171.1 -11.25 171.65 -8.5 182.25 -10.5 193.15 -12.3 203.1 -5.05 210.1 -21.95 211.1 -39.1 207.7 L-38.95 204.7 Q-38.5 204.0 -37.75 195.75 -37.0 187.45 -35.9 164.6 L-36.6 164.95 -9.5 144.9 M-168.9 63.65 L-169.9 63.8 Q-172.1 65.95 -173.35 68.7 -176.45 75.6 -170.9 78.5 -163.8 71.35 -168.9 63.65 M-26.25 165.3 L-28.5 165.3 -29.8 166.3 Q-32.35 174.95 -27.9 181.45 -26.65 183.35 -25.15 181.7 -20.85 176.9 -22.95 170.5 -23.95 167.6 -26.25 165.3 M-182.7 58.45 Q-189.2 61.7 -192.4 68.35 L-193.25 70.15 -195.7 54.35 -182.7 58.45 M77.75 140.2 Q87.4 141.55 86.75 150.2 86.7 150.95 86.1 151.45 80.05 156.4 73.4 160.3 72.6 160.75 72.35 161.7 69.5 171.95 72.65 182.45 L73.7 187.0 61.3 192.45 60.4 191.85 59.4 152.1 77.75 140.2" fill="#e1e699" fill-rule="evenodd" stroke="none"/>
    <path d="M60.25 -201.0 Q61.25 -196.5 58.5 -193.15 L56.6 -193.15 Q53.65 -197.55 57.5 -201.4 L58.6 -201.65 60.25 -201.0 M133.5 -132.75 Q133.1 -127.0 127.5 -127.1 L126.95 -128.1 Q125.4 -133.4 131.65 -135.5 L132.9 -135.35 133.75 -133.85 133.5 -132.75 M48.65 -182.65 Q50.2 -184.15 52.15 -184.4 57.3 -182.45 53.45 -178.45 L46.75 -172.15 44.5 -172.15 Q40.8 -176.0 45.7 -180.0 L48.65 -182.65 M16.95 -100.0 Q23.65 -111.0 8.8 -120.05 3.3 -118.95 0.45 -114.25 -5.6 -104.4 -0.05 -97.75 -7.45 -92.5 -13.1 -85.55 L-24.25 -70.9 Q-30.9 -61.9 -31.35 -50.9 -31.45 -48.6 -29.7 -47.2 -36.35 -47.0 -42.0 -52.55 -56.3 -66.45 -55.05 -87.7 -53.15 -120.05 -28.15 -139.0 -16.8 -147.6 -4.15 -141.65 15.0 -132.7 20.65 -111.9 22.2 -118.15 24.5 -124.2 34.65 -150.7 61.25 -148.05 66.9 -146.4 71.55 -143.05 68.6 -136.8 68.95 -129.75 69.45 -119.55 71.05 -109.45 72.6 -99.9 69.6 -90.85 66.35 -80.9 61.85 -71.35 57.9 -63.05 61.15 -54.65 57.1 -55.55 52.65 -57.8 30.95 -68.85 23.35 -91.5 L22.65 -93.65 22.05 -93.9 Q20.55 -96.95 16.95 -100.0 M8.45 -105.8 Q6.4 -104.4 3.75 -104.7 -2.3 -105.55 0.9 -112.25 9.65 -114.2 8.45 -105.8 M33.35 -104.85 Q26.85 -106.2 29.7 -111.1 34.55 -112.75 38.05 -108.55 37.55 -104.0 33.35 -104.85 M30.55 -118.65 Q24.25 -113.55 24.45 -105.3 24.65 -98.1 31.05 -94.7 39.05 -90.45 42.1 -100.0 48.0 -118.35 30.55 -118.65 M27.75 -69.25 L30.5 -61.0 29.9 -60.0 28.4 -60.0 Q24.95 -63.95 24.5 -69.35 L26.0 -71.55 26.65 -71.75 28.5 -70.75 27.75 -69.25 M39.1 -31.35 L50.6 -18.15 50.85 -17.6 51.85 -16.85 50.5 -16.6 Q43.75 -13.35 39.2 -21.1 36.6 -25.5 37.45 -30.55 L39.1 -31.35 M97.65 -11.3 Q101.65 -8.1 104.65 -3.95 110.9 4.55 109.5 15.55 101.9 17.85 92.05 15.6 L91.6 14.4 90.4 13.65 Q89.5 3.45 84.95 -5.75 91.3 -8.5 97.65 -11.3 M133.25 -26.85 Q139.55 -19.05 141.5 -9.15 143.55 1.35 141.2 11.7 L137.6 12.0 133.3 11.25 132.05 10.05 125.95 -23.6 133.25 -26.85 M-24.65 -205.05 L-24.75 -204.3 -26.4 -202.75 Q-27.1 -195.75 -31.35 -190.3 -34.7 -192.9 -34.05 -196.95 -32.75 -205.3 -25.65 -206.5 L-24.65 -205.05 M-174.9 -48.0 L-173.85 -47.2 Q-170.85 -44.5 -174.5 -41.9 L-180.15 -39.6 Q-181.65 -45.85 -174.9 -48.0 M-183.8 -33.45 Q-183.15 -30.5 -184.45 -27.85 -188.95 -18.25 -190.25 -7.6 L-191.15 -5.85 -192.65 -5.85 -193.4 -6.6 -192.6 -19.7 Q-191.95 -28.15 -186.15 -33.95 L-183.8 -33.45 M-10.9 -183.0 L-8.9 -180.75 Q-13.55 -171.05 -23.1 -166.25 -25.7 -164.9 -27.9 -162.75 L-29.0 -163.75 Q-24.4 -172.45 -16.85 -178.55 L-10.9 -183.0 M-103.5 -164.55 L-100.5 -159.0 -101.15 -157.85 -102.7 -158.2 Q-113.55 -163.55 -107.65 -173.75 L-106.75 -173.25 Q-103.2 -170.1 -103.5 -164.55 M-145.8 -128.7 L-143.95 -130.4 -142.3 -130.0 -141.8 -129.25 Q-144.65 -118.65 -149.9 -109.0 L-152.65 -109.0 -153.15 -109.35 Q-153.95 -120.8 -145.8 -128.7 M-81.4 -129.85 Q-77.4 -125.4 -82.15 -121.75 L-83.15 -119.55 -84.25 -120.0 Q-84.75 -125.2 -82.15 -129.7 L-81.4 -129.85 M-93.6 -29.6 L-93.4 -30.35 Q-94.5 -32.75 -93.15 -34.65 -90.85 -37.85 -88.9 -41.3 -82.8 -52.25 -80.25 -64.45 L-79.5 -65.1 -78.15 -65.0 Q-74.8 -48.3 -86.3 -34.8 -89.95 -30.5 -93.6 -29.6 M-34.25 22.65 L-34.8 24.05 Q-37.7 34.05 -30.45 41.65 L-69.7 54.35 -70.45 53.2 -62.95 12.8 -34.25 22.65 M22.55 28.65 Q2.9 33.9 -16.7 38.6 L-18.95 36.1 -18.2 26.8 -14.4 27.4 Q4.6 29.85 22.5 24.55 22.1 26.3 22.55 28.65 M-75.45 7.05 L-80.55 18.8 Q-84.8 28.3 -87.35 38.25 -89.35 46.25 -88.5 54.25 -88.15 57.85 -84.75 59.4 L-130.35 75.3 Q-128.5 60.2 -125.5 45.4 -120.85 22.15 -104.8 7.15 -102.3 6.05 -99.7 5.4 -87.1 2.0 -75.45 7.05 M-39.4 94.45 L-39.5 95.5 Q-39.7 103.15 -36.45 110.1 L-59.6 124.15 -63.85 102.85 Q-61.35 100.7 -58.55 99.1 -49.65 93.95 -39.4 94.45 M18.15 91.75 Q0.8 92.15 -15.65 98.5 L-16.0 97.55 Q-17.35 92.9 -12.95 90.9 3.05 86.95 19.3 84.7 18.3 88.1 18.15 91.75 M-151.95 70.15 L-151.2 70.9 Q-147.8 75.15 -149.55 80.9 L-147.5 110.6 -148.65 112.75 -148.6 113.8 -149.2 114.05 -149.8 112.55 Q-151.75 111.9 -152.3 109.85 -157.2 90.8 -153.8 71.25 L-151.95 70.15 M-73.25 132.35 L-90.15 142.75 Q-94.0 134.95 -96.85 126.8 -99.85 118.3 -101.2 109.35 L-97.3 107.35 Q-89.15 103.3 -80.15 102.1 -82.45 107.25 -81.7 112.95 -80.3 123.9 -73.25 132.35 M-112.1 109.45 L-112.45 110.0 Q-116.0 120.2 -114.2 131.1 -112.45 141.6 -106.0 149.9 L-109.15 151.1 -107.9 149.75 Q-110.1 151.3 -111.9 149.95 -121.95 142.5 -125.7 129.95 L-127.1 123.9 Q-130.0 106.8 -112.1 109.45 M-142.15 122.15 L-142.05 123.8 Q-142.15 126.25 -143.65 128.0 L-144.2 128.65 -145.8 128.65 Q-149.5 123.6 -146.7 117.4 L-145.45 117.15 Q-142.65 118.9 -142.15 122.15 M-10.85 108.1 Q-14.55 117.7 -25.25 115.85 L-25.35 115.5 Q-25.05 109.2 -17.8 108.6 L-13.65 106.8 -10.85 108.1 M-26.25 165.3 Q-23.95 167.6 -22.95 170.5 -20.85 176.9 -25.15 181.7 -26.65 183.35 -27.9 181.45 -32.35 174.95 -29.8 166.3 L-28.5 165.3 -26.25 165.3 M-168.9 63.65 Q-163.8 71.35 -170.9 78.5 -176.45 75.6 -173.35 68.7 -172.1 65.95 -169.9 63.8 L-168.9 63.65 M59.8 8.2 L60.8 9.35 Q65.4 14.6 67.0 21.4 55.3 24.65 42.65 24.45 L41.3 22.95 40.65 17.7 Q50.35 13.2 59.8 8.2 M114.65 69.9 Q115.85 80.35 114.7 90.8 113.5 101.75 107.7 111.05 95.8 109.4 84.4 104.0 L85.65 101.1 Q89.85 90.4 89.6 78.65 97.05 73.4 104.45 71.35 110.05 69.8 114.65 69.9 M76.9 81.2 L72.55 101.0 38.85 93.25 40.8 83.7 Q50.75 81.4 60.6 78.7 69.4 76.45 76.9 81.2" fill="#ffffff" fill-rule="evenodd" stroke="none"/>
    <path d="M42.15 -204.35 L49.95 -201.8 48.95 -188.1 42.75 -183.3 42.15 -204.35 M123.7 -134.55 L107.5 -123.25 104.65 -128.9 114.0 -136.7 132.55 -153.35 Q133.45 -151.4 135.1 -149.8 136.4 -148.45 138.1 -147.5 L133.6 -143.35 123.7 -134.55 M178.75 -86.4 L181.25 -84.9 Q178.9 -74.4 186.0 -66.45 188.15 -64.05 191.35 -63.65 L191.05 -58.65 185.55 -61.15 Q172.05 -52.15 165.05 -39.85 L161.05 -50.5 173.35 -72.85 Q178.1 -81.25 178.75 -86.4 M-164.25 -84.4 L-165.1 -66.55 Q-156.95 -57.1 -149.1 -50.3 L-138.0 -40.55 -134.35 -37.3 Q-131.9 -38.3 -129.5 -39.45 L-121.95 -43.95 Q-116.3 -47.55 -107.9 -55.65 L-92.05 -71.05 Q-92.55 -78.4 -92.15 -90.55 -91.8 -102.7 -91.85 -110.15 -91.9 -117.6 -94.3 -123.7 -98.7 -128.8 -105.4 -138.9 -112.1 -149.05 -121.4 -159.95 -119.15 -160.5 -117.85 -162.3 L-116.55 -164.25 -116.5 -164.4 -116.1 -165.35 -115.45 -167.45 -112.2 -160.95 Q-108.5 -154.05 -103.9 -147.8 -101.25 -144.25 -97.4 -142.0 -94.25 -140.1 -90.7 -140.4 L-88.4 -140.8 Q-84.95 -141.55 -79.8 -144.4 -74.7 -147.25 -62.1 -157.05 -49.55 -166.85 -44.8 -173.65 -40.05 -180.5 -40.0 -183.6 -39.95 -186.7 -40.6 -193.65 -41.25 -200.6 -43.5 -208.3 L-39.95 -206.75 -38.1 -207.0 Q-36.85 -199.25 -37.35 -190.9 -37.85 -182.6 -35.4 -172.55 L-38.0 -169.3 -42.3 -169.9 -45.7 -167.3 Q-46.15 -166.5 -47.35 -165.5 L-46.8 -166.2 -79.0 -137.0 -79.65 -136.45 -81.85 -134.1 -81.8 -134.2 -83.3 -132.2 Q-86.45 -126.7 -88.0 -120.6 -88.65 -118.3 -88.4 -113.1 L-87.8 -96.9 Q-87.4 -85.95 -86.9 -81.9 -86.4 -77.9 -87.25 -71.3 -88.25 -63.5 -92.2 -56.55 L-93.1 -56.65 Q-107.85 -48.6 -118.65 -35.6 -124.45 -28.5 -125.9 -19.5 -127.15 -11.55 -126.2 -3.65 L-131.65 2.45 Q-131.55 0.35 -131.85 -2.65 -133.1 -14.5 -132.6 -24.25 L-141.35 -33.2 -151.75 -45.05 Q-158.05 -52.4 -166.45 -59.55 L-175.25 -54.75 -178.95 -52.75 -187.5 -48.1 -187.5 -53.6 Q-179.45 -54.25 -174.65 -60.65 -171.25 -65.2 -169.25 -70.4 -168.1 -73.5 -167.4 -76.8 -165.35 -87.0 -167.8 -97.15 -165.95 -99.2 -164.8 -101.7 L-163.65 -104.7 -163.15 -106.2 -163.9 -90.95 -164.25 -84.4 M-152.9 40.35 L-154.5 45.6 -176.95 59.2 -181.55 91.0 -186.25 83.45 -185.85 82.3 Q-184.05 69.55 -178.45 57.95 L-178.6 56.45 -180.25 55.35 Q-186.3 51.55 -193.35 50.4 L-190.95 44.7 Q-185.55 50.1 -177.2 51.95 L-152.9 40.35 M-150.7 143.7 L-157.4 133.75 -154.2 134.4 -150.7 143.7 M-9.5 144.9 Q-26.1 151.4 -39.2 164.2 L-40.85 184.25 Q-41.75 194.3 -41.8 205.3 L-46.4 201.15 Q-47.2 197.9 -47.25 187.25 -47.3 176.55 -48.9 166.35 L-50.6 155.1 Q-54.4 154.2 -58.1 152.35 L-51.35 148.05 Q-46.6 157.85 -36.5 154.25 -25.35 150.35 -15.65 143.5 -6.35 136.85 -6.4 126.85 L-2.45 125.5 Q-2.15 129.55 1.75 130.6 10.05 132.85 18.05 135.95 36.5 143.2 55.55 142.2 66.05 141.85 73.65 134.65 L79.9 137.15 57.65 151.2 57.1 153.85 Q55.8 162.8 56.05 171.8 L56.5 189.2 53.7 190.45 Q52.85 187.5 52.1 175.4 51.35 163.3 48.3 147.85 L30.25 145.5 21.25 144.65 5.75 143.9 Q-6.0 143.55 -9.3 144.85 L-9.45 144.95 -9.5 144.9 M169.15 37.8 Q179.55 41.1 190.2 43.95 L190.8 47.45 183.15 53.85 Q178.4 70.65 177.85 87.85 L175.15 87.7 Q183.55 56.85 157.25 38.95 L158.3 33.55 Q158.75 34.45 169.15 37.8" fill="#777e1f" fill-rule="evenodd" stroke="none"/>
    <path d="M-169.8 -85.35 Q-169.85 -82.3 -170.4 -79.25 -170.75 -77.4 -171.25 -75.65 -173.9 -66.75 -180.95 -60.4 L-181.65 -67.65 -169.8 -85.35 M97.7 -144.45 Q104.2 -146.75 109.7 -150.9 118.35 -157.5 128.45 -155.5 L102.75 -132.75 97.7 -144.45 M148.3 -143.95 Q161.1 -130.45 169.9 -114.05 174.35 -105.65 175.55 -96.2 176.05 -92.15 177.05 -88.35 172.8 -73.6 158.75 -54.25 150.85 -65.85 137.25 -69.8 121.15 -95.4 107.9 -122.5 L112.85 -125.55 Q114.7 -125.7 116.4 -124.95 123.7 -121.95 127.45 -114.8 134.6 -118.1 139.35 -124.45 146.0 -133.3 148.3 -143.95 M41.0 -44.85 Q37.65 -50.65 43.7 -52.45 44.3 -52.6 44.95 -52.1 53.5 -45.65 63.9 -42.7 69.6 -41.1 75.6 -42.75 86.4 -45.5 93.2 -54.3 99.7 -62.8 102.5 -73.05 105.3 -83.3 105.3 -94.0 105.3 -104.75 102.55 -115.15 100.05 -124.5 93.65 -131.65 L83.7 -142.35 Q76.95 -149.45 72.3 -157.9 66.85 -167.7 65.7 -178.55 65.2 -183.15 68.85 -186.2 74.05 -182.2 76.9 -176.05 103.4 -119.25 135.65 -65.8 142.15 -63.85 147.3 -59.95 155.3 -53.8 158.8 -44.25 163.25 -32.05 162.05 -18.95 160.6 -2.75 157.2 13.2 148.55 54.15 146.5 95.9 145.6 113.75 138.9 130.25 135.75 137.95 127.55 139.75 115.5 142.4 103.4 139.65 87.35 136.05 72.4 129.0 33.05 110.3 -7.1 124.9 L-10.4 126.0 Q-44.25 139.3 -74.6 158.95 L-81.85 163.45 Q-90.2 168.4 -98.9 172.5 -104.25 175.05 -109.8 175.1 -111.5 171.35 -109.2 168.05 -105.0 162.1 -98.3 158.7 -89.4 154.2 -80.65 149.45 -71.95 144.7 -63.05 140.25 -54.65 136.05 -46.15 132.1 -36.9 127.95 -27.55 123.95 -18.55 120.05 -9.2 117.2 0.15 114.15 10.0 112.9 L30.85 111.6 Q40.95 111.55 50.6 113.55 60.5 115.65 70.0 118.4 L84.75 122.1 Q94.8 124.25 105.5 124.75 115.3 125.15 124.95 123.45 129.0 122.9 131.85 120.5 139.85 113.7 140.6 102.6 L141.55 83.1 Q141.8 73.75 142.45 64.4 143.1 54.85 144.7 45.55 146.25 36.45 148.2 27.5 150.1 18.85 151.5 10.05 L154.95 -9.45 Q156.75 -19.1 154.45 -28.3 151.65 -39.65 139.75 -38.7 129.95 -38.05 120.75 -34.55 L104.05 -28.1 Q94.1 -24.2 83.5 -21.75 73.55 -19.4 63.7 -21.6 52.3 -24.3 46.7 -34.2 61.75 -25.1 79.55 -34.3 58.6 -32.85 43.15 -43.3 L41.0 -44.85 M19.6 -161.8 Q8.55 -155.75 1.65 -166.25 -2.25 -172.2 -2.45 -179.25 -2.7 -187.0 2.25 -192.75 8.7 -187.7 9.4 -179.15 10.35 -167.6 19.6 -161.8 M56.55 -153.25 L54.65 -153.2 Q28.65 -150.45 19.65 -123.95 18.2 -128.25 16.05 -131.85 17.5 -137.85 20.8 -143.05 26.35 -151.9 36.2 -155.05 46.8 -158.3 56.55 -153.25 M7.95 -141.3 Q3.8 -144.8 -1.55 -147.15 -9.65 -150.7 -18.0 -148.25 -44.05 -140.55 -53.7 -113.45 -64.35 -83.35 -50.8 -54.9 -49.35 -51.85 -47.2 -49.7 -50.3 -50.95 -52.95 -53.15 -61.2 -60.0 -64.75 -69.9 -68.3 -79.8 -66.85 -90.3 -65.35 -100.95 -63.4 -111.45 -61.45 -122.05 -55.4 -130.8 -50.25 -138.3 -43.45 -144.45 -36.6 -150.6 -27.95 -153.75 -17.55 -157.6 -6.95 -154.5 3.6 -151.45 7.95 -141.3 M15.65 -176.5 Q25.35 -180.3 30.45 -189.2 35.6 -198.3 37.4 -208.4 38.55 -199.55 38.15 -188.85 37.7 -178.15 31.9 -172.05 26.05 -165.95 19.55 -165.4 L15.65 -176.5 M-51.25 -19.5 Q-61.25 -20.25 -67.2 -28.25 -69.2 -30.95 -66.2 -32.9 -61.85 -35.7 -56.45 -34.75 -48.35 -33.5 -40.2 -34.95 -25.65 -37.5 -11.9 -43.6 -0.35 -48.8 7.4 -58.6 12.15 -64.6 16.55 -70.9 L16.4 -68.55 Q15.05 -58.55 10.15 -49.95 L10.9 -53.65 9.4 -53.7 Q2.35 -40.55 -9.75 -32.3 -28.15 -19.7 -50.2 -19.5 L-50.9 -19.5 -51.25 -19.5 M-132.5 113.7 Q-135.25 106.9 -136.45 99.7 -140.15 78.1 -138.05 56.2 -136.05 35.3 -126.5 16.75 -120.0 4.05 -108.05 -4.05 -93.8 -13.6 -76.75 -11.0 -53.55 -7.75 -30.65 -13.5 -16.35 -16.95 -3.65 -24.35 L3.2 -28.85 Q8.95 -33.1 12.55 -39.15 18.9 -33.3 20.35 -24.55 22.2 -13.55 16.7 -3.65 11.55 5.7 2.0 11.05 -8.0 16.75 -19.2 14.45 -29.4 12.45 -39.5 9.75 -47.5 7.8 -55.5 9.8 -63.95 6.5 -72.3 3.0 L-72.75 2.8 Q-88.5 -3.55 -103.0 4.25 -112.25 9.3 -116.85 18.75 -126.8 39.1 -131.15 61.55 -135.7 85.3 -133.0 109.3 L-132.4 113.7 -132.5 113.7 M191.4 -67.55 L186.05 -70.55 183.25 -81.9 Q190.55 -77.05 191.3 -68.6 L191.4 -67.55 M168.95 -42.95 Q167.85 -35.1 169.15 -27.55 169.3 -26.6 170.25 -26.15 L171.55 -26.35 Q177.05 -27.4 180.35 -32.25 185.85 -40.5 192.95 -47.35 203.15 -11.15 195.5 27.0 194.1 34.2 190.6 39.0 190.3 38.6 183.45 36.85 176.55 35.15 169.4 33.85 162.25 32.5 159.4 28.05 161.45 20.3 162.65 12.6 166.75 -13.2 165.15 -39.35 L168.95 -42.95 M-48.8 -207.1 L-46.85 -207.65 Q-45.1 -197.75 -43.6 -191.05 -42.15 -184.4 -43.7 -181.6 -45.3 -178.8 -49.8 -173.5 -54.3 -168.2 -62.8 -161.35 -71.3 -154.55 -77.6 -150.5 -83.95 -146.45 -90.7 -141.05 L-96.8 -145.15 Q-93.5 -150.8 -88.6 -155.05 -84.8 -158.3 -80.6 -160.75 -72.2 -165.8 -64.65 -172.1 -58.7 -177.15 -56.9 -184.35 -56.2 -187.0 -56.4 -189.65 -57.25 -200.45 -48.8 -207.1 M-164.0 -55.45 Q-145.1 -33.2 -136.95 -21.75 -136.55 -14.5 -135.3 -4.25 -134.05 6.0 -137.8 11.15 -141.55 16.3 -150.1 33.1 -155.7 35.8 -164.8 40.55 -173.95 45.3 -176.9 47.3 -182.9 44.55 -189.45 39.5 -196.05 34.4 -197.0 34.1 -189.35 29.0 -179.8 29.05 -177.1 29.05 -174.4 27.95 -164.25 23.9 -157.95 14.9 -152.0 6.25 -150.9 -4.1 -149.75 -14.85 -155.85 -23.75 -160.4 -30.35 -165.7 -36.35 -169.3 -40.35 -168.7 -45.65 -168.05 -51.25 -164.0 -55.45 M-135.25 -42.9 Q-135.4 -46.95 -133.75 -50.65 -129.3 -60.4 -119.85 -65.55 -108.6 -71.6 -110.75 -83.55 -112.45 -92.75 -113.35 -102.15 -113.6 -104.5 -112.85 -106.7 -109.5 -116.4 -110.7 -126.2 -111.0 -128.45 -113.0 -129.3 -120.5 -132.65 -124.2 -139.8 -129.2 -149.4 -124.55 -159.25 L-121.45 -154.65 -97.95 -122.3 -97.75 -112.55 -97.15 -85.05 Q-97.05 -73.85 -97.45 -72.4 -112.5 -54.6 -131.7 -40.9 L-133.95 -41.15 -135.25 -42.9 M-157.8 61.7 Q-159.0 69.45 -159.65 77.4 -161.35 98.75 -157.8 119.75 L-161.6 116.1 Q-168.75 108.35 -168.5 97.75 -168.25 87.1 -166.5 76.5 -165.0 67.4 -157.8 61.7 M-72.75 197.2 Q-79.1 188.45 -87.4 181.45 -88.15 180.85 -88.2 179.7 -88.35 173.8 -83.3 170.4 -71.3 163.5 -60.7 154.1 L-58.15 155.5 Q-55.75 156.95 -53.05 158.25 -52.3 163.4 -52.1 171.3 L-51.4 189.8 Q-50.95 200.4 -58.9 203.2 -60.15 201.75 -64.2 200.55 -68.25 199.3 -72.75 197.2 M22.0 147.9 L30.35 149.8 36.45 150.85 Q38.4 151.1 43.4 152.75 47.3 170.0 46.45 196.2 L43.75 197.5 Q19.65 208.55 -5.05 210.1 -12.3 203.1 -10.5 193.15 -8.5 182.25 -11.25 171.65 -11.4 171.1 -11.0 170.65 -4.2 163.2 5.7 161.05 11.5 159.7 16.4 156.1 20.75 153.0 22.0 147.9 M-11.1 128.55 L-12.3 130.05 Q-25.1 144.2 -42.35 152.6 L-50.0 147.25 Q-31.3 136.2 -11.1 128.55 M-0.35 128.2 L-0.8 124.95 Q9.4 120.5 20.25 121.35 43.8 122.65 65.65 132.0 L64.25 132.85 Q55.5 137.8 45.4 136.25 22.45 132.9 -0.35 128.2 M-193.25 70.15 L-192.4 68.35 Q-189.2 61.7 -182.7 58.45 L-189.35 80.95 -193.25 70.15 M171.8 84.65 Q171.55 85.95 166.85 96.05 162.15 106.15 155.15 119.0 148.15 131.85 144.9 133.4 151.25 112.05 151.05 89.55 150.8 65.1 156.75 41.4 L173.85 57.65 Q174.55 69.85 171.8 84.65 M182.9 56.35 L190.55 51.85 Q191.85 65.55 185.25 77.7 182.75 82.35 179.55 86.7 L182.9 56.35 M73.7 187.0 L72.65 182.45 Q69.5 171.95 72.35 161.7 72.6 160.75 73.4 160.3 80.05 156.4 86.1 151.45 86.7 150.95 86.75 150.2 87.4 141.55 77.75 140.2 L81.4 137.8 87.75 140.7 Q110.0 150.9 134.1 144.45 132.45 146.2 135.15 148.65 129.6 154.6 124.65 158.75 119.7 162.9 106.45 170.4 93.2 177.85 73.7 187.0" fill="#bbaf1c" fill-rule="evenodd" stroke="none"/>
    <path d="M16.95 -100.0 Q20.55 -96.95 22.05 -93.9 L16.1 -84.6 Q1.95 -61.15 -21.65 -49.4 -25.85 -47.3 -29.7 -47.2 -31.45 -48.6 -31.35 -50.9 -30.9 -61.9 -24.25 -70.9 L-13.1 -85.55 Q-7.45 -92.5 -0.05 -97.75 8.65 -87.75 16.05 -98.65 L16.95 -100.0 M61.15 -54.65 Q57.9 -63.05 61.85 -71.35 66.35 -80.9 69.6 -90.85 72.6 -99.9 71.05 -109.45 69.45 -119.55 68.95 -129.75 68.6 -136.8 71.55 -143.05 L75.15 -140.1 Q89.2 -127.0 93.65 -108.1 98.7 -86.4 87.1 -67.65 76.85 -51.15 61.15 -54.65 M97.65 -11.3 L115.95 -19.35 Q122.4 -9.05 122.5 3.25 122.55 6.0 120.85 7.9 116.05 13.45 109.5 15.55 110.9 4.55 104.65 -3.95 101.65 -8.1 97.65 -11.3 M133.25 -26.85 L147.9 -28.15 Q148.6 -15.05 146.25 -2.1 145.05 4.65 143.05 11.2 L141.2 11.7 Q143.55 1.35 141.5 -9.15 139.55 -19.05 133.25 -26.85 M-30.45 41.65 Q-37.7 34.05 -34.8 24.05 L-34.25 22.65 -27.3 25.05 Q-30.3 32.75 -28.85 41.1 L-30.45 41.65 M22.55 28.65 Q22.1 26.3 22.5 24.55 L31.35 21.45 31.05 26.35 22.55 28.65 M-75.45 7.05 Q-72.25 8.4 -69.15 10.4 L-70.9 15.0 Q-78.6 35.5 -78.25 57.1 L-84.75 59.4 Q-88.15 57.85 -88.5 54.25 -89.35 46.25 -87.35 38.25 -84.8 28.3 -80.55 18.8 L-75.45 7.05 M-39.4 94.45 L-31.35 93.95 -26.2 103.9 -36.45 110.1 Q-39.7 103.15 -39.5 95.5 L-39.4 94.45 M18.15 91.75 Q18.3 88.1 19.3 84.7 L24.9 83.95 Q29.0 87.05 29.3 92.1 L18.15 91.75 M-73.25 132.35 Q-80.3 123.9 -81.7 112.95 -82.45 107.25 -80.15 102.1 L-74.6 101.7 -67.3 128.65 -73.25 132.35 M-112.1 109.45 L-109.7 109.85 Q-110.45 130.35 -98.35 147.0 L-106.0 149.9 Q-112.45 141.6 -114.2 131.1 -116.0 120.2 -112.45 110.0 L-112.1 109.45 M59.8 8.2 L78.0 -2.3 Q82.2 3.5 82.05 10.25 82.0 11.85 81.2 13.1 76.5 20.25 67.0 21.4 65.4 14.6 60.8 9.35 L59.8 8.2 M107.7 111.05 Q113.5 101.75 114.7 90.8 115.85 80.35 114.65 69.9 125.15 70.1 130.85 78.95 L132.8 81.95 121.9 111.6 107.7 111.05 M76.9 81.2 Q78.85 82.7 80.3 85.05 79.9 93.7 76.3 101.85 L72.55 101.0 76.9 81.2" fill="#ebebeb" fill-rule="evenodd" stroke="none"/>
    <path d="M80.75 -3.7 L83.9 -5.25 88.55 13.25 86.05 13.7 86.1 11.2 Q86.75 2.3 80.75 -3.7 M120.0 -21.05 L125.5 -23.45 129.1 9.45 125.7 10.3 126.35 5.4 Q127.5 -8.85 120.0 -21.05 M-21.95 36.85 L-25.2 38.65 -25.55 35.45 Q-26.05 30.5 -24.2 25.75 L-19.6 26.6 -21.95 36.85 M-24.75 95.25 L-17.9 93.4 -17.5 99.8 -22.7 102.8 -24.75 95.25 M-67.9 10.95 L-64.8 12.15 -74.1 55.2 -76.65 56.45 Q-73.5 33.45 -67.9 10.95 M-107.2 109.1 L-105.45 110.1 -104.55 109.85 Q-101.65 128.1 -91.65 143.6 L-94.95 145.35 Q-108.55 129.8 -107.2 109.1 M-69.8 103.5 L-65.85 102.35 Q-64.55 113.8 -60.5 124.7 L-64.8 127.2 -69.8 103.5 M82.9 80.9 L86.7 80.45 Q87.7 92.5 83.15 103.65 L79.05 102.55 80.45 100.15 Q85.45 91.0 82.9 80.9 M37.15 93.0 L33.2 92.5 31.6 85.75 37.75 86.65 37.15 93.0 M34.15 24.4 L34.5 20.25 39.4 18.25 39.6 22.8 34.15 24.4" fill="#666666" fill-rule="evenodd" stroke="none"/>
    <path d="M-24.45 41.1 L-20.75 39.45 Q-19.5 40.1 -18.2 40.1 2.95 39.85 22.95 32.1 28.25 30.05 33.45 27.45 50.95 27.5 67.4 23.55 78.55 20.85 89.2 16.35 L92.5 18.1 Q101.1 22.1 108.9 20.95 117.25 19.7 124.65 12.6 L128.9 12.15 Q131.4 14.55 134.7 15.6 L139.95 15.95 142.35 15.25 134.6 74.95 Q124.5 68.55 114.35 67.75 98.35 66.45 82.2 79.15 80.05 77.95 77.9 77.15 68.8 73.85 59.15 77.85 44.75 83.7 30.55 83.1 L30.0 83.35 26.3 79.95 Q5.2 80.15 -13.35 90.1 -18.2 92.75 -23.35 91.2 -47.75 83.65 -65.2 100.6 L-70.1 101.35 -73.1 97.85 Q-90.75 98.1 -105.6 107.7 L-107.9 106.25 Q-120.2 103.2 -128.7 111.0 -130.6 94.15 -130.45 77.2 -103.4 72.8 -78.65 61.8 -74.85 60.1 -71.1 58.25 L-69.85 58.85 -44.95 53.6 Q-33.75 51.3 -26.9 44.1 L-24.45 41.1" fill="#333333" fill-rule="evenodd" stroke="none"/>
    <path d="M-132.25 114.85 L-132.5 113.7 -132.4 113.7 -132.25 114.85" fill="#ddcf20" fill-rule="evenodd" stroke="none"/>
  </g>
</svg>
