<?xml version="1.0" encoding="UTF-8" standalone="no"?>
<svg xmlns:xlink="http://www.w3.org/1999/xlink" height="630.7px" width="569.05px" xmlns="http://www.w3.org/2000/svg">
  <g transform="matrix(1.0, 0.0, 0.0, 1.0, 284.5, 315.35)">
    <path d="M-186.65 -241.55 Q-167.35 -251.4 -147.1 -259.3 -127.2 -267.0 -108.05 -276.25 -88.45 -285.6 -69.0 -295.1 L-65.25 -296.8 Q-76.0 -281.75 -57.9 -273.3 -46.95 -268.3 -35.0 -269.3 -16.1 -257.75 6.05 -257.35 28.45 -256.9 48.45 -266.45 66.8 -275.2 72.2 -294.5 L71.45 -295.25 70.2 -295.5 64.7 -292.05 Q65.4 -295.35 64.1 -299.35 63.25 -302.1 61.85 -304.25 L67.9 -304.5 Q84.35 -305.45 99.55 -300.3 80.2 -289.35 88.85 -268.45 90.5 -264.45 94.8 -264.1 112.85 -262.6 121.6 -247.55 108.55 -257.0 92.7 -260.05 70.8 -264.45 50.0 -255.7 32.45 -248.3 13.4 -248.25 -10.4 -248.15 -32.15 -257.9 -49.25 -265.55 -67.8 -263.8 -86.7 -262.15 -98.6 -247.45 -83.25 -255.25 -66.05 -253.2 -72.5 -251.9 -78.4 -249.35 -98.4 -240.55 -107.05 -220.5 -115.55 -200.95 -110.65 -180.15 -110.3 -178.75 -110.5 -177.4 -113.1 -158.0 -101.95 -141.35 -101.6 -139.2 -100.7 -137.15 -98.5 -132.1 -94.6 -131.4 -78.55 -115.45 -55.8 -116.95 -34.25 -119.0 -16.5 -131.55 -0.75 -142.7 3.5 -161.45 L8.95 -174.95 10.75 -168.7 Q6.15 -155.75 13.75 -144.4 26.25 -125.6 48.9 -123.8 70.45 -122.35 88.15 -134.25 107.0 -146.95 111.25 -169.1 119.7 -180.45 122.75 -194.15 L123.3 -196.9 Q136.95 -212.5 125.2 -229.65 L124.35 -230.65 Q132.55 -231.55 129.35 -239.15 L128.6 -240.4 Q138.85 -247.0 137.8 -261.25 137.7 -262.4 137.75 -263.6 168.1 -259.0 187.8 -233.75 196.6 -222.5 196.15 -208.05 195.05 -170.45 206.0 -134.65 212.9 -112.2 226.25 -92.9 233.35 -82.7 236.45 -70.6 238.4 -63.15 234.8 -56.25 224.8 -37.4 204.35 -31.6 L196.2 -102.85 Q191.45 -91.3 190.4 -78.85 L190.45 -81.5 Q185.15 -123.45 155.35 -153.55 L154.75 -153.55 Q151.4 -140.1 152.8 -125.95 154.5 -109.0 158.5 -92.5 167.6 -55.0 163.7 -17.15 159.45 -27.6 154.05 -37.35 L144.65 -53.9 Q135.05 -70.55 117.2 -69.7 L120.8 -64.05 Q135.15 -42.75 140.75 -17.95 148.5 16.25 153.45 50.9 154.75 59.9 153.6 68.75 150.5 92.1 129.75 106.8 L156.3 136.3 Q166.35 147.4 169.25 162.2 176.8 200.45 161.95 236.6 157.3 237.6 152.95 239.4 137.9 245.3 122.6 250.55 104.6 256.75 87.05 251.0 81.0 249.1 75.9 245.55 72.75 243.25 72.2 239.4 71.15 232.45 74.6 226.5 80.9 215.7 92.45 211.1 108.3 204.75 114.4 188.7 115.9 184.85 114.9 180.9 110.15 161.45 101.9 142.75 90.65 117.3 85.65 89.95 82.75 74.2 67.8 68.8 55.7 94.65 62.35 123.7 65.25 136.35 59.7 148.05 57.85 152.0 55.05 155.05 51.9 158.45 47.6 160.4 41.65 163.05 35.15 164.05 20.75 165.75 17.9 179.65 13.15 202.7 12.1 226.65 11.95 229.85 10.7 232.75 9.8 234.85 7.95 236.2 1.4 240.9 -7.3 240.15 -22.15 238.7 -32.25 228.2 -41.0 219.25 -38.85 206.75 -35.05 184.25 -29.8 161.9 -18.3 113.05 -11.75 63.25 -9.3 44.65 -20.85 29.85 -33.55 46.5 -39.45 66.7 -49.85 102.4 -65.0 136.4 -73.85 156.35 -87.1 173.4 -108.5 201.05 -106.85 235.9 -125.05 229.65 -144.0 235.65 -155.55 239.3 -167.35 242.25 -184.3 246.45 -200.9 252.0 -223.75 259.65 -218.15 283.1 -233.85 267.35 -232.0 244.8 -230.45 226.3 -224.9 208.45 -218.45 187.85 -212.9 167.1 L-202.9 129.35 Q-198.15 111.35 -194.7 92.8 -190.65 71.15 -192.6 49.25 -194.45 28.05 -184.95 8.95 -175.6 -9.9 -171.8 -30.7 -167.95 -51.9 -168.8 -73.55 -169.5 -91.9 -174.5 -109.6 -169.15 -139.45 -180.6 -166.6 -188.9 -151.8 -193.4 -135.4 -198.95 -115.3 -209.75 -97.6 -220.6 -79.75 -233.15 -62.9 -247.5 -43.65 -230.1 -26.85 L-267.4 -52.15 Q-267.3 -67.25 -262.2 -81.75 -254.95 -102.45 -245.0 -122.15 -236.85 -138.35 -229.5 -154.75 -221.9 -171.85 -215.95 -189.6 -209.25 -209.75 -200.35 -228.95 L-202.3 -219.5 -203.2 -209.4 -202.3 -191.65 Q-200.4 -191.1 -199.7 -192.45 -191.4 -208.2 -185.55 -225.95 -185.1 -227.3 -183.9 -227.9 -167.1 -236.6 -151.15 -246.85 L-151.2 -247.45 -155.6 -247.8 Q-171.8 -248.3 -186.65 -241.55 M2.75 -207.1 Q-14.75 -219.85 -36.3 -221.5 -57.9 -222.35 -78.55 -216.5 -93.75 -212.25 -103.55 -199.85 -105.65 -209.25 -100.7 -218.7 -93.0 -233.5 -77.4 -241.3 -56.1 -251.75 -35.9 -242.3 -41.05 -233.7 -42.15 -223.55 -37.25 -225.3 -32.0 -225.2 -9.8 -224.65 2.75 -207.1 M7.1 -225.85 Q16.0 -225.65 25.5 -227.75 39.85 -230.85 53.05 -236.3 L60.6 -226.8 70.8 -227.45 Q93.05 -227.2 110.55 -212.9 111.35 -209.35 111.5 -205.7 L105.35 -210.3 Q86.15 -222.8 62.1 -222.75 L53.45 -221.45 50.45 -221.15 Q26.95 -217.45 8.5 -202.6 L7.75 -203.25 Q8.35 -207.7 8.35 -212.2 8.4 -219.15 7.1 -225.85 M159.2 -169.95 L158.35 -169.15 Q159.85 -148.75 176.5 -135.85 L177.5 -136.35 Q176.3 -157.6 159.2 -169.95 M87.95 -81.25 Q76.0 -85.9 64.55 -80.8 L64.65 -79.3 Q88.3 -73.05 107.55 -58.4 108.5 -58.75 108.55 -59.45 109.6 -76.25 91.55 -80.1 90.2 -81.05 87.95 -81.25 M122.85 -22.8 Q117.5 -44.35 100.3 -58.15 82.8 -72.1 60.7 -71.0 L31.6 -69.85 -4.25 -68.4 Q-30.9 -67.75 -57.3 -64.65 -71.75 -62.75 -84.0 -55.3 -96.1 -47.95 -104.7 -36.75 -112.75 -26.15 -115.6 -12.85 -118.1 -1.05 -124.65 8.9 -148.2 44.65 -157.85 85.6 -141.95 50.85 -122.25 18.2 -117.6 10.55 -113.6 2.45 -103.75 -17.5 -88.2 -33.2 -84.2 -37.15 -79.2 -39.8 -63.5 -48.25 -45.6 -50.5 -17.15 -53.7 11.7 -54.3 42.55 -54.95 73.05 -51.3 84.75 -49.65 92.65 -40.85 108.35 -23.35 115.2 -0.5 117.35 6.75 120.4 13.6 135.9 48.35 140.45 85.85 146.75 69.75 146.3 52.3 145.8 32.3 136.7 14.4 127.7 -3.3 122.85 -22.8 M96.15 -20.5 Q86.4 -42.55 62.15 -42.55 L38.7 -41.6 13.95 -40.5 Q-22.5 -42.65 -58.05 -36.65 -70.05 -34.8 -79.15 -26.55 -91.05 -15.75 -95.8 -0.2 -110.65 48.4 -137.9 91.35 -138.15 96.05 -135.8 99.95 -134.05 102.75 -130.6 101.35 -121.75 97.65 -115.45 90.5 -102.45 75.7 -91.7 59.35 -77.6 37.8 -63.1 16.7 -43.7 -11.6 -10.3 -15.55 8.75 -17.55 27.1 -12.35 55.8 -4.05 72.7 20.95 L115.5 84.25 Q121.05 80.1 121.6 73.15 122.8 58.85 116.85 45.1 108.8 26.35 104.75 6.4 101.9 -7.5 96.15 -20.5 M97.05 99.15 Q97.9 116.45 104.7 132.15 115.55 157.1 119.3 183.75 121.1 196.65 115.8 208.55 112.15 216.75 113.5 224.85 125.45 223.2 128.85 211.1 134.5 191.0 129.75 170.2 125.1 149.85 114.15 132.25 103.15 114.7 98.65 94.5 L97.05 99.15 M-201.35 -184.75 Q-199.8 -189.45 -204.85 -190.45 -220.3 -178.7 -217.25 -160.0 L-217.0 -159.7 Q-206.65 -162.6 -203.75 -175.95 -202.75 -180.4 -201.35 -184.75 M-255.4 -64.35 Q-254.45 -64.0 -253.7 -65.4 -247.75 -76.65 -255.9 -82.65 L-258.25 -82.05 Q-266.7 -68.0 -255.4 -64.35 M-137.75 -12.3 Q-143.55 9.0 -158.0 26.35 -161.9 31.05 -163.8 36.85 -165.95 43.55 -165.65 50.75 L-164.9 51.0 Q-138.45 22.35 -125.75 -13.85 -121.8 -25.2 -120.0 -37.05 L-113.75 -77.3 -114.9 -78.3 Q-131.05 -56.45 -134.45 -29.15 -135.25 -26.3 -136.4 -23.6 -138.85 -17.9 -137.75 -12.3 M-175.1 -101.45 L-175.15 -100.9 -175.1 -101.6 -175.1 -101.45 M-213.8 188.8 Q-225.75 206.75 -218.55 226.45 L-218.15 226.9 -217.75 228.45 -216.9 228.7 -215.9 228.05 -215.4 226.55 -214.1 226.05 -186.85 148.5 Q-183.2 137.9 -182.5 126.85 -181.9 117.25 -179.75 108.4 L-180.25 105.75 Q-192.75 146.0 -211.0 183.95 -212.95 185.8 -213.8 188.8 M-6.55 15.0 L-7.3 15.5 Q-9.3 36.8 -9.0 58.45 -8.65 80.2 -12.3 101.75 -15.4 119.85 -19.95 137.55 -25.6 159.35 -27.85 181.8 -29.45 198.05 -23.45 212.45 -22.45 214.8 -20.2 216.05 L-18.6 216.05 Q-16.75 211.6 -16.55 206.65 -15.85 189.35 -14.05 172.2 -11.15 144.1 -4.6 116.8 -2.15 106.55 -1.65 95.95 0.2 55.2 -6.55 15.0" fill="#1aa61d" fill-rule="evenodd" stroke="none"/>
    <path d="M-200.35 -228.95 L-199.8 -230.05 Q-195.85 -237.7 -186.65 -241.55 -171.8 -248.3 -155.6 -247.8 L-151.2 -247.45 -151.15 -246.85 Q-167.1 -236.6 -183.9 -227.9 -185.1 -227.3 -185.55 -225.95 -191.4 -208.2 -199.7 -192.45 -200.4 -191.1 -202.3 -191.65 L-203.2 -209.4 Q-197.8 -202.8 -195.3 -212.35 -194.1 -216.9 -193.05 -221.45 -192.1 -225.55 -196.35 -226.75 L-198.75 -226.1 Q-201.3 -223.1 -202.3 -219.5 L-200.35 -228.95 M159.2 -169.95 Q176.3 -157.6 177.5 -136.35 L176.5 -135.85 Q159.85 -148.75 158.35 -169.15 L159.2 -169.95 M10.75 -168.7 Q20.1 -148.05 42.4 -142.65 63.05 -137.75 82.55 -146.4 99.7 -154.0 111.25 -169.1 107.0 -146.95 88.15 -134.25 70.45 -122.35 48.9 -123.8 26.25 -125.6 13.75 -144.4 6.15 -155.75 10.75 -168.7 M87.95 -81.25 Q80.45 -78.35 88.1 -74.05 92.3 -71.75 93.1 -75.85 93.6 -78.55 91.55 -80.1 109.6 -76.25 108.55 -59.45 108.5 -58.75 107.55 -58.4 88.3 -73.05 64.65 -79.3 L64.55 -80.8 Q76.0 -85.9 87.95 -81.25 M97.05 99.15 L98.65 94.5 Q103.15 114.7 114.15 132.25 125.1 149.85 129.75 170.2 134.5 191.0 128.85 211.1 125.45 223.2 113.5 224.85 112.15 216.75 115.8 208.55 121.1 196.65 119.3 183.75 115.55 157.1 104.7 132.15 97.9 116.45 97.05 99.15 M118.55 155.05 Q117.5 157.65 120.0 158.75 L121.8 158.7 Q126.55 155.6 121.2 153.4 L120.2 153.55 119.85 153.65 Q118.9 154.15 118.55 155.05 M113.2 137.8 Q112.0 137.75 111.45 138.7 106.7 146.95 115.95 148.3 L116.5 147.7 Q120.2 140.8 113.2 137.8 M3.5 -161.45 Q-0.75 -142.7 -16.5 -131.55 -34.25 -119.0 -55.8 -116.95 -78.55 -115.45 -94.6 -131.4 L-90.1 -131.9 Q-89.1 -138.4 -93.85 -143.9 -93.4 -149.0 -98.25 -147.65 -103.05 -146.5 -101.95 -141.35 -113.1 -158.0 -110.5 -177.4 -110.3 -178.75 -110.65 -180.15 -105.0 -159.1 -88.15 -145.25 -70.4 -130.8 -47.9 -130.35 -24.95 -129.9 -8.75 -146.2 -1.95 -153.0 3.5 -161.45 M-201.35 -184.75 Q-202.75 -180.4 -203.75 -175.95 -206.65 -162.6 -217.0 -159.7 L-217.25 -160.0 Q-220.3 -178.7 -204.85 -190.45 -199.8 -189.45 -201.35 -184.75 M-134.45 -29.15 Q-131.05 -56.45 -114.9 -78.3 L-113.75 -77.3 -120.0 -37.05 Q-121.8 -25.2 -125.75 -13.85 -138.45 22.35 -164.9 51.0 L-165.65 50.75 Q-165.95 43.55 -163.8 36.85 -161.9 31.05 -158.0 26.35 -143.55 9.0 -137.75 -12.3 -129.15 -6.7 -126.2 -18.45 -123.95 -27.35 -127.85 -34.9 -132.15 -33.15 -134.45 -29.15 M-213.8 188.8 Q-215.85 195.75 -209.15 195.3 L-204.65 187.7 Q-201.9 182.85 -207.4 181.8 L-211.0 183.95 Q-192.75 146.0 -180.25 105.75 L-179.75 108.4 Q-181.9 117.25 -182.5 126.85 -183.2 137.9 -186.85 148.5 L-214.1 226.05 -215.4 226.55 -215.9 228.05 -216.9 228.7 -217.75 228.45 -218.15 226.9 -218.55 226.45 Q-225.75 206.75 -213.8 188.8 M-6.55 15.0 Q0.2 55.2 -1.65 95.95 -2.15 106.55 -4.6 116.8 -11.15 144.1 -14.05 172.2 -15.85 189.35 -16.55 206.65 -16.75 211.6 -18.6 216.05 L-20.2 216.05 Q-22.45 214.8 -23.45 212.45 -29.45 198.05 -27.85 181.8 -25.6 159.35 -19.95 137.55 -15.4 119.85 -12.3 101.75 -8.65 80.2 -9.0 58.45 -9.3 36.8 -7.3 15.5 L-6.55 15.0 M-9.35 112.5 Q-16.2 117.8 -11.4 124.05 L-10.4 125.15 Q-3.2 120.2 -7.2 112.65 L-9.35 112.5" fill="#22dd26" fill-rule="evenodd" stroke="none"/>
    <path d="M-202.3 -219.5 Q-201.3 -223.1 -198.75 -226.1 L-196.35 -226.75 Q-192.1 -225.55 -193.05 -221.45 -194.1 -216.9 -195.3 -212.35 -197.8 -202.8 -203.2 -209.4 L-202.3 -219.5 M91.55 -80.1 Q93.6 -78.55 93.1 -75.85 92.3 -71.75 88.1 -74.05 80.45 -78.35 87.95 -81.25 90.2 -81.05 91.55 -80.1 M113.2 137.8 Q120.2 140.8 116.5 147.7 L115.95 148.3 Q106.7 146.95 111.45 138.7 112.0 137.75 113.2 137.8 M118.55 155.05 Q118.9 154.15 119.85 153.65 L120.2 153.55 121.2 153.4 Q126.55 155.6 121.8 158.7 L120.0 158.75 Q117.5 157.65 118.55 155.05 M-94.6 -131.4 Q-98.5 -132.1 -100.7 -137.15 -101.6 -139.2 -101.95 -141.35 -103.05 -146.5 -98.25 -147.65 -93.4 -149.0 -93.85 -143.9 -89.1 -138.4 -90.1 -131.9 L-94.6 -131.4 M-255.4 -64.35 Q-266.7 -68.0 -258.25 -82.05 L-255.9 -82.65 Q-247.75 -76.65 -253.7 -65.4 -254.45 -64.0 -255.4 -64.35 M-137.75 -12.3 Q-138.85 -17.9 -136.4 -23.6 -135.25 -26.3 -134.45 -29.15 -132.15 -33.15 -127.85 -34.9 -123.95 -27.35 -126.2 -18.45 -129.15 -6.7 -137.75 -12.3 M-211.0 183.95 L-207.4 181.8 Q-201.9 182.85 -204.65 187.7 L-209.15 195.3 Q-215.85 195.75 -213.8 188.8 -212.95 185.8 -211.0 183.95 M-9.35 112.5 L-7.2 112.65 Q-3.2 120.2 -10.4 125.15 L-11.4 124.05 Q-16.2 117.8 -9.35 112.5" fill="#c5f5c6" fill-rule="evenodd" stroke="none"/>
    <path d="M-186.65 -241.55 Q-195.85 -237.7 -199.8 -230.05 L-200.35 -228.95 Q-209.25 -209.75 -215.95 -189.6 -221.9 -171.85 -229.5 -154.75 -236.85 -138.35 -245.0 -122.15 -254.95 -102.45 -262.2 -81.75 -267.3 -67.25 -267.4 -52.15 L-230.1 -26.85 Q-208.9 -14.4 -199.15 8.0 -191.55 -9.7 -186.95 -28.4 -178.2 -64.0 -175.1 -101.0 L-175.0 -102.0 -174.95 -102.45 -174.5 -109.6 Q-169.5 -91.9 -168.8 -73.55 -167.95 -51.9 -171.8 -30.7 -175.6 -9.9 -184.95 8.95 -194.45 28.05 -192.6 49.25 -190.65 71.15 -194.7 92.8 -198.15 111.35 -202.9 129.35 L-212.9 167.1 Q-218.45 187.85 -224.9 208.45 -230.45 226.3 -232.0 244.8 -233.85 267.35 -218.15 283.1 -200.35 296.55 -177.9 295.6 -157.85 295.15 -138.8 288.6 -119.5 282.05 -100.2 276.05 -80.15 269.75 -58.95 270.5 -39.9 271.2 -21.75 276.85 -1.7 283.0 17.85 290.65 37.8 298.6 59.3 297.7 78.8 297.35 97.05 290.85 117.2 283.85 138.15 279.65 157.9 275.6 177.95 275.55 198.55 275.45 218.05 268.55 225.0 242.35 211.1 218.0 204.0 205.55 199.6 191.95 190.75 164.45 186.25 135.8 181.05 102.55 182.85 69.0 L187.2 -12.7 189.6 -60.6 190.45 -81.5 190.4 -78.85 Q191.45 -91.3 196.2 -102.85 L204.35 -31.6 205.15 -15.4 Q221.2 -19.45 236.05 -26.75 254.8 -35.85 263.8 -54.0 264.95 -56.3 264.2 -57.95 258.1 -71.75 251.0 -86.4 242.2 -104.6 236.7 -123.9 231.95 -140.4 227.9 -157.2 223.5 -175.5 217.55 -193.45 211.4 -212.0 201.2 -228.7 190.4 -246.3 173.65 -258.55 155.95 -271.35 136.95 -282.25 118.9 -292.65 99.55 -300.3 84.35 -305.45 67.9 -304.5 L61.85 -304.25 Q50.6 -304.1 39.55 -305.65 13.4 -308.75 -12.0 -309.3 L-24.3 -308.05 Q-45.65 -305.5 -65.25 -296.8 L-69.0 -295.1 Q-88.45 -285.6 -108.05 -276.25 -127.2 -267.0 -147.1 -259.3 -167.35 -251.4 -186.65 -241.55 M-135.9 -281.75 Q-82.4 -304.05 -25.25 -312.55 11.3 -317.65 47.95 -313.4 65.95 -311.05 84.0 -307.25 101.75 -303.4 119.25 -297.65 144.25 -289.5 168.15 -278.05 186.75 -269.25 200.85 -254.15 223.25 -230.2 233.4 -199.0 245.95 -160.5 256.1 -121.45 261.75 -99.6 275.45 -82.3 285.6 -69.5 284.45 -53.25 283.8 -44.3 279.0 -36.85 275.35 -31.15 270.4 -26.6 255.45 -13.0 237.25 -4.2 221.8 3.25 204.9 6.15 L203.05 32.6 Q201.65 52.05 201.3 71.25 200.95 93.1 202.95 114.55 204.95 135.7 209.6 156.4 213.8 175.15 220.5 193.25 227.45 211.9 234.7 230.6 242.65 251.15 237.15 272.15 234.6 281.8 225.15 284.75 204.55 291.3 182.35 289.4 161.75 288.2 141.1 288.4 122.5 288.6 104.55 293.7 84.0 299.65 63.15 304.2 43.3 308.5 23.45 305.35 3.85 302.4 -15.35 296.7 -36.4 290.3 -58.55 290.65 -79.45 290.95 -99.3 297.35 L-140.05 309.85 Q-158.3 315.25 -177.3 315.35 -197.7 315.5 -215.0 305.05 -233.65 293.8 -241.85 273.4 -249.75 253.65 -240.1 234.9 -230.2 215.8 -226.85 194.55 -223.65 173.9 -220.0 153.45 -216.6 134.25 -213.8 115.0 -210.65 93.2 -210.2 71.15 -209.8 49.3 -213.75 27.95 -217.9 5.6 -236.85 -7.35 -254.65 -19.55 -273.15 -30.75 -285.7 -38.3 -284.4 -52.8 -282.45 -74.65 -270.45 -93.25 -258.85 -111.25 -249.8 -130.75 -240.95 -149.85 -234.15 -169.75 -227.35 -189.75 -222.95 -210.5 -218.55 -231.25 -205.8 -247.8 -199.55 -253.75 -191.8 -257.35 -164.2 -269.95 -135.9 -281.75 M-35.0 -269.3 Q-51.45 -276.9 -55.45 -294.2 L-55.85 -297.0 Q-25.5 -273.45 12.35 -273.65 25.4 -273.7 37.7 -278.55 51.9 -284.05 64.7 -292.05 L70.2 -295.5 71.45 -295.25 72.2 -294.5 Q66.8 -275.2 48.45 -266.45 28.45 -256.9 6.05 -257.35 -16.1 -257.75 -35.0 -269.3 M-35.9 -242.3 Q-56.1 -251.75 -77.4 -241.3 -93.0 -233.5 -100.7 -218.7 -105.65 -209.25 -103.55 -199.85 -93.75 -212.25 -78.55 -216.5 -57.9 -222.35 -36.3 -221.5 -14.75 -219.85 2.75 -207.1 L7.75 -203.25 8.5 -202.6 Q26.95 -217.45 50.45 -221.15 L53.45 -221.45 62.1 -222.75 Q86.15 -222.8 105.35 -210.3 L111.5 -205.7 Q111.35 -209.35 110.55 -212.9 106.95 -227.65 94.3 -235.85 74.75 -248.65 53.05 -236.3 39.85 -230.85 25.5 -227.75 16.0 -225.65 7.1 -225.85 -12.95 -226.3 -29.8 -238.25 -32.8 -240.4 -35.9 -242.3 M-110.65 -180.15 Q-115.55 -200.95 -107.05 -220.5 -98.4 -240.55 -78.4 -249.35 -72.5 -251.9 -66.05 -253.2 -83.25 -255.25 -98.6 -247.45 -86.7 -262.15 -67.8 -263.8 -49.25 -265.55 -32.15 -257.9 -10.4 -248.15 13.4 -248.25 32.45 -248.3 50.0 -255.7 70.8 -264.45 92.7 -260.05 108.55 -257.0 121.6 -247.55 125.45 -244.35 128.6 -240.4 L129.35 -239.15 Q132.55 -231.55 124.35 -230.65 L110.6 -239.2 114.55 -234.15 Q127.05 -217.5 123.3 -196.9 L122.75 -194.15 Q119.7 -180.45 111.25 -169.1 99.7 -154.0 82.55 -146.4 63.05 -137.75 42.4 -142.65 20.1 -148.05 10.75 -168.7 L8.95 -174.95 9.0 -174.9 9.95 -174.5 9.0 -174.9 Q21.15 -152.95 44.65 -147.05 51.35 -145.3 58.1 -146.2 L60.9 -146.75 Q82.95 -151.85 97.3 -169.3 106.55 -180.5 110.3 -194.5 94.55 -217.75 66.35 -216.1 37.4 -215.45 13.45 -199.4 L9.0 -195.7 Q-1.15 -202.75 -12.2 -208.2 -31.9 -218.0 -54.25 -217.35 -76.3 -216.0 -94.25 -204.25 L-103.35 -194.65 Q-102.4 -172.85 -86.55 -158.2 -70.45 -143.35 -48.5 -141.4 -33.75 -139.6 -20.6 -146.2 -1.2 -155.85 8.95 -174.95 L3.5 -161.45 Q-1.95 -153.0 -8.75 -146.2 -24.95 -129.9 -47.9 -130.35 -70.4 -130.8 -88.15 -145.25 -105.0 -159.1 -110.65 -180.15 M97.7 -194.9 Q104.6 -186.15 95.4 -179.65 86.2 -173.15 82.7 -184.05 78.85 -195.9 89.7 -196.7 95.5 -197.7 97.7 -194.9 M89.3 -187.4 Q91.95 -192.65 88.15 -191.7 80.8 -188.15 89.3 -187.4 M122.85 -22.8 Q127.7 -3.3 136.7 14.4 145.8 32.3 146.3 52.3 146.75 69.75 140.45 85.85 135.9 48.35 120.4 13.6 117.35 6.75 115.2 -0.5 108.35 -23.35 92.65 -40.85 84.75 -49.65 73.05 -51.3 42.55 -54.95 11.7 -54.3 -17.15 -53.7 -45.6 -50.5 -63.5 -48.25 -79.2 -39.8 -84.2 -37.15 -88.2 -33.2 -103.75 -17.5 -113.6 2.45 -117.6 10.55 -122.25 18.2 -141.95 50.85 -157.85 85.6 -148.2 44.65 -124.65 8.9 -118.1 -1.05 -115.6 -12.85 -112.75 -26.15 -104.7 -36.75 -96.1 -47.95 -84.0 -55.3 -71.75 -62.75 -57.3 -64.65 -30.9 -67.75 -4.25 -68.4 L31.6 -69.85 60.7 -71.0 Q82.8 -72.1 100.3 -58.15 117.5 -44.35 122.85 -22.8 M-7.85 -194.2 L-4.7 -194.1 Q7.6 -185.0 -1.3 -173.8 -7.85 -165.5 -13.95 -175.75 -21.55 -188.6 -7.85 -194.2 M-10.35 -189.7 Q-17.7 -189.6 -13.05 -182.2 -2.2 -186.25 -10.35 -189.7" fill="#000000" fill-rule="evenodd" stroke="none"/>
    <path d="M-65.25 -296.8 Q-45.65 -305.5 -24.3 -308.05 L-12.0 -309.3 Q13.4 -308.75 39.55 -305.65 50.6 -304.1 61.85 -304.25 63.25 -302.1 64.1 -299.35 65.4 -295.35 64.7 -292.05 51.9 -284.05 37.7 -278.55 25.4 -273.7 12.35 -273.65 -25.5 -273.45 -55.85 -297.0 L-55.45 -294.2 Q-51.45 -276.9 -35.0 -269.3 -46.95 -268.3 -57.9 -273.3 -76.0 -281.75 -65.25 -296.8 M99.55 -300.3 Q118.9 -292.65 136.95 -282.25 155.95 -271.35 173.65 -258.55 190.4 -246.3 201.2 -228.7 211.4 -212.0 217.55 -193.45 223.5 -175.5 227.9 -157.2 231.95 -140.4 236.7 -123.9 242.2 -104.6 251.0 -86.4 258.1 -71.75 264.2 -57.95 264.95 -56.3 263.8 -54.0 254.8 -35.85 236.05 -26.75 221.2 -19.45 205.15 -15.4 L204.35 -31.6 Q224.8 -37.4 234.8 -56.25 238.4 -63.15 236.45 -70.6 233.35 -82.7 226.25 -92.9 212.9 -112.2 206.0 -134.65 195.05 -170.45 196.15 -208.05 196.6 -222.5 187.8 -233.75 168.1 -259.0 137.75 -263.6 137.7 -262.4 137.8 -261.25 138.85 -247.0 128.6 -240.4 125.45 -244.35 121.6 -247.55 112.85 -262.6 94.8 -264.1 90.5 -264.45 88.85 -268.45 80.2 -289.35 99.55 -300.3 M190.45 -81.5 L189.6 -60.6 187.2 -12.7 182.85 69.0 Q181.05 102.55 186.25 135.8 190.75 164.45 199.6 191.95 204.0 205.55 211.1 218.0 225.0 242.35 218.05 268.55 198.55 275.45 177.95 275.55 157.9 275.6 138.15 279.65 117.2 283.85 97.05 290.85 78.8 297.35 59.3 297.7 37.8 298.6 17.85 290.65 -1.7 283.0 -21.75 276.85 -39.9 271.2 -58.95 270.5 -80.15 269.75 -100.2 276.05 -119.5 282.05 -138.8 288.6 -157.85 295.15 -177.9 295.6 -200.35 296.55 -218.15 283.1 -223.75 259.65 -200.9 252.0 -184.3 246.45 -167.35 242.25 -155.55 239.3 -144.0 235.65 -125.05 229.65 -106.85 235.9 -108.5 201.05 -87.1 173.4 -73.85 156.35 -65.0 136.4 -49.85 102.4 -39.45 66.7 -33.55 46.5 -20.85 29.85 -9.3 44.65 -11.75 63.25 -18.3 113.05 -29.8 161.9 -35.05 184.25 -38.85 206.75 -41.0 219.25 -32.25 228.2 -22.15 238.7 -7.3 240.15 1.4 240.9 7.95 236.2 9.8 234.85 10.7 232.75 11.95 229.85 12.1 226.65 13.15 202.7 17.9 179.65 20.75 165.75 35.15 164.05 41.65 163.05 47.6 160.4 51.9 158.45 55.05 155.05 57.85 152.0 59.7 148.05 65.25 136.35 62.35 123.7 55.7 94.65 67.8 68.8 82.75 74.2 85.65 89.95 90.65 117.3 101.9 142.75 110.15 161.45 114.9 180.9 115.9 184.85 114.4 188.7 108.3 204.75 92.45 211.1 80.9 215.7 74.6 226.5 71.15 232.45 72.2 239.4 72.75 243.25 75.9 245.55 81.0 249.1 87.05 251.0 104.6 256.75 122.6 250.55 137.9 245.3 152.95 239.4 157.3 237.6 161.95 236.6 176.8 200.45 169.25 162.2 166.35 147.4 156.3 136.3 L129.75 106.8 Q150.5 92.1 153.6 68.75 154.75 59.9 153.45 50.9 148.5 16.25 140.75 -17.95 135.15 -42.75 120.8 -64.05 L117.2 -69.7 Q135.05 -70.55 144.65 -53.9 L154.05 -37.35 Q159.45 -27.6 163.7 -17.15 167.6 -55.0 158.5 -92.5 154.5 -109.0 152.8 -125.95 151.4 -140.1 154.75 -153.55 L155.35 -153.55 Q185.15 -123.45 190.45 -81.5 M-174.5 -109.6 L-174.95 -102.45 -175.1 -101.6 -175.15 -100.9 -175.1 -101.45 -175.0 -102.0 -175.1 -101.0 Q-178.2 -64.0 -186.95 -28.4 -191.55 -9.7 -199.15 8.0 -208.9 -14.4 -230.1 -26.85 -247.5 -43.65 -233.15 -62.9 -220.6 -79.75 -209.75 -97.6 -198.95 -115.3 -193.4 -135.4 -188.9 -151.8 -180.6 -166.6 -169.15 -139.45 -174.5 -109.6 M2.75 -207.1 Q-9.8 -224.65 -32.0 -225.2 -37.25 -225.3 -42.15 -223.55 -41.05 -233.7 -35.9 -242.3 -32.8 -240.4 -29.8 -238.25 -12.95 -226.3 7.1 -225.85 8.4 -219.15 8.35 -212.2 8.35 -207.7 7.75 -203.25 L2.75 -207.1 M53.05 -236.3 Q74.75 -248.65 94.3 -235.85 106.95 -227.65 110.55 -212.9 93.05 -227.2 70.8 -227.45 L60.6 -226.8 53.05 -236.3 M123.3 -196.9 Q127.05 -217.5 114.55 -234.15 L110.6 -239.2 124.35 -230.65 125.2 -229.65 Q136.95 -212.5 123.3 -196.9 M96.15 -20.5 Q101.9 -7.5 104.75 6.4 108.8 26.35 116.85 45.1 122.8 58.85 121.6 73.15 121.05 80.1 115.5 84.25 L72.7 20.95 Q55.8 -4.05 27.1 -12.35 8.75 -17.55 -10.3 -15.55 -43.7 -11.6 -63.1 16.7 -77.6 37.8 -91.7 59.35 -102.45 75.7 -115.45 90.5 -121.75 97.65 -130.6 101.35 -134.05 102.75 -135.8 99.95 -138.15 96.05 -137.9 91.35 -110.65 48.4 -95.8 -0.2 -91.05 -15.75 -79.15 -26.55 -70.05 -34.8 -58.05 -36.65 -22.5 -42.65 13.95 -40.5 L38.7 -41.6 62.15 -42.55 Q86.4 -42.55 96.15 -20.5" fill="#127214" fill-rule="evenodd" stroke="none"/>
    <path d="M97.7 -194.9 Q95.5 -197.7 89.7 -196.7 78.85 -195.9 82.7 -184.05 86.2 -173.15 95.4 -179.65 104.6 -186.15 97.7 -194.9 M13.45 -199.4 Q37.4 -215.45 66.35 -216.1 94.55 -217.75 110.3 -194.5 106.55 -180.5 97.3 -169.3 82.95 -151.85 60.9 -146.75 58.4 -146.7 58.1 -146.2 50.8 -159.45 65.0 -166.3 73.4 -170.35 74.75 -179.9 76.8 -194.0 76.3 -208.2 43.25 -214.7 13.45 -199.4 M9.0 -174.9 L8.95 -174.95 Q-1.2 -155.85 -20.6 -146.2 -33.75 -139.6 -48.5 -141.4 -48.6 -148.1 -44.3 -153.35 -33.65 -166.3 -27.6 -181.7 -23.45 -192.4 -25.1 -203.7 -38.4 -209.8 -52.95 -211.1 -75.2 -213.2 -94.25 -204.25 -76.3 -216.0 -54.25 -217.35 -31.9 -218.0 -12.2 -208.2 -1.15 -202.75 9.0 -195.7 L9.0 -174.9 M-4.7 -194.1 L-7.85 -194.2 Q-21.55 -188.6 -13.95 -175.75 -7.85 -165.5 -1.3 -173.8 7.6 -185.0 -4.7 -194.1" fill="#ebebeb" fill-rule="evenodd" stroke="none"/>
    <path d="M13.45 -199.4 Q43.25 -214.7 76.3 -208.2 76.8 -194.0 74.75 -179.9 73.4 -170.35 65.0 -166.3 50.8 -159.45 58.1 -146.2 58.4 -146.7 60.9 -146.75 L58.1 -146.2 Q51.35 -145.3 44.65 -147.05 21.15 -152.95 9.0 -174.9 L9.95 -174.5 9.0 -174.9 9.0 -195.7 13.45 -199.4 M89.3 -187.4 Q80.8 -188.15 88.15 -191.7 91.95 -192.65 89.3 -187.4 M-10.35 -189.7 Q-2.2 -186.25 -13.05 -182.2 -17.7 -189.6 -10.35 -189.7 M-94.25 -204.25 Q-75.2 -213.2 -52.95 -211.1 -38.4 -209.8 -25.1 -203.7 -23.45 -192.4 -27.6 -181.7 -33.65 -166.3 -44.3 -153.35 -48.6 -148.1 -48.5 -141.4 -70.45 -143.35 -86.55 -158.2 -102.4 -172.85 -103.35 -194.65 L-94.25 -204.25" fill="#ffffff" fill-rule="evenodd" stroke="none"/>
  </g>
</svg>
