<?xml version="1.0" encoding="UTF-8" standalone="no"?>
<svg xmlns:xlink="http://www.w3.org/1999/xlink" height="630.75px" width="601.45px" xmlns="http://www.w3.org/2000/svg">
  <g transform="matrix(1.0, 0.0, 0.0, 1.0, 300.7, 315.35)">
    <path d="M36.2 -314.85 Q56.5 -313.6 75.55 -306.6 95.6 -299.45 114.2 -289.3 130.4 -280.45 148.25 -285.1 166.8 -289.95 184.45 -297.2 205.6 -305.85 226.9 -301.2 249.45 -296.1 254.6 -273.55 259.35 -252.7 271.6 -234.35 277.05 -226.1 281.1 -216.85 289.75 -197.25 297.9 -177.5 307.1 -155.1 286.7 -140.15 269.45 -127.55 250.5 -117.8 230.65 -107.5 218.3 -89.1 206.6 -71.75 205.8 -50.7 205.15 -32.65 208.15 -14.6 211.4 4.75 212.4 24.55 213.05 36.8 212.1 49.15 L209.2 88.95 Q207.85 109.55 210.15 130.0 212.45 150.4 218.45 170.15 224.15 188.8 230.95 206.95 238.75 227.75 233.1 249.3 227.3 271.6 203.1 277.1 183.45 281.4 165.4 290.6 146.35 300.3 125.75 306.0 107.4 311.05 88.5 313.1 68.3 315.3 47.85 313.9 28.2 312.2 8.8 308.2 -11.3 304.0 -31.65 302.75 -53.15 301.85 -74.3 306.1 L-112.6 313.45 Q-133.25 317.45 -154.0 313.15 -175.15 308.8 -194.6 299.85 -204.35 295.45 -207.55 284.55 -213.55 264.4 -209.35 243.65 L-203.4 215.2 Q-199.15 195.75 -194.2 176.45 -188.9 155.6 -186.5 134.2 -184.1 112.45 -185.8 90.65 L-188.75 54.05 Q-190.4 33.8 -189.1 13.4 L-186.45 -25.8 Q-184.9 -47.35 -193.75 -67.1 -202.3 -86.2 -217.15 -101.1 -232.65 -116.6 -252.2 -126.6 -270.8 -136.1 -288.05 -148.0 -309.15 -162.5 -295.0 -183.75 -283.65 -200.8 -271.75 -217.2 -259.5 -234.1 -254.25 -254.35 -249.05 -274.6 -238.25 -292.7 -226.4 -312.6 -203.45 -310.3 -193.75 -309.15 -185.7 -303.35 -168.4 -290.85 -148.7 -283.2 -128.35 -275.2 -107.4 -282.3 -88.9 -288.6 -71.75 -298.4 -60.8 -304.55 -48.5 -306.7 L-7.15 -313.55 Q14.35 -316.35 36.2 -314.85 M88.95 -289.9 Q76.05 -297.95 61.5 -302.7 48.75 -306.75 35.6 -308.3 L34.85 -309.05 2.75 -310.35 12.85 -309.3 -6.45 -308.0 Q-27.35 -305.5 -47.4 -299.55 -68.0 -293.55 -84.45 -280.15 -100.55 -267.05 -121.0 -264.65 -142.75 -262.35 -161.85 -272.5 -178.85 -281.45 -194.75 -292.35 -215.7 -306.8 -227.9 -286.55 -236.65 -271.95 -243.5 -256.15 -251.7 -237.2 -261.65 -219.15 -271.6 -201.05 -284.3 -184.75 -298.65 -166.35 -276.05 -157.15 -258.05 -144.15 -238.35 -133.5 -208.6 -117.45 -189.8 -89.2 -172.5 -63.25 -173.95 -31.75 -175.8 -6.2 -177.9 19.25 -179.75 41.7 -177.85 64.1 -176.8 76.4 -176.4 88.6 -175.95 101.8 -176.65 114.9 -177.15 123.7 -178.25 132.4 -184.25 179.4 -195.75 225.3 -203.5 256.2 -194.4 285.1 L-190.5 287.45 Q-177.2 295.4 -162.1 299.5 -136.2 305.9 -109.65 301.45 -98.8 299.85 -88.2 297.35 -75.8 294.35 -63.3 292.2 -53.75 290.45 -44.15 290.25 -17.4 289.75 8.55 296.1 45.85 305.1 83.55 299.45 134.7 291.65 183.2 272.75 202.65 265.2 219.65 253.35 219.85 246.95 219.6 240.6 217.75 198.5 203.8 158.4 198.25 142.5 198.25 125.5 198.3 70.85 197.75 16.15 197.4 -17.2 195.45 -50.6 194.75 -62.9 197.25 -75.0 199.15 -84.1 203.75 -92.2 214.1 -110.55 232.5 -121.85 259.25 -138.15 282.8 -158.45 285.8 -161.0 285.8 -164.1 285.65 -186.65 275.95 -208.85 257.7 -250.65 236.15 -290.55 222.25 -293.2 208.25 -291.2 186.5 -288.4 166.75 -278.2 147.1 -268.2 125.55 -272.85 105.5 -277.0 88.95 -289.9 M56.35 -288.05 L51.85 -295.4 52.85 -296.05 Q68.1 -285.85 47.15 -275.45 26.9 -265.25 7.3 -254.3 6.2 -253.75 4.85 -253.75 -24.8 -271.5 -50.45 -291.05 L-35.2 -300.8 -33.45 -299.8 -46.9 -290.3 Q-13.7 -279.65 8.45 -257.95 31.15 -274.95 56.35 -288.05 M180.3 -187.55 L183.35 -188.0 185.1 -187.1 173.5 -178.8 Q185.75 -167.9 182.05 -152.05 176.55 -128.3 153.85 -120.05 142.15 -115.85 129.65 -115.45 128.8 -80.75 112.05 -50.55 73.75 18.7 59.55 96.7 54.6 123.95 34.15 140.75 21.05 151.55 2.6 150.6 -23.8 148.45 -49.65 142.4 -62.05 139.55 -74.2 135.8 -86.2 132.1 -97.8 126.55 -104.4 123.3 -109.95 118.4 -114.45 114.45 -117.9 109.55 -122.65 102.95 -125.7 94.65 -132.7 75.75 -131.0 55.3 L-130.15 43.55 Q-129.35 29.4 -129.55 15.25 -130.3 -49.5 -144.55 -112.55 -151.5 -143.25 -154.3 -174.55 L-173.2 -142.35 -174.45 -142.5 -175.95 -145.5 Q-167.8 -176.3 -141.95 -195.0 L-139.2 -194.75 Q-139.2 -192.75 -139.95 -191.0 -140.9 -188.7 -143.05 -186.9 L-143.2 -186.75 Q-146.95 -183.6 -151.15 -177.75 -149.05 -128.45 -129.4 -83.5 -116.5 -54.0 -88.5 -40.3 -73.35 -33.95 -58.1 -40.1 -38.35 -48.15 -21.1 -61.2 -5.45 -73.15 11.5 -83.25 29.7 -94.25 49.75 -101.4 69.6 -108.4 90.2 -112.95 110.5 -117.5 130.55 -122.85 148.5 -127.55 163.5 -138.6 184.55 -154.25 166.35 -174.1 L161.1 -167.5 157.6 -167.5 Q162.35 -184.45 180.3 -187.55 M73.25 -140.9 L77.85 -143.75 Q62.45 -125.9 38.9 -123.55 16.5 -121.8 5.55 -140.9 0.0 -124.2 -13.8 -113.5 -40.3 -92.85 -70.8 -100.55 L-78.7 -107.0 Q-56.55 -99.9 -35.55 -109.75 -14.6 -119.55 -2.2 -139.1 L4.35 -149.75 Q17.0 -127.4 41.95 -130.2 58.65 -132.3 73.25 -140.9 M20.75 -247.5 Q36.9 -259.4 56.95 -260.6 68.25 -261.5 78.7 -257.15 91.85 -250.0 97.0 -236.35 L97.95 -233.45 Q105.95 -206.5 93.8 -180.85 84.45 -161.05 66.4 -148.75 59.2 -143.8 51.6 -141.75 38.85 -138.3 24.95 -142.95 7.8 -148.6 1.05 -165.45 -9.75 -146.4 -31.05 -141.35 -51.65 -136.65 -70.95 -144.4 -91.6 -152.7 -98.45 -173.75 -105.25 -194.6 -97.65 -215.15 -92.5 -228.2 -81.25 -238.15 -69.9 -248.2 -55.7 -254.4 -33.95 -264.1 -15.8 -260.4 1.35 -257.65 9.6 -241.9 L11.05 -238.85 20.75 -247.5 M90.45 -234.65 L90.05 -235.5 Q79.45 -256.65 55.55 -253.2 27.3 -247.8 9.4 -225.05 10.25 -233.55 4.85 -240.3 L3.65 -241.75 Q-11.15 -261.35 -37.55 -255.8 -69.55 -249.0 -85.55 -220.75 -96.9 -200.7 -89.65 -178.7 -81.45 -153.7 -54.9 -151.1 L-48.7 -150.65 Q-22.8 -149.75 -3.35 -166.7 0.1 -169.75 2.85 -173.25 7.05 -148.6 32.1 -146.6 37.7 -146.2 42.95 -146.8 68.55 -151.15 83.35 -173.15 98.05 -195.0 94.8 -220.65 93.85 -228.05 90.45 -234.65 M39.7 -182.2 Q33.75 -179.6 27.45 -183.15 13.1 -193.65 25.35 -206.85 29.6 -211.4 35.5 -209.35 45.0 -206.1 46.95 -199.1 L47.25 -197.3 Q48.75 -186.75 39.7 -182.2 M31.0 -195.45 Q33.7 -195.2 34.45 -197.75 36.65 -205.2 28.85 -205.0 19.3 -196.5 31.0 -195.45 M-24.15 -200.8 Q-22.35 -210.35 -7.0 -207.6 L-5.95 -205.75 Q-2.45 -199.65 -2.6 -192.55 -5.65 -183.8 -15.7 -183.85 -21.25 -183.9 -22.7 -188.5 -24.15 -193.1 -24.35 -196.65 -23.1 -194.8 -18.55 -194.3 -10.6 -205.3 -20.15 -206.0 -23.05 -203.05 -24.15 -200.8 M105.15 -110.1 L77.3 -104.25 Q77.8 -96.1 76.6 -87.85 73.3 -65.2 61.05 -45.65 L57.4 -40.55 87.4 -37.4 97.1 -37.2 Q114.2 -65.95 119.95 -98.9 121.25 -106.2 121.5 -113.55 L105.15 -110.1 M63.75 -99.85 Q62.75 -86.95 58.8 -74.65 54.5 -61.4 47.55 -49.45 L56.5 -47.65 Q59.9 -54.0 62.6 -60.75 70.45 -80.7 72.0 -102.2 L63.75 -99.85 M54.5 -44.1 L44.1 -43.5 39.85 -36.7 Q-0.8 -35.55 -41.15 -39.6 -48.75 -34.45 -57.35 -31.65 -74.3 -26.25 -91.35 -31.1 -96.4 -32.4 -100.75 -35.4 -106.25 -39.15 -111.05 -43.85 -125.8 -58.55 -132.95 -78.1 -130.7 -60.6 -128.75 -43.15 -121.7 19.35 -123.95 82.4 -121.4 79.45 -118.25 77.4 -108.9 71.35 -98.3 67.5 -84.3 62.65 -69.7 65.3 L-66.2 69.8 -60.9 69.9 -57.4 64.4 Q-49.35 60.45 -40.85 57.45 -18.7 49.6 4.85 49.8 L7.35 57.3 12.1 57.75 15.15 55.0 Q22.4 48.7 31.55 45.6 46.35 40.7 61.65 44.5 75.2 5.75 94.25 -30.65 L89.1 -30.55 Q68.8 -30.25 49.6 -36.45 L54.5 -44.1 M119.35 -30.45 L122.05 -36.75 Q120.7 3.5 115.55 43.55 112.9 64.0 109.25 84.4 99.1 141.1 65.0 187.45 50.15 207.6 26.5 205.45 L26.35 205.45 -9.7 196.65 -10.15 196.55 Q-46.75 187.1 -83.95 180.0 L-94.95 177.95 Q-107.25 175.65 -119.2 172.1 L-119.75 171.9 Q-126.65 169.85 -133.45 167.35 -53.55 176.1 24.85 194.95 50.35 200.95 62.45 175.65 92.9 112.2 107.85 43.55 115.75 7.3 119.35 -30.45 M40.05 -89.6 Q32.4 -85.8 24.95 -81.6 -6.55 -64.0 -35.7 -42.85 -2.25 -40.8 31.1 -42.4 L36.35 -42.7 Q41.35 -50.45 45.4 -58.7 54.65 -77.45 58.05 -97.95 48.9 -94.05 40.05 -89.6 M-34.3 136.4 L-21.85 139.1 Q-19.65 114.6 -13.05 91.15 -7.75 72.4 0.6 54.75 L-18.95 57.75 Q-39.05 61.2 -57.25 69.6 L-57.85 71.2 Q-68.7 98.85 -72.55 128.1 L-34.3 136.4 M42.15 51.25 L16.9 54.8 14.85 61.05 Q2.65 100.3 -3.7 141.1 L29.35 141.05 38.35 129.6 Q49.2 111.3 51.75 90.0 54.05 70.9 58.8 52.25 L42.15 51.25 M9.15 62.05 Q4.0 59.2 3.8 52.9 -10.3 95.35 -16.85 139.8 L-8.65 140.7 Q-3.9 100.5 10.05 62.45 L9.15 62.05 M-100.0 115.3 Q-95.25 118.3 -90.05 120.75 -89.4 113.2 -88.35 105.6 -85.6 85.6 -74.95 68.75 L-89.0 70.75 Q-109.5 72.55 -123.2 87.7 L-122.7 89.5 Q-116.65 106.5 -100.0 115.3 M-64.85 74.9 Q-70.0 74.25 -71.95 69.05 -81.5 95.5 -84.9 123.3 L-78.55 125.95 Q-75.25 99.0 -63.5 74.8 L-64.85 74.9" fill="#000000" fill-rule="evenodd" stroke="none"/>
    <path d="M88.95 -289.9 Q83.6 -280.4 79.95 -270.45 78.7 -267.1 82.15 -265.2 99.15 -255.75 105.45 -237.5 106.0 -237.15 106.5 -236.85 109.95 -237.75 112.65 -239.2 124.2 -245.35 121.5 -261.2 154.8 -258.9 181.9 -279.95 185.9 -283.1 191.45 -283.35 225.8 -281.55 232.9 -247.0 235.35 -234.95 244.25 -226.3 262.5 -208.55 265.05 -183.55 266.05 -174.1 257.3 -169.8 232.65 -157.85 208.5 -144.7 199.1 -139.65 192.35 -131.1 167.45 -99.7 154.55 -61.45 138.8 -14.75 145.95 34.15 153.55 86.25 149.55 139.6 148.65 151.5 154.1 162.25 167.75 189.25 171.75 218.45 172.95 227.4 167.8 234.9 164.9 239.05 161.3 242.55 156.4 247.35 150.75 251.15 141.8 257.4 131.35 260.8 115.7 266.05 99.6 269.8 80.2 274.4 60.25 275.45 44.6 276.35 29.4 272.5 -4.0 263.9 -38.2 260.45 -59.75 257.9 -81.15 263.3 -106.3 269.55 -132.45 269.4 -164.1 269.2 -162.6 296.7 L-162.1 299.5 Q-177.2 295.4 -190.5 287.45 L-194.4 285.1 Q-203.5 256.2 -195.75 225.3 -184.25 179.4 -178.25 132.4 -177.15 123.7 -176.65 114.9 -175.95 101.8 -176.4 88.6 -176.8 76.4 -177.85 64.1 -179.75 41.7 -177.9 19.25 -175.8 -6.2 -173.95 -31.75 -164.8 -50.55 -169.35 -69.05 -173.8 -87.1 -182.95 -103.4 -191.85 -119.3 -205.65 -131.6 -219.6 -144.05 -237.8 -149.4 -256.65 -154.95 -276.05 -157.15 -298.65 -166.35 -284.3 -184.75 -271.6 -201.05 -261.65 -219.15 -251.7 -237.2 -243.5 -256.15 -236.65 -271.95 -227.9 -286.55 -215.7 -306.8 -194.75 -292.35 -178.85 -281.45 -161.85 -272.5 -142.75 -262.35 -121.0 -264.65 -100.55 -267.05 -84.45 -280.15 -68.0 -293.55 -47.4 -299.55 -27.35 -305.5 -6.45 -308.0 L12.85 -309.3 2.75 -310.35 34.85 -309.05 35.6 -308.3 Q48.75 -306.75 61.5 -302.7 76.05 -297.95 88.95 -289.9 M56.35 -288.05 Q44.6 -300.6 32.3 -302.4 L-6.45 -308.0 Q-26.05 -302.9 -46.9 -290.3 L-33.45 -299.8 -35.2 -300.8 -50.45 -291.05 Q-24.8 -271.5 4.85 -253.75 6.2 -253.75 7.3 -254.3 26.9 -265.25 47.15 -275.45 68.1 -285.85 52.85 -296.05 L51.85 -295.4 56.35 -288.05 M137.1 -213.25 Q119.9 -201.2 114.8 -181.0 110.8 -165.15 125.35 -158.75 L144.35 -204.4 Q146.6 -209.8 141.6 -213.25 L137.1 -213.25 M-130.7 121.55 Q-114.95 135.1 -96.25 144.25 -77.25 153.4 -56.85 158.65 -37.45 163.75 -17.7 166.65 0.25 169.4 18.35 171.1 41.45 173.55 55.85 156.25 68.7 140.9 73.0 120.9 L80.8 83.0 88.2 46.85 Q92.05 28.35 97.25 10.35 102.65 -8.25 109.9 -26.1 117.45 -44.65 126.55 -62.3 136.45 -81.5 150.05 -98.0 164.0 -115.0 180.45 -129.5 193.05 -140.6 192.4 -158.95 192.0 -171.15 190.55 -183.2 188.1 -203.85 166.9 -195.15 146.65 -185.2 140.1 -163.5 L140.1 -162.9 Q140.6 -161.2 142.95 -160.5 154.25 -157.1 162.35 -159.5 151.2 -140.85 128.75 -137.9 115.05 -135.85 101.5 -132.7 108.6 -153.35 100.35 -173.5 90.9 -153.6 73.25 -140.9 58.65 -132.3 41.95 -130.2 17.0 -127.4 4.35 -149.75 L-2.2 -139.1 Q-14.6 -119.55 -35.55 -109.75 -56.55 -99.9 -78.7 -107.0 L-70.8 -100.55 Q-52.0 -87.95 -31.1 -96.6 -11.9 -104.55 3.85 -118.15 6.75 -120.65 10.35 -118.85 24.3 -111.75 39.5 -114.8 -6.3 -95.2 -48.95 -68.7 -57.55 -63.35 -67.7 -61.7 L-76.5 -60.55 Q-94.55 -63.05 -106.75 -76.5 -121.6 -92.75 -130.4 -112.95 -138.8 -132.2 -135.1 -153.2 -131.4 -174.4 -131.4 -195.8 -134.8 -221.75 -159.4 -199.15 -182.95 -177.6 -188.5 -145.45 -189.5 -139.7 -186.1 -136.05 -177.4 -126.75 -170.45 -130.8 -166.4 -133.2 -162.95 -140.25 L-160.75 -145.5 Q-157.85 -119.4 -153.4 -93.6 -150.55 -77.05 -151.3 -60.35 -152.55 -33.85 -152.0 -7.5 -151.65 9.9 -149.7 27.15 -147.6 45.8 -148.05 64.4 -148.45 82.5 -143.6 99.8 -140.1 112.35 -130.7 121.55 M78.7 -257.15 Q66.2 -277.4 50.05 -269.15 33.55 -260.7 20.75 -247.5 L11.05 -238.85 9.6 -241.9 Q1.35 -257.65 -15.8 -260.4 L-38.9 -271.8 Q-66.05 -261.75 -87.7 -242.5 -95.0 -250.35 -96.0 -261.45 -99.05 -258.15 -101.05 -254.25 -111.75 -233.15 -97.65 -215.15 -105.25 -194.6 -98.45 -173.75 -91.6 -152.7 -70.95 -144.4 -51.65 -136.65 -31.05 -141.35 -9.75 -146.4 1.05 -165.45 7.8 -148.6 24.95 -142.95 38.85 -138.3 51.6 -141.75 59.2 -143.8 66.4 -148.75 84.45 -161.05 93.8 -180.85 105.95 -206.5 97.95 -233.45 L97.0 -236.35 Q91.85 -250.0 78.7 -257.15 M119.35 -30.45 Q115.75 7.3 107.85 43.55 92.9 112.2 62.45 175.65 50.35 200.95 24.85 194.95 -53.55 176.1 -133.45 167.35 -126.65 169.85 -119.75 171.9 L-119.2 172.1 Q-107.25 175.65 -94.95 177.95 L-83.95 180.0 -10.15 196.55 -9.7 196.65 Q6.95 206.6 26.35 205.45 L26.5 205.45 Q48.45 216.45 66.2 198.45 68.65 195.9 71.35 193.6 62.5 228.6 81.6 254.65 83.9 257.8 88.3 258.0 107.3 258.55 114.9 241.55 127.75 212.95 127.55 181.25 127.05 108.4 125.6 35.45 125.2 16.1 129.7 -2.65 134.9 -24.3 138.7 -45.95 L138.9 -49.05 138.7 -51.85 Q138.45 -53.85 137.35 -55.45 123.9 -46.3 119.35 -30.45 M135.05 82.2 Q134.05 84.15 134.05 86.9 134.05 89.65 135.05 91.6 136.0 93.55 137.35 93.55 138.7 93.55 139.7 91.6 140.65 89.65 140.65 86.9 140.65 84.15 139.7 82.2 138.7 80.25 137.35 80.25 136.0 80.25 135.05 82.2 M-71.7 -287.75 Q-89.65 -280.65 -84.2 -263.5 L-79.45 -263.5 Q-73.15 -269.3 -67.6 -275.8 -59.75 -285.0 -71.7 -287.75 M-98.85 -148.55 Q-100.85 -125.7 -74.0 -123.15 -68.45 -122.55 -71.0 -126.5 -80.3 -141.0 -95.7 -149.5 L-98.85 -148.55 M-208.3 -291.8 L-209.75 -292.8 Q-242.3 -264.7 -244.0 -221.75 L-242.5 -220.25 -239.1 -220.3 Q-219.4 -242.25 -210.6 -270.05 -197.35 -281.95 -208.3 -291.8 M-164.75 28.8 Q-166.35 35.95 -166.75 43.55 -167.15 50.05 -166.7 56.8 -165.45 74.8 -164.65 92.85 -163.4 122.0 -168.9 150.55 -172.8 170.65 -179.3 190.05 -188.9 218.85 -191.05 248.85 -192.25 265.85 -181.0 277.35 -169.9 277.3 -172.5 265.85 -173.8 260.25 -173.9 254.6 -174.35 228.9 -167.45 204.2 -159.55 175.9 -158.4 146.6 -157.2 117.15 -161.4 88.1 -164.6 65.85 -164.4 43.55 -164.4 36.55 -164.0 29.55 L-164.75 28.8 M-138.7 132.1 Q-151.95 144.85 -130.55 159.3 -122.5 164.8 -114.6 159.35 -113.8 141.8 -135.7 133.4 -137.25 132.85 -138.7 132.1 M136.85 175.1 Q122.45 205.2 131.6 233.6 136.6 235.0 139.95 231.4 146.7 224.0 148.05 213.65 151.1 190.75 139.35 174.6 L136.85 175.1" fill="#ffa40f" fill-rule="evenodd" stroke="none"/>
    <path d="M-162.1 299.5 L-162.6 296.7 Q-164.1 269.2 -132.45 269.4 -106.3 269.55 -81.15 263.3 -59.75 257.9 -38.2 260.45 -4.0 263.9 29.4 272.5 44.6 276.35 60.25 275.45 80.2 274.4 99.6 269.8 115.7 266.05 131.35 260.8 141.8 257.4 150.75 251.15 156.4 247.35 161.3 242.55 164.9 239.05 167.8 234.9 172.95 227.4 171.75 218.45 167.75 189.25 154.1 162.25 148.65 151.5 149.55 139.6 153.55 86.25 145.95 34.15 138.8 -14.75 154.55 -61.45 167.45 -99.7 192.35 -131.1 199.1 -139.65 208.5 -144.7 232.65 -157.85 257.3 -169.8 266.05 -174.1 265.05 -183.55 262.5 -208.55 244.25 -226.3 235.35 -234.95 232.9 -247.0 225.8 -281.55 191.45 -283.35 185.9 -283.1 181.9 -279.95 154.8 -258.9 121.5 -261.2 124.2 -245.35 112.65 -239.2 109.95 -237.75 106.5 -236.85 106.0 -237.15 105.45 -237.5 99.15 -255.75 82.15 -265.2 78.7 -267.1 79.95 -270.45 83.6 -280.4 88.95 -289.9 105.5 -277.0 125.55 -272.85 147.1 -268.2 166.75 -278.2 186.5 -288.4 208.25 -291.2 222.25 -293.2 236.15 -290.55 257.7 -250.65 275.95 -208.85 285.65 -186.65 285.8 -164.1 285.8 -161.0 282.8 -158.45 259.25 -138.15 232.5 -121.85 214.1 -110.55 203.75 -92.2 199.15 -84.1 197.25 -75.0 194.75 -62.9 195.45 -50.6 197.4 -17.2 197.75 16.15 198.3 70.85 198.25 125.5 198.25 142.5 203.8 158.4 217.75 198.5 219.6 240.6 219.85 246.95 219.65 253.35 202.65 265.2 183.2 272.75 134.7 291.65 83.55 299.45 45.85 305.1 8.55 296.1 -17.4 289.75 -44.15 290.25 -53.75 290.45 -63.3 292.2 -75.8 294.35 -88.2 297.35 -98.8 299.85 -109.65 301.45 -136.2 305.9 -162.1 299.5 M-6.45 -308.0 L32.3 -302.4 Q44.6 -300.6 56.35 -288.05 31.15 -274.95 8.45 -257.95 -13.7 -279.65 -46.9 -290.3 -26.05 -302.9 -6.45 -308.0 M-117.9 109.55 Q-121.05 110.35 -123.95 112.7 -129.45 117.15 -130.7 121.55 -140.1 112.35 -143.6 99.8 -148.45 82.5 -148.05 64.4 -147.6 45.8 -149.7 27.15 -151.65 9.9 -152.0 -7.5 -152.55 -33.85 -151.3 -60.35 -150.55 -77.05 -153.4 -93.6 -157.85 -119.4 -160.75 -145.5 L-162.95 -140.25 Q-160.5 -155.7 -154.3 -174.55 -151.5 -143.25 -144.55 -112.55 -130.3 -49.5 -129.55 15.25 -129.35 29.4 -130.15 43.55 L-131.0 55.3 Q-132.7 75.75 -125.7 94.65 -122.65 102.95 -117.9 109.55 M166.9 -195.15 Q175.0 -197.6 180.3 -187.55 162.35 -184.45 157.6 -167.5 L161.1 -167.5 Q152.35 -163.9 140.1 -162.9 L140.1 -163.5 Q146.65 -185.2 166.9 -195.15 M166.35 -174.1 Q184.55 -154.25 163.5 -138.6 148.5 -127.55 130.55 -122.85 110.5 -117.5 90.2 -112.95 69.6 -108.4 49.75 -101.4 29.7 -94.25 11.5 -83.25 -5.45 -73.15 -21.1 -61.2 -38.35 -48.15 -58.1 -40.1 -73.35 -33.95 -88.5 -40.3 -89.15 -45.0 -86.95 -51.55 -84.55 -58.85 -76.5 -60.55 -71.9 -58.65 -67.7 -61.7 -57.55 -63.35 -48.95 -68.7 -6.3 -95.2 39.5 -114.8 24.3 -111.75 10.35 -118.85 6.75 -120.65 3.85 -118.15 -11.9 -104.55 -31.1 -96.6 -52.0 -87.95 -70.8 -100.55 -40.3 -92.85 -13.8 -113.5 0.0 -124.2 5.55 -140.9 16.5 -121.8 38.9 -123.55 62.45 -125.9 77.85 -143.75 L73.25 -140.9 Q90.9 -153.6 100.35 -173.5 108.6 -153.35 101.5 -132.7 115.05 -135.85 128.75 -137.9 151.2 -140.85 162.35 -159.5 170.45 -161.9 166.35 -174.1 M-139.95 -191.0 Q-139.2 -192.75 -139.2 -194.75 L-141.95 -195.0 Q-167.8 -176.3 -175.95 -145.5 -175.7 -137.0 -170.5 -130.85 L-170.45 -130.8 Q-177.4 -126.75 -186.1 -136.05 -189.5 -139.7 -188.5 -145.45 -182.95 -177.6 -159.4 -199.15 -134.8 -221.75 -131.4 -195.8 -136.2 -194.75 -139.95 -191.0 M78.7 -257.15 Q68.25 -261.5 56.95 -260.6 36.9 -259.4 20.75 -247.5 33.55 -260.7 50.05 -269.15 66.2 -277.4 78.7 -257.15 M-15.8 -260.4 Q-33.95 -264.1 -55.7 -254.4 -69.9 -248.2 -81.25 -238.15 -92.5 -228.2 -97.65 -215.15 -111.75 -233.15 -101.05 -254.25 -99.05 -258.15 -96.0 -261.45 -95.0 -250.35 -87.7 -242.5 -66.05 -261.75 -38.9 -271.8 L-15.8 -260.4 M26.5 205.45 Q50.15 207.6 65.0 187.45 99.1 141.1 109.25 84.4 112.9 64.0 115.55 43.55 120.7 3.5 122.05 -36.75 L119.35 -30.45 Q123.9 -46.3 137.35 -55.45 138.45 -53.85 138.7 -51.85 L138.9 -49.05 138.7 -45.95 Q134.9 -24.3 129.7 -2.65 125.2 16.1 125.6 35.45 127.05 108.4 127.55 181.25 127.75 212.95 114.9 241.55 107.3 258.55 88.3 258.0 83.9 257.8 81.6 254.65 62.5 228.6 71.35 193.6 68.65 195.9 66.2 198.45 48.45 216.45 26.5 205.45" fill="#d16601" fill-rule="evenodd" stroke="none"/>
    <path d="M-276.05 -157.15 Q-256.65 -154.95 -237.8 -149.4 -219.6 -144.05 -205.65 -131.6 -191.85 -119.3 -182.95 -103.4 -173.8 -87.1 -169.35 -69.05 -164.8 -50.55 -173.95 -31.75 -172.5 -63.25 -189.8 -89.2 -208.6 -117.45 -238.35 -133.5 -258.05 -144.15 -276.05 -157.15 M137.1 -213.25 L141.6 -213.25 Q146.6 -209.8 144.35 -204.4 L125.35 -158.75 Q110.8 -165.15 114.8 -181.0 119.9 -201.2 137.1 -213.25 M-117.9 109.55 Q-114.45 114.45 -109.95 118.4 -104.4 123.3 -97.8 126.55 -86.2 132.1 -74.2 135.8 -62.05 139.55 -49.65 142.4 -23.8 148.45 2.6 150.6 21.05 151.55 34.15 140.75 54.6 123.95 59.55 96.7 73.75 18.7 112.05 -50.55 128.8 -80.75 129.65 -115.45 142.15 -115.85 153.85 -120.05 176.55 -128.3 182.05 -152.05 185.75 -167.9 173.5 -178.8 L185.1 -187.1 183.35 -188.0 180.3 -187.55 Q175.0 -197.6 166.9 -195.15 188.1 -203.85 190.55 -183.2 192.0 -171.15 192.4 -158.95 193.05 -140.6 180.45 -129.5 164.0 -115.0 150.05 -98.0 136.45 -81.5 126.55 -62.3 117.45 -44.65 109.9 -26.1 102.65 -8.25 97.25 10.35 92.05 28.35 88.2 46.85 L80.8 83.0 73.0 120.9 Q68.7 140.9 55.85 156.25 41.45 173.55 18.35 171.1 0.25 169.4 -17.7 166.65 -37.45 163.75 -56.85 158.65 -77.25 153.4 -96.25 144.25 -114.95 135.1 -130.7 121.55 -129.45 117.15 -123.95 112.7 -121.05 110.35 -117.9 109.55 M161.1 -167.5 L166.35 -174.1 Q170.45 -161.9 162.35 -159.5 154.25 -157.1 142.95 -160.5 140.6 -161.2 140.1 -162.9 152.35 -163.9 161.1 -167.5 M-88.5 -40.3 Q-116.5 -54.0 -129.4 -83.5 -149.05 -128.45 -151.15 -177.75 -146.95 -183.6 -143.2 -186.75 L-143.05 -186.9 Q-140.9 -188.7 -139.95 -191.0 -136.2 -194.75 -131.4 -195.8 -131.4 -174.4 -135.1 -153.2 -138.8 -132.2 -130.4 -112.95 -121.6 -92.75 -106.75 -76.5 -94.55 -63.05 -76.5 -60.55 -84.55 -58.85 -86.95 -51.55 -89.15 -45.0 -88.5 -40.3 M-175.95 -145.5 L-174.45 -142.5 -173.2 -142.35 -154.3 -174.55 Q-160.5 -155.7 -162.95 -140.25 -166.4 -133.2 -170.45 -130.8 L-170.5 -130.85 Q-175.7 -137.0 -175.95 -145.5 M-71.7 -287.75 Q-59.75 -285.0 -67.6 -275.8 -73.15 -269.3 -79.45 -263.5 L-84.2 -263.5 Q-89.65 -280.65 -71.7 -287.75 M135.05 82.2 Q136.0 80.25 137.35 80.25 138.7 80.25 139.7 82.2 140.65 84.15 140.65 86.9 140.65 89.65 139.7 91.6 138.7 93.55 137.35 93.55 136.0 93.55 135.05 91.6 134.05 89.65 134.05 86.9 134.05 84.15 135.05 82.2 M-208.3 -291.8 Q-197.35 -281.95 -210.6 -270.05 -219.4 -242.25 -239.1 -220.3 L-242.5 -220.25 -244.0 -221.75 Q-242.3 -264.7 -209.75 -292.8 L-208.3 -291.8 M-98.85 -148.55 L-95.7 -149.5 Q-80.3 -141.0 -71.0 -126.5 -68.45 -122.55 -74.0 -123.15 -100.85 -125.7 -98.85 -148.55 M-164.75 28.8 L-164.0 29.55 Q-164.4 36.55 -164.4 43.55 -164.6 65.85 -161.4 88.1 -157.2 117.15 -158.4 146.6 -159.55 175.9 -167.45 204.2 -174.35 228.9 -173.9 254.6 -173.8 260.25 -172.5 265.85 -169.9 277.3 -181.0 277.35 -192.25 265.85 -191.05 248.85 -188.9 218.85 -179.3 190.05 -172.8 170.65 -168.9 150.55 -163.4 122.0 -164.65 92.85 -165.45 74.8 -166.7 56.8 -167.15 50.05 -166.75 43.55 -166.35 35.95 -164.75 28.8 M136.85 175.1 L139.35 174.6 Q151.1 190.75 148.05 213.65 146.7 224.0 139.95 231.4 136.6 235.0 131.6 233.6 122.45 205.2 136.85 175.1 M-138.7 132.1 Q-137.25 132.85 -135.7 133.4 -113.8 141.8 -114.6 159.35 -122.5 164.8 -130.55 159.3 -151.95 144.85 -138.7 132.1" fill="#ffe9c4" fill-rule="evenodd" stroke="none"/>
    <path d="M9.4 -225.05 Q5.1 -201.2 3.0 -177.15 L2.85 -173.25 Q0.1 -169.75 -3.35 -166.7 -22.8 -149.75 -48.7 -150.65 -62.7 -170.95 -53.3 -194.75 -43.95 -218.3 -23.5 -232.45 -11.35 -240.75 3.65 -241.75 L4.85 -240.3 Q10.25 -233.55 9.4 -225.05 M42.95 -146.8 Q34.8 -161.15 38.55 -177.55 L39.7 -182.2 Q48.75 -186.75 47.25 -197.3 L46.95 -199.1 Q59.65 -220.3 81.95 -230.85 86.15 -232.85 90.45 -234.65 93.85 -228.05 94.8 -220.65 98.05 -195.0 83.35 -173.15 68.55 -151.15 42.95 -146.8 M-24.35 -196.65 Q-24.15 -193.1 -22.7 -188.5 -21.25 -183.9 -15.7 -183.85 -5.65 -183.8 -2.6 -192.55 -2.45 -199.65 -5.95 -205.75 L-7.0 -207.6 Q-22.35 -210.35 -24.15 -200.8 -24.55 -198.95 -24.35 -196.65 M87.4 -37.4 Q96.4 -54.25 101.55 -72.75 106.65 -91.1 105.15 -110.1 L121.5 -113.55 Q121.25 -106.2 119.95 -98.9 114.2 -65.95 97.1 -37.2 L87.4 -37.4 M31.1 -42.4 Q34.15 -52.4 36.25 -62.65 39.05 -76.15 40.05 -89.6 48.9 -94.05 58.05 -97.95 54.65 -77.45 45.4 -58.7 41.35 -50.45 36.35 -42.7 L31.1 -42.4 M-18.95 57.75 L0.6 54.75 Q-7.75 72.4 -13.05 91.15 -19.65 114.6 -21.85 139.1 L-34.3 136.4 Q-33.2 116.95 -28.0 98.25 -22.45 78.25 -18.95 57.75 M38.35 129.6 Q37.4 110.65 38.2 91.6 39.05 71.35 42.15 51.25 L58.8 52.25 Q54.05 70.9 51.75 90.0 49.2 111.3 38.35 129.6 M-89.0 70.75 L-74.95 68.75 Q-85.6 85.6 -88.35 105.6 -89.4 113.2 -90.05 120.75 -95.25 118.3 -100.0 115.3 -99.7 106.45 -98.7 97.65 -96.95 81.9 -89.0 70.75" fill="#ebebeb" fill-rule="evenodd" stroke="none"/>
    <path d="M9.4 -225.05 Q27.3 -247.8 55.55 -253.2 79.45 -256.65 90.05 -235.5 L90.45 -234.65 Q86.15 -232.85 81.95 -230.85 59.65 -220.3 46.95 -199.1 45.0 -206.1 35.5 -209.35 29.6 -211.4 25.35 -206.85 13.1 -193.65 27.45 -183.15 33.75 -179.6 39.7 -182.2 L38.55 -177.55 Q34.8 -161.15 42.95 -146.8 37.7 -146.2 32.1 -146.6 7.05 -148.6 2.85 -173.25 L3.0 -177.15 Q5.1 -201.2 9.4 -225.05 M3.65 -241.75 Q-11.35 -240.75 -23.5 -232.45 -43.95 -218.3 -53.3 -194.75 -62.7 -170.95 -48.7 -150.65 L-54.9 -151.1 Q-81.45 -153.7 -89.65 -178.7 -96.9 -200.7 -85.55 -220.75 -69.55 -249.0 -37.55 -255.8 -11.15 -261.35 3.65 -241.75 M31.0 -195.45 Q19.3 -196.5 28.85 -205.0 36.65 -205.2 34.45 -197.75 33.7 -195.2 31.0 -195.45 M-24.15 -200.8 Q-23.05 -203.05 -20.15 -206.0 -10.6 -205.3 -18.55 -194.3 -23.1 -194.8 -24.35 -196.65 -24.55 -198.95 -24.15 -200.8 M105.15 -110.1 Q106.65 -91.1 101.55 -72.75 96.4 -54.25 87.4 -37.4 L57.4 -40.55 61.05 -45.65 Q73.3 -65.2 76.6 -87.85 77.8 -96.1 77.3 -104.25 L105.15 -110.1 M31.1 -42.4 Q-2.25 -40.8 -35.7 -42.85 -6.55 -64.0 24.95 -81.6 32.4 -85.8 40.05 -89.6 39.05 -76.15 36.25 -62.65 34.15 -52.4 31.1 -42.4 M-18.95 57.75 Q-22.45 78.25 -28.0 98.25 -33.2 116.95 -34.3 136.4 L-72.55 128.1 Q-68.7 98.85 -57.85 71.2 L-57.25 69.6 Q-39.05 61.2 -18.95 57.75 M38.35 129.6 L29.35 141.05 -3.7 141.1 Q2.65 100.3 14.85 61.05 L16.9 54.8 42.15 51.25 Q39.05 71.35 38.2 91.6 37.4 110.65 38.35 129.6 M-89.0 70.75 Q-96.95 81.9 -98.7 97.65 -99.7 106.45 -100.0 115.3 -116.65 106.5 -122.7 89.5 L-123.2 87.7 Q-109.5 72.55 -89.0 70.75" fill="#ffffff" fill-rule="evenodd" stroke="none"/>
    <path d="M63.75 -99.85 L72.0 -102.2 Q70.45 -80.7 62.6 -60.75 59.9 -54.0 56.5 -47.65 L47.55 -49.45 Q54.5 -61.4 58.8 -74.65 62.75 -86.95 63.75 -99.85 M9.15 62.05 L10.05 62.45 Q-3.9 100.5 -8.65 140.7 L-16.85 139.8 Q-10.3 95.35 3.8 52.9 4.0 59.2 9.15 62.05 M-64.85 74.9 L-63.5 74.8 Q-75.25 99.0 -78.55 125.95 L-84.9 123.3 Q-81.5 95.5 -71.95 69.05 -70.0 74.25 -64.85 74.9" fill="#999999" fill-rule="evenodd" stroke="none"/>
    <path d="M54.5 -44.1 L49.6 -36.45 Q68.8 -30.25 89.1 -30.55 L94.25 -30.65 Q75.2 5.75 61.65 44.5 46.35 40.7 31.55 45.6 22.4 48.7 15.15 55.0 L12.1 57.75 7.35 57.3 4.85 49.8 Q-18.7 49.6 -40.85 57.45 -49.35 60.45 -57.4 64.4 L-60.9 69.9 -66.2 69.8 -69.7 65.3 Q-84.3 62.65 -98.3 67.5 -108.9 71.35 -118.25 77.4 -121.4 79.45 -123.95 82.4 -121.7 19.35 -128.75 -43.15 -130.7 -60.6 -132.95 -78.1 -125.8 -58.55 -111.05 -43.85 -106.25 -39.15 -100.75 -35.4 -96.4 -32.4 -91.35 -31.1 -74.3 -26.25 -57.35 -31.65 -48.75 -34.45 -41.15 -39.6 -0.8 -35.55 39.85 -36.7 L44.1 -43.5 54.5 -44.1" fill="#331901" fill-rule="evenodd" stroke="none"/>
  </g>
</svg>
