<?xml version="1.0" encoding="UTF-8" standalone="no"?>
<svg xmlns:xlink="http://www.w3.org/1999/xlink" height="639.75px" width="681.7px" xmlns="http://www.w3.org/2000/svg">
  <g transform="matrix(1.0, 0.0, 0.0, 1.0, 340.85, 319.85)">
    <path d="M263.6 -306.6 Q284.4 -299.25 296.65 -280.7 303.4 -270.5 310.5 -260.45 322.8 -243.0 332.3 -224.0 341.85 -204.8 340.75 -183.65 340.2 -173.4 335.15 -164.3 325.1 -146.2 308.35 -134.1 293.8 -123.55 278.8 -113.8 261.0 -102.2 246.3 -86.95 231.65 -71.75 223.15 -52.65 216.05 -36.75 215.0 -19.55 L213.65 3.95 212.55 27.45 Q212.1 39.0 211.9 50.6 211.65 67.6 211.65 84.65 211.7 105.75 213.1 126.95 214.4 146.55 217.55 166.1 220.85 186.9 224.45 207.4 228.05 228.1 225.6 248.9 223.1 270.15 208.55 285.85 194.15 301.5 173.4 306.25 155.25 310.3 137.0 312.9 L103.8 316.85 Q82.85 319.15 61.8 319.05 45.75 318.95 29.95 316.55 9.3 313.25 -10.85 308.35 -29.95 303.6 -49.7 303.7 -66.85 303.75 -83.75 305.95 -100.85 308.25 -117.55 312.05 -136.9 316.55 -156.55 319.05 -178.2 322.05 -198.35 314.7 -209.15 310.8 -217.05 302.3 -232.2 286.05 -233.2 264.0 -233.4 259.6 -232.8 255.35 L-228.9 229.85 -224.95 207.3 -220.35 184.55 Q-216.1 164.9 -212.45 145.3 -208.55 124.55 -208.5 103.55 -208.5 86.15 -211.4 68.95 -214.3 52.0 -217.55 35.1 -221.4 15.35 -226.3 -4.25 L-237.2 -46.75 Q-242.15 -65.75 -255.05 -80.6 -268.25 -95.75 -285.55 -106.2 -295.0 -111.85 -303.9 -118.65 -317.7 -129.05 -327.4 -143.35 -339.15 -160.5 -340.6 -181.1 -342.0 -201.55 -334.9 -220.65 -327.85 -239.65 -317.95 -257.35 -307.4 -276.15 -292.7 -291.9 -278.5 -307.25 -257.65 -309.25 L-244.5 -308.65 Q-224.95 -306.3 -206.1 -299.95 L-194.95 -296.85 Q-175.5 -292.55 -155.4 -293.0 -135.7 -293.45 -116.65 -298.4 -97.75 -303.1 -78.9 -309.0 -71.1 -311.55 -63.15 -312.45 -43.95 -315.0 -24.65 -316.0 L9.3 -318.75 Q29.55 -320.15 49.9 -319.8 69.95 -318.65 88.25 -310.4 106.25 -302.35 125.05 -297.2 144.35 -291.8 164.5 -293.0 178.55 -294.25 192.15 -298.15 L229.95 -308.55 Q238.2 -310.8 246.8 -310.05 255.4 -309.4 263.6 -306.6 M-196.15 292.6 Q-175.1 298.2 -153.55 294.1 L-130.6 289.85 -91.25 282.9 Q-72.9 279.25 -54.05 279.15 -33.7 279.0 -13.7 282.35 7.55 285.95 28.4 291.3 48.0 296.25 67.9 294.6 L89.8 293.5 126.05 290.45 Q144.05 288.1 161.65 284.5 181.55 280.35 200.1 273.0 202.35 272.1 203.6 270.05 207.5 263.55 207.9 255.85 208.4 245.65 207.75 235.55 206.55 216.65 200.55 198.8 194.3 180.1 191.4 160.5 188.7 142.3 188.5 124.0 188.3 104.75 189.45 85.65 190.65 66.5 193.4 47.5 196.4 27.05 197.9 6.5 199.0 -8.3 200.55 -23.05 202.8 -44.3 211.05 -64.0 219.35 -83.75 232.9 -100.55 243.25 -113.45 256.5 -123.35 273.3 -135.9 289.75 -148.7 299.3 -156.15 305.55 -166.3 317.05 -185.0 314.45 -206.85 312.2 -225.55 302.3 -241.6 291.7 -258.7 278.7 -273.95 265.65 -289.35 248.85 -300.05 246.85 -301.4 244.4 -302.05 237.65 -303.55 231.0 -302.0 L202.2 -295.55 173.3 -289.3 144.45 -283.15 115.55 -277.1 Q121.75 -256.2 120.75 -234.35 L119.8 -233.1 118.35 -233.0 Q109.4 -250.95 94.2 -263.8 88.95 -268.3 82.75 -271.3 76.5 -274.4 69.65 -276.2 L67.85 -276.65 Q80.9 -273.1 91.0 -264.2 95.3 -260.45 98.4 -255.8 101.6 -251.0 103.75 -245.55 106.5 -238.6 107.65 -231.3 108.8 -224.3 108.3 -217.05 107.6 -206.8 103.95 -197.3 101.35 -190.6 97.5 -184.3 93.85 -178.3 89.05 -173.15 85.2 -169.05 80.55 -165.6 L75.75 -162.3 Q56.9 -150.1 34.6 -152.25 18.6 -154.15 7.0 -165.65 0.9 -171.8 -2.45 -179.8 -16.05 -159.95 -39.65 -155.05 -68.55 -149.1 -90.15 -168.6 -98.55 -176.2 -103.9 -186.3 -113.6 -204.65 -112.2 -225.35 -110.95 -243.5 -98.95 -257.05 -83.75 -274.05 -61.4 -277.85 -88.75 -281.0 -106.7 -260.15 -111.85 -254.25 -114.8 -246.8 L-118.1 -248.35 Q-120.1 -250.65 -119.75 -253.65 -117.9 -268.35 -114.1 -282.55 -130.1 -279.15 -145.95 -285.35 -151.5 -287.55 -157.35 -288.8 -168.95 -291.55 -180.75 -293.7 L-220.0 -300.5 Q-241.05 -304.1 -261.5 -297.7 -273.6 -293.95 -282.0 -284.45 -295.05 -269.8 -305.65 -253.15 -316.45 -236.15 -324.25 -217.3 -332.7 -196.75 -328.75 -174.85 L-327.7 -169.65 Q-320.75 -158.45 -308.6 -152.05 L-297.15 -145.7 Q-278.55 -135.3 -260.5 -123.65 -242.75 -112.15 -230.5 -94.7 -219.4 -79.0 -215.9 -59.95 -213.0 -44.25 -211.85 -28.3 -210.45 -8.95 -209.35 10.4 -208.25 30.0 -204.35 49.15 -200.35 69.05 -201.0 89.4 -201.65 111.05 -204.35 132.7 -206.8 152.6 -210.15 172.25 L-216.9 211.35 Q-220.55 232.2 -219.25 253.3 -218.5 265.7 -212.35 276.7 -206.55 286.95 -196.15 292.6 M-84.05 -58.25 Q-64.6 -49.5 -43.6 -45.25 -23.1 -41.1 -2.1 -41.25 18.8 -41.35 39.05 -47.15 58.8 -52.75 77.15 -61.9 95.0 -70.7 111.4 -81.85 127.55 -92.95 142.0 -106.1 156.9 -119.7 169.95 -135.1 183.25 -150.7 194.3 -168.2 L217.2 -204.05 236.85 -234.45 212.9 -252.65 211.0 -253.85 Q232.6 -250.25 251.65 -239.5 261.45 -233.9 267.15 -224.25 271.6 -216.7 270.4 -208.0 269.8 -203.85 268.25 -199.95 L264.3 -204.55 249.2 -222.5 Q239.3 -203.6 227.15 -186.1 214.8 -168.3 201.4 -151.3 189.2 -135.9 176.15 -121.35 163.0 -106.75 147.95 -94.25 135.65 -84.1 121.55 -76.6 L94.85 -62.3 Q75.6 -51.95 55.45 -43.7 35.1 -35.5 13.05 -33.6 3.2 -32.8 -6.75 -33.2 -26.05 -33.8 -44.8 -37.95 -64.85 -42.2 -82.95 -51.25 -101.8 -60.55 -119.9 -71.2 -136.95 -81.25 -151.5 -94.65 -167.5 -109.4 -181.6 -125.9 -194.15 -140.7 -205.05 -156.65 -216.9 -173.8 -226.15 -192.4 -235.35 -211.0 -242.05 -230.55 L-244.0 -236.25 -268.75 -213.7 -270.15 -213.7 -271.0 -214.55 Q-268.15 -238.35 -248.65 -252.4 -230.6 -265.55 -208.9 -262.1 -205.0 -261.35 -201.3 -259.9 L-205.6 -257.4 Q-218.4 -248.7 -232.45 -242.45 -233.85 -241.75 -235.35 -241.2 -209.8 -171.65 -162.9 -114.7 -155.0 -105.1 -146.15 -96.35 -140.65 -90.95 -134.65 -86.4 -125.5 -79.55 -115.55 -73.9 -100.6 -65.4 -84.8 -58.6 L-84.05 -58.25 M68.6 -280.5 Q90.5 -278.95 105.3 -262.8 108.75 -259.0 111.65 -254.75 L106.15 -279.95 Q88.3 -287.95 72.85 -300.0 60.3 -309.7 44.15 -311.15 L26.5 -312.2 Q4.6 -312.7 -17.2 -311.15 -36.7 -309.65 -56.1 -306.8 -76.2 -303.65 -93.65 -293.4 -99.5 -290.0 -105.2 -286.3 L-111.4 -258.65 Q-101.3 -276.3 -82.0 -282.05 -74.85 -284.15 -67.35 -283.45 -58.1 -282.2 -49.1 -279.7 -34.25 -275.55 -20.75 -267.9 -9.7 -261.55 -2.9 -250.8 17.15 -272.65 46.4 -278.5 57.4 -280.65 68.6 -280.5 M47.75 -160.75 Q70.0 -163.75 84.55 -180.85 98.7 -197.4 100.65 -219.05 102.7 -242.05 86.0 -257.7 82.55 -260.9 78.7 -263.25 60.0 -272.55 39.45 -269.5 18.2 -266.2 3.45 -250.7 0.6 -247.7 -1.95 -244.2 L-3.05 -245.85 Q-12.6 -260.05 -28.6 -267.1 L-31.55 -268.35 Q-52.75 -276.0 -74.2 -268.8 -91.65 -262.9 -100.15 -246.25 -110.2 -226.7 -105.4 -205.25 -100.55 -183.55 -82.45 -171.75 -74.15 -166.35 -64.05 -165.5 -44.65 -163.15 -26.45 -170.45 -15.05 -175.0 -5.5 -182.8 L-2.65 -185.15 Q7.55 -165.5 28.95 -161.4 38.2 -159.55 47.75 -160.75 M46.55 -298.55 L52.5 -301.6 Q43.15 -282.45 22.55 -276.85 2.25 -271.2 -18.35 -275.25 -37.85 -278.9 -53.65 -290.65 -60.3 -295.65 -65.65 -301.8 L-61.5 -298.65 Q-44.4 -285.75 -23.2 -283.9 -11.9 -282.85 -0.5 -284.35 20.0 -287.05 38.95 -295.15 L46.55 -298.55 M-31.95 -225.0 Q-18.35 -221.3 -16.2 -208.3 -15.65 -205.0 -17.0 -201.8 -18.65 -197.85 -21.35 -194.65 -27.25 -187.5 -36.15 -191.4 -39.85 -193.1 -42.85 -195.9 -51.8 -204.0 -46.05 -215.05 -43.15 -220.55 -38.05 -224.05 -35.3 -225.95 -31.95 -225.0 M-41.1 -217.35 L-41.5 -216.4 Q-43.15 -210.0 -38.95 -206.2 -35.05 -207.6 -32.9 -211.6 -29.7 -217.4 -36.0 -219.1 L-41.1 -217.35 M35.15 -209.15 Q35.0 -203.8 32.85 -198.9 31.95 -196.9 30.1 -195.7 20.35 -188.95 9.65 -195.95 8.55 -196.65 8.05 -197.75 4.65 -205.15 10.1 -212.4 8.8 -205.15 15.85 -205.8 20.05 -206.45 20.65 -210.6 21.7 -217.95 14.3 -216.8 L12.2 -215.7 Q13.8 -217.7 15.85 -219.0 17.6 -220.15 19.7 -219.95 29.75 -218.4 35.15 -209.15 M47.15 -127.3 Q27.45 -128.35 14.35 -143.15 22.05 -142.5 29.7 -139.7 32.85 -138.45 36.3 -138.05 56.85 -134.45 75.55 -143.75 82.05 -147.0 87.95 -151.55 L90.35 -147.7 Q80.15 -130.85 60.45 -128.15 L47.15 -127.3 M-33.4 -138.55 Q-47.85 -121.15 -69.3 -128.45 -90.35 -135.55 -104.1 -153.1 -110.45 -161.25 -114.75 -170.7 -94.5 -145.45 -62.95 -139.5 -48.25 -136.75 -33.4 -138.55 M-37.05 22.45 Q-56.9 18.2 -75.05 9.2 -89.15 2.15 -101.7 -7.45 -68.4 5.4 -32.4 7.9 L-2.9 9.6 Q37.2 10.4 76.4 2.4 L76.65 2.8 Q75.35 10.25 70.0 15.75 63.05 23.0 53.05 24.4 L47.25 25.0 Q25.9 28.8 4.1 27.95 -16.85 27.3 -37.05 22.45" fill="#000000" fill-rule="evenodd" stroke="none"/>
    <path d="M75.75 -162.3 L80.55 -165.6 Q85.2 -169.05 89.05 -173.15 93.85 -178.3 97.5 -184.3 101.35 -190.6 103.95 -197.3 107.6 -206.8 108.3 -217.05 108.8 -224.3 107.65 -231.3 106.5 -238.6 103.75 -245.55 101.6 -251.0 98.4 -255.8 95.3 -260.45 91.0 -264.2 80.9 -273.1 67.85 -276.65 L69.65 -276.2 Q76.5 -274.4 82.75 -271.3 88.95 -268.3 94.2 -263.8 109.4 -250.95 118.35 -233.0 L119.8 -233.1 120.75 -234.35 Q121.75 -256.2 115.55 -277.1 L144.45 -283.15 173.3 -289.3 202.2 -295.55 231.0 -302.0 Q237.65 -303.55 244.4 -302.05 246.85 -301.4 248.85 -300.05 265.65 -289.35 278.7 -273.95 291.7 -258.7 302.3 -241.6 312.2 -225.55 314.45 -206.85 317.05 -185.0 305.55 -166.3 299.3 -156.15 289.75 -148.7 273.3 -135.9 256.5 -123.35 243.25 -113.45 232.9 -100.55 219.35 -83.75 211.05 -64.0 202.8 -44.3 200.55 -23.05 199.0 -8.3 197.9 6.5 196.4 27.05 193.4 47.5 190.65 66.5 189.45 85.65 188.3 104.75 188.5 124.0 188.7 142.3 191.4 160.5 194.3 180.1 200.55 198.8 206.55 216.65 207.75 235.55 208.4 245.65 207.9 255.85 207.5 263.55 203.6 270.05 202.35 272.1 200.1 273.0 181.55 280.35 161.65 284.5 144.05 288.1 126.05 290.45 L89.8 293.5 67.9 294.6 Q48.0 296.25 28.4 291.3 7.55 285.95 -13.7 282.35 -33.7 279.0 -54.05 279.15 -72.9 279.25 -91.25 282.9 L-130.6 289.85 -153.55 294.1 Q-175.1 298.2 -196.15 292.6 L-196.4 286.45 Q-196.55 281.05 -193.85 276.3 -187.4 264.75 -173.7 262.9 -151.1 259.6 -128.3 258.2 L-86.95 255.45 Q-98.4 246.55 -105.85 234.15 -113.15 222.0 -115.4 207.9 -117.65 193.95 -116.05 179.8 -114.9 170.05 -112.05 160.55 L-108.7 149.6 Q-104.25 135.25 -101.3 120.55 -95.55 92.35 -97.8 63.7 -99.35 44.0 -107.75 26.15 -109.65 22.05 -112.3 18.45 -120.8 6.95 -127.35 -5.85 -131.25 -13.55 -133.7 -21.9 L-135.5 -28.3 Q-122.95 -28.65 -110.65 -26.45 -102.45 -24.85 -94.65 -22.1 -84.5 -18.55 -75.5 -12.75 -63.2 -4.95 -48.85 -3.2 -20.0 0.65 9.05 -1.4 26.65 -2.6 43.65 -7.1 53.95 -9.7 63.75 -14.15 L96.8 -29.05 Q106.2 -33.2 116.05 -35.25 122.95 -36.65 129.6 -33.6 136.75 -30.25 141.75 -24.0 146.35 -18.2 149.1 -11.35 151.25 -6.0 152.15 -0.5 L153.85 12.25 Q154.7 19.95 153.85 27.85 153.2 34.05 151.4 40.1 142.2 70.95 133.95 102.2 127.7 125.7 128.6 149.9 128.9 157.25 126.15 163.85 123.45 170.25 118.4 175.1 L114.55 178.5 112.95 165.55 Q109.3 137.0 100.8 109.55 96.15 94.5 89.9 80.0 L89.65 79.6 Q89.2 79.65 88.9 79.85 85.05 82.6 82.75 87.1 71.15 109.55 65.75 134.3 58.85 166.1 59.5 198.6 60.0 222.6 65.6 245.65 68.2 256.3 73.9 265.7 L77.15 270.85 Q97.65 273.05 117.85 269.1 137.65 265.0 155.1 254.85 164.55 249.45 168.7 239.1 176.8 218.9 176.65 197.0 176.5 177.25 171.7 158.1 166.5 137.35 164.9 116.25 163.3 95.05 165.15 73.95 166.9 53.45 168.9 33.05 L173.1 -7.95 Q175.0 -25.6 172.8 -43.3 171.0 -57.65 173.3 -71.95 176.65 -92.95 188.15 -110.85 199.1 -128.0 214.8 -140.75 231.8 -154.6 250.45 -166.1 L275.9 -181.95 274.9 -189.9 273.25 -190.75 273.65 -191.55 Q277.9 -198.2 278.95 -206.25 281.8 -227.8 266.75 -243.85 255.65 -248.4 244.9 -254.05 236.05 -258.75 226.1 -259.7 210.0 -260.4 197.65 -249.8 L212.9 -252.65 236.85 -234.45 217.2 -204.05 194.3 -168.2 Q183.25 -150.7 169.95 -135.1 156.9 -119.7 142.0 -106.1 127.55 -92.95 111.4 -81.85 95.0 -70.7 77.15 -61.9 58.8 -52.75 39.05 -47.15 18.8 -41.35 -2.1 -41.25 -23.1 -41.1 -43.6 -45.25 -64.6 -49.5 -84.05 -58.25 L-84.8 -58.65 Q-91.95 -64.65 -88.9 -72.3 -88.3 -73.85 -86.9 -74.6 -69.75 -66.1 -51.45 -60.85 -31.8 -55.35 -11.6 -52.6 9.4 -50.15 30.2 -53.8 50.85 -57.3 70.2 -65.6 89.4 -73.95 106.05 -86.65 120.35 -97.55 132.6 -110.6 146.8 -125.8 160.55 -141.5 174.4 -157.25 185.85 -174.8 187.45 -174.8 188.6 -176.3 189.7 -177.8 189.7 -179.9 196.6 -183.05 197.6 -189.6 L197.45 -190.05 Q195.4 -191.95 192.55 -193.0 179.6 -197.5 168.65 -189.6 160.95 -183.95 157.8 -174.75 149.85 -151.85 136.8 -131.5 130.4 -121.45 120.9 -114.35 94.65 -94.9 61.75 -91.65 2.45 -86.2 -57.0 -86.7 -71.45 -86.85 -85.0 -92.05 -114.1 -103.1 -132.3 -128.55 -148.95 -151.75 -151.75 -180.35 -143.9 -161.35 -128.5 -147.8 -113.8 -135.0 -96.8 -125.35 -82.85 -117.4 -66.95 -116.25 -45.9 -115.75 -25.65 -122.45 -20.4 -124.1 -15.5 -126.5 -6.1 -131.2 3.65 -128.35 8.85 -126.9 13.75 -124.2 32.1 -114.2 53.2 -113.45 75.85 -112.7 94.45 -125.35 111.85 -137.3 122.9 -155.5 127.65 -163.35 129.3 -172.3 131.55 -184.7 119.55 -189.0 117.9 -189.55 116.5 -188.55 112.9 -186.1 110.15 -182.75 96.65 -166.4 75.75 -162.3 M-216.9 211.35 L-210.15 172.25 Q-206.8 152.6 -204.35 132.7 -201.65 111.05 -201.0 89.4 -200.35 69.05 -204.35 49.15 -208.25 30.0 -209.35 10.4 -210.45 -8.95 -211.85 -28.3 -213.0 -44.25 -215.9 -59.95 -219.4 -79.0 -230.5 -94.7 -242.75 -112.15 -260.5 -123.65 -278.55 -135.3 -297.15 -145.7 L-308.6 -152.05 Q-320.75 -158.45 -327.7 -169.65 -325.2 -182.7 -315.65 -191.55 -308.6 -198.1 -299.0 -196.95 -277.5 -194.35 -260.45 -180.75 -243.9 -167.5 -230.95 -150.75 -218.7 -134.9 -207.6 -118.05 -197.7 -103.1 -188.5 -87.8 -179.55 -72.75 -171.55 -57.3 -162.55 -39.85 -163.35 -20.1 -164.2 0.3 -168.05 20.35 -171.2 36.85 -171.9 53.65 -172.85 75.2 -169.65 96.8 -166.9 115.0 -164.8 133.5 -162.5 154.05 -166.05 174.15 -169.75 195.05 -183.7 210.95 -186.95 214.65 -191.5 216.45 -205.35 221.8 -216.9 211.35 M-180.75 -293.7 Q-168.95 -291.55 -157.35 -288.8 -151.5 -287.55 -145.95 -285.35 -130.1 -279.15 -114.1 -282.55 -117.9 -268.35 -119.75 -253.65 -120.1 -250.65 -118.1 -248.35 -126.8 -230.9 -119.95 -212.55 -118.7 -209.25 -120.55 -206.35 -124.25 -200.45 -131.3 -198.7 -143.15 -195.5 -150.6 -205.2 -163.1 -221.6 -164.45 -242.15 -165.05 -251.5 -165.95 -261.05 -167.25 -274.85 -175.2 -286.5 -177.75 -290.2 -180.75 -293.7 M264.3 -204.55 L273.65 -191.55 273.15 -190.8 250.3 -206.7 249.2 -222.5 264.3 -204.55 M-12.5 -20.85 Q-33.65 -19.7 -54.0 -25.5 -74.65 -31.3 -94.35 -40.1 -113.35 -48.6 -130.3 -60.75 -147.6 -73.1 -163.45 -87.5 -177.15 -100.0 -189.15 -113.9 -202.7 -129.6 -214.95 -146.45 -227.05 -163.1 -234.95 -182.15 -242.75 -200.95 -249.15 -220.15 L-244.0 -236.25 -242.05 -230.55 Q-235.35 -211.0 -226.15 -192.4 -216.9 -173.8 -205.05 -156.65 -194.15 -140.7 -181.6 -125.9 -167.5 -109.4 -151.5 -94.65 -136.95 -81.25 -119.9 -71.2 -101.8 -60.55 -82.95 -51.25 -64.85 -42.2 -44.8 -37.95 -26.05 -33.8 -6.75 -33.2 L-8.0 -32.75 Q-16.9 -29.35 -12.5 -20.85 M-269.0 -203.15 L-272.55 -208.6 Q-278.05 -217.35 -276.7 -227.5 -274.9 -241.15 -265.15 -251.35 -249.8 -267.4 -228.15 -272.2 -205.0 -277.3 -189.0 -259.85 L-205.6 -257.4 -201.3 -259.9 Q-205.0 -261.35 -208.9 -262.1 -230.6 -265.55 -248.65 -252.4 -268.15 -238.35 -271.0 -214.55 L-270.15 -213.7 -268.75 -213.7 -269.0 -203.15 M72.85 -300.0 Q88.3 -287.95 106.15 -279.95 L111.65 -254.75 Q108.75 -259.0 105.3 -262.8 90.5 -278.95 68.6 -280.5 73.45 -288.2 73.0 -297.25 L72.85 -300.0 M-61.5 -298.65 Q-57.8 -306.8 -48.95 -307.65 L-34.35 -307.3 Q-14.85 -306.85 4.6 -307.9 27.0 -309.3 46.55 -298.55 L38.95 -295.15 Q20.0 -287.05 -0.5 -284.35 -11.9 -282.85 -23.2 -283.9 -44.4 -285.75 -61.5 -298.65 M47.25 25.0 L53.05 24.4 Q63.05 23.0 70.0 15.75 75.35 10.25 76.65 2.8 L76.4 2.4 Q37.2 10.4 -2.9 9.6 L-32.4 7.9 Q-68.4 5.4 -101.7 -7.45 -89.15 2.15 -75.05 9.2 -56.9 18.2 -37.05 22.45 -51.15 19.9 -61.45 29.0 -64.85 32.0 -67.35 36.05 -74.8 48.35 -75.1 62.75 L-75.85 97.15 -76.75 130.5 Q-77.4 150.15 -78.55 169.75 -79.75 189.8 -75.85 209.55 -71.95 229.2 -63.4 247.45 L-60.95 252.75 -37.65 253.3 Q-46.7 217.9 -42.25 181.6 L-40.85 171.25 Q-16.5 215.0 0.5 262.0 L17.5 263.95 Q21.65 219.35 23.2 174.55 23.35 169.5 24.6 164.6 31.25 138.6 45.45 115.85 50.5 107.8 55.2 99.4 L57.65 94.65 60.7 87.35 Q63.75 78.6 65.05 69.4 66.55 58.9 63.95 48.7 62.55 43.1 59.5 38.3 54.65 30.6 47.25 25.0" fill="#a8a800" fill-rule="evenodd" stroke="none"/>
    <path d="M75.75 -162.3 Q96.65 -166.4 110.15 -182.75 112.9 -186.1 116.5 -188.55 117.9 -189.55 119.55 -189.0 131.55 -184.7 129.3 -172.3 127.65 -163.35 122.9 -155.5 111.85 -137.3 94.45 -125.35 75.85 -112.7 53.2 -113.45 32.1 -114.2 13.75 -124.2 8.85 -126.9 3.65 -128.35 -6.1 -131.2 -15.5 -126.5 -20.4 -124.1 -25.65 -122.45 -45.9 -115.75 -66.95 -116.25 -82.85 -117.4 -96.8 -125.35 -113.8 -135.0 -128.5 -147.8 -143.9 -161.35 -151.75 -180.35 -148.95 -151.75 -132.3 -128.55 -114.1 -103.1 -85.0 -92.05 -71.45 -86.85 -57.0 -86.7 2.45 -86.2 61.75 -91.65 94.65 -94.9 120.9 -114.35 130.4 -121.45 136.8 -131.5 149.85 -151.85 157.8 -174.75 160.95 -183.95 168.65 -189.6 179.6 -197.5 192.55 -193.0 195.4 -191.95 197.45 -190.05 L189.7 -179.9 185.85 -174.8 Q174.4 -157.25 160.55 -141.5 146.8 -125.8 132.6 -110.6 120.35 -97.55 106.05 -86.65 89.4 -73.95 70.2 -65.6 50.85 -57.3 30.2 -53.8 9.4 -50.15 -11.6 -52.6 -31.8 -55.35 -51.45 -60.85 -69.75 -66.1 -86.9 -74.6 -102.8 -82.6 -117.95 -91.75 -136.45 -102.85 -151.45 -118.35 -165.25 -132.55 -175.95 -149.25 -186.95 -166.3 -197.8 -183.7 -205.7 -196.3 -212.95 -209.4 -216.05 -215.0 -216.85 -221.2 -219.85 -245.35 -198.35 -256.1 -193.8 -258.4 -189.0 -259.85 -205.0 -277.3 -228.15 -272.2 -249.8 -267.4 -265.15 -251.35 -274.9 -241.15 -276.7 -227.5 -278.05 -217.35 -272.55 -208.6 L-269.0 -203.15 Q-267.85 -202.75 -266.85 -203.65 L-249.15 -220.15 Q-242.75 -200.95 -234.95 -182.15 -227.05 -163.1 -214.95 -146.45 -202.7 -129.6 -189.15 -113.9 -177.15 -100.0 -163.45 -87.5 -147.6 -73.1 -130.3 -60.75 -113.35 -48.6 -94.35 -40.1 -74.65 -31.3 -54.0 -25.5 -33.65 -19.7 -12.5 -20.85 0.35 -19.65 13.1 -21.35 33.7 -24.35 53.8 -30.2 73.75 -36.15 92.25 -46.2 109.0 -55.2 124.35 -66.65 141.0 -79.1 156.8 -92.35 173.45 -106.25 188.45 -122.1 202.15 -136.6 213.9 -152.75 226.1 -169.45 237.3 -186.85 L250.3 -206.7 273.15 -190.8 273.25 -190.75 274.9 -189.9 275.9 -181.95 250.45 -166.1 Q231.8 -154.6 214.8 -140.75 199.1 -128.0 188.15 -110.85 176.65 -92.95 173.3 -71.95 171.0 -57.65 172.8 -43.3 175.0 -25.6 173.1 -7.95 L168.9 33.05 Q166.9 53.45 165.15 73.95 163.3 95.05 164.9 116.25 166.5 137.35 171.7 158.1 176.5 177.25 176.65 197.0 176.8 218.9 168.7 239.1 164.55 249.45 155.1 254.85 137.65 265.0 117.85 269.1 97.65 273.05 77.15 270.85 L73.9 265.7 Q68.2 256.3 65.6 245.65 60.0 222.6 59.5 198.6 58.85 166.1 65.75 134.3 71.15 109.55 82.75 87.1 85.05 82.6 88.9 79.85 89.2 79.65 89.65 79.6 L89.9 80.0 Q96.15 94.5 100.8 109.55 109.3 137.0 112.95 165.55 L114.55 178.5 118.4 175.1 Q123.45 170.25 126.15 163.85 128.9 157.25 128.6 149.9 127.7 125.7 133.95 102.2 142.2 70.95 151.4 40.1 153.2 34.05 153.85 27.85 154.7 19.95 153.85 12.25 L152.15 -0.5 Q151.25 -6.0 149.1 -11.35 146.35 -18.2 141.75 -24.0 136.75 -30.25 129.6 -33.6 122.95 -36.65 116.05 -35.25 106.2 -33.2 96.8 -29.05 L63.75 -14.15 Q53.95 -9.7 43.65 -7.1 26.65 -2.6 9.05 -1.4 -20.0 0.65 -48.85 -3.2 -63.2 -4.95 -75.5 -12.75 -84.5 -18.55 -94.65 -22.1 -102.45 -24.85 -110.65 -26.45 -122.95 -28.65 -135.5 -28.3 L-133.7 -21.9 Q-131.25 -13.55 -127.35 -5.85 -120.8 6.95 -112.3 18.45 -109.65 22.05 -107.75 26.15 -99.35 44.0 -97.8 63.7 -95.55 92.35 -101.3 120.55 -104.25 135.25 -108.7 149.6 L-112.05 160.55 Q-114.9 170.05 -116.05 179.8 -117.65 193.95 -115.4 207.9 -113.15 222.0 -105.85 234.15 -98.4 246.55 -86.95 255.45 L-128.3 258.2 Q-151.1 259.6 -173.7 262.9 -187.4 264.75 -193.85 276.3 -196.55 281.05 -196.4 286.45 L-196.15 292.6 Q-206.55 286.95 -212.35 276.7 -218.5 265.7 -219.25 253.3 -220.55 232.2 -216.9 211.35 -205.35 221.8 -191.5 216.45 -186.95 214.65 -183.7 210.95 -169.75 195.05 -166.05 174.15 -162.5 154.05 -164.8 133.5 -166.9 115.0 -169.65 96.8 -172.85 75.2 -171.9 53.65 -171.2 36.85 -168.05 20.35 -164.2 0.3 -163.35 -20.1 -162.55 -39.85 -171.55 -57.3 -179.55 -72.75 -188.5 -87.8 -197.7 -103.1 -207.6 -118.05 -218.7 -134.9 -230.95 -150.75 -243.9 -167.5 -260.45 -180.75 -277.5 -194.35 -299.0 -196.95 -308.6 -198.1 -315.65 -191.55 -325.2 -182.7 -327.7 -169.65 L-328.75 -174.85 Q-332.7 -196.75 -324.25 -217.3 -316.45 -236.15 -305.65 -253.15 -295.05 -269.8 -282.0 -284.45 -273.6 -293.95 -261.5 -297.7 -241.05 -304.1 -220.0 -300.5 L-180.75 -293.7 Q-177.75 -290.2 -175.2 -286.5 -167.25 -274.85 -165.95 -261.05 -165.05 -251.5 -164.45 -242.15 -163.1 -221.6 -150.6 -205.2 -143.15 -195.5 -131.3 -198.7 -124.25 -200.45 -120.55 -206.35 -118.7 -209.25 -119.95 -212.55 -126.8 -230.9 -118.1 -248.35 L-114.8 -246.8 Q-111.85 -254.25 -106.7 -260.15 -88.75 -281.0 -61.4 -277.85 -83.75 -274.05 -98.95 -257.05 -110.95 -243.5 -112.2 -225.35 -113.6 -204.65 -103.9 -186.3 -98.55 -176.2 -90.15 -168.6 -68.55 -149.1 -39.65 -155.05 -16.05 -159.95 -2.45 -179.8 0.9 -171.8 7.0 -165.65 18.6 -154.15 34.6 -152.25 56.9 -150.1 75.75 -162.3 M212.9 -252.65 L197.65 -249.8 Q210.0 -260.4 226.1 -259.7 236.05 -258.75 244.9 -254.05 255.65 -248.4 266.75 -243.85 281.8 -227.8 278.95 -206.25 277.9 -198.2 273.65 -191.55 L264.3 -204.55 268.25 -199.95 Q269.8 -203.85 270.4 -208.0 271.6 -216.7 267.15 -224.25 261.45 -233.9 251.65 -239.5 232.6 -250.25 211.0 -253.85 L212.9 -252.65 M72.85 -300.0 L73.0 -297.25 Q73.45 -288.2 68.6 -280.5 57.4 -280.65 46.4 -278.5 17.15 -272.65 -2.9 -250.8 -9.7 -261.55 -20.75 -267.9 -34.25 -275.55 -49.1 -279.7 -58.1 -282.2 -67.35 -283.45 -74.85 -284.15 -82.0 -282.05 -101.3 -276.3 -111.4 -258.65 L-105.2 -286.3 Q-99.5 -290.0 -93.65 -293.4 -76.2 -303.65 -56.1 -306.8 -36.7 -309.65 -17.2 -311.15 4.6 -312.7 26.5 -312.2 L44.15 -311.15 Q60.3 -309.7 72.85 -300.0 M-61.5 -298.65 L-65.65 -301.8 Q-60.3 -295.65 -53.65 -290.65 -37.85 -278.9 -18.35 -275.25 2.25 -271.2 22.55 -276.85 43.15 -282.45 52.5 -301.6 L46.55 -298.55 Q27.0 -309.3 4.6 -307.9 -14.85 -306.85 -34.35 -307.3 L-48.95 -307.65 Q-57.8 -306.8 -61.5 -298.65 M47.15 -127.3 L60.45 -128.15 Q80.15 -130.85 90.35 -147.7 L87.95 -151.55 Q82.05 -147.0 75.55 -143.75 56.85 -134.45 36.3 -138.05 32.85 -138.45 29.7 -139.7 22.05 -142.5 14.35 -143.15 27.45 -128.35 47.15 -127.3 M2.8 -160.5 Q-0.05 -163.1 -3.65 -164.5 L-5.05 -164.95 Q-12.5 -155.15 -3.85 -146.8 L-1.15 -144.5 4.2 -144.5 Q10.6 -153.5 2.8 -160.5 M-33.4 -138.55 Q-48.25 -136.75 -62.95 -139.5 -94.5 -145.45 -114.75 -170.7 -110.45 -161.25 -104.1 -153.1 -90.35 -135.55 -69.3 -128.45 -47.85 -121.15 -33.4 -138.55 M47.25 25.0 Q54.65 30.6 59.5 38.3 62.55 43.1 63.95 48.7 66.55 58.9 65.05 69.4 63.75 78.6 60.7 87.35 L57.65 94.65 55.2 99.4 Q50.5 107.8 45.45 115.85 31.25 138.6 24.6 164.6 23.35 169.5 23.2 174.55 21.65 219.35 17.5 263.95 L0.5 262.0 Q-16.5 215.0 -40.85 171.25 L-42.25 181.6 Q-46.7 217.9 -37.65 253.3 L-60.95 252.75 -63.4 247.45 Q-71.95 229.2 -75.85 209.55 -79.75 189.8 -78.55 169.75 -77.4 150.15 -76.75 130.5 L-75.85 97.15 -75.1 62.75 Q-74.8 48.35 -67.35 36.05 -64.85 32.0 -61.45 29.0 -51.15 19.9 -37.05 22.45 -16.85 27.3 4.1 27.95 25.9 28.8 47.25 25.0 M149.95 -60.3 Q152.5 -67.85 146.85 -71.9 145.95 -72.5 144.8 -72.2 134.95 -71.2 128.35 -63.45 121.7 -55.7 125.75 -46.35 127.2 -43.0 130.7 -44.0 139.65 -46.2 145.55 -53.5 148.2 -56.8 149.95 -60.3 M-123.05 -185.95 Q-122.05 -174.85 -111.35 -172.75 -107.25 -172.05 -106.2 -176.05 -103.2 -187.25 -113.1 -192.95 L-115.95 -194.35 Q-122.05 -193.85 -122.9 -187.75 L-123.05 -185.95 M-257.05 -297.1 Q-276.2 -286.0 -278.4 -264.4 -279.1 -257.4 -277.6 -250.4 -262.5 -263.4 -251.55 -279.9 -245.3 -287.1 -250.9 -293.8 -253.3 -296.6 -257.05 -297.1 M-152.05 7.5 Q-164.35 40.0 -162.0 74.65 -160.95 90.55 -157.8 106.15 -154.1 124.5 -155.15 143.1 -155.75 153.35 -159.15 163.05 -164.0 177.0 -156.9 189.45 -155.95 191.15 -153.85 191.25 L-151.5 190.9 Q-139.8 175.65 -136.8 156.65 -133.8 137.45 -136.55 118.3 -141.8 81.55 -144.5 44.6 -145.95 24.3 -147.7 4.6 L-150.9 6.95 -152.05 7.5 M-193.3 235.3 Q-196.75 231.05 -202.35 230.55 L-207.5 230.35 -211.75 238.35 Q-213.75 250.2 -203.55 257.25 -199.5 260.0 -195.55 257.0 -189.9 252.85 -189.8 245.4 -189.75 239.7 -193.3 235.3 M90.6 141.6 Q93.45 133.15 85.65 128.7 L84.55 128.15 82.3 128.5 Q63.0 175.4 75.25 224.55 75.9 227.05 77.9 228.55 L80.05 230.1 80.9 235.1 82.6 236.25 85.1 235.95 85.95 234.55 Q85.7 220.4 88.2 206.25 89.85 197.15 89.9 187.8 89.95 166.25 90.3 144.7 90.3 143.15 90.6 141.6 M-31.95 122.0 Q-37.1 146.25 -28.9 170.0 L-23.55 185.7 Q-17.65 203.35 -7.6 219.1 -5.65 222.15 -2.35 223.55 L1.1 224.75 3.35 223.35 Q6.3 201.85 -1.45 181.55 -4.6 173.25 -9.25 166.0 -22.4 145.45 -30.55 122.55 L-31.95 122.0" fill="#e9e700" fill-rule="evenodd" stroke="none"/>
    <path d="M-86.9 -74.6 Q-88.3 -73.85 -88.9 -72.3 -91.95 -64.65 -84.8 -58.65 L-84.8 -58.6 Q-100.6 -65.4 -115.55 -73.9 -125.5 -79.55 -134.65 -86.4 -140.65 -90.95 -146.15 -96.35 -155.0 -105.1 -162.9 -114.7 -209.8 -171.65 -235.35 -241.2 -233.85 -241.75 -232.45 -242.45 -218.4 -248.7 -205.6 -257.4 L-189.0 -259.85 Q-193.8 -258.4 -198.35 -256.1 -219.85 -245.35 -216.85 -221.2 -216.05 -215.0 -212.95 -209.4 -205.7 -196.3 -197.8 -183.7 -186.95 -166.3 -175.95 -149.25 -165.25 -132.55 -151.45 -118.35 -136.45 -102.85 -117.95 -91.75 -102.8 -82.6 -86.9 -74.6 M250.3 -206.7 L237.3 -186.85 Q226.1 -169.45 213.9 -152.75 202.15 -136.6 188.45 -122.1 173.45 -106.25 156.8 -92.35 141.0 -79.1 124.35 -66.65 109.0 -55.2 92.25 -46.2 73.75 -36.15 53.8 -30.2 33.7 -24.35 13.1 -21.35 0.35 -19.65 -12.5 -20.85 -16.9 -29.35 -8.0 -32.75 L-6.75 -33.2 Q3.2 -32.8 13.05 -33.6 35.1 -35.5 55.45 -43.7 75.6 -51.95 94.85 -62.3 L121.55 -76.6 Q135.65 -84.1 147.95 -94.25 163.0 -106.75 176.15 -121.35 189.2 -135.9 201.4 -151.3 214.8 -168.3 227.15 -186.1 239.3 -203.6 249.2 -222.5 L250.3 -206.7 M-249.15 -220.15 L-266.85 -203.65 Q-267.85 -202.75 -269.0 -203.15 L-268.75 -213.7 -244.0 -236.25 -249.15 -220.15" fill="#ffffae" fill-rule="evenodd" stroke="none"/>
    <path d="M78.7 -263.25 Q82.55 -260.9 86.0 -257.7 102.7 -242.05 100.65 -219.05 98.7 -197.4 84.55 -180.85 70.0 -163.75 47.75 -160.75 37.3 -179.4 41.05 -200.6 44.4 -219.65 52.75 -237.35 57.25 -247.0 64.8 -254.65 70.7 -260.65 78.7 -263.25 M-2.65 -185.15 L-5.5 -182.8 Q-15.05 -175.0 -26.45 -170.45 -41.25 -165.35 -52.65 -175.2 -56.85 -178.8 -58.7 -184.2 -65.6 -204.35 -60.95 -225.15 -56.1 -246.95 -39.6 -261.75 L-31.55 -268.35 -28.6 -267.1 Q-12.6 -260.05 -3.05 -245.85 L-2.65 -185.15 M-31.95 -225.0 Q-35.3 -225.95 -38.05 -224.05 -43.15 -220.55 -46.05 -215.05 -51.8 -204.0 -42.85 -195.9 -39.85 -193.1 -36.15 -191.4 -27.25 -187.5 -21.35 -194.65 -18.65 -197.85 -17.0 -201.8 -15.65 -205.0 -16.2 -208.3 -18.35 -221.3 -31.95 -225.0" fill="#ebebeb" fill-rule="evenodd" stroke="none"/>
    <path d="M78.7 -263.25 Q70.7 -260.65 64.8 -254.65 57.25 -247.0 52.75 -237.35 44.4 -219.65 41.05 -200.6 37.3 -179.4 47.75 -160.75 38.2 -159.55 28.95 -161.4 7.55 -165.5 -2.65 -185.15 L-3.05 -245.85 -1.95 -244.2 Q0.6 -247.7 3.45 -250.7 18.2 -266.2 39.45 -269.5 60.0 -272.55 78.7 -263.25 M-26.45 -170.45 Q-44.65 -163.15 -64.05 -165.5 -74.15 -166.35 -82.45 -171.75 -100.55 -183.55 -105.4 -205.25 -110.2 -226.7 -100.15 -246.25 -91.65 -262.9 -74.2 -268.8 -52.75 -276.0 -31.55 -268.35 L-39.6 -261.75 Q-56.1 -246.95 -60.95 -225.15 -65.6 -204.35 -58.7 -184.2 -56.85 -178.8 -52.65 -175.2 -41.25 -165.35 -26.45 -170.45 M-41.1 -217.35 L-36.0 -219.1 Q-29.7 -217.4 -32.9 -211.6 -35.05 -207.6 -38.95 -206.2 -43.15 -210.0 -41.5 -216.4 L-41.1 -217.35 M35.15 -209.15 Q29.75 -218.4 19.7 -219.95 17.6 -220.15 15.85 -219.0 13.8 -217.7 12.2 -215.7 L14.3 -216.8 Q21.7 -217.95 20.65 -210.6 20.05 -206.45 15.85 -205.8 8.8 -205.15 10.1 -212.4 4.65 -205.15 8.05 -197.75 8.55 -196.65 9.65 -195.95 20.35 -188.95 30.1 -195.7 31.95 -196.9 32.85 -198.9 35.0 -203.8 35.15 -209.15" fill="#ffffff" fill-rule="evenodd" stroke="none"/>
    <path d="M2.8 -160.5 Q10.6 -153.5 4.2 -144.5 L-1.15 -144.5 -3.85 -146.8 Q-12.5 -155.15 -5.05 -164.95 L-3.65 -164.5 Q-0.05 -163.1 2.8 -160.5 M149.95 -60.3 Q148.2 -56.8 145.55 -53.5 139.65 -46.2 130.7 -44.0 127.2 -43.0 125.75 -46.35 121.7 -55.7 128.35 -63.45 134.95 -71.2 144.8 -72.2 145.95 -72.5 146.85 -71.9 152.5 -67.85 149.95 -60.3 M-257.05 -297.1 Q-253.3 -296.6 -250.9 -293.8 -245.3 -287.1 -251.55 -279.9 -262.5 -263.4 -277.6 -250.4 -279.1 -257.4 -278.4 -264.4 -276.2 -286.0 -257.05 -297.1 M-123.05 -185.95 L-122.9 -187.75 Q-122.05 -193.85 -115.95 -194.35 L-113.1 -192.95 Q-103.2 -187.25 -106.2 -176.05 -107.25 -172.05 -111.35 -172.75 -122.05 -174.85 -123.05 -185.95 M-31.95 122.0 L-30.55 122.55 Q-22.4 145.45 -9.25 166.0 -4.6 173.25 -1.45 181.55 6.3 201.85 3.35 223.35 L1.1 224.75 -2.35 223.55 Q-5.65 222.15 -7.6 219.1 -17.65 203.35 -23.55 185.7 L-28.9 170.0 Q-37.1 146.25 -31.95 122.0 M90.6 141.6 Q90.3 143.15 90.3 144.7 89.95 166.25 89.9 187.8 89.85 197.15 88.2 206.25 85.7 220.4 85.95 234.55 L85.1 235.95 82.6 236.25 80.9 235.1 80.05 230.1 77.9 228.55 Q75.9 227.05 75.25 224.55 63.0 175.4 82.3 128.5 L84.55 128.15 85.65 128.7 Q93.45 133.15 90.6 141.6 M-193.3 235.3 Q-189.75 239.7 -189.8 245.4 -189.9 252.85 -195.55 257.0 -199.5 260.0 -203.55 257.25 -213.75 250.2 -211.75 238.35 L-207.5 230.35 -202.35 230.55 Q-196.75 231.05 -193.3 235.3 M-152.05 7.5 L-150.9 6.95 -147.7 4.6 Q-145.95 24.3 -144.5 44.6 -141.8 81.55 -136.55 118.3 -133.8 137.45 -136.8 156.65 -139.8 175.65 -151.5 190.9 L-153.85 191.25 Q-155.95 191.15 -156.9 189.45 -164.0 177.0 -159.15 163.05 -155.75 153.35 -155.15 143.1 -154.1 124.5 -157.8 106.15 -160.95 90.55 -162.0 74.65 -164.35 40.0 -152.05 7.5" fill="#ffffdd" fill-rule="evenodd" stroke="none"/>
  </g>
</svg>
