<?xml version="1.0" encoding="UTF-8" standalone="no"?>
<svg xmlns:xlink="http://www.w3.org/1999/xlink" height="623.15px" width="529.05px" xmlns="http://www.w3.org/2000/svg">
  <g transform="matrix(1.0, 0.0, 0.0, 1.0, 264.5, 311.55)">
    <path d="M201.6 -227.75 Q211.75 -213.3 214.95 -195.9 L218.9 -175.5 Q220.95 -164.05 225.15 -153.15 232.95 -132.9 241.15 -112.75 249.3 -92.65 257.85 -72.7 266.35 -52.8 264.05 -31.35 261.45 -7.6 238.75 1.65 219.1 9.55 202.95 23.35 188.8 35.3 189.0 53.95 189.2 75.85 189.75 97.75 190.35 119.75 194.9 141.25 199.05 160.95 204.0 180.5 208.75 199.35 212.8 218.15 217.35 239.35 218.65 260.65 220.1 283.6 200.15 294.85 181.1 305.55 159.5 302.05 139.9 298.9 119.9 299.15 98.7 299.45 78.0 304.25 61.65 308.2 44.65 307.75 L5.65 306.7 Q-13.85 306.15 -33.2 303.8 -54.45 301.45 -76.05 302.1 -96.1 302.7 -115.65 307.0 -135.8 311.5 -156.55 311.6 -178.1 311.7 -199.6 308.8 -223.2 305.7 -231.2 283.25 -237.85 264.75 -231.2 246.25 -223.85 225.9 -217.6 205.3 -211.8 186.15 -211.5 166.0 -211.25 150.4 -210.3 134.85 L-207.45 93.95 Q-206.0 75.4 -205.7 56.75 -205.3 33.85 -221.05 17.65 -235.8 2.45 -252.2 -11.55 -269.3 -26.2 -262.65 -47.0 -257.05 -64.45 -249.9 -81.2 -242.2 -99.25 -235.65 -117.6 -228.7 -136.95 -227.25 -157.25 -225.7 -178.7 -220.05 -199.35 -214.15 -220.75 -197.9 -235.9 -183.4 -249.35 -164.3 -255.05 -144.05 -261.25 -124.55 -269.05 -105.1 -277.0 -86.35 -286.6 -70.1 -294.8 -52.2 -298.05 L-20.5 -303.6 17.4 -310.35 Q39.25 -314.3 58.65 -305.2 78.15 -295.95 96.55 -284.8 111.8 -275.6 128.5 -270.0 148.75 -263.3 168.45 -254.8 188.9 -245.85 201.6 -227.75 M53.4 -294.2 L54.15 -294.75 Q74.4 -282.75 49.9 -271.0 29.05 -261.05 5.75 -260.5 -8.9 -259.5 -23.55 -259.75 -48.8 -259.1 -58.4 -280.0 L-58.75 -281.5 -54.4 -283.1 -50.4 -284.3 Q-55.6 -268.35 -32.35 -266.8 -10.65 -265.75 10.9 -267.85 32.3 -270.0 51.95 -278.75 L59.0 -282.0 Q58.05 -288.8 53.4 -294.2 M-12.0 -251.25 Q2.75 -247.25 8.0 -233.7 L8.8 -231.3 Q13.0 -244.0 24.6 -250.4 42.35 -260.4 61.2 -252.75 73.45 -247.8 83.25 -239.6 L83.6 -239.3 Q89.0 -234.75 93.65 -229.15 91.65 -248.9 83.85 -267.25 67.3 -306.05 26.05 -300.6 -21.55 -294.1 -68.95 -285.0 -84.25 -282.2 -98.25 -275.2 -114.75 -266.75 -132.2 -261.05 -169.6 -249.1 -196.0 -220.75 -212.05 -203.45 -214.0 -179.25 -218.45 -123.3 -241.75 -73.2 L-245.05 -66.3 -257.1 -44.0 Q-247.6 -32.9 -236.5 -23.6 -224.8 -13.85 -211.8 -6.2 -194.4 4.7 -189.35 24.7 L-188.75 27.35 Q-161.9 -51.8 -159.8 -136.6 -159.3 -155.65 -157.85 -174.95 L-156.9 -179.45 -157.8 -169.4 -158.1 -162.35 Q-158.85 -137.55 -154.75 -101.95 -149.1 -53.05 -163.85 -2.5 -178.65 48.0 -191.2 87.5 L-191.5 87.85 -210.35 200.95 Q-211.25 205.75 -212.3 208.75 -214.6 215.6 -217.85 224.2 -229.55 248.0 -225.95 274.0 -224.95 281.2 -217.15 284.55 -212.2 286.75 -207.15 288.45 -182.3 297.0 -155.7 294.65 -128.65 291.85 -101.95 286.65 -73.05 281.05 -44.35 287.35 -1.0 296.9 42.7 301.5 60.45 303.4 76.05 294.1 94.9 282.75 117.0 282.4 147.55 281.9 178.0 281.75 206.3 281.6 208.15 254.35 209.35 236.8 204.05 219.85 196.8 196.8 194.3 173.25 188.95 154.4 184.85 134.5 183.75 129.2 181.9 124.0 160.9 64.7 167.35 1.55 171.2 -35.9 167.9 -73.4 164.05 -117.15 164.9 -160.9 L164.9 -161.1 Q165.0 -165.8 165.35 -170.5 L168.75 -142.5 169.65 -134.8 Q173.65 -102.5 178.6 -70.7 184.75 -30.85 183.3 9.3 L186.5 6.15 Q197.6 -4.55 211.95 -10.1 216.25 -10.65 220.45 -12.05 227.65 -14.45 231.65 -20.7 241.75 -36.75 238.55 -56.45 232.45 -94.25 220.3 -130.75 214.15 -149.35 212.2 -168.8 209.55 -194.8 198.15 -217.95 187.5 -239.55 164.65 -246.7 122.8 -259.8 84.75 -281.7 97.4 -264.7 100.3 -243.8 102.3 -229.65 94.7 -219.55 L91.8 -223.6 Q81.2 -238.15 65.95 -247.45 L63.85 -248.4 65.8 -247.15 Q69.15 -244.7 72.3 -241.75 89.0 -225.95 90.25 -203.25 91.45 -181.85 81.45 -163.45 70.05 -142.5 46.2 -142.1 33.9 -142.55 24.0 -149.9 10.55 -159.8 7.15 -176.15 0.9 -154.25 -18.35 -142.1 -34.1 -132.05 -52.4 -137.0 -62.0 -139.45 -68.7 -146.7 -74.35 -152.75 -75.7 -160.95 L-76.5 -165.75 Q-72.9 -155.8 -63.4 -148.0 -50.0 -137.0 -32.8 -140.3 -16.45 -143.35 -5.15 -157.85 6.45 -172.85 4.6 -191.55 -5.05 -180.55 -18.7 -175.1 L-26.05 -172.6 -28.65 -172.0 Q-49.6 -167.05 -67.75 -178.05 -74.0 -181.8 -78.0 -188.0 -79.0 -182.25 -78.75 -176.95 -84.35 -202.6 -94.45 -227.0 -104.35 -250.9 -91.1 -272.65 -92.8 -266.7 -93.3 -260.75 -95.1 -239.05 -84.85 -219.6 L-81.5 -212.9 Q-76.7 -226.75 -65.85 -236.6 -46.65 -254.15 -20.65 -252.85 -16.15 -252.5 -12.0 -251.25 M85.0 204.95 L84.95 204.95 Q80.05 210.75 74.15 215.5 69.0 219.65 63.05 222.95 49.25 230.65 33.9 234.65 15.6 239.3 -3.3 239.8 -55.15 241.2 -92.4 207.45 -67.3 212.9 -41.4 213.6 -6.35 214.6 28.45 209.7 37.6 208.2 46.15 204.85 57.5 200.45 65.1 191.05 89.15 161.5 88.85 122.0 86.4 99.95 88.65 78.0 90.0 64.75 94.55 52.25 103.6 27.4 117.15 4.9 L117.35 4.5 117.35 18.0 112.35 76.0 104.95 157.05 Q102.95 178.85 90.9 197.0 88.15 201.2 85.0 204.95 M11.5 -130.2 L5.7 -126.9 Q-17.05 -114.7 -42.55 -111.0 -65.1 -107.9 -79.7 -123.4 -67.35 -117.7 -52.55 -117.35 -40.8 -117.1 -26.6 -125.45 -23.0 -127.65 -19.2 -130.35 -2.45 -142.35 10.75 -138.65 L13.6 -137.65 Q27.75 -129.4 43.9 -129.2 58.75 -129.05 71.1 -134.95 L83.85 -143.25 Q73.75 -121.0 48.65 -119.6 28.45 -119.25 11.5 -130.2 M53.4 -244.75 Q30.55 -251.0 16.5 -233.7 8.65 -224.05 9.0 -211.4 L8.9 -213.2 Q7.55 -228.95 -6.0 -237.45 -9.55 -239.7 -13.15 -241.25 -34.1 -249.3 -53.55 -237.7 -73.25 -225.9 -74.45 -203.75 -75.35 -187.15 -60.8 -178.6 -39.9 -170.55 -18.9 -180.0 -4.2 -186.7 6.3 -196.95 17.6 -188.05 30.7 -184.3 L30.75 -184.3 30.9 -184.25 Q53.1 -177.3 73.05 -188.2 79.6 -191.85 84.65 -197.55 84.95 -220.3 68.65 -235.95 62.1 -242.25 53.4 -244.75 M40.05 -147.15 L40.1 -147.15 Q63.35 -144.05 77.55 -163.25 86.95 -175.9 85.35 -191.75 74.35 -182.0 59.95 -178.9 30.05 -173.4 7.4 -194.0 7.35 -166.55 30.0 -151.45 23.9 -158.45 28.95 -165.85 30.7 -168.35 33.05 -168.1 L33.3 -168.1 33.85 -168.0 Q50.5 -165.7 40.05 -147.2 L40.0 -147.15 40.05 -147.15 M77.8 -35.65 L92.55 -39.35 Q93.5 -56.0 78.3 -63.25 L74.1 -65.05 Q67.75 -66.9 60.4 -65.7 58.9 -51.9 61.75 -38.4 L64.25 -35.4 Q71.15 -34.8 77.8 -35.65 M57.4 -65.1 L52.5 -63.15 Q51.25 -60.0 50.95 -56.8 50.1 -47.55 51.55 -39.8 L55.95 -40.9 57.4 -65.1 M45.65 -71.4 Q66.7 -79.2 84.95 -67.75 103.95 -55.85 100.9 -32.55 98.2 -12.1 88.3 6.2 78.75 23.7 72.85 42.9 68.5 56.95 69.5 71.65 70.9 92.95 72.65 114.2 74.4 136.05 62.9 154.65 51.7 172.7 31.95 180.85 13.2 188.6 -6.65 192.4 -28.6 196.35 -49.7 189.05 -71.5 181.6 -81.2 160.65 -90.4 140.7 -88.05 118.75 -85.7 97.0 -75.65 77.5 -67.35 61.25 -59.6 44.8 -50.5 25.3 -39.2 7.1 -28.4 -10.2 -14.9 -25.5 -1.35 -40.75 14.35 -54.0 28.3 -65.75 45.65 -71.4 M82.95 -5.9 Q90.2 -17.3 92.05 -30.75 82.85 -26.25 75.2 -26.5 65.0 -26.85 57.55 -35.6 57.0 -36.25 56.7 -37.0 46.25 -32.8 35.55 -29.5 13.1 -22.55 -10.4 -19.4 -50.6 41.45 -74.6 110.4 -69.7 109.9 -65.65 112.35 -61.95 114.5 -60.55 118.55 L-57.95 119.8 Q-40.05 104.4 -18.1 101.05 L0.75 100.25 4.1 105.05 9.3 106.35 Q25.3 95.1 43.3 94.65 52.6 94.4 62.45 97.05 52.75 41.45 82.95 -5.9 M36.3 -35.75 L42.65 -35.9 47.4 -62.2 Q42.55 -61.1 37.7 -58.9 19.0 -51.0 4.35 -36.7 -0.6 -31.85 -5.05 -26.5 14.85 -34.5 36.3 -35.75 M-25.65 -149.4 Q-39.5 -158.1 -29.15 -170.5 L-27.6 -171.9 -18.7 -168.4 Q-11.45 -163.15 -15.5 -153.8 -19.05 -145.7 -25.65 -149.4 M-28.35 -166.75 Q-34.0 -158.4 -24.7 -161.0 -21.2 -162.0 -24.05 -165.05 -26.4 -167.55 -28.35 -166.75 M-24.85 187.45 Q-13.9 188.3 -3.75 184.8 L-8.5 148.1 -2.0 106.6 -20.35 108.1 Q-42.55 108.45 -53.85 127.95 -64.2 145.85 -65.8 166.75 -51.6 182.85 -30.4 186.75 L-24.85 187.45 M4.35 151.6 Q4.1 130.7 10.4 110.9 L4.7 109.65 Q-7.35 137.95 0.7 166.15 3.4 175.5 2.05 185.25 L12.4 182.75 Q4.55 168.2 4.35 151.6 M43.4 100.1 Q28.25 100.6 16.55 109.8 15.75 112.15 15.35 114.6 9.9 148.75 14.1 182.55 29.4 179.75 40.4 170.3 55.95 155.4 63.25 135.0 69.25 118.3 63.5 101.55 L43.4 100.1 M-66.0 118.35 L-67.05 117.65 Q-71.05 115.3 -75.65 115.85 -78.0 132.0 -74.35 147.85 L-66.0 118.35 M-59.5 122.8 Q-61.65 121.85 -62.95 125.25 -68.8 140.8 -72.35 157.1 L-67.6 163.8 -67.45 159.2 Q-66.25 140.35 -59.5 122.8 M74.1 249.95 L67.65 247.65 Q80.95 222.65 102.55 201.85 113.95 190.9 120.4 176.3 131.15 151.95 135.75 125.85 L139.35 106.45 139.65 115.65 Q140.05 136.65 138.2 157.65 136.65 175.2 129.55 191.2 122.8 206.45 112.0 219.3 96.05 238.4 74.1 249.95" fill="#000000" fill-rule="evenodd" stroke="none"/>
    <path d="M-23.55 -259.75 Q-8.9 -259.5 5.75 -260.5 29.05 -261.05 49.9 -271.0 74.4 -282.75 54.15 -294.75 L53.4 -294.2 Q34.3 -301.3 13.7 -293.25 -6.1 -285.55 -27.6 -285.9 -39.05 -286.05 -50.4 -284.3 L-54.4 -283.1 Q-74.6 -277.15 -58.65 -263.35 -55.15 -260.3 -50.15 -259.75 -76.0 -247.25 -84.85 -219.6 -95.1 -239.05 -93.3 -260.75 -92.8 -266.7 -91.1 -272.65 -104.35 -250.9 -94.45 -227.0 -84.35 -202.6 -78.75 -176.95 -77.55 -171.4 -76.5 -165.75 L-75.7 -160.95 Q-74.35 -152.75 -68.7 -146.7 -62.0 -139.45 -52.4 -137.0 -34.1 -132.05 -18.35 -142.1 0.9 -154.25 7.15 -176.15 10.55 -159.8 24.0 -149.9 33.9 -142.55 46.2 -142.1 57.05 -134.8 71.1 -134.95 58.75 -129.05 43.9 -129.2 27.75 -129.4 13.6 -137.65 14.1 -139.25 10.75 -138.65 7.4 -155.8 2.05 -150.35 -11.3 -136.85 -26.6 -125.45 -40.8 -117.1 -52.55 -117.35 -67.35 -117.7 -79.7 -123.4 -65.1 -107.9 -42.55 -111.0 -17.05 -114.7 5.7 -126.9 L11.5 -130.2 Q28.3 -117.1 46.65 -109.65 64.7 -102.3 81.35 -94.85 91.7 -90.2 96.75 -79.75 L98.55 -75.25 Q111.25 -58.5 116.95 -38.65 123.1 -17.15 117.2 4.5 L117.15 4.9 Q103.6 27.4 94.55 52.25 90.0 64.75 88.65 78.0 86.4 99.95 88.85 122.0 89.15 161.5 65.1 191.05 57.5 200.45 46.15 204.85 37.6 208.2 28.45 209.7 -6.35 214.6 -41.4 213.6 -67.3 212.9 -92.4 207.45 -55.15 241.2 -3.3 239.8 15.6 239.3 33.9 234.65 49.25 230.65 63.05 222.95 69.0 219.65 74.15 215.5 80.05 210.75 84.95 204.95 L85.0 204.95 Q102.4 191.15 110.15 170.5 117.45 151.1 119.3 130.5 121.0 112.05 121.65 93.4 122.3 74.75 124.85 56.15 127.8 34.9 132.7 13.9 137.55 -6.95 138.25 -28.4 138.95 -50.05 130.1 -69.85 126.5 -78.0 120.7 -85.3 L128.3 -82.6 Q131.0 -99.2 120.1 -112.25 110.75 -107.9 114.65 -95.45 100.0 -114.7 111.3 -134.65 113.95 -139.35 119.05 -141.5 135.45 -119.15 145.75 -93.0 152.9 -74.85 150.95 -55.25 147.05 -15.7 146.55 23.9 145.9 76.65 156.9 128.2 159.9 142.4 163.7 156.3 167.1 168.6 169.1 181.3 171.05 193.65 171.3 206.25 171.45 215.6 170.9 224.95 170.2 237.45 167.8 249.75 L166.55 255.95 Q105.9 248.9 45.45 263.5 32.4 266.75 18.8 266.4 -35.65 264.9 -89.85 257.8 -122.9 253.2 -156.15 253.95 -162.95 254.55 -169.8 255.8 -178.15 257.15 -186.05 259.9 -191.15 261.65 -195.65 264.75 -198.65 266.85 -200.9 269.8 -203.75 273.5 -205.3 278.2 -206.95 283.3 -207.15 288.45 -212.2 286.75 -217.15 284.55 -224.95 281.2 -225.95 274.0 -229.55 248.0 -217.85 224.2 -214.6 215.6 -212.3 208.75 -211.25 205.75 -210.35 200.95 L-191.5 87.85 -191.2 87.5 Q-178.65 48.0 -163.85 -2.5 -149.1 -53.05 -154.75 -101.95 -158.85 -137.55 -158.1 -162.35 L-157.8 -169.4 -156.9 -179.45 -157.85 -174.95 -159.7 -192.2 Q-176.7 -182.1 -181.6 -162.75 -190.85 -126.2 -190.15 -88.25 -190.05 -83.25 -190.75 -78.4 -192.6 -66.1 -198.25 -55.0 -210.05 -31.9 -211.8 -6.2 -224.8 -13.85 -236.5 -23.6 -247.6 -32.9 -257.1 -44.0 L-245.05 -66.3 Q-245.15 -64.7 -244.55 -63.2 L-245.1 -61.85 Q-249.25 -50.8 -242.35 -41.25 -240.95 -41.5 -239.95 -42.25 -223.45 -54.6 -231.9 -70.15 -232.25 -71.15 -232.9 -71.9 L-234.85 -74.75 -237.6 -74.2 -239.85 -74.5 Q-240.85 -74.05 -241.75 -73.2 -218.45 -123.3 -214.0 -179.25 -212.05 -203.45 -196.0 -220.75 -169.6 -249.1 -132.2 -261.05 -114.75 -266.75 -98.25 -275.2 -84.25 -282.2 -68.95 -285.0 -21.55 -294.1 26.05 -300.6 67.3 -306.05 83.85 -267.25 91.65 -248.9 93.65 -229.15 89.0 -234.75 83.6 -239.3 L83.25 -239.6 Q81.05 -263.2 55.75 -263.85 37.35 -264.35 24.6 -250.4 13.0 -244.0 8.8 -231.3 L8.0 -233.7 Q2.75 -247.25 -12.0 -251.25 -16.75 -257.9 -23.55 -259.75 M67.9 -282.1 Q63.4 -278.9 63.85 -273.5 L65.35 -272.0 Q75.85 -273.1 71.6 -282.5 L68.85 -282.75 67.9 -282.1 M211.95 -10.1 Q197.6 -4.55 186.5 6.15 L183.3 9.3 Q184.75 -30.85 178.6 -70.7 173.65 -102.5 169.65 -134.8 L168.75 -142.5 Q167.4 -161.95 178.1 -177.25 180.7 -173.8 182.5 -169.9 191.7 -150.3 193.75 -128.35 195.8 -106.85 200.8 -85.7 205.35 -66.55 214.35 -48.9 224.35 -29.35 211.95 -10.1 M53.4 -244.75 Q43.2 -227.3 46.0 -206.6 47.15 -198.05 49.3 -189.75 L30.9 -184.3 30.75 -184.3 30.7 -184.3 Q17.6 -188.05 6.3 -196.95 L8.9 -213.2 9.0 -211.4 Q8.65 -224.05 16.5 -233.7 30.55 -251.0 53.4 -244.75 M187.1 -87.5 L184.85 -85.5 Q186.6 -58.0 191.9 -30.8 193.15 -24.3 199.7 -27.0 202.65 -36.15 202.0 -45.8 200.55 -67.8 189.6 -87.25 L187.1 -87.5 M45.65 -71.4 Q28.3 -65.75 14.35 -54.0 -1.35 -40.75 -14.9 -25.5 -28.4 -10.2 -39.2 7.1 -50.5 25.3 -59.6 44.8 -67.35 61.25 -75.65 77.5 -85.7 97.0 -88.05 118.75 -90.4 140.7 -81.2 160.65 -71.5 181.6 -49.7 189.05 -28.6 196.35 -6.65 192.4 13.2 188.6 31.95 180.85 51.7 172.7 62.9 154.65 74.4 136.05 72.65 114.2 70.9 92.95 69.5 71.65 68.5 56.95 72.85 42.9 78.75 23.7 88.3 6.2 98.2 -12.1 100.9 -32.55 103.95 -55.85 84.95 -67.75 66.7 -79.2 45.65 -71.4 M-63.85 -192.65 L-61.4 -192.25 Q-52.4 -208.0 -56.15 -225.75 L-59.15 -226.0 Q-67.25 -219.15 -69.7 -208.75 -75.85 -198.25 -64.95 -193.05 L-63.85 -192.65 M-86.85 -276.0 Q-96.55 -263.85 -86.3 -250.65 L-84.6 -248.75 -81.1 -248.75 Q-75.0 -256.95 -78.1 -267.4 -79.45 -271.95 -82.6 -275.75 L-86.85 -276.0 M-60.8 -178.6 Q-75.35 -187.15 -74.45 -203.75 -73.25 -225.9 -53.55 -237.7 -34.1 -249.3 -13.15 -241.25 -26.95 -225.1 -28.25 -203.6 -28.8 -194.95 -26.85 -186.75 -33.0 -182.6 -39.95 -180.05 -50.15 -176.45 -60.8 -178.6 M29.3 -212.65 Q35.6 -226.6 23.4 -231.1 L22.1 -231.5 Q7.95 -211.15 23.0 -199.5 25.8 -197.3 27.5 -200.8 L28.75 -201.2 Q33.3 -206.85 29.3 -212.65 M-198.4 -205.75 Q-205.6 -195.45 -201.7 -183.7 L-201.6 -183.0 -199.6 -180.75 -196.1 -180.75 Q-178.3 -203.65 -173.35 -228.5 -188.05 -225.75 -195.1 -211.15 -197.6 -208.5 -198.4 -205.75 M-135.65 -122.9 L-137.7 -130.65 -138.85 -131.25 Q-149.4 -110.85 -146.05 -84.05 -144.1 -68.4 -145.45 -52.55 -147.15 -32.35 -152.75 -13.05 -158.25 5.9 -155.9 24.4 -155.25 29.8 -150.65 26.0 -138.85 16.2 -134.75 0.35 -129.25 -21.2 -128.05 -43.5 -127.05 -61.85 -128.75 -80.2 -130.7 -101.8 -135.65 -122.9 M-20.35 -105.2 Q-39.9 -98.6 -60.6 -98.55 -80.7 -98.5 -98.85 -107.25 -91.2 -46.25 -112.85 11.1 -120.4 31.05 -123.25 52.2 L-126.75 80.1 Q-97.0 46.75 -78.5 4.45 -70.15 -14.6 -56.6 -30.55 -39.3 -50.95 -19.75 -69.35 1.85 -89.05 -15.15 -104.3 -17.4 -106.3 -20.35 -105.2 M-115.45 142.1 L-114.9 146.25 Q-110.05 177.05 -84.45 194.05 -74.8 200.45 -68.1 193.2 -69.05 188.6 -72.7 185.75 -92.25 170.65 -97.75 146.65 -102.75 124.85 -96.0 103.2 -87.35 75.2 -75.35 48.15 -71.65 39.8 -67.6 31.6 -54.6 5.2 -38.4 -19.6 -22.4 -44.05 -3.15 -66.25 L-3.9 -67.0 Q-19.05 -57.8 -31.65 -44.75 -54.4 -21.25 -72.25 6.65 L-74.75 10.85 Q-82.7 24.7 -89.1 39.4 -100.85 66.55 -110.35 94.55 -117.6 115.85 -115.9 137.65 -116.1 140.0 -115.45 142.1 M-88.85 236.7 Q-106.85 232.5 -119.65 218.5 -132.6 204.35 -140.45 187.0 -148.3 169.6 -155.1 147.65 -168.9 160.0 -168.25 180.7 -167.65 200.6 -156.7 217.3 -145.9 233.75 -126.55 236.9 -107.5 240.0 -88.85 236.7 M-210.3 219.65 Q-216.8 233.2 -209.75 245.2 L-208.6 246.7 -208.35 248.2 -207.6 248.95 -206.35 248.95 -205.6 248.2 -205.35 246.7 Q-180.95 210.35 -179.4 165.0 -177.85 120.55 -171.85 77.95 L-175.6 80.95 Q-192.3 134.8 -198.7 190.75 -199.35 196.35 -201.9 201.55 -206.7 206.1 -209.7 212.7 -211.2 216.15 -210.3 219.65 M74.1 249.95 Q96.85 248.95 114.05 245.4 133.8 241.35 145.3 223.85 155.55 208.25 155.75 188.7 155.95 169.95 152.35 151.45 148.65 132.5 139.65 115.65 L139.35 106.45 135.75 125.85 Q131.15 151.95 120.4 176.3 113.95 190.9 102.55 201.85 80.95 222.65 67.65 247.65 L74.1 249.95" fill="#326cb1" fill-rule="evenodd" stroke="none"/>
    <path d="M-237.6 -74.2 L-234.85 -74.75 -232.9 -71.9 Q-234.4 -73.6 -237.6 -74.2 M-231.9 -70.15 Q-223.45 -54.6 -239.95 -42.25 -240.95 -41.5 -242.35 -41.25 -249.25 -50.8 -245.1 -61.85 L-244.55 -63.2 Q-243.7 -61.1 -241.35 -59.25 L-236.6 -59.25 Q-233.6 -60.6 -232.5 -63.65 -231.05 -67.65 -231.9 -70.15 M114.65 -95.45 Q110.75 -107.9 120.1 -112.25 131.0 -99.2 128.3 -82.6 L120.7 -85.3 Q117.0 -88.15 115.3 -93.25 L114.65 -95.45 M67.9 -282.1 L68.85 -282.75 71.6 -282.5 Q75.85 -273.1 65.35 -272.0 L63.85 -273.5 Q63.4 -278.9 67.9 -282.1 M187.1 -87.5 L189.6 -87.25 Q200.55 -67.8 202.0 -45.8 202.65 -36.15 199.7 -27.0 193.15 -24.3 191.9 -30.8 186.6 -58.0 184.85 -85.5 L187.1 -87.5 M120.1 -100.25 L120.1 -100.15 117.6 -99.75 Q115.1 -98.2 115.1 -95.25 115.1 -92.3 117.85 -91.45 120.0 -90.75 121.55 -91.9 128.65 -97.1 120.1 -100.25 M-83.85 -267.25 Q-89.05 -267.2 -89.6 -262.0 -90.65 -252.05 -80.9 -252.55 -79.85 -252.65 -79.4 -253.55 -74.3 -263.25 -83.85 -267.25 M-86.85 -276.0 L-82.6 -275.75 Q-79.45 -271.95 -78.1 -267.4 -75.0 -256.95 -81.1 -248.75 L-84.6 -248.75 -86.3 -250.65 Q-96.55 -263.85 -86.85 -276.0 M-69.7 -208.75 Q-67.25 -219.15 -59.15 -226.0 L-56.15 -225.75 Q-52.4 -208.0 -61.4 -192.25 L-63.85 -192.65 Q-52.75 -199.75 -64.8 -209.6 L-65.85 -210.25 -68.6 -209.75 -69.7 -208.75 M27.5 -200.8 Q25.8 -197.3 23.0 -199.5 7.95 -211.15 22.1 -231.5 L23.4 -231.1 Q35.6 -226.6 29.3 -212.65 14.45 -218.85 21.8 -203.15 23.35 -199.9 27.5 -200.8 M-198.4 -205.75 Q-199.6 -200.0 -195.6 -195.75 L-194.3 -195.85 Q-176.85 -202.55 -189.85 -214.25 L-195.1 -211.15 Q-188.05 -225.75 -173.35 -228.5 -178.3 -203.65 -196.1 -180.75 L-199.6 -180.75 -201.6 -183.0 -201.7 -183.7 Q-205.6 -195.45 -198.4 -205.75 M-135.65 -122.9 Q-130.7 -101.8 -128.75 -80.2 -127.05 -61.85 -128.05 -43.5 -129.25 -21.2 -134.75 0.35 -138.85 16.2 -150.65 26.0 -155.25 29.8 -155.9 24.4 -158.25 5.9 -152.75 -13.05 -147.15 -32.35 -145.45 -52.55 -144.1 -68.4 -146.05 -84.05 -149.4 -110.85 -138.85 -131.25 L-137.7 -130.65 -135.65 -122.9 M-141.55 -26.3 L-142.85 -26.5 Q-157.75 -10.2 -148.1 6.5 L-143.1 6.25 Q-134.0 -2.3 -133.35 -15.0 -132.45 -24.45 -141.55 -26.3 M-115.9 137.65 Q-117.6 115.85 -110.35 94.55 -100.85 66.55 -89.1 39.4 -82.7 24.7 -74.75 10.85 L-72.25 6.65 Q-54.4 -21.25 -31.65 -44.75 -19.05 -57.8 -3.9 -67.0 L-3.15 -66.25 Q-22.4 -44.05 -38.4 -19.6 -54.6 5.2 -67.6 31.6 -71.65 39.8 -75.35 48.15 -87.35 75.2 -96.0 103.2 -102.75 124.85 -97.75 146.65 -92.25 170.65 -72.7 185.75 -69.05 188.6 -68.1 193.2 -74.8 200.45 -84.45 194.05 -110.05 177.05 -114.9 146.25 L-115.45 142.1 -114.8 143.5 Q-111.65 149.7 -104.85 151.95 -102.45 150.55 -101.6 147.9 -96.35 131.6 -110.85 125.45 L-115.9 137.65 M-106.85 100.2 L-106.9 100.35 -109.6 100.7 Q-110.5 101.45 -111.0 102.4 -114.05 108.35 -108.6 112.7 L-105.35 112.7 -104.3 111.8 Q-97.8 103.75 -106.85 100.2 M-201.9 201.55 Q-199.35 196.35 -198.7 190.75 -192.3 134.8 -175.6 80.95 L-171.85 77.95 Q-177.85 120.55 -179.4 165.0 -180.95 210.35 -205.35 246.7 L-205.6 248.2 -206.35 248.95 -207.6 248.95 -208.35 248.2 -208.6 246.7 -209.75 245.2 Q-216.8 233.2 -210.3 219.65 -198.15 232.3 -192.55 210.25 -191.05 204.35 -195.6 199.95 L-200.1 199.95 -201.9 201.55" fill="#bbd1ec" fill-rule="evenodd" stroke="none"/>
    <path d="M53.4 -294.2 Q58.05 -288.8 59.0 -282.0 L51.95 -278.75 Q32.3 -270.0 10.9 -267.85 -10.65 -265.75 -32.35 -266.8 -55.6 -268.35 -50.4 -284.3 -39.05 -286.05 -27.6 -285.9 -6.1 -285.55 13.7 -293.25 34.3 -301.3 53.4 -294.2 M-54.4 -283.1 L-58.75 -281.5 -58.4 -280.0 Q-48.8 -259.1 -23.55 -259.75 -16.75 -257.9 -12.0 -251.25 -16.15 -252.5 -20.65 -252.85 -46.65 -254.15 -65.85 -236.6 -76.7 -226.75 -81.5 -212.9 L-84.85 -219.6 Q-76.0 -247.25 -50.15 -259.75 -55.15 -260.3 -58.65 -263.35 -74.6 -277.15 -54.4 -283.1 M24.6 -250.4 Q37.35 -264.35 55.75 -263.85 81.05 -263.2 83.25 -239.6 73.45 -247.8 61.2 -252.75 42.35 -260.4 24.6 -250.4 M-211.8 -6.2 Q-210.05 -31.9 -198.25 -55.0 -192.6 -66.1 -190.75 -78.4 -190.05 -83.25 -190.15 -88.25 -190.85 -126.2 -181.6 -162.75 -176.7 -182.1 -159.7 -192.2 L-157.85 -174.95 Q-159.3 -155.65 -159.8 -136.6 -161.9 -51.8 -188.75 27.35 L-189.35 24.7 Q-194.4 4.7 -211.8 -6.2 M-207.15 288.45 Q-206.95 283.3 -205.3 278.2 -203.75 273.5 -200.9 269.8 -198.65 266.85 -195.65 264.75 -191.15 261.65 -186.05 259.9 -178.15 257.15 -169.8 255.8 -162.95 254.55 -156.15 253.95 -122.9 253.2 -89.85 257.8 -35.65 264.9 18.8 266.4 32.4 266.75 45.45 263.5 105.9 248.9 166.55 255.95 L167.8 249.75 Q170.2 237.45 170.9 224.95 171.45 215.6 171.3 206.25 171.05 193.65 169.1 181.3 167.1 168.6 163.7 156.3 159.9 142.4 156.9 128.2 145.9 76.65 146.55 23.9 147.05 -15.7 150.95 -55.25 152.9 -74.85 145.75 -93.0 135.45 -119.15 119.05 -141.5 113.95 -139.35 111.3 -134.65 100.0 -114.7 114.65 -95.45 L115.3 -93.25 Q117.0 -88.15 120.7 -85.3 126.5 -78.0 130.1 -69.85 138.95 -50.05 138.25 -28.4 137.55 -6.95 132.7 13.9 127.8 34.9 124.85 56.15 122.3 74.75 121.65 93.4 121.0 112.05 119.3 130.5 117.45 151.1 110.15 170.5 102.4 191.15 85.0 204.95 88.15 201.2 90.9 197.0 102.95 178.85 104.95 157.05 L112.35 76.0 117.35 18.0 117.35 4.5 117.2 4.5 Q123.1 -17.15 116.95 -38.65 111.25 -58.5 98.55 -75.25 L96.75 -79.75 Q91.7 -90.2 81.35 -94.85 64.7 -102.3 46.65 -109.65 28.3 -117.1 11.5 -130.2 28.45 -119.25 48.65 -119.6 73.75 -121.0 83.85 -143.25 L71.1 -134.95 Q57.05 -134.8 46.2 -142.1 70.05 -142.5 81.45 -163.45 91.45 -181.85 90.25 -203.25 89.0 -225.95 72.3 -241.75 69.15 -244.7 65.8 -247.15 L65.95 -247.45 Q81.2 -238.15 91.8 -223.6 L94.7 -219.55 Q102.3 -229.65 100.3 -243.8 97.4 -264.7 84.75 -281.7 122.8 -259.8 164.65 -246.7 187.5 -239.55 198.15 -217.95 209.55 -194.8 212.2 -168.8 214.15 -149.35 220.3 -130.75 232.45 -94.25 238.55 -56.45 241.75 -36.75 231.65 -20.7 227.65 -14.45 220.45 -12.05 216.25 -10.65 211.95 -10.1 224.35 -29.35 214.35 -48.9 205.35 -66.55 200.8 -85.7 195.8 -106.85 193.75 -128.35 191.7 -150.3 182.5 -169.9 180.7 -173.8 178.1 -177.25 167.4 -161.95 168.75 -142.5 L165.35 -170.5 Q165.0 -165.8 164.9 -161.1 L164.9 -160.9 Q164.05 -117.15 167.9 -73.4 171.2 -35.9 167.35 1.55 160.9 64.7 181.9 124.0 183.75 129.2 184.85 134.5 188.95 154.4 194.3 173.25 196.8 196.8 204.05 219.85 209.35 236.8 208.15 254.35 206.3 281.6 178.0 281.75 147.55 281.9 117.0 282.4 94.9 282.75 76.05 294.1 60.45 303.4 42.7 301.5 -1.0 296.9 -44.35 287.35 -73.05 281.05 -101.95 286.65 -128.65 291.85 -155.7 294.65 -182.3 297.0 -207.15 288.45 M-26.6 -125.45 Q-11.3 -136.85 2.05 -150.35 7.4 -155.8 10.75 -138.65 -2.45 -142.35 -19.2 -130.35 -23.0 -127.65 -26.6 -125.45 M30.9 -184.3 L49.3 -189.75 Q47.15 -198.05 46.0 -206.6 43.2 -227.3 53.4 -244.75 62.1 -242.25 68.65 -235.95 84.95 -220.3 84.65 -197.55 79.6 -191.85 73.05 -188.2 53.1 -177.3 30.9 -184.25 L30.9 -184.3 M8.9 -213.2 L6.3 -196.95 Q-4.2 -186.7 -18.9 -180.0 -39.9 -170.55 -60.8 -178.6 -50.15 -176.45 -39.95 -180.05 -33.0 -182.6 -26.85 -186.75 -28.8 -194.95 -28.25 -203.6 -26.95 -225.1 -13.15 -241.25 -9.55 -239.7 -6.0 -237.45 7.55 -228.95 8.9 -213.2 M-20.35 -105.2 Q-17.4 -106.3 -15.15 -104.3 1.85 -89.05 -19.75 -69.35 -39.3 -50.95 -56.6 -30.55 -70.15 -14.6 -78.5 4.45 -97.0 46.75 -126.75 80.1 L-123.25 52.2 Q-120.4 31.05 -112.85 11.1 -91.2 -46.25 -98.85 -107.25 -80.7 -98.5 -60.6 -98.55 -39.9 -98.6 -20.35 -105.2 M-88.85 236.7 Q-107.5 240.0 -126.55 236.9 -145.9 233.75 -156.7 217.3 -167.65 200.6 -168.25 180.7 -168.9 160.0 -155.1 147.65 -148.3 169.6 -140.45 187.0 -132.6 204.35 -119.65 218.5 -106.85 232.5 -88.85 236.7 M139.65 115.65 Q148.65 132.5 152.35 151.45 155.95 169.95 155.75 188.7 155.55 208.25 145.3 223.85 133.8 241.35 114.05 245.4 96.85 248.95 74.1 249.95 96.05 238.4 112.0 219.3 122.8 206.45 129.55 191.2 136.65 175.2 138.2 157.65 140.05 136.65 139.65 115.65" fill="#092566" fill-rule="evenodd" stroke="none"/>
    <path d="M40.1 -147.15 Q57.65 -157.0 59.85 -177.4 L59.95 -178.9 Q74.35 -182.0 85.35 -191.75 86.95 -175.9 77.55 -163.25 63.35 -144.05 40.1 -147.15 M74.1 -65.05 L78.3 -63.25 Q93.5 -56.0 92.55 -39.35 L77.8 -35.65 Q79.0 -49.25 75.0 -62.25 L74.1 -65.05 M37.7 -58.9 Q42.55 -61.1 47.4 -62.2 L42.65 -35.9 36.3 -35.75 37.7 -58.9 M-18.7 -175.1 Q-5.05 -180.55 4.6 -191.55 6.45 -172.85 -5.15 -157.85 -16.45 -143.35 -32.8 -140.3 -28.1 -144.05 -25.65 -149.4 -19.05 -145.7 -15.5 -153.8 -11.45 -163.15 -18.7 -168.4 L-18.7 -175.1 M-20.35 108.1 L-2.0 106.6 -8.5 148.1 -3.75 184.8 Q-13.9 188.3 -24.85 187.45 -27.75 168.75 -27.45 149.8 -27.1 128.4 -20.35 108.1 M43.4 100.1 L63.5 101.55 Q69.25 118.3 63.25 135.0 55.95 155.4 40.4 170.3 46.15 150.25 46.25 129.25 46.3 114.4 43.4 100.1" fill="#ebebeb" fill-rule="evenodd" stroke="none"/>
    <path d="M-241.75 -73.2 Q-240.85 -74.05 -239.85 -74.5 L-237.6 -74.2 Q-234.4 -73.6 -232.9 -71.9 -232.25 -71.15 -231.9 -70.15 -231.05 -67.65 -232.5 -63.65 -233.6 -60.6 -236.6 -59.25 L-241.35 -59.25 Q-243.7 -61.1 -244.55 -63.2 -245.15 -64.7 -245.05 -66.3 L-241.75 -73.2 M-76.5 -165.75 Q-77.55 -171.4 -78.75 -176.95 -79.0 -182.25 -78.0 -188.0 -74.0 -181.8 -67.75 -178.05 -49.6 -167.05 -28.65 -172.0 L-27.6 -171.9 -29.15 -170.5 Q-39.5 -158.1 -25.65 -149.4 -28.1 -144.05 -32.8 -140.3 -50.0 -137.0 -63.4 -148.0 -72.9 -155.8 -76.5 -165.75 M40.05 -147.15 L40.05 -147.2 Q50.5 -165.7 33.85 -168.0 L33.3 -168.1 33.05 -168.1 Q30.7 -168.35 28.95 -165.85 23.9 -158.45 30.0 -151.45 7.35 -166.55 7.4 -194.0 30.05 -173.4 59.95 -178.9 L59.85 -177.4 Q57.65 -157.0 40.1 -147.15 L40.05 -147.15 M120.1 -100.25 Q128.65 -97.1 121.55 -91.9 120.0 -90.75 117.85 -91.45 115.1 -92.3 115.1 -95.25 115.1 -98.2 117.6 -99.75 L120.1 -100.15 120.1 -100.25 M77.8 -35.65 Q71.15 -34.8 64.25 -35.4 L61.75 -38.4 Q58.9 -51.9 60.4 -65.7 67.75 -66.9 74.1 -65.05 L75.0 -62.25 Q79.0 -49.25 77.8 -35.65 M36.3 -35.75 Q14.85 -34.5 -5.05 -26.5 -0.6 -31.85 4.35 -36.7 19.0 -51.0 37.7 -58.9 L36.3 -35.75 M-83.85 -267.25 Q-74.3 -263.25 -79.4 -253.55 -79.85 -252.65 -80.9 -252.55 -90.65 -252.05 -89.6 -262.0 -89.05 -267.2 -83.85 -267.25 M-63.85 -192.65 L-64.95 -193.05 Q-75.85 -198.25 -69.7 -208.75 L-68.6 -209.75 -65.85 -210.25 -64.8 -209.6 Q-52.75 -199.75 -63.85 -192.65 M-26.05 -172.6 L-18.7 -175.1 -18.7 -168.4 -27.6 -171.9 -26.05 -172.6 M29.3 -212.65 Q33.3 -206.85 28.75 -201.2 L27.5 -200.8 Q23.35 -199.9 21.8 -203.15 14.45 -218.85 29.3 -212.65 M-28.35 -166.75 Q-26.4 -167.55 -24.05 -165.05 -21.2 -162.0 -24.7 -161.0 -34.0 -158.4 -28.35 -166.75 M-195.1 -211.15 L-189.85 -214.25 Q-176.85 -202.55 -194.3 -195.85 L-195.6 -195.75 Q-199.6 -200.0 -198.4 -205.75 -197.6 -208.5 -195.1 -211.15 M-141.55 -26.3 Q-132.45 -24.45 -133.35 -15.0 -134.0 -2.3 -143.1 6.25 L-148.1 6.5 Q-157.75 -10.2 -142.85 -26.5 L-141.55 -26.3 M-115.45 142.1 Q-116.1 140.0 -115.9 137.65 L-110.85 125.45 Q-96.35 131.6 -101.6 147.9 -102.45 150.55 -104.85 151.95 -111.65 149.7 -114.8 143.5 L-115.45 142.1 M-24.85 187.45 L-30.4 186.75 Q-51.6 182.85 -65.8 166.75 -64.2 145.85 -53.85 127.95 -42.55 108.45 -20.35 108.1 -27.1 128.4 -27.45 149.8 -27.75 168.75 -24.85 187.45 M40.4 170.3 Q29.4 179.75 14.1 182.55 9.9 148.75 15.35 114.6 15.75 112.15 16.55 109.8 28.25 100.6 43.4 100.1 46.3 114.4 46.25 129.25 46.15 150.25 40.4 170.3 M-106.85 100.2 Q-97.8 103.75 -104.3 111.8 L-105.35 112.7 -108.6 112.7 Q-114.05 108.35 -111.0 102.4 -110.5 101.45 -109.6 100.7 L-106.9 100.35 -106.85 100.2 M-66.0 118.35 L-74.35 147.85 Q-78.0 132.0 -75.65 115.85 -71.05 115.3 -67.05 117.65 L-66.0 118.35 M-210.3 219.65 Q-211.2 216.15 -209.7 212.7 -206.7 206.1 -201.9 201.55 L-200.1 199.95 -195.6 199.95 Q-191.05 204.35 -192.55 210.25 -198.15 232.3 -210.3 219.65" fill="#ffffff" fill-rule="evenodd" stroke="none"/>
    <path d="M57.4 -65.1 L55.95 -40.9 51.55 -39.8 Q50.1 -47.55 50.95 -56.8 51.25 -60.0 52.5 -63.15 L57.4 -65.1 M4.35 151.6 Q4.55 168.2 12.4 182.75 L2.05 185.25 Q3.4 175.5 0.7 166.15 -7.35 137.95 4.7 109.65 L10.4 110.9 Q4.1 130.7 4.35 151.6 M-59.5 122.8 Q-66.25 140.35 -67.45 159.2 L-67.6 163.8 -72.35 157.1 Q-68.8 140.8 -62.95 125.25 -61.65 121.85 -59.5 122.8" fill="#999999" fill-rule="evenodd" stroke="none"/>
    <path d="M82.95 -5.9 Q52.75 41.45 62.45 97.05 52.6 94.4 43.3 94.65 25.3 95.1 9.3 106.35 L4.1 105.05 0.75 100.25 -18.1 101.05 Q-40.05 104.4 -57.95 119.8 L-60.55 118.55 Q-61.95 114.5 -65.65 112.35 -69.7 109.9 -74.6 110.4 -50.6 41.45 -10.4 -19.4 13.1 -22.55 35.55 -29.5 46.25 -32.8 56.7 -37.0 57.0 -36.25 57.55 -35.6 65.0 -26.85 75.2 -26.5 82.85 -26.25 92.05 -30.75 90.2 -17.3 82.95 -5.9" fill="#151b27" fill-rule="evenodd" stroke="none"/>
  </g>
</svg>
