<?xml version="1.0" encoding="UTF-8" standalone="no"?>
<svg xmlns:xlink="http://www.w3.org/1999/xlink" height="654.2px" width="676.6px" xmlns="http://www.w3.org/2000/svg">
  <g transform="matrix(1.0, 0.0, 0.0, 1.0, 338.3, 327.1)">
    <path d="M-180.1 304.2 Q-144.15 306.35 -108.6 296.95 -80.65 289.45 -51.7 291.1 -13.45 291.8 24.75 295.3 L62.8 297.35 Q78.05 297.75 92.75 293.7 127.85 284.05 162.5 272.95 193.75 262.9 225.3 254.4 230.2 253.05 234.65 250.9 237.9 249.3 240.9 247.25 243.45 245.55 243.8 242.55 244.4 237.2 244.55 231.85 L244.5 224.4 Q242.9 179.55 232.2 135.8 225.15 107.05 223.95 77.65 L219.8 -28.35 Q219.45 -37.2 218.05 -46.1 213.6 -74.95 227.9 -100.6 234.75 -112.95 245.9 -121.65 261.95 -134.1 281.7 -139.55 296.9 -143.75 309.95 -151.45 314.15 -153.9 316.1 -158.4 317.95 -162.55 317.2 -166.95 313.8 -186.85 303.85 -204.65 L290.95 -227.75 Q273.65 -261.2 263.6 -297.3 236.2 -302.95 212.15 -289.15 180.45 -271.0 143.9 -269.55 145.7 -265.8 147.1 -261.7 154.9 -239.0 142.5 -218.25 L138.85 -218.5 Q129.95 -241.5 108.95 -254.35 95.35 -262.8 79.3 -264.0 102.45 -254.05 116.25 -233.35 132.0 -209.65 127.1 -181.75 125.1 -170.4 116.9 -162.3 105.8 -151.35 90.15 -149.0 52.1 -143.25 24.95 -170.35 17.15 -178.1 12.95 -188.3 0.4 -168.15 -21.8 -159.7 -41.75 -152.15 -62.45 -158.05 -78.4 -162.55 -89.15 -175.1 -100.25 -188.1 -99.7 -205.5 -98.5 -241.2 -66.45 -257.8 -59.8 -261.2 -52.55 -263.2 -85.95 -258.3 -107.65 -232.45 -113.1 -226.0 -117.2 -218.4 -128.9 -243.3 -120.3 -269.9 -117.75 -277.75 -113.4 -284.75 L-127.0 -276.65 Q-145.95 -268.6 -166.5 -270.6 -190.45 -273.25 -210.1 -287.4 -213.85 -289.5 -217.95 -291.1 -238.65 -299.5 -257.95 -290.2 -270.4 -284.25 -279.3 -273.45 -310.35 -235.45 -329.65 -191.0 -333.4 -182.45 -332.7 -173.5 -331.3 -164.1 -322.05 -159.15 -302.4 -148.5 -281.6 -139.75 -259.1 -130.45 -240.55 -114.55 -222.9 -99.35 -213.7 -78.0 -204.35 -56.15 -201.9 -32.4 L-201.9 -32.25 Q-200.9 -24.35 -200.8 -16.2 L-200.3 29.1 -199.95 74.35 Q-199.8 96.2 -203.9 117.9 -208.05 139.8 -215.95 160.85 -222.2 177.5 -228.0 194.4 L-231.9 205.85 Q-238.7 226.2 -239.7 247.7 -240.9 272.7 -223.0 289.45 -205.5 305.9 -180.1 304.2 M-160.95 -7.1 Q-163.85 -21.7 -156.8 -34.6 -153.5 -40.65 -147.35 -39.35 -133.7 -36.15 -120.85 -28.7 -100.4 -16.8 -81.35 -2.65 -63.6 10.7 -41.65 10.35 -17.8 10.0 1.7 -3.85 21.25 -17.8 37.25 -35.7 51.8 -52.05 68.75 -65.65 86.25 -79.55 106.0 -90.55 126.05 -101.65 148.6 -104.5 169.05 -104.8 176.1 -84.35 183.85 -61.9 173.8 -39.85 164.8 -20.1 161.0 1.15 156.75 24.7 158.6 48.9 L162.0 92.8 Q163.6 112.6 168.35 131.7 174.05 154.85 176.15 178.45 178.0 199.05 162.0 208.75 139.65 222.35 117.15 208.8 97.2 196.75 76.35 186.1 55.25 175.4 32.75 167.75 14.3 161.45 -4.95 157.55 -26.75 153.15 -49.2 151.4 -73.3 149.2 -97.2 152.7 -118.85 156.15 -140.8 156.35 -168.15 156.65 -171.1 129.3 -173.7 105.0 -162.8 83.4 -151.9 61.8 -151.7 37.55 -151.5 14.3 -160.9 -6.85 L-160.95 -7.1 M336.6 -178.25 Q343.25 -154.05 323.95 -141.05 304.1 -127.7 281.65 -119.5 258.7 -111.2 246.3 -90.2 234.15 -69.75 234.85 -46.05 235.55 -23.25 239.15 -0.75 242.45 19.85 244.55 40.75 L249.05 84.85 Q251.35 107.05 255.3 129.0 259.2 150.85 264.8 172.4 270.55 194.65 274.6 217.35 279.0 241.75 263.2 260.8 249.75 277.0 229.9 283.75 208.3 290.95 186.2 296.45 L140.85 307.7 Q119.5 313.1 98.15 317.85 79.7 322.05 60.65 322.3 38.0 322.65 15.5 319.7 L-23.45 315.35 Q-47.55 313.6 -71.65 315.4 -95.25 317.05 -118.9 320.0 L-164.2 326.25 Q-188.05 329.3 -210.8 321.6 -233.55 313.8 -244.0 291.9 -254.3 270.15 -249.5 246.35 -245.95 228.75 -240.6 211.65 L-227.65 170.05 Q-221.0 148.65 -217.7 126.35 -214.8 106.6 -215.0 86.55 -215.25 64.85 -214.95 43.15 -214.65 21.9 -213.95 0.65 -213.2 -21.9 -214.55 -44.65 -216.0 -68.85 -228.9 -89.2 -241.3 -108.8 -260.75 -121.6 -274.35 -130.55 -289.35 -137.05 -311.55 -146.65 -329.6 -161.7 -338.45 -169.0 -338.3 -180.9 -338.05 -202.0 -326.85 -220.15 -314.8 -239.6 -301.75 -258.25 -287.95 -277.95 -271.7 -295.1 -255.35 -312.3 -231.55 -312.35 -208.25 -312.4 -186.9 -302.15 -165.15 -291.7 -141.4 -291.05 -117.75 -289.55 -96.75 -300.35 -76.2 -311.0 -53.5 -316.15 -30.25 -321.7 -6.5 -324.2 L39.1 -327.05 Q60.9 -327.7 81.75 -322.05 104.25 -316.05 123.8 -303.4 144.25 -290.15 168.6 -288.25 193.25 -286.8 215.55 -297.2 238.1 -307.65 261.05 -300.4 262.95 -299.8 263.95 -297.95 275.55 -276.7 289.7 -257.25 L316.35 -220.2 Q330.4 -201.0 336.6 -178.25 M80.75 -305.0 L77.95 -305.7 Q51.3 -311.9 23.95 -311.45 -2.55 -311.05 -28.8 -308.2 L-80.5 -302.15 Q-98.3 -300.1 -107.4 -284.8 -121.5 -261.1 -117.0 -233.8 L-115.35 -224.9 -111.3 -231.85 Q-99.15 -251.95 -77.7 -262.0 -53.5 -273.35 -27.65 -267.45 -3.15 -261.85 10.95 -241.0 L18.7 -250.9 Q27.4 -259.75 39.35 -263.1 62.3 -269.3 86.3 -266.75 109.9 -264.2 128.7 -249.45 137.8 -242.1 142.05 -230.95 144.05 -258.6 124.75 -278.9 106.4 -298.15 80.75 -305.0 M-55.95 -290.55 Q-58.4 -295.35 -55.1 -300.05 L-54.65 -297.3 Q-51.65 -279.9 -34.6 -274.85 19.95 -258.9 61.15 -295.6 58.55 -301.6 51.25 -302.0 L51.2 -303.05 51.8 -303.2 Q69.45 -307.85 72.25 -298.8 42.2 -266.65 8.2 -264.1 -5.2 -263.0 -18.5 -265.7 -42.6 -270.55 -55.95 -290.55 M99.2 -241.8 L94.6 -245.85 Q75.25 -261.1 50.95 -257.1 26.6 -253.3 10.85 -234.05 L9.05 -236.75 Q0.4 -248.75 -12.85 -253.8 -36.55 -261.75 -59.55 -251.75 -81.5 -242.05 -89.35 -219.7 -97.65 -196.1 -79.25 -178.15 -61.0 -160.4 -35.25 -163.95 -27.45 -165.0 -20.35 -168.1 1.7 -177.7 14.5 -198.1 21.45 -181.85 34.15 -169.7 52.1 -152.45 77.25 -155.1 94.7 -156.85 108.65 -169.0 123.2 -181.7 120.15 -201.3 116.35 -225.8 99.2 -241.8 M26.5 -205.7 Q23.65 -199.25 29.8 -196.55 35.0 -194.25 39.15 -198.15 43.85 -202.55 40.95 -208.35 38.45 -213.3 34.05 -211.65 28.95 -211.2 26.5 -205.7 M37.65 -217.25 Q66.7 -205.6 43.55 -183.55 36.2 -176.5 29.05 -184.85 11.05 -205.65 37.65 -217.25 M-14.15 -201.9 Q-10.1 -206.65 -13.6 -211.7 -16.2 -215.45 -20.25 -214.85 L-21.75 -214.5 Q-25.9 -212.0 -25.55 -206.65 -25.2 -200.55 -19.6 -199.75 -16.35 -199.3 -14.15 -201.9 M-0.4 -211.8 Q11.05 -190.9 -10.5 -182.75 -25.9 -176.85 -28.15 -196.7 -31.2 -223.6 -6.0 -218.05 -2.5 -215.6 -0.4 -211.8 M132.05 -89.85 L122.15 -85.4 Q114.2 -64.35 110.25 -42.05 108.1 -29.8 109.8 -17.5 L117.45 -18.25 Q119.9 -44.8 126.5 -70.4 129.05 -80.2 132.05 -89.85 M95.25 -67.0 Q59.1 -39.1 27.95 -5.35 L38.85 -4.35 Q62.45 -2.85 85.65 -6.95 94.85 -7.8 102.4 -12.9 L103.45 -13.7 Q102.8 -50.55 118.9 -83.7 L95.25 -67.0 M150.1 -94.55 L135.1 -91.0 Q127.1 -69.2 124.45 -46.1 122.75 -31.35 122.35 -16.4 L142.7 -16.4 155.25 -16.4 Q158.85 -35.3 164.45 -54.05 171.05 -76.3 157.8 -95.45 L150.1 -94.55 M22.15 -0.6 Q4.9 16.0 -18.25 21.15 -41.3 26.4 -65.1 27.85 L-88.15 26.9 Q-94.05 26.15 -97.25 20.8 -114.15 27.75 -131.7 32.9 L-139.35 34.65 Q-137.2 49.8 -142.25 64.3 -143.95 69.3 -146.75 73.85 -127.15 73.5 -107.65 75.5 L-107.65 82.2 Q-79.3 73.7 -49.7 76.7 -36.8 78.3 -24.2 80.5 L-23.15 76.75 Q9.55 70.15 41.35 77.75 48.15 79.45 54.7 82.65 L54.7 87.25 59.85 87.25 66.15 81.6 Q112.4 77.05 155.25 92.85 152.1 41.55 154.5 -9.75 137.2 -7.85 121.05 -11.55 118.8 -11.9 117.2 -13.8 L109.9 -14.1 107.95 -7.25 Q65.45 1.45 22.2 -0.6 L23.6 -1.95 22.15 -0.6 M-121.65 -18.4 L-143.2 -33.85 Q-157.3 -1.5 -139.75 30.85 L-138.1 31.1 Q-126.2 32.4 -116.5 25.45 -101.5 14.25 -104.95 -4.25 L-105.45 -6.75 -121.65 -18.4 M-102.0 -4.3 Q-98.25 5.25 -99.45 15.6 L-99.5 17.5 -97.35 17.6 -97.8 -1.5 -102.0 -4.3 M-92.5 21.45 L-66.95 21.45 -71.45 19.15 Q-84.25 12.1 -93.85 1.2 L-92.5 21.45 M-25.05 86.55 L-35.6 86.15 Q-29.4 109.35 -34.2 132.9 L-34.75 135.55 -20.65 137.6 Q-25.75 112.35 -25.05 86.55 M-48.85 134.25 L-40.0 134.45 Q-37.8 108.15 -45.65 83.05 L-51.55 81.55 -57.9 80.2 Q-76.95 76.85 -95.2 83.0 L-96.0 83.65 Q-97.25 112.7 -88.45 136.2 -68.7 134.0 -48.85 134.25 M-100.75 138.2 L-92.75 136.8 -101.35 88.05 -106.65 86.2 Q-101.75 105.45 -101.1 125.2 L-100.75 138.2 M-117.25 142.3 Q-110.7 140.3 -103.9 138.85 L-113.8 79.0 -125.9 77.8 -150.75 80.1 Q-155.8 92.15 -161.5 103.9 -173.7 129.15 -151.85 142.5 -134.85 152.85 -117.25 142.3 M114.75 189.9 Q133.9 208.65 156.95 203.35 167.5 200.9 167.8 189.55 168.35 169.5 164.3 149.6 159.7 126.75 156.8 103.5 L124.9 91.3 Q102.15 84.0 78.5 85.2 L69.65 86.2 Q62.55 104.05 64.55 123.05 66.7 143.8 58.15 162.8 88.65 171.5 114.75 189.9 M60.25 138.4 Q61.85 114.7 58.75 91.2 L53.75 90.05 Q55.5 111.2 53.1 132.05 51.55 145.55 47.45 158.6 L55.8 161.85 Q59.45 150.4 60.25 138.4 M29.5 151.9 L42.85 156.85 Q46.3 145.95 48.35 134.65 53.25 107.3 42.95 82.4 L27.9 79.4 Q8.15 76.65 -11.8 79.95 L-17.5 80.95 -17.95 138.1 Q6.15 143.7 29.5 151.9" fill="#000000" fill-rule="evenodd" stroke="none"/>
    <path d="M303.85 -204.65 Q313.8 -186.85 317.2 -166.95 317.95 -162.55 316.1 -158.4 314.15 -153.9 309.95 -151.45 296.9 -143.75 281.7 -139.55 261.95 -134.1 245.9 -121.65 234.75 -112.95 227.9 -100.6 213.6 -74.95 218.05 -46.1 219.45 -37.2 219.8 -28.35 L223.95 77.65 Q225.15 107.05 232.2 135.8 242.9 179.55 244.5 224.4 L244.55 231.85 Q244.4 237.2 243.8 242.55 243.45 245.55 240.9 247.25 237.9 249.3 234.65 250.9 230.2 253.05 225.3 254.4 193.75 262.9 162.5 272.95 127.85 284.05 92.75 293.7 78.05 297.75 62.8 297.35 L24.75 295.3 Q-13.45 291.8 -51.7 291.1 -80.65 289.45 -108.6 296.95 -144.15 306.35 -180.1 304.2 -184.35 303.85 -188.35 302.4 -207.0 295.75 -208.05 276.25 -208.95 259.8 -194.45 254.65 -179.35 249.35 -164.05 257.05 -151.2 263.6 -137.2 263.65 -119.5 262.3 -102.3 257.45 -81.15 251.4 -59.2 251.7 -39.75 251.95 -20.35 254.25 5.85 257.45 31.25 264.9 65.65 274.9 101.15 274.5 154.5 273.95 198.35 244.75 177.25 253.0 154.6 252.6 131.3 252.15 109.1 245.35 89.15 239.25 69.4 231.95 49.65 224.6 29.65 218.4 6.65 211.1 -17.3 207.4 -41.0 203.5 -65.2 202.3 -86.6 200.65 -107.8 202.9 -128.95 205.1 -150.1 208.45 -172.0 211.75 -180.45 192.75 -186.85 178.3 -171.15 172.0 -149.05 163.1 -124.45 166.0 -102.05 168.9 -79.55 167.25 -55.8 165.25 -32.4 170.2 -9.0 175.05 13.15 183.95 L52.95 199.9 Q72.55 207.6 91.65 216.2 108.5 223.8 125.85 230.1 149.25 238.65 171.6 229.7 195.75 220.15 196.5 193.9 197.15 170.8 189.8 148.7 182.65 127.2 176.1 105.6 169.6 84.0 167.4 61.3 165.1 37.95 167.95 14.55 170.7 -8.35 179.85 -29.75 188.2 -49.25 192.1 -70.35 195.1 -86.75 186.1 -100.05 168.8 -125.8 148.6 -104.5 126.05 -101.65 106.0 -90.55 86.25 -79.55 68.75 -65.65 51.8 -52.05 37.25 -35.7 21.25 -17.8 1.7 -3.85 -17.8 10.0 -41.65 10.35 -63.6 10.7 -81.35 -2.65 -100.4 -16.8 -120.85 -28.7 -133.7 -36.15 -147.35 -39.35 -153.5 -40.65 -156.8 -34.6 -163.85 -21.7 -160.95 -7.1 L-161.05 -7.1 Q-175.9 -27.25 -173.95 -52.05 -171.8 -79.3 -142.75 -73.7 -122.45 -69.65 -109.0 -53.2 -93.95 -34.8 -76.45 -19.3 -58.45 -3.3 -34.5 -6.5 -11.25 -9.4 7.35 -23.6 26.05 -37.85 43.85 -53.3 61.6 -68.8 78.45 -85.3 95.45 -102.05 116.75 -113.0 137.9 -123.9 161.4 -128.25 186.1 -133.0 193.95 -157.25 198.4 -170.85 193.15 -184.15 198.55 -173.3 210.0 -169.5 228.95 -163.3 246.4 -178.35 271.45 -199.9 303.85 -204.65 M-201.9 -32.4 Q-204.35 -56.15 -213.7 -78.0 -222.9 -99.35 -240.55 -114.55 -259.1 -130.45 -281.6 -139.75 -302.4 -148.5 -322.05 -159.15 -331.3 -164.1 -332.7 -173.5 -316.95 -193.8 -291.65 -193.25 -288.25 -193.15 -285.0 -192.2 L-274.25 -179.7 Q-262.5 -198.85 -245.05 -187.95 -239.95 -184.65 -238.1 -178.3 -229.65 -149.85 -205.65 -131.15 -199.95 -126.8 -198.1 -119.6 -186.65 -75.55 -201.85 -32.4 L-201.9 -32.4 M-210.1 -287.4 Q-190.45 -273.25 -166.5 -270.6 -145.95 -268.6 -127.0 -276.65 -139.9 -256.5 -143.35 -232.75 -146.55 -210.95 -161.85 -206.55 -163.5 -206.0 -165.05 -208.5 -177.25 -227.95 -176.25 -251.4 -190.85 -241.8 -197.9 -226.2 -201.75 -217.7 -209.35 -214.5 -214.85 -218.15 -216.2 -225.45 -221.95 -257.25 -210.1 -287.4 M138.85 -218.5 L142.5 -218.25 Q154.9 -239.0 147.1 -261.7 145.7 -265.8 143.9 -269.55 180.45 -271.0 212.15 -289.15 236.2 -302.95 263.6 -297.3 273.65 -261.2 290.95 -227.75 258.05 -223.55 233.15 -200.8 229.0 -197.0 225.7 -201.1 211.65 -218.55 217.7 -242.0 219.15 -247.6 215.9 -252.15 204.9 -267.8 184.4 -259.2 161.1 -249.45 159.9 -223.65 158.95 -202.85 142.35 -190.9 L138.85 -218.5 M80.75 -305.0 Q106.4 -298.15 124.75 -278.9 144.05 -258.6 142.05 -230.95 137.8 -242.1 128.7 -249.45 128.55 -254.15 125.15 -257.35 102.2 -279.25 67.3 -272.65 68.2 -273.0 69.0 -273.45 89.85 -284.25 80.75 -305.0 M18.7 -250.9 L10.95 -241.0 Q-3.15 -261.85 -27.65 -267.45 -53.5 -273.35 -77.7 -262.0 -99.15 -251.95 -111.3 -231.85 L-115.35 -224.9 -117.0 -233.8 Q-100.15 -272.05 -56.45 -276.0 L-57.7 -277.1 Q-66.05 -285.15 -55.95 -290.55 -42.6 -270.55 -18.5 -265.7 -5.2 -263.0 8.2 -264.1 8.0 -258.95 13.65 -253.95 15.85 -252.05 18.7 -250.9 M-55.1 -300.05 Q-48.9 -301.9 -42.45 -300.8 -19.05 -296.4 4.45 -300.05 27.8 -303.75 51.3 -303.3 L51.2 -303.05 51.25 -302.0 Q58.55 -301.6 61.15 -295.6 19.95 -258.9 -34.6 -274.85 -51.65 -279.9 -54.65 -297.3 L-55.1 -300.05 M39.65 -128.45 Q43.6 -125.5 48.55 -124.6 67.85 -120.6 86.8 -114.9 73.6 -92.5 49.5 -82.7 32.05 -75.7 20.55 -60.35 2.9 -36.7 -24.6 -27.35 -38.35 -22.7 -51.7 -27.6 -65.6 -32.7 -61.0 -47.95 -54.85 -68.35 -51.6 -89.3 -50.55 -96.1 -56.85 -99.1 -91.75 -86.25 -117.8 -109.05 -127.25 -117.25 -127.2 -130.05 -127.15 -139.95 -121.55 -148.2 -94.55 -117.5 -53.35 -120.0 -42.2 -120.75 -33.7 -127.7 -18.75 -139.9 -1.45 -147.8 20.0 -142.85 39.65 -128.45" fill="#871374" fill-rule="evenodd" stroke="none"/>
    <path d="M-231.9 205.85 L-228.0 194.4 -226.65 191.35 Q-209.5 154.95 -195.2 117.05 -187.85 97.55 -187.55 76.7 -187.15 50.25 -188.65 23.8 -189.6 6.85 -187.75 -9.8 -187.4 6.95 -185.0 23.35 L-178.1 68.5 Q-174.5 91.15 -178.4 114.0 -182.25 136.85 -192.8 157.45 -202.85 177.2 -210.1 198.35 L-214.6 193.45 Q-239.3 203.6 -224.15 226.5 L-223.15 226.7 Q-217.35 226.1 -215.05 220.4 -209.25 243.65 -224.7 253.55 -227.75 255.6 -229.4 251.8 -238.9 229.95 -231.9 205.85 M193.1 -208.8 Q182.95 -228.25 193.85 -246.1 L195.25 -245.6 Q207.15 -237.55 206.15 -219.6 L199.45 -223.4 Q191.25 -221.15 192.65 -211.6 L193.1 -208.8 M209.25 -208.1 L210.5 -199.95 207.6 -197.1 202.55 -197.1 199.55 -200.15 Q203.55 -200.15 206.4 -202.45 209.25 -204.8 209.25 -208.1 M-90.65 -293.85 L-89.2 -293.15 Q-87.2 -279.0 -102.35 -276.35 L-103.0 -277.6 Q-107.45 -290.65 -92.8 -294.55 L-90.65 -293.85 M-110.55 -182.55 Q-114.15 -187.8 -119.7 -190.4 L-122.7 -189.25 Q-112.8 -206.65 -110.5 -182.95 L-110.55 -182.55 M-125.7 -173.85 Q-122.75 -166.55 -116.6 -162.1 L-111.6 -162.1 Q-106.85 -165.4 -106.3 -170.05 -100.7 -159.0 -90.45 -151.95 -86.3 -149.05 -84.85 -145.0 -78.6 -127.25 -99.3 -137.3 -122.35 -148.5 -125.7 -173.85 M-286.85 -254.25 Q-271.7 -276.9 -246.0 -284.7 -241.3 -286.05 -240.35 -281.1 L-252.85 -269.8 Q-266.55 -257.4 -276.75 -242.0 -274.2 -249.3 -280.8 -255.05 L-282.1 -255.9 -286.85 -254.25 M-222.75 -202.4 Q-221.85 -201.9 -221.2 -201.2 -213.45 -193.25 -211.6 -181.65 -208.7 -177.25 -211.1 -172.85 -212.6 -170.05 -214.7 -171.0 -240.7 -183.1 -222.75 -202.4 M-225.55 -198.2 L-226.45 -197.25 Q-231.4 -189.7 -223.85 -184.8 L-219.65 -184.8 Q-218.95 -185.2 -218.55 -185.8 -213.1 -194.7 -222.75 -198.8 L-222.75 -198.65 -225.55 -198.2 M-114.6 233.75 L-106.0 232.65 Q-95.2 248.05 -119.05 251.75 -124.85 252.7 -130.3 251.5 -146.4 247.75 -130.2 237.9 -128.95 255.3 -115.55 241.55 -112.2 238.05 -114.6 233.75 M-213.3 210.5 L-213.5 208.6 -212.6 207.45 -213.3 210.5" fill="#f2d7ed" fill-rule="evenodd" stroke="none"/>
    <path d="M-180.1 304.2 Q-205.5 305.9 -223.0 289.45 -240.9 272.7 -239.7 247.7 -238.7 226.2 -231.9 205.85 -238.9 229.95 -229.4 251.8 -227.75 255.6 -224.7 253.55 -209.25 243.65 -215.05 220.4 -212.9 216.0 -213.3 210.5 L-212.6 207.45 -211.15 205.1 Q-209.15 201.3 -210.1 198.35 -202.85 177.2 -192.8 157.45 -182.25 136.85 -178.4 114.0 -174.5 91.15 -178.1 68.5 L-185.0 23.35 Q-187.4 6.95 -187.75 -9.8 -189.6 6.85 -188.65 23.8 -187.15 50.25 -187.55 76.7 -187.85 97.55 -195.2 117.05 -209.5 154.95 -226.65 191.35 L-228.0 194.4 Q-222.2 177.5 -215.95 160.85 -208.05 139.8 -203.9 117.9 -199.8 96.2 -199.95 74.35 L-200.3 29.1 -200.8 -16.2 Q-200.9 -24.35 -201.9 -32.25 L-201.85 -32.4 Q-186.65 -75.55 -198.1 -119.6 -199.95 -126.8 -205.65 -131.15 -229.65 -149.85 -238.1 -178.3 -239.95 -184.65 -245.05 -187.95 -262.5 -198.85 -274.25 -179.7 L-285.0 -192.2 Q-288.25 -193.15 -291.65 -193.25 -316.95 -193.8 -332.7 -173.5 -333.4 -182.45 -329.65 -191.0 -310.35 -235.45 -279.3 -273.45 -270.4 -284.25 -257.95 -290.2 -238.65 -299.5 -217.95 -291.1 -213.85 -289.5 -210.1 -287.4 -221.95 -257.25 -216.2 -225.45 -214.85 -218.15 -209.35 -214.5 -201.75 -217.7 -197.9 -226.2 -190.85 -241.8 -176.25 -251.4 -177.25 -227.95 -165.05 -208.5 -163.5 -206.0 -161.85 -206.55 -146.55 -210.95 -143.35 -232.75 -139.9 -256.5 -127.0 -276.65 L-113.4 -284.75 Q-117.75 -277.75 -120.3 -269.9 -128.9 -243.3 -117.2 -218.4 -113.1 -226.0 -107.65 -232.45 -85.95 -258.3 -52.55 -263.2 -59.8 -261.2 -66.45 -257.8 -98.5 -241.2 -99.7 -205.5 -100.25 -188.1 -89.15 -175.1 -78.4 -162.55 -62.45 -158.05 -41.75 -152.15 -21.8 -159.7 0.4 -168.15 12.95 -188.3 17.15 -178.1 24.95 -170.35 52.1 -143.25 90.15 -149.0 105.8 -151.35 116.9 -162.3 125.1 -170.4 127.1 -181.75 132.0 -209.65 116.25 -233.35 102.45 -254.05 79.3 -264.0 95.35 -262.8 108.95 -254.35 129.95 -241.5 138.85 -218.5 L142.35 -190.9 Q158.95 -202.85 159.9 -223.65 161.1 -249.45 184.4 -259.2 204.9 -267.8 215.9 -252.15 219.15 -247.6 217.7 -242.0 211.65 -218.55 225.7 -201.1 229.0 -197.0 233.15 -200.8 258.05 -223.55 290.95 -227.75 L303.85 -204.65 Q271.45 -199.9 246.4 -178.35 228.95 -163.3 210.0 -169.5 198.55 -173.3 193.15 -184.15 198.4 -170.85 193.95 -157.25 186.1 -133.0 161.4 -128.25 137.9 -123.9 116.75 -113.0 95.45 -102.05 78.45 -85.3 61.6 -68.8 43.85 -53.3 26.05 -37.85 7.35 -23.6 -11.25 -9.4 -34.5 -6.5 -58.45 -3.3 -76.45 -19.3 -93.95 -34.8 -109.0 -53.2 -122.45 -69.65 -142.75 -73.7 -171.8 -79.3 -173.95 -52.05 -175.9 -27.25 -161.05 -7.1 L-160.9 -6.85 Q-151.5 14.3 -151.7 37.55 -151.9 61.8 -162.8 83.4 -173.7 105.0 -171.1 129.3 -168.15 156.65 -140.8 156.35 -118.85 156.15 -97.2 152.7 -73.3 149.2 -49.2 151.4 -26.75 153.15 -4.95 157.55 14.3 161.45 32.75 167.75 55.25 175.4 76.35 186.1 97.2 196.75 117.15 208.8 139.65 222.35 162.0 208.75 178.0 199.05 176.15 178.45 174.05 154.85 168.35 131.7 163.6 112.6 162.0 92.8 L158.6 48.9 Q156.75 24.7 161.0 1.15 164.8 -20.1 173.8 -39.85 183.85 -61.9 176.1 -84.35 169.05 -104.8 148.6 -104.5 168.8 -125.8 186.1 -100.05 195.1 -86.75 192.1 -70.35 188.2 -49.25 179.85 -29.75 170.7 -8.35 167.95 14.55 165.1 37.95 167.4 61.3 169.6 84.0 176.1 105.6 182.65 127.2 189.8 148.7 197.15 170.8 196.5 193.9 195.75 220.15 171.6 229.7 149.25 238.65 125.85 230.1 108.5 223.8 91.65 216.2 72.55 207.6 52.95 199.9 L13.15 183.95 Q-9.0 175.05 -32.4 170.2 -55.8 165.25 -79.55 167.25 -102.05 168.9 -124.45 166.0 -149.05 163.1 -171.15 172.0 -186.85 178.3 -180.45 192.75 -172.0 211.75 -150.1 208.45 -128.95 205.1 -107.8 202.9 -86.6 200.65 -65.2 202.3 -41.0 203.5 -17.3 207.4 6.65 211.1 29.65 218.4 49.65 224.6 69.4 231.95 89.15 239.25 109.1 245.35 131.3 252.15 154.6 252.6 177.25 253.0 198.35 244.75 154.5 273.95 101.15 274.5 65.65 274.9 31.25 264.9 5.85 257.45 -20.35 254.25 -39.75 251.95 -59.2 251.7 -81.15 251.4 -102.3 257.45 -119.5 262.3 -137.2 263.65 -151.2 263.6 -164.05 257.05 -179.35 249.35 -194.45 254.65 -208.95 259.8 -208.05 276.25 -207.0 295.75 -188.35 302.4 -184.35 303.85 -180.1 304.2 M206.15 -219.6 Q207.15 -237.55 195.25 -245.6 L193.85 -246.1 Q182.95 -228.25 193.1 -208.8 L199.55 -200.15 202.55 -197.1 207.6 -197.1 210.5 -199.95 209.25 -208.1 Q210.7 -215.35 206.15 -219.6 M-117.0 -233.8 Q-121.5 -261.1 -107.4 -284.8 -98.3 -300.1 -80.5 -302.15 L-28.8 -308.2 Q-2.55 -311.05 23.95 -311.45 51.3 -311.9 77.95 -305.7 L80.75 -305.0 Q89.85 -284.25 69.0 -273.45 68.2 -273.0 67.3 -272.65 102.2 -279.25 125.15 -257.35 128.55 -254.15 128.7 -249.45 109.9 -264.2 86.3 -266.75 62.3 -269.3 39.35 -263.1 27.4 -259.75 18.7 -250.9 15.85 -252.05 13.65 -253.95 8.0 -258.95 8.2 -264.1 42.2 -266.65 72.25 -298.8 69.45 -307.85 51.8 -303.2 L51.3 -303.3 Q27.8 -303.75 4.45 -300.05 -19.05 -296.4 -42.45 -300.8 -48.9 -301.9 -55.1 -300.05 -58.4 -295.35 -55.95 -290.55 -66.05 -285.15 -57.7 -277.1 L-56.45 -276.0 Q-100.15 -272.05 -117.0 -233.8 M39.65 -128.45 Q20.0 -142.85 -1.45 -147.8 -18.75 -139.9 -33.7 -127.7 -42.2 -120.75 -53.35 -120.0 -94.55 -117.5 -121.55 -148.2 -127.15 -139.95 -127.2 -130.05 -127.25 -117.25 -117.8 -109.05 -91.75 -86.25 -56.85 -99.1 -50.55 -96.1 -51.6 -89.3 -54.85 -68.35 -61.0 -47.95 -65.6 -32.7 -51.7 -27.6 -38.35 -22.7 -24.6 -27.35 2.9 -36.7 20.55 -60.35 32.05 -75.7 49.5 -82.7 73.6 -92.5 86.8 -114.9 67.85 -120.6 48.55 -124.6 43.6 -125.5 39.65 -128.45 M-90.65 -293.85 L-92.8 -294.55 Q-107.45 -290.65 -103.0 -277.6 L-102.35 -276.35 Q-87.2 -279.0 -89.2 -293.15 L-90.65 -293.85 M-110.55 -182.55 L-110.5 -182.95 Q-112.8 -206.65 -122.7 -189.25 -129.6 -185.8 -126.55 -176.15 L-125.7 -173.85 Q-122.35 -148.5 -99.3 -137.3 -78.6 -127.25 -84.85 -145.0 -86.3 -149.05 -90.45 -151.95 -100.7 -159.0 -106.3 -170.05 -106.0 -173.1 -107.45 -176.7 -108.75 -179.95 -110.55 -182.55 M-276.75 -242.0 Q-266.55 -257.4 -252.85 -269.8 L-240.35 -281.1 Q-241.3 -286.05 -246.0 -284.7 -271.7 -276.9 -286.85 -254.25 -293.0 -249.8 -295.75 -242.75 -301.1 -228.9 -287.4 -225.1 L-276.75 -242.0 M-222.75 -202.4 Q-240.7 -183.1 -214.7 -171.0 -212.6 -170.05 -211.1 -172.85 -208.7 -177.25 -211.6 -181.65 -213.45 -193.25 -221.2 -201.2 -221.85 -201.9 -222.75 -202.4 M-130.2 237.9 Q-146.4 247.75 -130.3 251.5 -124.85 252.7 -119.05 251.75 -95.2 248.05 -106.0 232.65 L-114.6 233.75 -118.3 229.3 -123.35 229.3 -130.2 237.9" fill="#c03fab" fill-rule="evenodd" stroke="none"/>
    <path d="M193.1 -208.8 L192.65 -211.6 Q191.25 -221.15 199.45 -223.4 L206.15 -219.6 Q210.7 -215.35 209.25 -208.1 209.25 -204.8 206.4 -202.45 203.55 -200.15 199.55 -200.15 L193.1 -208.8 M9.05 -236.75 L10.85 -234.05 Q26.6 -253.3 50.95 -257.1 75.25 -261.1 94.6 -245.85 L99.2 -241.8 96.95 -239.75 Q80.15 -222.3 71.1 -200.0 60.85 -174.9 77.25 -155.1 52.1 -152.45 34.15 -169.7 21.45 -181.85 14.5 -198.1 L9.05 -236.75 M-12.85 -253.8 Q-15.8 -251.45 -18.75 -248.7 -36.95 -231.9 -42.4 -207.7 -47.7 -183.95 -35.25 -163.95 -61.0 -160.4 -79.25 -178.15 -97.65 -196.1 -89.35 -219.7 -81.5 -242.05 -59.55 -251.75 -36.55 -261.75 -12.85 -253.8 M26.5 -205.7 Q28.95 -211.2 34.05 -211.65 38.45 -213.3 40.95 -208.35 43.85 -202.55 39.15 -198.15 35.0 -194.25 29.8 -196.55 23.65 -199.25 26.5 -205.7 M37.65 -217.25 Q11.05 -205.65 29.05 -184.85 36.2 -176.5 43.55 -183.55 66.7 -205.6 37.65 -217.25 M-14.15 -201.9 Q-16.35 -199.3 -19.6 -199.75 -25.2 -200.55 -25.55 -206.65 -25.9 -212.0 -21.75 -214.5 L-20.25 -214.85 Q-16.2 -215.45 -13.6 -211.7 -10.1 -206.65 -14.15 -201.9 M95.25 -67.0 L91.85 -53.65 Q86.0 -30.65 85.65 -6.95 62.45 -2.85 38.85 -4.35 L27.95 -5.35 Q59.1 -39.1 95.25 -67.0 M142.7 -16.4 L122.35 -16.4 Q122.75 -31.35 124.45 -46.1 127.1 -69.2 135.1 -91.0 L150.1 -94.55 Q150.5 -77.2 149.85 -59.9 149.0 -37.7 142.7 -16.4 M-122.7 -189.25 L-119.7 -190.4 Q-114.15 -187.8 -110.55 -182.55 -108.75 -179.95 -107.45 -176.7 -106.0 -173.1 -106.3 -170.05 -106.85 -165.4 -111.6 -162.1 L-116.6 -162.1 Q-122.75 -166.55 -125.7 -173.85 L-126.55 -176.15 Q-129.6 -185.8 -122.7 -189.25 M-286.85 -254.25 L-282.1 -255.9 -280.8 -255.05 Q-274.2 -249.3 -276.75 -242.0 L-287.4 -225.1 Q-301.1 -228.9 -295.75 -242.75 -293.0 -249.8 -286.85 -254.25 M-225.55 -198.2 L-222.75 -198.65 -222.75 -198.8 Q-213.1 -194.7 -218.55 -185.8 -218.95 -185.2 -219.65 -184.8 L-223.85 -184.8 Q-231.4 -189.7 -226.45 -197.25 L-225.55 -198.2 M-121.65 -18.4 L-120.6 -14.95 Q-115.15 4.95 -116.5 25.45 -126.2 32.4 -138.1 31.1 L-139.75 30.85 Q-157.3 -1.5 -143.2 -33.85 L-121.65 -18.4 M-92.5 21.45 L-93.85 1.2 Q-84.25 12.1 -71.45 19.15 L-66.95 21.45 -92.5 21.45 M-48.85 134.25 Q-68.7 134.0 -88.45 136.2 -97.25 112.7 -96.0 83.65 L-95.2 83.0 Q-76.95 76.85 -57.9 80.2 L-48.85 134.25 M-117.25 142.3 Q-134.85 152.85 -151.85 142.5 -173.7 129.15 -161.5 103.9 -155.8 92.15 -150.75 80.1 L-125.9 77.8 -117.25 142.3 M-114.6 233.75 Q-112.2 238.05 -115.55 241.55 -128.95 255.3 -130.2 237.9 L-123.35 229.3 -118.3 229.3 -114.6 233.75 M-210.1 198.35 Q-209.15 201.3 -211.15 205.1 L-212.6 207.45 -213.5 208.6 -213.3 210.5 Q-212.9 216.0 -215.05 220.4 -217.35 226.1 -223.15 226.7 L-224.15 226.5 Q-239.3 203.6 -214.6 193.45 L-210.1 198.35 M114.75 189.9 Q88.65 171.5 58.15 162.8 66.7 143.8 64.55 123.05 62.55 104.05 69.65 86.2 L78.5 85.2 Q102.15 84.0 124.9 91.3 L126.25 102.35 Q128.45 125.6 127.5 148.95 126.6 171.1 114.75 189.9 M29.5 151.9 Q6.15 143.7 -17.95 138.1 L-17.5 80.95 -11.8 79.95 Q8.15 76.65 27.9 79.4 31.4 95.5 32.55 112.0 33.95 132.2 29.5 151.9" fill="#ffffff" fill-rule="evenodd" stroke="none"/>
    <path d="M9.05 -236.75 L14.5 -198.1 Q1.7 -177.7 -20.35 -168.1 -27.45 -165.0 -35.25 -163.95 -47.7 -183.95 -42.4 -207.7 -36.95 -231.9 -18.75 -248.7 -15.8 -251.45 -12.85 -253.8 0.4 -248.75 9.05 -236.75 M77.25 -155.1 Q60.85 -174.9 71.1 -200.0 80.15 -222.3 96.95 -239.75 L99.2 -241.8 Q116.35 -225.8 120.15 -201.3 123.2 -181.7 108.65 -169.0 94.7 -156.85 77.25 -155.1 M-0.4 -211.8 Q-2.5 -215.6 -6.0 -218.05 -31.2 -223.6 -28.15 -196.7 -25.9 -176.85 -10.5 -182.75 11.05 -190.9 -0.4 -211.8 M85.65 -6.95 Q86.0 -30.65 91.85 -53.65 L95.25 -67.0 118.9 -83.7 Q102.8 -50.55 103.45 -13.7 L102.4 -12.9 Q94.85 -7.8 85.65 -6.95 M150.1 -94.55 L157.8 -95.45 Q171.05 -76.3 164.45 -54.05 158.85 -35.3 155.25 -16.4 L142.7 -16.4 Q149.0 -37.7 149.85 -59.9 150.5 -77.2 150.1 -94.55 M-116.5 25.45 Q-115.15 4.95 -120.6 -14.95 L-121.65 -18.4 -105.45 -6.75 -104.95 -4.25 Q-101.5 14.25 -116.5 25.45 M-57.9 80.2 L-51.55 81.55 -45.65 83.05 Q-37.8 108.15 -40.0 134.45 L-48.85 134.25 -57.9 80.2 M-125.9 77.8 L-113.8 79.0 -103.9 138.85 Q-110.7 140.3 -117.25 142.3 L-125.9 77.8 M124.9 91.3 L156.8 103.5 Q159.7 126.75 164.3 149.6 168.35 169.5 167.8 189.55 167.5 200.9 156.95 203.35 133.9 208.65 114.75 189.9 126.6 171.1 127.5 148.95 128.45 125.6 126.25 102.35 L124.9 91.3 M27.9 79.4 L42.95 82.4 Q53.25 107.3 48.35 134.65 46.3 145.95 42.85 156.85 L29.5 151.9 Q33.95 132.2 32.55 112.0 31.4 95.5 27.9 79.4" fill="#ebebeb" fill-rule="evenodd" stroke="none"/>
    <path d="M132.05 -89.85 Q129.05 -80.2 126.5 -70.4 119.9 -44.8 117.45 -18.25 L109.8 -17.5 Q108.1 -29.8 110.25 -42.05 114.2 -64.35 122.15 -85.4 L132.05 -89.85 M-102.0 -4.3 L-97.8 -1.5 -97.35 17.6 -99.5 17.5 -99.45 15.6 Q-98.25 5.25 -102.0 -4.3 M-25.05 86.55 Q-25.75 112.35 -20.65 137.6 L-34.75 135.55 -34.2 132.9 Q-29.4 109.35 -35.6 86.15 L-25.05 86.55 M-100.75 138.2 L-101.1 125.2 Q-101.75 105.45 -106.65 86.2 L-101.35 88.05 -92.75 136.8 -100.75 138.2 M60.25 138.4 Q59.45 150.4 55.8 161.85 L47.45 158.6 Q51.55 145.55 53.1 132.05 55.5 111.2 53.75 90.05 L58.75 91.2 Q61.85 114.7 60.25 138.4" fill="#999999" fill-rule="evenodd" stroke="none"/>
    <path d="M22.15 -0.6 L22.2 -0.6 Q65.45 1.45 107.95 -7.25 L109.9 -14.1 117.2 -13.8 Q118.8 -11.9 121.05 -11.55 137.2 -7.85 154.5 -9.75 152.1 41.55 155.25 92.85 112.4 77.05 66.15 81.6 L59.85 87.25 54.7 87.25 54.7 82.65 Q48.15 79.45 41.35 77.75 9.55 70.15 -23.15 76.75 L-24.2 80.5 Q-36.8 78.3 -49.7 76.7 -79.3 73.7 -107.65 82.2 L-107.65 75.5 Q-127.15 73.5 -146.75 73.85 -143.95 69.3 -142.25 64.3 -137.2 49.8 -139.35 34.65 L-131.7 32.9 Q-114.15 27.75 -97.25 20.8 -94.05 26.15 -88.15 26.9 L-65.1 27.85 Q-41.3 26.4 -18.25 21.15 4.9 16.0 22.15 -0.6" fill="#592450" fill-rule="evenodd" stroke="none"/>
  </g>
</svg>
