<svg id="Cercle" xmlns="http://www.w3.org/2000/svg" viewBox="0 0 406 405.98"><title>cercle</title><path d="M432.21,482.16a196.89,196.89,0,0,1-35.87-3.32C290.1,459.11,219.72,356.62,239.45,250.38A195.85,195.85,0,0,1,467.92,93.49C574.16,113.22,644.54,215.71,624.8,322A196,196,0,0,1,432.21,482.16Zm-.13-307.34a111.32,111.32,0,1,0,20.38,1.88A111.33,111.33,0,0,0,432.08,174.82Z" transform="translate(-229.12 -83.18)" fill="#edae24"/><path d="M432,97.18a189.16,189.16,0,0,1,34.59,3.2c102.45,19,170.31,117.86,151.28,220.3-16.87,90.83-96.48,154.48-185.71,154.48a189.23,189.23,0,0,1-34.59-3.2c-102.45-19-170.31-117.86-151.28-220.3C263.21,160.83,342.81,97.18,432,97.18m.13,307.34a118.4,118.4,0,1,0-21.66-2,118.53,118.53,0,0,0,21.66,2m-.12-321.34v0A203,203,0,0,0,232.57,249.1,203,203,0,0,0,395.06,485.72a203.49,203.49,0,0,0,211.28-95.4,201.75,201.75,0,0,0,25.34-67.1C652.12,213.2,579.23,107,469.19,86.61a203.87,203.87,0,0,0-37.13-3.43Zm.12,307.34a104.34,104.34,0,1,1,102.53-85.29,104.88,104.88,0,0,1-102.53,85.29Z" transform="translate(-229.12 -83.18)" fill="#1d1d1b"/><g id="Calque_16" data-name="Calque 16"><path d="M265.62,241.54q3.1-11.57,11.16-16.67,8.46-5.41,18.83-2.63a22.77,22.77,0,0,1,10.93,6.61q9,9.59,4.86,24.89-3.07,11.47-11.14,16.57a22.53,22.53,0,0,1-9.48,3.37,23.78,23.78,0,0,1-9.09-.66,23.46,23.46,0,0,1-11.23-6.66Q261.69,257,265.62,241.54Zm7.52,2a15.79,15.79,0,0,0,.93,11.54,16.57,16.57,0,0,0,23.23,6.22A17.4,17.4,0,0,0,303,240.12a15.26,15.26,0,0,0-4.44-5.29,16.25,16.25,0,0,0-5.64-2.76q-7.51-2-13.15,1.83A16.47,16.47,0,0,0,273.15,243.52Z" transform="translate(-229.12 -83.18)" fill="#1d1d1b"/><path d="M314.58,201.32l11.56,9.85a2.29,2.29,0,0,0,1.5.64,3.26,3.26,0,0,0,1.73-.71l.82.7-9.26,10.87-.82-.7a3.42,3.42,0,0,0,.42-1.84,2.27,2.27,0,0,0-.87-1.36l-29.51-25.13a2.34,2.34,0,0,0-1.5-.67,3.45,3.45,0,0,0-1.75.71l-.82-.7,18.57-21.8a44.94,44.94,0,0,1,5.84-5.93,14.74,14.74,0,0,1,5.08-2.7,10.65,10.65,0,0,1,6.16.05,15.45,15.45,0,0,1,5.5,3.06q8.53,7.26,1.91,18l15.38,1.43a28.27,28.27,0,0,0,5.48.16,4.34,4.34,0,0,0,2.53-1.34l.82.7-10.72,12.59-.82-.7q.9-1.47.19-2.08a8.59,8.59,0,0,0-3.24-.69L322.5,192Zm-5.74-4.89,10-11.74a39.23,39.23,0,0,0,3-3.81,7.59,7.59,0,0,0,1-2.51q.61-2.83-2.12-5.16t-5.43-1.28a7.27,7.27,0,0,0-2.31,1.4,42.67,42.67,0,0,0-3.28,3.57l-10,11.74Z" transform="translate(-229.12 -83.18)" fill="#1d1d1b"/><path d="M359.58,179l-20.52-32.89a2.27,2.27,0,0,0-1.21-1.06,3.45,3.45,0,0,0-1.88.15l-.57-.91,12.12-7.56.57.91a3.18,3.18,0,0,0-1,1.61,2.33,2.33,0,0,0,.43,1.57l20.52,32.89a2.33,2.33,0,0,0,1.26,1.09,3.24,3.24,0,0,0,1.86-.15l.57.91-12.12,7.56-.57-.91a3.43,3.43,0,0,0,1-1.63A2.33,2.33,0,0,0,359.58,179Z" transform="translate(-229.12 -83.18)" fill="#1d1d1b"/><path d="M414,144.19l-11,2.62a2.25,2.25,0,0,0-1.41.82,3.52,3.52,0,0,0-.44,1.83l-1,.25-2.47-10.37,1-.25a3.43,3.43,0,0,0,1.22,1.45,2.31,2.31,0,0,0,1.62.08l21.11-5,.25,1a3.47,3.47,0,0,0-1.42,1.24,2.29,2.29,0,0,0-.1,1.64l2.18,9.13a2.34,2.34,0,0,0,.81,1.43,3.38,3.38,0,0,0,1.84.46l.19.82q-11,10.26-22.85,13.09-10.79,2.57-18.82-.93-10.11-4.42-12.85-15.9-2.55-10.7,3.58-18.84,5.81-7.73,17.81-10.58a36.19,36.19,0,0,1,7.36-1,51.26,51.26,0,0,1,8.24.53,10.48,10.48,0,0,0,3.37.13,2.77,2.77,0,0,0,1.42-1.13l1,.27L412,128.88l-1.06-.26a3.7,3.7,0,0,0-.66-1.47,4.45,4.45,0,0,0-1.45-.87,18.12,18.12,0,0,0-6.44-1.16,28.31,28.31,0,0,0-7.52.68,17.72,17.72,0,0,0-10.64,6.67,15,15,0,0,0-2.4,12.93,14.65,14.65,0,0,0,7.76,10.17q5.58,2.87,13.15,1.07a32.46,32.46,0,0,0,7.07-2.58,24.46,24.46,0,0,0,5.65-3.79Z" transform="translate(-229.12 -83.18)" fill="#1d1d1b"/><path d="M438.5,156.89l3.4-38.61a2.28,2.28,0,0,0-.33-1.58,3.45,3.45,0,0,0-1.59-1l.09-1.07,14.23,1.25-.09,1.07a3.16,3.16,0,0,0-1.75.7,2.33,2.33,0,0,0-.6,1.51l-3.4,38.61a2.35,2.35,0,0,0,.34,1.63,3.25,3.25,0,0,0,1.58,1l-.09,1.07-14.23-1.25.09-1.07a3.42,3.42,0,0,0,1.75-.72A2.33,2.33,0,0,0,438.5,156.89Z" transform="translate(-229.12 -83.18)" fill="#1d1d1b"/><path d="M482,136.41,470.83,161.9a2.33,2.33,0,0,0-.2,1.63,3.43,3.43,0,0,0,1.19,1.47l-.43,1-12.32-5.39.43-1a3.42,3.42,0,0,0,1.89-.13,2.33,2.33,0,0,0,1.06-1.26L478,122.72a2.27,2.27,0,0,0,.19-1.6,3.44,3.44,0,0,0-1.19-1.47l.43-1,14.25,6.24-.43,1a1.58,1.58,0,0,0-1.94.83,2.72,2.72,0,0,0,.15,2l12.6,34.18L513,138a2.27,2.27,0,0,0,.19-1.6A3.44,3.44,0,0,0,512,135l.43-1,12.32,5.39-.43,1a3.44,3.44,0,0,0-1.88.13,2.28,2.28,0,0,0-1,1.22l-15.55,35.51a2.32,2.32,0,0,0-.2,1.63,3.43,3.43,0,0,0,1.19,1.47l-.43,1-13.21-5.78.43-1q1.41.29,1.87-.75.27-.62-.56-2.81Z" transform="translate(-229.12 -83.18)" fill="#1d1d1b"/><path d="M543.1,204.44,529.63,188.6l-6.9,1.83a5.36,5.36,0,0,0-2,.88q-1.12,1-.11,3l-.82.7L510,183.5l.82-.69a4.05,4.05,0,0,0,2,.95,9.15,9.15,0,0,0,3-.47l37.7-10a6.71,6.71,0,0,0,2.56-1.12q1.17-1,.43-2.92l.82-.7,10.51,12.36-.82.7q-1.72-1.14-2.79-.23a4.94,4.94,0,0,0-1.27,1.92l-15.57,36.13a12,12,0,0,0-1.08,3.47,4.24,4.24,0,0,0,.63,2.42l-.82.7-10.92-12.83.82-.69q1.72,1.45,3,.34a5.36,5.36,0,0,0,1.15-1.86Zm2.91-6.25L553.63,182l-17.31,4.82Z" transform="translate(-229.12 -83.18)" fill="#1d1d1b"/><path d="M557.25,239.23l8.27,26.89a2.32,2.32,0,0,0,.91,1.37,3.44,3.44,0,0,0,1.86.34l.32,1-11.31,3.48-.32-1a3.43,3.43,0,0,0,1.35-1.33,2.32,2.32,0,0,0,0-1.64l-11.84-38.49,1-.32a3.44,3.44,0,0,0,1.33,1.35,2.33,2.33,0,0,0,1.64,0l37-11.39a2.33,2.33,0,0,0,1.37-.91,3.44,3.44,0,0,0,.34-1.86l1-.32,4.2,13.65-1,.32a3.17,3.17,0,0,0-1.31-1.35,2.4,2.4,0,0,0-1.66,0Z" transform="translate(-229.12 -83.18)" fill="#1d1d1b"/><circle cx="284.89" cy="296.96" r="10.33" transform="translate(-288.23 439.65) rotate(-79.48)" fill="#1d1d1b"/><circle cx="577.7" cy="297.64" r="10.17" transform="translate(-49.55 728.1) rotate(-79.48)" fill="#1d1d1b"/></g></svg>