<svg xmlns="http://www.w3.org/2000/svg" viewBox="0 0 437.76 189.19"><defs><style>.cls-1{fill:#8fab25;}.cls-2{fill:#1d1d1b;}</style></defs><title>Fichier 1</title><g id="Calque_2" data-name="Calque 2"><g id="Jojo_s" data-name="Jojo&apos;s"><path class="cls-1" d="M62.24,155.72a61.3,61.3,0,0,1-52.62-30.6c-5.45-9.36-10.4-20.69-5.77-33.84C7,82.33,14.3,77.2,23.91,77.2a30.38,30.38,0,0,1,3.87.25C37.42,78.7,42,84.25,43.18,96c1.19,12.25,6.5,19.85,16.23,23.23a17.3,17.3,0,0,0,5.71,1,13.28,13.28,0,0,0,13.6-15.51c-1.33-11.07-4.81-22.15-8.18-32.86-.77-2.45-1.54-4.9-2.28-7.34C67,60.26,65.18,56,63.47,51.92c-1.6-3.82-3.25-7.78-4.56-11.83-2.78-8.6-1.69-17.22,3-23.64A22.45,22.45,0,0,1,80.33,7.37a28.29,28.29,0,0,1,4.17.32c4.56.69,10.87,4.84,12.46,9.36l.9,2.52c8.9,25.13,18.1,51.11,17.58,80.06,1.86,26.23-20.87,49.11-38,54A55.7,55.7,0,0,1,62.24,155.72Z"/><path class="cls-2" d="M80.33,9.37a26,26,0,0,1,3.87.3c4,.61,9.57,4.35,10.88,8,9.26,26.18,18.92,52.4,18.36,82,1.88,25.76-21.18,47.63-36.56,52a53.75,53.75,0,0,1-14.64,2,59.62,59.62,0,0,1-50.89-29.61c-5.77-9.89-9.78-20.33-5.62-32.17,2.92-8.3,9.45-12.74,18.18-12.74a28.29,28.29,0,0,1,3.61.24c8.7,1.12,12.6,5.82,13.67,16.76,1.17,12,6.36,21,17.56,24.93a19.39,19.39,0,0,0,6.37,1.11c9.3,0,16.85-7.22,15.58-17.74C79.06,90.72,74.24,77.31,70.17,64c-2.55-8.35-6.67-16.16-9.36-24.48-5.16-16,4.39-30.1,19.52-30.1m0-4h0a24.42,24.42,0,0,0-20,9.9C55.22,22.22,54,31.49,57,40.7c1.34,4.13,3,8.13,4.62,12a130.29,130.29,0,0,1,4.72,12.42c.75,2.46,1.53,5,2.29,7.36,3.34,10.62,6.8,21.61,8.1,32.5a11.67,11.67,0,0,1-2.64,9.45,11.9,11.9,0,0,1-9,3.82,15.23,15.23,0,0,1-5.05-.89c-8.92-3.09-13.79-10.14-14.9-21.54-1.24-12.7-6.53-19-17.14-20.34a32.49,32.49,0,0,0-4.12-.27C13.4,75.2,5.4,80.82,2,90.62c-4.9,13.92.25,25.76,5.93,35.5A64,64,0,0,0,31.3,149.34a62.29,62.29,0,0,0,30.94,8.38A57.28,57.28,0,0,0,78,155.54c17.78-5,41.35-28.77,39.47-56,.51-29.27-8.74-55.4-17.7-80.67l-.89-2.53C97,11.06,89.93,6.49,84.8,5.71a31,31,0,0,0-4.47-.34Z"/><path class="cls-1" d="M214.77,187.19c-30.41,0-54.47-18.61-59.87-46.32-2.62-13.43,3.07-25.12,14.15-29.09a26.41,26.41,0,0,1,8.88-1.69c10.17,0,16.68,7.37,17.43,19.71.55,9,4.28,15.6,11.43,20.11a17.56,17.56,0,0,0,9.33,2.87,13.51,13.51,0,0,0,10.09-4.31,15.67,15.67,0,0,0,3.67-12.13c-.88-10.3-4-20.67-7.08-30.71-.61-2-1.23-4-1.82-6-1.33-4.49-3.13-9-4.88-13.29s-3.46-8.56-4.82-13c-2.53-8.3-1.36-16.6,3.21-22.76a22,22,0,0,1,17.92-8.78,27.47,27.47,0,0,1,4.56.4c4.56.78,10.8,5,12.31,9.48l.69,2c8.33,24.61,17,50.05,16.27,82.41-.33,21.35-19.23,48.16-43.11,50.7A78.89,78.89,0,0,1,214.77,187.19Z"/><path class="cls-2" d="M232.41,43.73a24.75,24.75,0,0,1,4.22.37c4,.69,9.51,4.46,10.76,8.15,8.6,25.41,17.54,50.87,16.85,83.74-.33,21.67-19.32,46.42-41.32,48.76a75.58,75.58,0,0,1-8.16.44c-29.4,0-52.6-17.51-57.9-44.7-2.42-12.41,2.76-23.21,12.86-26.83a24.4,24.4,0,0,1,8.21-1.57c8.86,0,14.74,6.37,15.43,17.83.59,9.63,4.74,16.87,12.36,21.68a19.44,19.44,0,0,0,10.4,3.18c9.14,0,16.72-7.34,15.76-18.61-1.08-12.58-5.38-24.94-9-37.15-2.65-9-7-17.38-9.7-26.33-4.72-15.48,4.7-29,19.21-29m0-4h0a24,24,0,0,0-19.53,9.59c-4.95,6.68-6.23,15.62-3.51,24.54,1.38,4.53,3.16,8.93,4.87,13.18,1.81,4.48,3.52,8.71,4.82,13.11q.9,3,1.83,6.06c3,9.94,6.14,20.21,7,30.3.37,4.29-.72,8-3.16,10.6a11.5,11.5,0,0,1-8.61,3.67,15.57,15.57,0,0,1-8.27-2.56c-6.55-4.14-10-10.21-10.49-18.55-.81-13.31-8.25-21.58-19.43-21.58a28.62,28.62,0,0,0-9.56,1.8c-12,4.32-18.25,16.93-15.43,31.36a57,57,0,0,0,21.4,35c11.07,8.49,25,13,40.42,13a80.43,80.43,0,0,0,8.59-.46c11.45-1.22,22.63-7.82,31.45-18.58,8.37-10.19,13.27-22.62,13.44-34.1.69-32.68-8-58.3-16.38-83.07l-.68-2c-1.81-5.36-8.64-9.92-13.88-10.81a29.12,29.12,0,0,0-4.89-.43Z"/><path class="cls-1" d="M400.32,148.24h-1.26l-1.9,0-.82,0c-17-.18-31-6.36-41.71-18.37a27.48,27.48,0,0,1-6.31-16.15c-.13-4.17.93-7.55,3.09-9.77A9.59,9.59,0,0,1,358.5,101a17.6,17.6,0,0,1,7.93,2.15c11.91,6.08,21.21,10,30.15,12.76a4.9,4.9,0,0,0,1.38.17,6.84,6.84,0,0,0,3.85-1.07c.93-.69,3.07-4.9,1.86-7.56-.16-.35-.31-.69-.45-1a9.33,9.33,0,0,0-2.65-4c-2.18-1.72-5.27-2.81-8.26-3.86-.87-.31-1.74-.61-2.58-.93-1.74-.66-3.58-1.24-5.35-1.8a70.35,70.35,0,0,1-8.38-3c-13.05-6-20.73-14.13-22.2-23.48-1.54-9.77,3.76-20.56,15.33-31.2,5.8-5.24,14.82-8.24,24.76-8.24,12.35,0,23.5,4.54,30.59,12.45s7.91,17.63,1.68,23.82c-2.93,2.92-5.9,4.34-9.09,4.34-4.34,0-8.24-2.68-11.81-5.56-.94-.76-1.77-1.5-2.58-2.22-3.18-2.83-5.7-5.07-11.86-5.8a3.11,3.11,0,0,0-.43,0,4.56,4.56,0,0,0-.89.09,8.63,8.63,0,0,0-4.61,2c-.25.2-.48.39-.73.57a6.87,6.87,0,0,0-3.05,5,4.82,4.82,0,0,0,1.76,3.89c.22.13,1.09.6,4.52,2.13l.23.1c3.94,1.76,8.15,2.54,12.62,3.36a60,60,0,0,1,13.29,3.54c17.77,7.77,25.58,25.9,20.89,48.5C431.45,140.36,419.34,148.24,400.32,148.24Z"/><path class="cls-2" d="M393.89,31.87c10.65,0,21.84,3.69,29.1,11.79,6,6.64,7.7,15.15,1.77,21.06-2.69,2.67-5.22,3.76-7.69,3.76-3.52,0-6.93-2.19-10.56-5.12-4.63-3.74-7-7.45-15.45-8.45-.22,0-.45,0-.67,0a6.86,6.86,0,0,0-1.28.13A11.19,11.19,0,0,0,383,57.91c-4.33,3.11-5.4,8.56-1.37,12.06.5.43,4.62,2.24,5.19,2.5,8.22,3.68,17.66,3.29,25.92,6.9,17.12,7.49,24.2,24.71,19.73,46.27-2.76,13.33-14.12,20.6-32.14,20.6H399.1l-2.71-.07c-15.73-.17-29.57-5.66-40.27-17.7a25.54,25.54,0,0,1-5.8-14.88c-.22-7,3.18-10.54,8.18-10.54a15.69,15.69,0,0,1,7,1.93A190,190,0,0,0,396,117.86a6.7,6.7,0,0,0,2,.26,8.9,8.9,0,0,0,5-1.46c1.58-1.17,4.16-6.35,2.5-10-1-2.19-1.62-4.19-3.68-5.81-3.11-2.45-7.46-3.62-11.38-5.09-4.5-1.7-9.24-2.78-13.59-4.79-25.42-11.69-28.78-30.77-6.35-51.39,5.51-5,14.26-7.71,23.4-7.71m0-4c-10.43,0-19.94,3.19-26.09,8.74-15.29,14.07-17.13,25.71-16,33,1.58,10,9.66,18.69,23.34,25a73.45,73.45,0,0,0,8.62,3.13c1.82.58,3.55,1.12,5.24,1.76l2.62,1c3,1,5.77,2,7.7,3.54.91.72,1.3,1.57,2,3.27.15.35.31.7.47,1.06.66,1.46-.58,4.38-1.3,5.17a5.24,5.24,0,0,1-2.59.63,3,3,0,0,1-.79-.08c-8.83-2.71-18-6.6-29.83-12.63A19.52,19.52,0,0,0,358.5,99a11.53,11.53,0,0,0-8.53,3.44c-1.77,1.83-3.84,5.26-3.64,11.23a29.56,29.56,0,0,0,6.8,17.41c11.05,12.44,25.58,18.84,43.18,19l.82,0,1.89,0h1.3c9.75,0,17.8-2,23.95-5.93a27.28,27.28,0,0,0,12.11-17.86c4.89-23.6-3.35-42.57-22.05-50.74-4.51-2-9.2-2.84-13.73-3.67-4.34-.8-8.45-1.56-12.16-3.22l-.22-.1c-2.77-1.23-3.8-1.74-4.16-1.94a2.73,2.73,0,0,1-.95-2.17,4.89,4.89,0,0,1,2.22-3.46c.28-.2.55-.41.82-.64a6.88,6.88,0,0,1,3.73-1.58,2.35,2.35,0,0,1,.51-.06h.19c5.54.66,7.62,2.51,10.77,5.32.83.73,1.68,1.49,2.65,2.27,3.86,3.12,8.11,6,13.07,6,3.69,0,7.23-1.66,10.51-4.92,7-7,6.38-17.67-1.61-26.57-7.47-8.34-19.17-13.12-32.08-13.12Z"/><path class="cls-1" d="M157.15,113.23l-1.88,0h-.11c-17.76-1.49-32-12.54-39.06-30.3-7.21-18.12-3.15-35.61,11.41-49.25,11.26-10.55,21-17.53,30.67-21.94a37.74,37.74,0,0,1,15.69-3.59C189,8.12,201.8,18.19,208,35.06l.05.15,0,.17c4.54,24.06.29,46.12-11.66,60.53C187.06,107.24,173.47,113.23,157.15,113.23Zm10.06-83.14c-12.14,0-26.56,14-27.07,26.36a18.81,18.81,0,0,0,5.31,13.64A23.45,23.45,0,0,0,162,77.28h.62c14,0,24.22-9.91,24.82-24.1.46-11-9-22.4-19.19-23.06Q167.71,30.09,167.21,30.09Z"/><path class="cls-2" d="M173.87,10.12c14.17,0,26.37,9.61,32.28,25.63,7.6,40.31-9.87,75.48-49,75.48l-1.83,0c-15-1.25-29.8-10-37.36-29-7.18-18.06-2.56-34.43,10.92-47,9-8.46,19.15-16.56,30.13-21.58a35.64,35.64,0,0,1,14.86-3.41m-11.3,69.16c15,0,26.18-10.79,26.82-26,.5-12-9.89-24.42-21.06-25.15-.37,0-.74,0-1.12,0-13.18,0-28.51,14.7-29.06,28.28-.5,12.17,10.34,22.63,23.75,22.91h.67M173.88,6.12v0a39.7,39.7,0,0,0-16.52,3.77c-9.86,4.51-19.78,11.59-31.21,22.3-15.2,14.24-19.43,32.51-11.9,51.45,7.35,18.49,22.21,30,40.75,31.55h.22l1.94,0c16.93,0,31.06-6.24,40.84-18C210.32,82.32,214.73,59.65,210.08,35l-.06-.33-.12-.31a46.54,46.54,0,0,0-14.31-20.58,34.67,34.67,0,0,0-21.71-7.67ZM162.57,75.28H162a21.4,21.4,0,0,1-15.08-6.56,16.82,16.82,0,0,1-4.77-12.19c.22-5.35,3.43-11.53,8.58-16.52s11.29-7.92,16.49-7.92l.86,0c9,.59,17.73,11.18,17.32,21-.55,13.06-9.93,22.18-22.82,22.18Z"/><path class="cls-1" d="M305.21,115.55c-15.22,0-29.45-7.2-39-19.77-13.11-17.17-12.6-39.38,1.24-54,9.89-10.43,20.67-18.68,31.18-23.86a42,42,0,0,1,18.56-4.55c18.16,0,32.72,13.17,37.11,33.55.67,3.1.65,8.24-.05,15.28,0,.21,0,.36,0,.42-1.69,26.18-13.59,44.11-33.49,50.49A50.54,50.54,0,0,1,305.21,115.55Zm5.68-80.68c-13,0-26.47,12.81-26.64,25.39-.16,10.93,9.49,19.32,22.43,19.52h.55c17,0,21-12.25,21.31-22.52A24.3,24.3,0,0,0,322.22,40a15.49,15.49,0,0,0-11.07-5.09Z"/><path class="cls-2" d="M317.14,15.36c16.81,0,30.9,12.2,35.16,32,1.05,4.89-.1,14.52-.14,15.15-1.6,24.77-12.62,42.47-32.1,48.72a48.76,48.76,0,0,1-14.85,2.35c-14.43,0-28.07-6.69-37.46-19-12.09-15.84-12.52-37,1.11-51.42,8.79-9.29,19.3-17.88,30.61-23.44a40,40,0,0,1,17.67-4.35m-9.92,66.42c15.32,0,22.82-9.54,23.32-24.45.4-12.13-7.7-24.31-19.37-24.46h-.28c-14.17,0-28.45,13.6-28.65,27.36-.16,12,10.42,21.33,24.41,21.55h.57m9.92-70.42v0h0a43.85,43.85,0,0,0-19.44,4.76C287,21.4,276,29.79,266,40.4,251.42,55.75,250.85,79,264.57,97c10,13.06,24.79,20.55,40.64,20.55A52.29,52.29,0,0,0,321.28,115c20.74-6.64,33.13-25.2,34.87-52.26,0,0,0-.17,0-.36.73-7.34.74-12.54,0-15.89-4.6-21.34-19.93-35.13-39.07-35.13Zm-9.92,66.42h-.51c-11.8-.19-20.6-7.7-20.47-17.49.17-11.6,12.6-23.42,24.65-23.42h.23a13.62,13.62,0,0,1,9.65,4.47,22.58,22.58,0,0,1,5.77,15.85c-.46,13.66-7,20.59-19.32,20.59Z"/><path class="cls-1" d="M227.66,40.58c-.42,0-.84,0-1.27,0-10.1-.65-18.67-9.42-18.34-18.79.37-10.57,9.46-19.51,19.86-19.51q.5,0,1,0a18.72,18.72,0,0,1,13,6.47A20.15,20.15,0,0,1,247,23.24C246.4,32.8,237.73,40.58,227.66,40.58Z"/><path class="cls-2" d="M227.91,4.24l.88,0c9.25.51,16.8,9.3,16.21,18.85-.53,8.63-8.32,15.46-17.34,15.46-.38,0-.76,0-1.14,0-9.05-.57-16.76-8.41-16.47-16.72.33-9.53,8.61-17.58,17.86-17.58m0-4h0c-11.45,0-21.46,9.82-21.86,21.44-.36,10.4,9.08,20.14,20.21,20.85.47,0,.93,0,1.4,0,11.11,0,20.68-8.62,21.33-19.21a22.19,22.19,0,0,0-5.62-16A20.79,20.79,0,0,0,229,.27c-.37,0-.73,0-1.1,0Z"/><path class="cls-1" d="M358.79,42.5a5.18,5.18,0,0,1-1-.09c-3.18-.56-5.14-4.07-6.87-7.16-.39-.71-.78-1.4-1.17-2a28.12,28.12,0,0,1-2.43-5.58c-.91-2.62-1.7-4.88-3.64-6.49l-.81-.66c-3-2.43-7.12-5.77-5.86-11.09.35-1.51,2.94-4.64,4.1-5.4a15.32,15.32,0,0,1,8.08-2,18.18,18.18,0,0,1,11.62,3.8,47.43,47.43,0,0,1,7.95,8.06A18.71,18.71,0,0,1,369,36.32C366.86,39.29,362.36,42.5,358.79,42.5Z"/><path class="cls-2" d="M349.21,4c3.61,0,7.59,1,10.33,3.33A44.75,44.75,0,0,1,367.16,15a16.75,16.75,0,0,1,.2,20.12c-1.85,2.59-5.79,5.34-8.57,5.34a3.39,3.39,0,0,1-.64-.06c-2.83-.49-4.73-5.1-6.67-8.27-2.61-4.27-2.62-9.34-6.51-12.57-2.93-2.43-7.06-5.24-6-9.75a13.55,13.55,0,0,1,3.25-4.18,13.33,13.33,0,0,1,7-1.67m0-4h0A17,17,0,0,0,340,2.32c-1.34.87-4.42,4.34-5,6.61-1.54,6.54,3.52,10.65,6.55,13.1l.79.65c1.51,1.26,2.18,3.18,3,5.61a30,30,0,0,0,2.62,6c.36.59.73,1.26,1.13,2,1.94,3.49,4.14,7.44,8.26,8.16a7.31,7.31,0,0,0,1.33.12c4.26,0,9.36-3.57,11.82-7a20.61,20.61,0,0,0-.22-24.79,48.57,48.57,0,0,0-8.27-8.42A20.25,20.25,0,0,0,349.21,0Z"/></g></g></svg>