<?xml version="1.0" encoding="UTF-8" standalone="no"?>
<svg xmlns:xlink="http://www.w3.org/1999/xlink" height="256.7px" width="198.85px" xmlns="http://www.w3.org/2000/svg">
  <g transform="matrix(1.0, 0.0, 0.0, 1.0, 99.8, 128.4)">
    <use height="256.7" transform="matrix(1.0, 0.0, 0.0, 1.0, -99.8, -128.4)" width="198.85" xlink:href="#shape0"/>
  </g>
  <defs>
    <g id="shape0" transform="matrix(1.0, 0.0, 0.0, 1.0, 99.8, 128.4)">
      <path d="M-57.3 -95.85 Q-51.2 -88.55 -39.65 -90.45 -35.3 -71.35 -16.0 -70.5 2.1 -69.5 7.55 -87.3 L9.75 -86.1 8.25 -82.5 10.55 -81.75 12.4 -82.75 14.4 -83.65 Q14.05 -73.95 23.15 -71.15 29.05 -69.35 33.8 -72.9 L33.8 -71.75 Q31.7 -56.7 21.3 -43.65 L17.15 -42.85 20.7 -42.85 Q20.7 -41.9 21.35 -41.35 L22.3 -40.65 Q23.65 24.9 64.5 78.15 77.2 94.75 82.0 114.9 76.55 120.2 69.7 123.2 54.6 121.8 39.45 112.1 18.65 83.6 -13.0 101.8 -25.35 108.85 -37.35 102.85 -21.05 101.25 -7.05 92.2 L-7.0 92.2 -6.7 92.05 Q8.95 89.25 24.85 90.8 32.05 94.15 40.25 93.25 42.4 93.65 44.4 92.5 L46.95 91.85 Q48.9 74.8 36.8 62.55 15.65 41.05 11.7 11.7 6.3 -28.75 22.6 -66.05 L26.0 -57.9 Q27.3 -63.4 23.6 -67.1 13.4 -77.55 6.35 -69.35 L15.4 -70.55 9.95 -66.2 Q-11.9 -50.15 -37.5 -59.65 L-35.6 -60.6 -36.2 -60.35 -30.05 -62.75 -27.75 -63.5 -25.65 -67.0 Q-32.0 -76.1 -43.45 -69.5 -49.3 -66.15 -55.8 -67.7 -63.75 -75.75 -74.85 -78.4 -74.85 -90.1 -65.4 -97.3 L-57.3 -95.85 M18.5 -14.85 L17.4 -13.45 Q24.45 26.95 46.75 61.8 L47.5 62.3 18.5 -14.85 M59.15 92.2 Q58.55 90.9 57.15 90.85 46.25 90.65 47.0 99.8 L36.35 99.6 35.8 103.05 Q40.2 105.7 44.1 106.95 49.5 111.3 56.55 110.75 59.95 110.6 62.15 108.55 75.95 95.35 59.65 83.0 57.55 81.7 54.9 81.6 59.0 87.0 59.15 92.2 M-33.5 -17.2 Q-30.35 -22.1 -29.8 -28.0 L-29.6 -30.7 Q-27.55 -17.1 -30.7 -2.95 L-40.2 -2.95 Q-35.0 -9.35 -33.5 -17.2 M-46.15 63.6 L-45.35 62.4 -45.9 65.1 -46.15 63.6 M-27.5 84.1 L-27.3 84.15 -27.5 84.2 -27.5 84.1" fill="#8169b0" fill-rule="evenodd" stroke="none"/>
      <path d="M14.4 -83.65 L12.4 -82.75 10.55 -81.75 8.25 -82.5 9.75 -86.1 7.55 -87.3 Q2.1 -69.5 -16.0 -70.5 -35.3 -71.35 -39.65 -90.45 -51.2 -88.55 -57.3 -95.85 -61.2 -107.15 -72.25 -110.8 L-74.0 -111.2 Q-98.35 -94.85 -86.7 -67.85 -72.95 -47.45 -51.7 -60.0 -40.8 -66.4 -28.65 -65.6 L-30.05 -62.75 -36.2 -60.35 -37.5 -59.65 Q-11.9 -50.15 9.95 -66.2 L15.4 -70.55 6.35 -69.35 Q13.4 -77.55 23.6 -67.1 27.3 -63.4 26.0 -57.9 L22.6 -66.05 Q6.3 -28.75 11.7 11.7 15.65 41.05 36.8 62.55 48.9 74.8 46.95 91.85 L44.4 92.5 40.25 93.25 Q32.05 94.15 24.85 90.8 3.25 79.0 -22.45 83.65 L-27.3 84.15 -27.5 84.1 Q-36.15 84.25 -42.25 78.75 -48.3 73.35 -45.9 65.1 L-45.35 62.4 -46.15 63.6 Q-51.75 72.05 -52.65 80.7 -52.9 83.0 -52.8 85.3 -52.65 104.45 -36.15 110.4 -31.2 112.2 -26.85 109.45 7.95 87.95 39.45 112.1 54.6 121.8 69.7 123.2 96.0 126.85 90.45 101.35 88.25 91.1 80.4 83.6 32.35 37.75 31.2 -27.5 31.05 -35.25 31.95 -42.9 L20.7 -42.85 17.15 -42.85 21.3 -43.65 Q26.85 -44.65 31.0 -48.35 51.95 -67.45 29.15 -84.25 22.55 -87.1 14.4 -83.65 M18.5 -14.85 L47.5 62.3 46.75 61.8 Q24.45 26.95 17.4 -13.45 L18.5 -14.85 M35.7 -44.4 Q29.85 32.6 85.85 83.25 100.3 96.25 98.95 114.5 98.55 119.85 93.55 122.35 63.0 137.55 36.25 113.9 15.25 95.3 -6.35 109.25 -12.45 113.15 -19.2 115.8 -38.85 123.35 -54.1 108.05 -63.05 78.5 -47.3 51.8 L-48.2 48.45 Q-64.25 46.65 -80.05 52.8 -84.1 54.45 -87.9 51.95 -104.1 41.2 -98.2 21.2 -90.1 -6.4 -61.15 -9.9 -52.5 -11.25 -43.95 -8.9 -32.5 -31.75 -47.55 -52.65 -80.3 -40.75 -93.55 -73.9 -101.0 -92.55 -87.25 -107.4 -76.25 -119.3 -61.0 -112.95 -48.05 -138.15 -24.2 -122.3 -19.7 -119.4 -18.15 -114.0 3.7 -108.5 14.0 -88.35 43.85 -91.45 43.65 -60.65 43.6 -50.7 35.7 -44.4 M-94.75 17.3 Q-102.55 44.75 -74.0 43.7 -63.4 43.4 -53.05 44.05 -37.1 45.15 -32.95 61.4 -31.2 68.2 -37.25 71.3 L-41.85 55.65 Q-43.6 68.3 -39.05 80.05 -18.25 82.9 1.55 74.9 4.6 73.7 8.3 74.15 L5.65 67.95 4.05 63.95 Q-1.05 36.7 -18.15 16.25 -25.8 7.05 -37.55 5.3 -56.65 2.3 -69.55 17.3 L-74.3 21.85 Q-74.05 11.9 -66.55 5.25 L-65.4 4.25 Q-59.7 -0.1 -53.0 -1.7 L-51.2 -2.15 Q-70.8 -10.05 -86.35 4.45 -92.3 10.15 -94.75 17.3 M59.15 92.2 Q59.0 87.0 54.9 81.6 57.55 81.7 59.65 83.0 71.75 97.25 54.6 105.4 49.65 107.7 44.1 106.95 40.2 105.7 35.8 103.05 L36.35 99.6 47.0 99.8 55.95 101.45 59.15 92.2 M-27.1 -113.65 Q-37.25 -133.15 -52.55 -116.1 -56.95 -111.25 -54.95 -104.5 -52.45 -96.3 -43.9 -94.6 L-39.1 -93.8 -26.3 -111.4 -27.1 -113.65 M-50.95 -103.35 Q-47.45 -116.3 -39.65 -105.55 L-39.25 -104.45 Q-43.5 -94.0 -50.9 -103.15 L-50.95 -103.35 M-9.7 -104.5 Q-20.65 -112.7 -29.1 -100.55 -37.3 -88.75 -30.15 -81.25 -10.5 -66.95 -3.1 -89.3 -0.05 -98.5 -9.7 -104.5 M-17.3 -90.8 Q-19.0 -89.15 -21.35 -89.15 -23.7 -89.15 -25.35 -90.8 -27.05 -92.5 -27.05 -94.85 -27.05 -97.2 -25.35 -98.85 -23.7 -100.55 -21.35 -100.55 -19.0 -100.55 -17.3 -98.85 -15.65 -97.2 -15.65 -94.85 -15.65 -92.5 -17.3 -90.8 M-19.8 -96.15 L-21.2 -96.5 -22.55 -96.15 Q-23.15 -95.85 -23.15 -95.35 -23.15 -94.85 -22.55 -94.5 L-21.2 -94.2 Q-20.4 -94.2 -19.8 -94.5 -19.25 -94.85 -19.25 -95.35 -19.25 -95.85 -19.8 -96.15 M-29.6 -30.7 Q-31.4 -45.5 -40.7 -57.05 L-45.2 -54.2 -42.75 -51.25 Q-30.75 -36.3 -33.5 -17.2 -35.0 -9.35 -40.2 -2.95 L-30.7 -2.95 Q-27.55 -17.1 -29.6 -30.7" fill="#000000" fill-rule="evenodd" stroke="none"/>
      <path d="M-7.0 92.2 L-7.05 92.2 Q-21.05 101.25 -37.35 102.85 L-42.3 98.9 Q-48.7 93.0 -52.8 85.3 -52.9 83.0 -52.65 80.7 L-51.95 81.6 Q-35.15 105.75 -7.0 92.2 M24.9 -71.4 Q22.65 -71.25 22.3 -73.05 20.0 -84.1 28.4 -76.1 28.95 -72.05 24.9 -71.4 M-82.85 -89.1 Q-83.6 -90.05 -83.4 -91.3 -82.6 -96.85 -76.6 -96.9 -71.8 -96.0 -72.3 -90.95 -72.5 -88.7 -74.6 -87.6 -79.55 -84.9 -82.85 -89.1 M-19.8 -96.15 Q-19.25 -95.85 -19.25 -95.35 -19.25 -94.85 -19.8 -94.5 -20.4 -94.2 -21.2 -94.2 L-22.55 -94.5 Q-23.15 -94.85 -23.15 -95.35 -23.15 -95.85 -22.55 -96.15 L-21.2 -96.5 -19.8 -96.15" fill="#ffffff" fill-rule="evenodd" stroke="none"/>
      <path d="M-57.3 -95.85 L-65.4 -97.3 Q-74.85 -90.1 -74.85 -78.4 L-77.1 -78.65 Q-87.05 -78.65 -86.7 -67.85 -98.35 -94.85 -74.0 -111.2 L-72.25 -110.8 Q-61.2 -107.15 -57.3 -95.85 M44.4 92.5 Q42.4 93.65 40.25 93.25 L44.4 92.5 M24.85 90.8 Q8.95 89.25 -6.7 92.05 L-7.0 92.2 Q-35.15 105.75 -51.95 81.6 L-52.65 80.7 Q-51.75 72.05 -46.15 63.6 L-45.9 65.1 Q-48.3 73.35 -42.25 78.75 -36.15 84.25 -27.5 84.1 L-27.5 84.2 -27.3 84.15 -22.45 83.65 Q3.25 79.0 24.85 90.8 M33.8 -72.9 Q29.05 -69.35 23.15 -71.15 14.05 -73.95 14.4 -83.65 22.55 -87.1 29.15 -84.25 L33.8 -72.9 M24.9 -71.4 Q28.95 -72.05 28.4 -76.1 20.0 -84.1 22.3 -73.05 22.65 -71.25 24.9 -71.4 M47.0 99.8 Q46.25 90.65 57.15 90.85 58.55 90.9 59.15 92.2 L55.95 101.45 47.0 99.8 M-82.85 -89.1 Q-79.55 -84.9 -74.6 -87.6 -72.5 -88.7 -72.3 -90.95 -71.8 -96.0 -76.6 -96.9 -82.6 -96.85 -83.4 -91.3 -83.6 -90.05 -82.85 -89.1 M-33.5 -17.2 Q-30.75 -36.3 -42.75 -51.25 L-45.2 -54.2 -40.7 -57.05 Q-31.4 -45.5 -29.6 -30.7 L-29.8 -28.0 Q-30.35 -22.1 -33.5 -17.2" fill="#957fbc" fill-rule="evenodd" stroke="none"/>
      <path d="M-74.85 -78.4 Q-63.75 -75.75 -55.8 -67.7 -49.3 -66.15 -43.45 -69.5 -32.0 -76.1 -25.65 -67.0 L-27.75 -63.5 -30.05 -62.75 -28.65 -65.6 Q-40.8 -66.4 -51.7 -60.0 -72.95 -47.45 -86.7 -67.85 -87.05 -78.65 -77.1 -78.65 L-74.85 -78.4 M-36.2 -60.35 L-35.6 -60.6 -37.5 -59.65 -36.2 -60.35 M-37.35 102.85 Q-25.35 108.85 -13.0 101.8 18.65 83.6 39.45 112.1 7.95 87.95 -26.85 109.45 -31.2 112.2 -36.15 110.4 -52.65 104.45 -52.8 85.3 -48.7 93.0 -42.3 98.9 L-37.35 102.85 M69.7 123.2 Q76.55 120.2 82.0 114.9 77.2 94.75 64.5 78.15 23.65 24.9 22.3 -40.65 L21.35 -41.35 Q20.7 -41.9 20.7 -42.85 L31.95 -42.9 Q31.05 -35.25 31.2 -27.5 32.35 37.75 80.4 83.6 88.25 91.1 90.45 101.35 96.0 126.85 69.7 123.2 M21.3 -43.65 Q31.7 -56.7 33.8 -71.75 L33.8 -72.9 29.15 -84.25 Q51.95 -67.45 31.0 -48.35 26.85 -44.65 21.3 -43.65 M59.65 83.0 Q75.95 95.35 62.15 108.55 59.95 110.6 56.55 110.75 49.5 111.3 44.1 106.95 49.65 107.7 54.6 105.4 71.75 97.25 59.65 83.0" fill="#764895" fill-rule="evenodd" stroke="none"/>
      <path d="M5.65 67.95 L8.3 74.15 Q4.6 73.7 1.55 74.9 -18.25 82.9 -39.05 80.05 -43.6 68.3 -41.85 55.65 L-37.25 71.3 Q-31.2 68.2 -32.95 61.4 -37.1 45.15 -53.05 44.05 -63.4 43.4 -74.0 43.7 -102.55 44.75 -94.75 17.3 -96.75 34.6 -78.05 35.35 -56.1 35.95 -38.4 46.7 -34.85 48.95 -33.1 52.7 -23.95 72.6 -3.5 67.35 -8.7 33.85 -31.2 11.65 -32.95 9.95 -35.6 9.4 -54.3 5.6 -69.55 17.3 -56.65 2.3 -37.55 5.3 -25.8 7.05 -18.15 16.25 -1.05 36.7 4.05 63.95 L4.2 67.6 5.65 67.95 M-86.35 4.45 Q-70.8 -10.05 -51.2 -2.15 L-53.0 -1.7 Q-59.7 -0.1 -65.4 4.25 L-66.9 3.95 Q-76.6 2.1 -86.35 4.45" fill="#d80000" fill-rule="evenodd" stroke="none"/>
      <path d="M5.65 67.95 L4.2 67.6 4.05 63.95 5.65 67.95 M-69.55 17.3 Q-54.3 5.6 -35.6 9.4 -32.95 9.95 -31.2 11.65 -8.7 33.85 -3.5 67.35 -23.95 72.6 -33.1 52.7 -34.85 48.95 -38.4 46.7 -56.1 35.95 -78.05 35.35 -96.75 34.6 -94.75 17.3 -92.3 10.15 -86.35 4.45 -76.6 2.1 -66.9 3.95 L-65.4 4.25 -66.55 5.25 Q-74.05 11.9 -74.3 21.85 L-69.55 17.3 M-56.5 12.7 L-57.6 13.8 -57.6 17.05 Q-49.85 20.3 -49.65 12.75 -49.65 11.8 -51.0 11.5 L-56.5 12.7 M-85.3 15.1 L-88.4 15.1 Q-94.45 22.75 -87.75 29.2 -86.95 30.0 -85.85 30.1 -79.95 23.0 -85.3 15.1" fill="#ff0000" fill-rule="evenodd" stroke="none"/>
      <path d="M-54.95 -104.5 L-50.95 -103.35 -50.9 -103.15 Q-43.5 -94.0 -39.25 -104.45 L-27.1 -113.65 -26.3 -111.4 -39.1 -93.8 -43.9 -94.6 Q-52.45 -96.3 -54.95 -104.5 M-30.15 -81.25 Q-33.2 -86.8 -31.7 -89.8 -27.15 -80.15 -18.8 -79.4 -10.45 -78.65 -7.55 -86.65 -4.7 -94.7 -9.7 -104.5 -0.05 -98.5 -3.1 -89.3 -10.5 -66.95 -30.15 -81.25" fill="#baba00" fill-rule="evenodd" stroke="none"/>
      <path d="M-54.95 -104.5 Q-56.95 -111.25 -52.55 -116.1 -37.25 -133.15 -27.1 -113.65 L-39.25 -104.45 -39.65 -105.55 Q-47.45 -116.3 -50.95 -103.35 L-54.95 -104.5 M-30.15 -81.25 Q-37.3 -88.75 -29.1 -100.55 -20.65 -112.7 -9.7 -104.5 -4.7 -94.7 -7.55 -86.65 -10.45 -78.65 -18.8 -79.4 -27.15 -80.15 -31.7 -89.8 -33.2 -86.8 -30.15 -81.25 M-17.3 -90.8 Q-15.65 -92.5 -15.65 -94.85 -15.65 -97.2 -17.3 -98.85 -19.0 -100.55 -21.35 -100.55 -23.7 -100.55 -25.35 -98.85 -27.05 -97.2 -27.05 -94.85 -27.05 -92.5 -25.35 -90.8 -23.7 -89.15 -21.35 -89.15 -19.0 -89.15 -17.3 -90.8" fill="#ffff03" fill-rule="evenodd" stroke="none"/>
      <path d="M-56.5 12.7 L-51.0 11.5 Q-49.65 11.8 -49.65 12.75 -49.85 20.3 -57.6 17.05 L-57.6 13.8 -56.5 12.7 M-85.3 15.1 Q-79.95 23.0 -85.85 30.1 -86.95 30.0 -87.75 29.2 -94.45 22.75 -88.4 15.1 L-85.3 15.1" fill="#f6ad91" fill-rule="evenodd" stroke="none"/>
    </g>
  </defs>
</svg>
