<?xml version="1.0" encoding="UTF-8" standalone="no"?>
<svg xmlns:xlink="http://www.w3.org/1999/xlink" height="257.2px" width="247.0px" xmlns="http://www.w3.org/2000/svg">
  <g transform="matrix(1.0, 0.0, 0.0, 1.0, 122.7, 128.25)">
    <use height="257.2" transform="matrix(1.0, 0.0, 0.0, 1.0, -122.7, -128.25)" width="247.0" xlink:href="#shape0"/>
  </g>
  <defs>
    <g id="shape0" transform="matrix(1.0, 0.0, 0.0, 1.0, 122.7, 128.25)">
      <path d="M81.2 -123.3 Q82.6 -121.85 83.6 -119.75 86.65 -113.3 83.6 -107.85 83.3 -121.45 70.3 -115.1 65.1 -112.6 67.35 -106.9 69.75 -100.85 76.7 -101.1 L47.05 -88.15 Q48.3 -89.15 49.7 -90.05 L46.65 -93.1 Q28.1 -87.5 33.7 -65.55 27.85 -58.95 15.5 -63.85 L16.35 -65.8 9.65 -71.6 9.4 -72.9 9.65 -73.25 Q36.4 -111.6 81.2 -123.3 M-111.2 113.95 Q-117.95 108.6 -112.85 96.3 -103.45 73.5 -83.25 59.15 L-74.35 65.6 -74.2 65.7 -79.6 70.45 Q-95.95 83.4 -99.6 102.95 -102.15 104.6 -104.5 106.65 -108.35 109.9 -111.2 113.95 M-86.45 34.45 L-86.55 33.45 Q-86.0 4.65 -56.75 -0.3 L-57.15 0.6 Q-60.65 6.45 -66.8 10.0 -72.1 5.35 -75.45 12.35 L-75.55 12.7 Q-73.8 17.2 -70.95 15.15 -78.1 29.65 -75.4 45.75 L-75.9 45.3 -86.45 34.45 M-55.2 -2.1 Q-60.1 -3.7 -65.2 -2.5 L-67.15 -2.25 Q-77.7 -46.75 -39.8 -72.0 -29.8 -78.65 -17.7 -77.0 -10.9 -76.2 -4.4 -73.9 L-5.1 -73.65 Q-13.45 -72.8 -20.35 -68.1 L-21.2 -67.55 Q-57.75 -44.3 -54.95 -2.0 L-55.2 -2.1 M21.45 -36.75 L22.45 -37.8 Q34.55 -48.5 43.05 -62.15 L35.25 -43.05 22.8 -35.55 21.45 -36.75 M45.05 -65.85 L45.85 -67.75 Q47.45 -71.95 50.6 -74.95 L48.75 -66.1 46.15 -66.7 45.05 -65.85 M38.7 -79.0 L38.0 -75.65 Q36.8 -69.25 33.9 -65.8 35.0 -73.15 38.7 -79.0 M57.9 39.15 L55.9 36.15 58.6 38.75 57.9 39.15 M55.9 36.1 L55.6 35.0 Q54.45 26.65 62.9 24.85 L62.85 26.95 Q68.05 28.95 71.3 31.4 L72.1 33.7 Q73.65 38.45 72.85 43.25 69.45 43.9 67.6 46.2 L65.95 44.45 Q65.95 41.0 63.0 38.55 60.05 36.1 55.9 36.1 M6.6 79.85 Q35.2 65.55 58.45 43.65 L61.5 47.7 63.05 47.45 62.35 47.9 Q33.95 68.9 3.95 87.8 L11.95 82.2 9.4 79.1 6.6 79.85 M4.7 80.85 Q1.5 83.75 3.8 87.65 L3.95 87.8 -11.15 97.1 Q-25.8 94.95 -35.15 83.4 L-36.15 82.15 -37.4 77.6 Q-40.75 65.95 -38.4 53.9 -33.7 58.75 -29.75 64.75 L-29.5 65.1 Q-30.45 80.75 -18.5 90.8 -6.55 86.4 4.7 80.85" fill="#f448a2" fill-rule="evenodd" stroke="none"/>
      <path d="M83.6 -107.85 Q86.65 -113.3 83.6 -119.75 82.6 -121.85 81.2 -123.3 L83.65 -122.9 Q89.6 -121.4 94.25 -118.7 114.85 -59.6 97.7 2.0 92.3 21.45 81.15 37.9 80.85 33.8 79.4 29.05 72.45 22.7 62.9 23.85 L62.9 24.85 Q54.45 26.65 55.6 35.0 L55.9 36.1 55.85 36.1 55.9 36.15 57.9 39.15 Q43.95 46.6 28.65 50.15 10.45 54.3 -8.3 53.45 -41.0 51.55 -62.75 27.8 L-51.55 21.8 Q-71.25 14.9 -67.6 40.25 L-65.55 39.4 -65.75 37.0 Q-49.8 42.2 -38.4 53.9 -40.75 65.95 -37.4 77.6 L-36.15 82.15 Q-42.45 74.7 -49.55 69.35 L-50.65 65.25 Q-44.95 105.4 -3.25 104.65 28.05 104.05 43.95 75.25 L43.4 72.45 36.1 75.35 35.1 75.4 Q30.3 75.9 27.3 79.3 11.65 97.0 -11.15 97.1 L3.95 87.8 Q33.95 68.9 62.35 47.9 L63.05 47.45 Q65.25 46.75 65.95 44.45 L67.6 46.2 Q64.8 49.6 65.5 56.55 L66.0 57.05 65.3 57.6 Q64.35 58.4 64.95 59.4 71.6 57.45 75.55 53.85 73.4 67.5 79.95 79.75 78.0 94.95 65.0 102.4 60.4 105.0 55.55 103.85 32.8 98.05 22.65 116.1 4.15 113.1 -16.05 112.7 -50.6 79.0 -96.3 101.1 L-99.6 102.95 Q-95.95 83.4 -79.6 70.45 L-74.2 65.7 -71.2 68.7 -69.25 68.3 Q-64.0 57.95 -72.9 48.45 L-75.9 45.3 -75.4 45.75 Q-78.1 29.65 -70.95 15.15 L-66.8 10.0 Q-60.65 6.45 -57.15 0.6 L-56.75 -0.3 -52.7 -0.5 Q-53.9 -1.5 -55.2 -2.1 L-54.95 -2.0 Q-57.75 -44.3 -21.2 -67.55 L-19.2 -66.2 Q-4.7 -64.3 4.5 -52.35 1.6 -68.05 -16.6 -69.95 L-20.35 -68.1 Q-13.45 -72.8 -5.1 -73.65 L-4.4 -73.9 Q5.95 -70.2 15.45 -63.8 L15.5 -63.85 Q27.85 -58.95 33.7 -65.55 L33.8 -65.2 33.9 -65.8 Q36.8 -69.25 38.0 -75.65 L38.7 -79.0 Q41.85 -84.15 47.0 -88.1 L47.05 -88.15 76.7 -101.1 83.6 -107.85 M9.4 -72.9 L9.65 -71.6 8.9 -72.25 9.4 -72.9 M-105.3 116.7 L-105.35 116.7 -105.25 116.4 -105.3 116.7 M91.35 -18.8 Q92.4 -22.9 92.1 -27.2 89.65 -63.6 54.25 -73.65 L51.15 -82.2 50.6 -74.95 Q47.45 -71.95 45.85 -67.75 L45.05 -65.85 43.05 -62.15 Q34.55 -48.5 22.45 -37.8 L21.45 -36.75 Q15.3 -42.15 8.5 -46.8 -0.6 -53.1 -11.5 -52.65 -18.05 -54.8 -25.35 -55.55 L-22.55 -53.0 Q-36.6 -38.35 -31.1 -19.3 -28.7 -10.95 -24.25 -5.35 L-29.45 -1.95 Q-23.4 12.75 -7.45 12.15 -7.45 12.85 -6.7 13.35 -6.0 13.8 -4.95 13.8 -9.35 15.8 -10.55 20.5 L-10.65 21.1 Q15.7 26.05 29.9 1.55 L30.05 2.05 29.95 1.6 Q61.8 17.45 84.85 -5.85 90.15 -11.2 91.35 -18.8 M92.45 -0.5 L92.35 -0.85 80.85 6.95 Q88.65 8.7 92.45 -0.5 M-40.0 5.75 Q-39.05 7.1 -37.6 6.85 -35.35 3.75 -39.1 2.8 L-40.7 3.1 -41.45 4.8 -40.0 5.75 M-29.4 10.25 Q-27.7 10.25 -26.5 9.25 -25.3 8.25 -25.3 6.85 -25.3 5.45 -26.5 4.45 -27.7 3.45 -29.4 3.45 -31.1 3.45 -32.3 4.45 -33.5 5.45 -33.5 6.85 -33.5 8.25 -32.3 9.25 -31.1 10.25 -29.4 10.25" fill="#f0027f" fill-rule="evenodd" stroke="none"/>
      <path d="M81.2 -123.3 Q36.4 -111.6 9.65 -73.25 L9.4 -72.9 8.9 -72.25 9.65 -71.6 16.35 -65.8 15.5 -63.85 15.45 -63.8 Q5.95 -70.2 -4.4 -73.9 -10.9 -76.2 -17.7 -77.0 -29.8 -78.65 -39.8 -72.0 -77.7 -46.75 -67.15 -2.25 L-65.2 -2.5 Q-60.1 -3.7 -55.2 -2.1 -53.9 -1.5 -52.7 -0.5 L-56.75 -0.3 Q-86.0 4.65 -86.55 33.45 L-86.45 34.45 Q-82.8 52.0 -70.65 65.2 L-73.0 66.55 -74.35 65.6 -83.25 59.15 Q-103.45 73.5 -112.85 96.3 -117.95 108.6 -111.2 113.95 -108.95 115.7 -105.35 116.7 L-105.3 116.7 -16.05 112.7 Q4.15 113.1 22.65 116.1 56.0 127.6 85.75 113.55 91.5 110.85 92.2 104.4 95.1 78.5 80.7 56.7 L81.05 54.0 85.5 57.15 Q130.8 -15.1 108.5 -99.0 105.1 -111.8 94.25 -118.7 89.6 -121.4 83.65 -122.9 L81.2 -123.3 M33.7 -65.55 Q28.1 -87.5 46.65 -93.1 L49.7 -90.05 Q48.3 -89.15 47.05 -88.15 L47.0 -88.1 Q41.85 -84.15 38.7 -79.0 35.0 -73.15 33.9 -65.8 L33.8 -65.2 33.7 -65.55 M50.6 -74.95 L51.15 -82.2 54.25 -73.65 Q89.65 -63.6 92.1 -27.2 92.4 -22.9 91.35 -18.8 77.6 12.5 43.55 1.45 37.45 -0.5 32.6 -4.75 L33.45 0.95 28.3 -4.95 29.95 1.6 30.05 2.05 29.9 1.55 22.6 -18.15 19.8 -17.45 Q19.8 -6.4 14.1 2.95 8.15 12.65 -2.45 16.7 L-1.2 15.85 Q5.75 10.9 8.6 2.8 L-4.95 13.8 Q-6.0 13.8 -6.7 13.35 -7.45 12.85 -7.45 12.15 L-1.95 5.95 Q-16.35 4.7 -24.25 -5.35 -28.7 -10.95 -31.1 -19.3 -36.6 -38.35 -22.55 -53.0 L-25.35 -55.55 Q-18.05 -54.8 -11.5 -52.65 4.25 -47.45 15.9 -34.0 L20.45 -28.45 Q31.25 -35.3 38.4 -45.0 L48.75 -66.1 50.6 -74.95 M31.4 -24.8 L25.4 -20.15 Q48.0 9.2 78.15 -11.55 81.9 -14.15 83.15 -18.8 93.05 -56.3 54.4 -69.4 L54.3 -66.8 Q53.95 -63.15 53.0 -59.7 47.3 -38.55 31.4 -24.8 M80.05 -40.4 Q80.45 -39.7 80.3 -38.75 80.1 -37.25 78.55 -35.05 64.75 -15.6 67.7 -39.1 71.0 -42.25 75.6 -42.15 79.1 -41.9 80.05 -40.4 M-19.7 -50.35 Q-31.65 -36.95 -26.55 -21.95 -16.15 5.1 6.3 -12.2 13.2 -17.55 16.9 -25.35 3.4 -43.85 -18.4 -51.8 L-19.7 -50.35 M6.45 -23.55 Q-6.1 -14.45 2.25 -30.95 L5.3 -31.65 7.25 -30.55 Q11.05 -27.55 7.75 -24.7 L6.45 -23.55 M71.65 -33.35 L74.4 -37.4 Q68.3 -35.75 71.65 -33.35 M92.45 -0.5 Q88.65 8.7 80.85 6.95 L92.35 -0.85 92.45 -0.5 M124.25 -32.95 Q123.45 20.65 88.0 60.8 110.8 94.1 87.0 124.0 85.35 126.05 81.9 126.35 27.5 133.45 -26.15 121.1 L-40.65 120.6 Q-72.9 126.3 -104.55 123.95 -113.55 123.15 -118.4 115.75 -126.35 103.85 -119.6 90.2 -108.4 67.65 -86.05 56.05 -107.6 24.2 -76.0 1.6 -73.05 -0.5 -69.5 -1.7 -84.75 -49.3 -43.2 -76.95 -19.85 -92.5 3.25 -76.3 30.9 -108.05 68.25 -127.6 96.95 -132.05 111.55 -105.8 121.1 -88.55 122.9 -68.55 124.5 -50.85 124.25 -32.95 M81.15 37.9 Q81.9 48.0 75.55 53.85 71.6 57.45 64.95 59.4 64.35 58.4 65.3 57.6 L66.0 57.05 Q74.9 49.25 76.4 42.95 L76.4 42.75 Q77.5 35.55 71.3 31.4 68.05 28.95 62.85 26.95 L62.9 24.85 62.9 23.85 Q72.45 22.7 79.4 29.05 80.85 33.8 81.15 37.9 M57.9 39.15 L58.6 38.75 55.9 36.15 55.85 36.1 55.9 36.1 Q60.05 36.1 63.0 38.55 65.95 41.0 65.95 44.45 65.25 46.75 63.05 47.45 L61.5 47.7 58.45 43.65 Q35.2 65.55 6.6 79.85 L4.7 80.85 Q-6.55 86.4 -18.5 90.8 -30.45 80.75 -29.5 65.1 L-29.75 64.75 Q-33.7 58.75 -38.4 53.9 -49.8 42.2 -65.75 37.0 L-65.55 39.4 -67.6 40.25 Q-71.25 14.9 -51.55 21.8 L-62.75 27.8 Q-41.0 51.55 -8.3 53.45 10.45 54.3 28.65 50.15 43.95 46.6 57.9 39.15 M36.1 75.35 L43.4 72.45 43.95 75.25 Q28.05 104.05 -3.25 104.65 -44.95 105.4 -50.65 65.25 L-49.55 69.35 Q-44.75 85.15 -31.0 95.2 -12.1 109.05 9.7 100.1 27.25 93.05 35.15 75.7 L36.1 75.35 M-21.2 -67.55 L-20.35 -68.1 -16.6 -69.95 Q1.6 -68.05 4.5 -52.35 -4.7 -64.3 -19.2 -66.2 L-21.2 -67.55 M-29.4 10.25 Q-31.1 10.25 -32.3 9.25 -33.5 8.25 -33.5 6.85 -33.5 5.45 -32.3 4.45 -31.1 3.45 -29.4 3.45 -27.7 3.45 -26.5 4.45 -25.3 5.45 -25.3 6.85 -25.3 8.25 -26.5 9.25 -27.7 10.25 -29.4 10.25 M-40.0 5.75 L-41.45 4.8 -40.7 3.1 -39.1 2.8 Q-35.35 3.75 -37.6 6.85 -39.05 7.1 -40.0 5.75" fill="#000000" fill-rule="evenodd" stroke="none"/>
      <path d="M76.7 -101.1 Q69.75 -100.85 67.35 -106.9 65.1 -112.6 70.3 -115.1 83.3 -121.45 83.6 -107.85 L76.7 -101.1 M43.05 -62.15 L45.05 -65.85 46.15 -66.7 48.75 -66.1 38.4 -45.0 35.25 -43.05 43.05 -62.15 M71.65 -33.35 Q68.3 -35.75 74.4 -37.4 L71.65 -33.35 M6.6 79.85 L9.4 79.1 11.95 82.2 3.95 87.8 3.8 87.65 Q1.5 83.75 4.7 80.85 L6.6 79.85 M-70.95 15.15 Q-73.8 17.2 -75.55 12.7 L-75.45 12.35 Q-72.1 5.35 -66.8 10.0 L-70.95 15.15" fill="#ffffff" fill-rule="evenodd" stroke="none"/>
      <path d="M54.3 -66.8 L54.4 -69.4 Q93.05 -56.3 83.15 -18.8 81.9 -14.15 78.15 -11.55 48.0 9.2 25.4 -20.15 L31.4 -24.8 32.05 -25.35 Q39.2 -18.0 49.15 -15.5 80.65 -7.65 80.3 -38.75 80.45 -39.7 80.05 -40.4 76.2 -60.15 54.3 -66.8 M7.25 -30.55 L5.2 -32.7 Q-6.3 -42.6 -19.7 -50.35 L-18.4 -51.8 Q3.4 -43.85 16.9 -25.35 13.2 -17.55 6.3 -12.2 -16.15 5.1 -26.55 -21.95 L-24.75 -20.5 Q-4.65 -5.6 6.45 -23.55 L7.75 -24.7 Q11.05 -27.55 7.25 -30.55" fill="#8f8b00" fill-rule="evenodd" stroke="none"/>
      <path d="M31.4 -24.8 Q47.3 -38.55 53.0 -59.7 53.95 -63.15 54.3 -66.8 76.2 -60.15 80.05 -40.4 79.1 -41.9 75.6 -42.15 71.0 -42.25 67.7 -39.1 64.75 -15.6 78.55 -35.05 80.1 -37.25 80.3 -38.75 80.65 -7.65 49.15 -15.5 39.2 -18.0 32.05 -25.35 L31.4 -24.8 M-19.7 -50.35 Q-6.3 -42.6 5.2 -32.7 L7.25 -30.55 5.3 -31.65 2.25 -30.95 Q-6.1 -14.45 6.45 -23.55 -4.65 -5.6 -24.75 -20.5 L-26.55 -21.95 Q-31.65 -36.95 -19.7 -50.35" fill="#ffff2a" fill-rule="evenodd" stroke="none"/>
      <path d="M91.35 -18.8 Q90.15 -11.2 84.85 -5.85 61.8 17.45 29.95 1.6 L28.3 -4.95 33.45 0.95 32.6 -4.75 Q37.45 -0.5 43.55 1.45 77.6 12.5 91.35 -18.8 M-7.45 12.15 Q-23.4 12.75 -29.45 -1.95 L-24.25 -5.35 Q-16.35 4.7 -1.95 5.95 L-7.45 12.15 M-11.5 -52.65 Q-0.6 -53.1 8.5 -46.8 15.3 -42.15 21.45 -36.75 L22.8 -35.55 35.25 -43.05 38.4 -45.0 Q31.25 -35.3 20.45 -28.45 L15.9 -34.0 Q4.25 -47.45 -11.5 -52.65 M67.6 46.2 Q69.45 43.9 72.85 43.25 L76.4 42.95 Q74.9 49.25 66.0 57.05 L65.5 56.55 Q64.8 49.6 67.6 46.2 M-11.15 97.1 Q11.65 97.0 27.3 79.3 30.3 75.9 35.1 75.4 L35.15 75.7 Q27.25 93.05 9.7 100.1 -12.1 109.05 -31.0 95.2 -44.75 85.15 -49.55 69.35 -42.45 74.7 -36.15 82.15 L-35.15 83.4 Q-25.8 94.95 -11.15 97.1" fill="#720146" fill-rule="evenodd" stroke="none"/>
      <path d="M94.25 -118.7 Q105.1 -111.8 108.5 -99.0 130.8 -15.1 85.5 57.15 L81.05 54.0 80.7 56.7 Q95.1 78.5 92.2 104.4 91.5 110.85 85.75 113.55 56.0 127.6 22.65 116.1 32.8 98.05 55.55 103.85 60.4 105.0 65.0 102.4 78.0 94.95 79.95 79.75 73.4 67.5 75.55 53.85 81.9 48.0 81.15 37.9 92.3 21.45 97.7 2.0 114.85 -59.6 94.25 -118.7 M-16.05 112.7 L-105.3 116.7 -105.25 116.4 -105.35 116.7 Q-108.95 115.7 -111.2 113.95 -108.35 109.9 -104.5 106.65 -102.15 104.6 -99.6 102.95 L-96.3 101.1 Q-50.6 79.0 -16.05 112.7 M-74.35 65.6 L-73.0 66.55 -70.65 65.2 Q-82.8 52.0 -86.45 34.45 L-75.9 45.3 -72.9 48.45 Q-64.0 57.95 -69.25 68.3 L-71.2 68.7 -74.2 65.7 -74.35 65.6 M29.9 1.55 Q15.7 26.05 -10.65 21.1 L-10.55 20.5 Q-9.35 15.8 -4.95 13.8 L8.6 2.8 Q5.75 10.9 -1.2 15.85 L-2.45 16.7 Q8.15 12.65 14.1 2.95 19.8 -6.4 19.8 -17.45 L22.6 -18.15 29.9 1.55 M72.85 43.25 Q73.65 38.45 72.1 33.7 L71.3 31.4 Q77.5 35.55 76.4 42.75 L76.4 42.95 72.85 43.25 M35.1 75.4 L36.1 75.35 35.15 75.7 35.1 75.4" fill="#a90159" fill-rule="evenodd" stroke="none"/>
    </g>
  </defs>
</svg>
