<?xml version="1.0" encoding="UTF-8" standalone="no"?>
<svg xmlns:xlink="http://www.w3.org/1999/xlink" height="207.25px" width="204.95px" xmlns="http://www.w3.org/2000/svg">
  <g transform="matrix(1.0, 0.0, 0.0, 1.0, 103.1, 103.65)">
    <use height="207.25" transform="matrix(1.0, 0.0, 0.0, 1.0, -103.1, -103.65)" width="204.95" xlink:href="#shape0"/>
  </g>
  <defs>
    <g id="shape0" transform="matrix(1.0, 0.0, 0.0, 1.0, 103.1, 103.65)">
      <path d="M9.5 -101.1 Q34.95 -110.3 47.05 -86.0 52.05 -84.6 56.45 -81.95 77.1 -69.15 69.0 -45.6 85.2 -43.9 89.85 -29.15 94.15 -15.45 85.3 -4.8 L86.6 -2.15 Q96.05 17.0 88.95 37.1 110.15 57.65 96.5 82.75 94.55 86.35 91.4 88.55 58.3 112.2 20.65 92.2 17.25 90.4 13.5 90.25 -28.65 87.0 -68.75 102.65 -73.7 104.55 -78.45 102.6 -109.15 90.05 -101.65 55.75 -100.1 48.7 -99.2 41.6 -96.1 17.05 -97.4 -9.15 -98.7 -34.85 -75.0 -39.35 -78.7 -48.65 -77.55 -58.4 -74.15 -87.6 -44.65 -96.4 -16.5 -104.65 -9.4 -78.1 L6.05 -80.35 Q8.0 -83.35 8.35 -86.95 9.05 -93.65 6.8 -100.05 L9.5 -101.1 M34.2 -73.0 L43.9 -70.0 43.4 -68.55 38.85 -68.9 Q44.25 -62.85 47.6 -55.55 52.1 -45.95 45.95 -38.0 L49.45 -37.55 Q42.85 -32.25 33.0 -31.9 10.4 -30.2 -0.4 -49.95 L-3.45 -50.8 -14.15 -47.2 Q-18.4 -33.3 -31.2 -27.7 L-32.8 -27.2 Q-10.3 -8.8 14.7 -22.35 23.2 -27.0 32.7 -24.5 L28.35 -22.6 33.45 -21.35 Q51.65 -17.45 66.25 -27.85 L65.1 -28.9 65.25 -30.25 65.35 -31.8 74.55 -30.0 78.55 -25.4 76.15 -22.45 73.65 -25.35 73.45 -25.55 73.5 -25.35 Q77.2 -11.65 77.9 2.55 79.25 30.05 54.3 29.3 37.1 29.45 20.85 23.7 11.4 20.4 1.5 19.15 -30.05 15.6 -59.9 25.65 -69.8 31.15 -77.3 22.6 -78.2 21.5 -78.15 20.35 -77.65 0.1 -78.45 -20.45 L-80.35 -21.65 -82.0 -19.3 -81.5 -18.35 -83.0 -16.7 -83.65 -17.0 Q-85.75 -18.4 -85.0 -20.9 L-84.95 -21.15 Q-82.15 -29.55 -77.4 -28.15 L-72.8 -25.0 -74.85 -22.6 Q-58.05 -14.9 -40.4 -20.45 -37.9 -21.25 -35.45 -22.2 L-38.95 -26.5 Q-56.7 -25.25 -62.05 -40.85 -68.0 -58.35 -53.25 -70.3 L-57.6 -72.8 -44.0 -69.05 Q-32.0 -64.95 -21.15 -59.0 L-17.65 -57.05 -13.65 -54.6 -11.45 -56.4 -6.5 -53.3 -4.85 -53.75 -2.45 -54.45 Q9.55 -76.1 34.2 -73.0 M-15.35 -38.2 Q-10.7 -40.3 -6.5 -40.0 -1.1 -39.65 3.5 -35.35 L-8.25 -37.4 Q-11.75 -34.05 -14.85 -37.2 L-15.4 -38.0 -15.5 -38.15 -15.35 -38.2 M27.4 -77.15 L26.7 -77.0 3.9 -73.55 3.3 -73.0 Q-14.9 -71.75 -33.05 -76.0 -45.45 -78.8 -58.1 -77.3 -79.75 -74.25 -72.95 -57.6 -68.75 -47.4 -72.6 -37.05 L-71.1 -32.6 Q-83.9 -38.1 -89.9 -25.3 -92.1 -20.55 -89.65 -15.85 -88.0 -13.5 -84.95 -11.45 L-85.5 -9.7 -89.4 -10.5 Q-87.55 -1.2 -91.2 7.5 -95.3 17.3 -91.9 27.45 -78.9 48.0 -53.95 37.25 -49.2 35.15 -44.05 36.35 L-37.35 40.4 -79.4 43.3 Q-86.3 43.15 -91.55 38.05 L-91.85 41.3 Q-100.95 64.4 -94.35 87.55 -93.25 91.45 -89.55 93.5 -71.85 99.4 -53.85 93.5 -29.65 85.55 -7.85 72.05 -5.1 70.9 -2.55 71.25 12.2 73.8 24.95 83.45 49.1 95.5 75.4 89.75 86.4 87.4 91.4 77.4 100.75 58.9 86.55 42.25 L85.0 40.05 Q65.55 46.8 49.0 33.95 49.8 32.65 51.0 33.3 62.0 39.15 74.1 38.35 L77.05 38.1 78.35 36.85 Q95.7 18.1 81.7 -4.45 L79.35 -3.35 78.3 -3.7 Q77.7 -4.7 77.75 -5.5 95.25 -19.4 82.2 -35.15 79.3 -38.6 74.8 -39.5 69.3 -40.7 63.65 -40.5 L62.1 -43.55 66.2 -45.5 Q71.85 -70.05 47.7 -80.05 L27.4 -77.15 M16.25 -38.0 Q39.25 -30.15 43.85 -50.5 44.6 -53.75 43.1 -56.95 39.4 -65.0 31.6 -68.9 8.7 -69.55 3.15 -49.9 4.15 -46.0 8.75 -42.35 12.3 -39.55 16.25 -38.0 M18.25 -45.85 L14.6 -43.45 Q8.7 -43.15 8.4 -49.0 8.25 -52.6 11.65 -53.3 21.0 -54.85 18.25 -45.85 M33.2 -84.55 L41.6 -85.85 Q40.4 -89.0 38.1 -91.6 34.65 -95.4 29.7 -97.4 21.1 -101.15 11.85 -97.6 L12.85 -95.65 Q16.45 -88.45 12.55 -81.35 L33.2 -84.55 M12.05 -50.3 Q11.45 -49.85 11.45 -49.2 11.45 -48.55 12.05 -48.05 12.65 -47.6 13.5 -47.6 14.35 -47.6 14.95 -48.05 15.55 -48.55 15.55 -49.2 15.55 -49.85 14.95 -50.3 14.35 -50.8 13.5 -50.8 12.65 -50.8 12.05 -50.3 M25.8 -13.25 L25.3 -18.95 20.8 -19.95 9.9 -15.1 13.85 -9.0 Q17.0 -1.2 17.05 6.3 20.65 5.4 22.45 1.75 25.9 -5.35 25.8 -13.25 M51.2 -10.35 L50.55 -17.05 Q45.4 -15.75 40.25 -16.35 37.15 -16.65 34.25 -17.7 L37.65 -10.85 Q40.45 1.55 41.15 14.3 L42.8 12.65 Q51.6 2.85 51.2 -10.35 M53.65 -41.85 Q51.85 -39.5 49.7 -37.75 L53.9 -44.2 Q54.45 -42.85 53.65 -41.85 M68.6 -15.75 Q69.0 -19.9 68.8 -24.2 L53.35 -17.1 Q56.15 -14.4 57.95 -10.85 L62.8 1.55 63.75 0.35 Q68.45 -6.85 68.6 -15.75 M-14.95 39.45 L-14.3 37.85 Q0.25 34.3 12.75 42.5 L11.8 44.9 11.15 46.55 9.6 45.8 9.3 45.65 -4.45 41.9 Q-9.8 41.3 -15.45 41.9 L-14.95 39.45 M-23.85 -79.8 L-14.85 -79.45 Q-15.15 -83.1 -16.5 -86.4 -18.4 -91.3 -22.85 -94.35 L-31.05 -94.25 Q-42.8 -92.7 -51.25 -82.9 L-23.85 -79.8 M-30.6 -40.85 Q-37.5 -44.8 -31.1 -50.45 L-30.3 -50.8 Q-27.55 -50.8 -25.65 -49.25 -23.8 -47.75 -23.85 -45.7 -23.95 -43.65 -25.9 -42.2 -27.9 -40.8 -30.6 -40.85 M-50.45 -65.9 Q-53.3 -63.7 -55.45 -60.75 -64.5 -48.15 -54.85 -37.2 -40.85 -31.45 -27.05 -34.4 L-19.3 -50.55 -30.55 -59.5 Q-39.75 -66.7 -50.45 -65.9 M-54.65 -4.55 L-51.25 -12.5 -66.15 -14.35 -64.8 -8.5 Q-63.0 -3.0 -59.45 1.7 L-58.1 3.45 -54.65 -4.55 M-26.55 -13.25 L-25.3 -16.0 -29.5 -18.05 -43.9 -13.2 -40.95 -7.65 -30.6 7.4 Q-31.25 3.8 -30.7 0.25 -29.55 -6.75 -26.55 -13.25 M-28.55 -47.1 L-29.85 -47.15 Q-30.85 -46.9 -31.0 -45.75 L-31.0 -45.65 Q-30.45 -44.95 -29.5 -44.85 -28.05 -45.45 -28.4 -46.8 L-28.55 -47.1 M-17.85 -8.4 L-8.25 7.45 -6.5 6.25 Q0.25 0.4 0.05 -8.25 L-0.3 -11.6 Q-11.4 -9.9 -21.55 -14.45 L-17.85 -8.4" fill="#000000" fill-rule="evenodd" stroke="none"/>
      <path d="M-14.15 -47.2 L-3.45 -50.8 -0.4 -49.95 Q10.4 -30.2 33.0 -31.9 42.85 -32.25 49.45 -37.55 L45.95 -38.0 Q52.1 -45.95 47.6 -55.55 44.25 -62.85 38.85 -68.9 L43.4 -68.55 43.9 -70.0 34.2 -73.0 26.7 -77.0 27.4 -77.15 Q38.7 -77.5 48.3 -72.6 58.3 -67.65 56.85 -56.15 55.85 -48.0 55.15 -40.25 58.0 -38.2 61.35 -37.25 L64.15 -36.8 65.25 -30.25 65.1 -28.9 66.25 -27.85 Q51.65 -17.45 33.45 -21.35 L35.8 -21.25 36.8 -22.8 Q31.6 -31.75 21.2 -28.65 9.0 -25.0 -3.5 -25.15 4.3 -31.25 -6.2 -31.95 -10.55 -32.55 -13.55 -29.25 -13.25 -27.25 -11.45 -26.25 L-18.95 -29.8 -15.4 -38.0 -14.85 -37.2 Q-11.75 -34.05 -8.25 -37.4 L3.5 -35.35 Q-1.1 -39.65 -6.5 -40.0 -10.7 -40.3 -15.35 -38.2 -14.15 -42.6 -14.15 -47.2 M-4.85 -53.75 L-6.5 -53.3 -11.45 -56.4 -13.65 -54.6 -17.65 -57.05 Q-23.6 -65.6 -33.05 -70.0 -42.2 -74.35 -50.75 -73.6 L-44.0 -69.05 -57.6 -72.8 -53.25 -70.3 Q-68.0 -58.35 -62.05 -40.85 -56.7 -25.25 -38.95 -26.5 L-35.45 -22.2 Q-37.9 -21.25 -40.4 -20.45 -58.05 -14.9 -74.85 -22.6 L-72.8 -25.0 -77.4 -28.15 Q-65.2 -30.45 -64.95 -43.1 -64.85 -48.15 -68.45 -51.85 L-68.6 -54.75 Q-58.6 -63.85 -58.1 -77.3 -45.45 -78.8 -33.05 -76.0 -14.9 -71.75 3.3 -73.0 L1.7 -71.5 Q-5.95 -64.25 -4.85 -53.75 M-85.0 -20.9 Q-85.75 -18.4 -83.65 -17.0 L-83.0 -16.7 -81.5 -18.35 -82.0 -19.3 -80.35 -21.65 -78.45 -20.45 Q-77.65 0.1 -78.15 20.35 -78.2 21.5 -77.3 22.6 -69.8 31.15 -59.9 25.65 -41.8 28.35 -23.8 25.5 8.55 20.65 39.5 30.55 47.2 33.05 54.3 29.3 79.25 30.05 77.9 2.55 77.2 -11.65 73.5 -25.35 L73.65 -25.35 76.15 -22.45 78.55 -25.4 83.0 -26.2 Q83.3 -22.3 80.6 -18.25 76.6 -12.15 77.75 -5.5 77.7 -4.7 78.3 -3.7 L79.35 -3.35 Q86.5 6.85 84.1 17.6 82.1 17.3 80.25 18.15 69.4 23.25 72.95 34.1 L60.3 34.7 60.45 34.9 Q66.85 38.6 74.1 38.35 62.0 39.15 51.0 33.3 49.8 32.65 49.0 33.95 65.55 46.8 85.0 40.05 L86.55 42.25 70.75 45.9 Q68.75 48.85 70.75 51.6 76.45 59.3 73.45 67.95 66.8 87.05 47.7 77.3 31.65 69.2 24.95 83.45 12.2 73.8 -2.55 71.25 -5.1 70.9 -7.85 72.05 -9.05 54.4 -24.4 62.2 -52.0 76.2 -82.3 82.35 -87.65 72.55 -83.45 62.15 -80.95 56.05 -79.95 49.6 -75.85 50.65 -72.05 49.2 -54.9 42.3 -36.6 42.2 L-36.25 41.5 -37.35 40.4 -44.05 36.35 Q-54.65 28.0 -67.75 28.8 -76.4 28.85 -83.1 23.05 L-86.6 15.1 Q-84.85 5.35 -84.1 -4.65 -83.9 -7.45 -85.5 -9.7 L-84.95 -11.45 Q-88.0 -13.5 -89.65 -15.85 -89.5 -19.2 -88.3 -22.05 -86.95 -20.95 -85.0 -20.9 M53.65 -41.85 Q54.45 -42.85 53.9 -44.2 L49.7 -37.75 Q51.85 -39.5 53.65 -41.85 M11.8 44.9 L13.45 42.8 Q9.6 28.65 -5.2 30.35 -16.4 31.9 -14.95 39.45 L-15.45 41.9 Q-9.8 41.3 -4.45 41.9 -9.1 41.5 -11.6 44.75 -10.0 53.15 -1.7 54.2 11.25 55.65 9.3 45.8 L9.6 45.8 11.15 46.55 11.8 44.9" fill="#00a0c6" fill-rule="evenodd" stroke="none"/>
      <path d="M-14.15 -47.2 Q-14.15 -42.6 -15.35 -38.2 L-15.5 -38.15 -15.4 -38.0 -18.95 -29.8 -11.45 -26.25 -3.5 -25.15 Q9.0 -25.0 21.2 -28.65 31.6 -31.75 36.8 -22.8 L35.8 -21.25 33.45 -21.35 28.35 -22.6 32.7 -24.5 Q23.2 -27.0 14.7 -22.35 -10.3 -8.8 -32.8 -27.2 L-31.2 -27.7 Q-18.4 -33.3 -14.15 -47.2 M64.15 -36.8 L61.35 -37.25 Q58.0 -38.2 55.15 -40.25 55.85 -48.0 56.85 -56.15 58.3 -67.65 48.3 -72.6 38.7 -77.5 27.4 -77.15 L47.7 -80.05 Q71.85 -70.05 66.2 -45.5 L62.1 -43.55 63.65 -40.5 Q69.3 -40.7 74.8 -39.5 79.3 -38.6 82.2 -35.15 95.25 -19.4 77.75 -5.5 76.6 -12.15 80.6 -18.25 83.3 -22.3 83.0 -26.2 82.7 -29.5 80.3 -32.75 77.5 -36.55 73.0 -38.15 68.65 -36.4 64.15 -36.8 M-17.65 -57.05 L-21.15 -59.0 Q-32.0 -64.95 -44.0 -69.05 L-50.75 -73.6 Q-42.2 -74.35 -33.05 -70.0 -23.6 -65.6 -17.65 -57.05 M79.35 -3.35 L81.7 -4.45 Q95.7 18.1 78.35 36.85 L77.05 38.1 74.1 38.35 Q66.85 38.6 60.45 34.9 L60.3 34.7 72.95 34.1 Q69.4 23.25 80.25 18.15 82.1 17.3 84.1 17.6 86.5 6.85 79.35 -3.35 M86.55 42.25 Q100.75 58.9 91.4 77.4 86.4 87.4 75.4 89.75 49.1 95.5 24.95 83.45 31.65 69.2 47.7 77.3 66.8 87.05 73.45 67.95 76.45 59.3 70.75 51.6 68.75 48.85 70.75 45.9 L86.55 42.25 M-7.85 72.05 Q-29.65 85.55 -53.85 93.5 -71.85 99.4 -89.55 93.5 -89.85 86.55 -82.4 82.4 L-82.3 82.35 Q-52.0 76.2 -24.4 62.2 -9.05 54.4 -7.85 72.05 M-91.85 41.3 L-91.55 38.05 Q-86.3 43.15 -79.4 43.3 L-37.35 40.4 -36.25 41.5 -36.6 42.2 Q-54.9 42.3 -72.05 49.2 -75.85 50.65 -79.95 49.6 L-81.6 49.05 Q-87.6 46.55 -91.85 41.3 M-44.05 36.35 Q-49.2 35.15 -53.95 37.25 -78.9 48.0 -91.9 27.45 L-89.85 28.4 Q-87.65 36.0 -83.3 29.4 -82.25 27.9 -83.8 26.6 L-85.25 25.6 -85.05 22.8 -83.1 23.05 Q-76.4 28.85 -67.75 28.8 -54.65 28.0 -44.05 36.35 M-4.45 41.9 L9.3 45.65 9.3 45.8 Q11.25 55.65 -1.7 54.2 -10.0 53.15 -11.6 44.75 -9.1 41.5 -4.45 41.9" fill="#00708b" fill-rule="evenodd" stroke="none"/>
      <path d="M3.15 -49.9 Q8.7 -69.55 31.6 -68.9 39.4 -65.0 43.1 -56.95 44.6 -53.75 43.85 -50.5 39.25 -30.15 16.25 -38.0 13.45 -41.25 14.6 -43.45 L18.25 -45.85 Q28.5 -43.5 38.35 -44.25 39.7 -44.15 40.0 -45.55 42.3 -55.7 34.95 -63.0 15.45 -64.6 3.15 -49.9 M-30.6 -40.85 Q-27.9 -40.8 -25.9 -42.2 -23.95 -43.65 -23.85 -45.7 -23.8 -47.75 -25.65 -49.25 -27.55 -50.8 -30.3 -50.8 -37.05 -59.65 -50.45 -65.9 -39.75 -66.7 -30.55 -59.5 L-19.3 -50.55 -27.05 -34.4 Q-40.85 -31.45 -54.85 -37.2 L-55.7 -41.7 Q-43.4 -37.65 -30.6 -40.85" fill="#d2d2b7" fill-rule="evenodd" stroke="none"/>
      <path d="M29.7 -97.4 L23.75 -97.8 Q31.95 -90.75 33.2 -84.55 L12.55 -81.35 Q16.45 -88.45 12.85 -95.65 L11.85 -97.6 Q21.1 -101.15 29.7 -97.4 M20.6 -89.8 Q21.95 -89.8 22.9 -90.8 23.9 -91.75 23.9 -93.1 23.9 -94.45 22.9 -95.45 21.95 -96.4 20.6 -96.4 19.25 -96.4 18.25 -95.45 17.3 -94.45 17.3 -93.1 17.3 -91.75 18.25 -90.8 19.25 -89.8 20.6 -89.8 M13.85 -9.0 L25.8 -13.25 Q25.9 -5.35 22.45 1.75 20.65 5.4 17.05 6.3 17.0 -1.2 13.85 -9.0 M37.65 -10.85 L37.65 -10.8 Q43.85 -7.8 51.2 -10.35 51.6 2.85 42.8 12.65 L41.15 14.3 Q40.45 1.55 37.65 -10.85 M57.95 -10.85 L68.6 -15.75 Q68.45 -6.85 63.75 0.35 L62.8 1.55 57.95 -10.85 M-23.85 -79.8 L-51.25 -82.9 Q-42.8 -92.7 -31.05 -94.25 L-30.0 -92.1 Q-38.4 -94.05 -34.1 -86.7 -33.4 -85.55 -31.85 -86.0 -28.8 -86.7 -28.9 -89.95 L-23.85 -79.8 M-54.65 -4.55 L-58.1 3.45 -59.45 1.7 Q-63.0 -3.0 -64.8 -8.5 L-54.65 -4.55 M-26.55 -13.25 Q-29.55 -6.75 -30.7 0.25 -31.25 3.8 -30.6 7.4 L-40.95 -7.65 Q-33.1 -9.3 -26.55 -13.25 M-17.85 -8.4 Q-9.65 -5.35 -0.7 -8.0 L0.05 -8.25 Q0.25 0.4 -6.5 6.25 L-8.25 7.45 -17.85 -8.4" fill="#ffff00" fill-rule="evenodd" stroke="none"/>
      <path d="M-11.45 -26.25 Q-13.25 -27.25 -13.55 -29.25 -10.55 -32.55 -6.2 -31.95 4.3 -31.25 -3.5 -25.15 L-11.45 -26.25 M3.15 -49.9 Q15.45 -64.6 34.95 -63.0 42.3 -55.7 40.0 -45.55 39.7 -44.15 38.35 -44.25 28.5 -43.5 18.25 -45.85 21.0 -54.85 11.65 -53.3 8.25 -52.6 8.4 -49.0 8.7 -43.15 14.6 -43.45 13.45 -41.25 16.25 -38.0 12.3 -39.55 8.75 -42.35 4.15 -46.0 3.15 -49.9 M20.6 -89.8 Q19.25 -89.8 18.25 -90.8 17.3 -91.75 17.3 -93.1 17.3 -94.45 18.25 -95.45 19.25 -96.4 20.6 -96.4 21.95 -96.4 22.9 -95.45 23.9 -94.45 23.9 -93.1 23.9 -91.75 22.9 -90.8 21.95 -89.8 20.6 -89.8 M12.05 -50.3 Q12.65 -50.8 13.5 -50.8 14.35 -50.8 14.95 -50.3 15.55 -49.85 15.55 -49.2 15.55 -48.55 14.95 -48.05 14.35 -47.6 13.5 -47.6 12.65 -47.6 12.05 -48.05 11.45 -48.55 11.45 -49.2 11.45 -49.85 12.05 -50.3 M-86.3 -27.15 Q-86.95 -27.8 -86.95 -28.75 -86.95 -29.7 -86.3 -30.4 -85.6 -31.05 -84.65 -31.05 -83.7 -31.05 -83.05 -30.4 -82.35 -29.7 -82.35 -28.75 -82.35 -27.8 -83.05 -27.15 -83.7 -26.45 -84.65 -26.45 -85.6 -26.45 -86.3 -27.15 M-30.0 -92.1 Q-29.1 -91.2 -28.9 -89.95 -28.8 -86.7 -31.85 -86.0 -33.4 -85.55 -34.1 -86.7 -38.4 -94.05 -30.0 -92.1 M-30.3 -50.8 L-31.1 -50.45 Q-37.5 -44.8 -30.6 -40.85 -43.4 -37.65 -55.7 -41.7 L-54.85 -37.2 Q-64.5 -48.15 -55.45 -60.75 -53.3 -63.7 -50.45 -65.9 -37.05 -59.65 -30.3 -50.8 M-62.75 -67.6 Q-61.65 -66.5 -61.65 -64.95 -61.65 -63.4 -62.75 -62.35 -63.8 -61.25 -65.35 -61.25 -66.9 -61.25 -68.0 -62.35 -69.05 -63.4 -69.05 -64.95 -69.05 -66.5 -68.0 -67.6 -66.9 -68.65 -65.35 -68.65 -63.8 -68.65 -62.75 -67.6 M-28.55 -47.1 L-28.4 -46.8 Q-28.05 -45.45 -29.5 -44.85 -30.45 -44.95 -31.0 -45.65 L-31.0 -45.75 Q-30.85 -46.9 -29.85 -47.15 L-28.55 -47.1 M-85.25 25.6 L-83.8 26.6 Q-82.25 27.9 -83.3 29.4 -87.65 36.0 -89.85 28.4 -89.85 27.25 -88.5 26.45 -87.15 25.6 -85.25 25.6" fill="#ffffff" fill-rule="evenodd" stroke="none"/>
      <path d="M33.2 -84.55 Q31.95 -90.75 23.75 -97.8 L29.7 -97.4 Q34.65 -95.4 38.1 -91.6 40.4 -89.0 41.6 -85.85 L33.2 -84.55 M13.85 -9.0 L9.9 -15.1 20.8 -19.95 25.3 -18.95 25.8 -13.25 13.85 -9.0 M37.65 -10.85 L34.25 -17.7 Q37.15 -16.65 40.25 -16.35 45.4 -15.75 50.55 -17.05 L51.2 -10.35 Q43.85 -7.8 37.65 -10.8 L37.65 -10.85 M57.95 -10.85 Q56.15 -14.4 53.35 -17.1 L68.8 -24.2 Q69.0 -19.9 68.6 -15.75 L57.95 -10.85 M-31.05 -94.25 L-22.85 -94.35 Q-18.4 -91.3 -16.5 -86.4 -15.15 -83.1 -14.85 -79.45 L-23.85 -79.8 -28.9 -89.95 Q-29.1 -91.2 -30.0 -92.1 L-31.05 -94.25 M-64.8 -8.5 L-66.15 -14.35 -51.25 -12.5 -54.65 -4.55 -64.8 -8.5 M-40.95 -7.65 L-43.9 -13.2 -29.5 -18.05 -25.3 -16.0 -26.55 -13.25 Q-33.1 -9.3 -40.95 -7.65 M0.05 -8.25 L-0.7 -8.0 Q-9.65 -5.35 -17.85 -8.4 L-21.55 -14.45 Q-11.4 -9.9 -0.3 -11.6 L0.05 -8.25" fill="#b9b900" fill-rule="evenodd" stroke="none"/>
      <path d="M65.25 -30.25 L64.15 -36.8 Q68.65 -36.4 73.0 -38.15 77.5 -36.55 80.3 -32.75 82.7 -29.5 83.0 -26.2 L78.55 -25.4 74.55 -30.0 65.35 -31.8 65.25 -30.25 M26.7 -77.0 L34.2 -73.0 Q9.55 -76.1 -2.45 -54.45 L-4.85 -53.75 Q-5.95 -64.25 1.7 -71.5 L3.3 -73.0 3.9 -73.55 26.7 -77.0 M-77.4 -28.15 Q-82.15 -29.55 -84.95 -21.15 L-85.0 -20.9 Q-86.95 -20.95 -88.3 -22.05 -89.5 -19.2 -89.65 -15.85 -92.1 -20.55 -89.9 -25.3 -83.9 -38.1 -71.1 -32.6 L-72.6 -37.05 Q-68.75 -47.4 -72.95 -57.6 -79.75 -74.25 -58.1 -77.3 -58.6 -63.85 -68.6 -54.75 L-68.45 -51.85 Q-64.85 -48.15 -64.95 -43.1 -65.2 -30.45 -77.4 -28.15 M-59.9 25.65 Q-30.05 15.6 1.5 19.15 11.4 20.4 20.85 23.7 37.1 29.45 54.3 29.3 47.2 33.05 39.5 30.55 8.55 20.65 -23.8 25.5 -41.8 28.35 -59.9 25.65 M73.5 -25.35 L73.45 -25.55 73.65 -25.35 73.5 -25.35 M-89.55 93.5 Q-93.25 91.45 -94.35 87.55 -100.95 64.4 -91.85 41.3 -87.6 46.55 -81.6 49.05 L-79.95 49.6 Q-80.95 56.05 -83.45 62.15 -87.65 72.55 -82.3 82.35 L-82.4 82.4 Q-89.85 86.55 -89.55 93.5 M-91.9 27.45 Q-95.3 17.3 -91.2 7.5 -87.55 -1.2 -89.4 -10.5 L-85.5 -9.7 Q-83.9 -7.45 -84.1 -4.65 -84.85 5.35 -86.6 15.1 L-83.1 23.05 -85.05 22.8 -85.25 25.6 Q-87.15 25.6 -88.5 26.45 -89.85 27.25 -89.85 28.4 L-91.9 27.45 M11.8 44.9 L12.75 42.5 Q0.25 34.3 -14.3 37.85 L-14.95 39.45 Q-16.4 31.9 -5.2 30.35 9.6 28.65 13.45 42.8 L11.8 44.9 M9.3 45.65 L9.6 45.8 9.3 45.8 9.3 45.65 M-86.3 -27.15 Q-85.6 -26.45 -84.65 -26.45 -83.7 -26.45 -83.05 -27.15 -82.35 -27.8 -82.35 -28.75 -82.35 -29.7 -83.05 -30.4 -83.7 -31.05 -84.65 -31.05 -85.6 -31.05 -86.3 -30.4 -86.95 -29.7 -86.95 -28.75 -86.95 -27.8 -86.3 -27.15 M-62.75 -67.6 Q-63.8 -68.65 -65.35 -68.65 -66.9 -68.65 -68.0 -67.6 -69.05 -66.5 -69.05 -64.95 -69.05 -63.4 -68.0 -62.35 -66.9 -61.25 -65.35 -61.25 -63.8 -61.25 -62.75 -62.35 -61.65 -63.4 -61.65 -64.95 -61.65 -66.5 -62.75 -67.6" fill="#6dc8dd" fill-rule="evenodd" stroke="none"/>
    </g>
  </defs>
</svg>
