<?xml version="1.0" encoding="UTF-8" standalone="no"?>
<svg xmlns:xlink="http://www.w3.org/1999/xlink" height="208.75px" width="233.45px" xmlns="http://www.w3.org/2000/svg">
  <g transform="matrix(1.0, 0.0, 0.0, 1.0, 116.95, 104.9)">
    <use height="208.75" transform="matrix(1.0, 0.0, 0.0, 1.0, -116.95, -104.9)" width="233.45" xlink:href="#shape0"/>
  </g>
  <defs>
    <g id="shape0" transform="matrix(1.0, 0.0, 0.0, 1.0, 116.95, 104.9)">
      <path d="M52.25 -77.65 L43.4 -84.55 41.3 -82.2 Q46.15 -79.5 49.5 -75.65 54.0 -70.5 55.7 -63.25 L62.85 -66.9 Q66.4 -71.85 64.5 -77.7 59.95 -91.65 46.95 -87.0 L48.3 -86.6 Q54.45 -84.6 55.75 -78.25 L53.9 -76.35 52.25 -77.65 M11.0 -51.4 Q24.75 -37.05 42.0 -48.4 56.45 -57.85 46.05 -71.6 37.05 -80.85 24.8 -76.8 5.5 -70.55 11.0 -51.4 M62.45 -60.2 Q69.55 -53.05 67.25 -43.25 93.0 -43.15 97.2 -17.8 98.25 -11.25 95.0 -5.25 92.25 0.0 87.5 3.75 105.0 11.55 103.75 30.75 122.0 43.2 114.15 63.7 106.45 83.85 84.7 82.35 78.05 81.5 72.45 77.7 21.0 105.25 -34.35 87.5 -63.15 112.65 -98.65 99.15 -102.05 97.8 -104.65 95.1 -120.9 77.9 -115.65 54.6 -110.8 33.2 -98.65 15.05 -92.3 5.6 -82.65 0.0 -95.05 -13.6 -83.85 -28.1 -78.45 -35.05 -69.9 -37.7 -81.8 -48.05 -73.0 -60.65 -70.7 -63.85 -66.75 -64.2 L-63.7 -61.7 Q-57.85 -73.8 -44.3 -73.6 -33.65 -84.4 -18.65 -83.55 L-12.7 -91.95 Q-17.9 -103.75 -4.2 -104.9 0.2 -104.6 2.25 -100.55 3.15 -98.75 3.4 -96.75 17.85 -93.85 17.15 -79.2 26.2 -87.0 37.9 -83.75 48.9 -96.3 63.25 -88.1 75.15 -77.4 66.1 -64.0 64.6 -61.8 62.45 -60.2 M11.5 -76.8 L11.6 -77.2 Q15.45 -89.95 3.1 -92.8 -9.0 -92.35 -15.9 -82.6 L-10.6 -77.6 1.55 -66.05 Q0.55 -73.35 -4.75 -78.55 L-4.35 -80.3 Q5.1 -77.0 5.85 -66.9 L7.6 -71.75 Q6.0 -72.25 5.4 -73.9 4.25 -76.85 6.5 -79.4 L11.5 -76.8 M4.7 -81.85 Q2.7 -81.95 3.25 -83.8 3.55 -84.95 4.7 -84.9 7.2 -84.1 5.5 -82.15 5.2 -81.8 4.7 -81.85 M31.7 -36.55 Q18.95 -35.1 9.3 -44.05 L9.0 -33.7 17.6 -28.4 17.65 -25.85 Q14.8 -25.25 12.5 -27.2 2.85 -35.25 7.55 -47.45 L4.05 -58.25 Q4.2 -55.5 3.5 -52.7 2.45 -48.75 -0.1 -45.9 0.5 -41.2 -1.75 -37.2 -10.15 -22.5 -27.15 -19.45 -27.1 -13.5 -23.6 -9.3 -22.3 -7.75 -20.55 -6.45 L-7.55 -11.0 -7.1 -13.45 Q-5.8 -19.45 -1.0 -22.95 L5.45 -14.85 6.7 -13.25 16.75 -14.1 16.7 -17.55 16.6 -23.65 17.95 -25.65 Q21.1 -24.95 24.15 -23.3 27.25 -21.6 29.1 -18.4 L30.85 -13.35 40.9 -14.3 38.75 -18.85 Q36.65 -21.55 34.8 -24.6 L36.45 -27.05 Q50.8 -27.0 57.1 -14.75 L58.4 -14.15 Q67.1 -16.2 71.85 -23.75 L66.8 -27.4 67.7 -28.95 77.4 -26.15 82.05 -17.1 79.9 -15.65 75.8 -19.9 74.65 -18.55 Q69.95 -12.8 62.6 -11.15 40.0 -7.85 17.05 -6.75 9.35 -6.55 2.1 -4.7 -22.45 1.25 -46.35 -4.45 -54.9 -7.95 -62.55 -14.55 L-61.95 -9.4 -63.3 -8.05 Q-65.65 -8.95 -66.35 -11.1 -67.05 -13.2 -66.8 -14.95 L-63.3 -20.45 -58.9 -19.8 -59.35 -17.25 -46.8 -8.75 -40.3 -4.35 Q-39.85 -7.7 -38.65 -10.7 -36.8 -15.55 -33.0 -19.5 -35.8 -20.15 -38.45 -21.15 -48.05 -24.55 -52.2 -32.35 L-54.95 -41.45 Q-64.6 -41.7 -65.2 -50.9 L-65.65 -59.75 Q-74.35 -55.35 -70.0 -46.5 -65.25 -36.85 -58.5 -28.35 L-59.85 -27.4 -64.65 -30.15 Q-77.85 -32.25 -79.3 -18.95 -80.8 -5.25 -70.8 4.3 L-73.0 6.45 -77.15 4.95 Q-96.5 20.7 -100.25 45.35 L-103.3 45.65 -104.9 38.3 Q-115.15 64.05 -100.0 85.6 L-98.85 86.7 Q-91.0 94.05 -80.4 94.0 -58.4 93.85 -38.85 83.8 -46.15 78.55 -50.8 71.05 L-51.7 69.55 -45.85 70.65 Q-43.05 71.4 -40.95 73.15 -20.45 89.85 6.2 89.65 47.3 87.6 77.55 60.95 L79.75 62.65 79.9 64.5 Q80.1 66.4 79.15 68.25 L77.35 71.7 Q98.35 76.85 109.9 60.75 112.4 57.2 112.0 52.9 111.4 45.1 106.3 39.45 104.6 37.55 102.4 35.9 L98.8 40.0 Q95.0 34.15 96.5 25.95 97.05 22.95 95.95 20.0 92.45 10.85 83.7 6.2 L76.85 8.15 75.3 5.45 Q93.3 -5.55 91.0 -24.85 90.45 -29.2 86.65 -31.2 69.2 -40.75 50.7 -33.7 L50.7 -34.4 Q61.05 -43.05 55.65 -55.7 53.95 -50.3 50.25 -46.05 42.9 -37.75 31.7 -36.55 M-77.6 -15.4 L-77.6 -16.85 -74.9 -17.55 -74.4 -15.9 -77.6 -15.4 M34.55 -27.65 Q30.75 -25.6 26.8 -26.9 L27.15 -27.6 Q30.35 -32.6 35.95 -32.15 L37.85 -32.0 34.55 -27.65 M30.9 -73.85 Q31.55 -75.05 33.0 -74.5 39.4 -71.85 36.6 -66.75 26.5 -66.0 30.9 -73.85 M23.7 -17.6 L21.0 -19.05 20.4 -14.1 25.7 -13.8 23.7 -17.6 M63.0 -43.7 Q65.45 -54.15 58.2 -58.5 62.1 -50.7 61.65 -42.15 L62.7 -42.65 63.0 -43.7 M50.8 -16.7 L44.3 -20.45 44.65 -12.75 52.75 -12.95 50.8 -16.7 M75.3 -2.05 L74.6 -1.35 Q68.3 4.75 60.4 3.15 L60.4 0.0 72.5 -6.3 75.25 -5.55 75.3 -2.05 M80.45 -9.7 Q83.95 -9.45 82.9 -6.15 82.45 -4.65 80.95 -4.7 78.2 -4.8 78.4 -7.45 78.5 -9.6 80.45 -9.7 M84.95 -28.9 Q88.1 -28.15 87.0 -25.15 L86.45 -24.2 Q83.7 -22.75 82.25 -25.65 81.6 -26.95 82.75 -27.95 83.8 -28.85 84.95 -28.9 M90.25 -14.95 Q89.35 -12.1 86.8 -13.4 86.0 -13.85 85.9 -14.75 85.45 -17.7 88.2 -18.35 91.25 -17.85 90.25 -14.95 M84.95 21.1 Q88.25 22.1 87.0 25.55 86.3 27.6 84.2 26.7 81.6 25.55 82.45 22.95 83.1 21.15 84.95 21.1 M83.7 42.75 Q80.65 43.05 80.6 39.8 80.6 37.35 82.75 36.55 86.1 36.0 86.5 39.05 86.95 42.5 83.7 42.75 M92.2 54.1 Q92.05 53.4 92.45 52.8 93.0 51.95 93.95 52.0 97.7 52.3 96.65 55.6 L96.15 56.4 Q92.85 57.4 92.2 54.1 M42.75 17.65 Q53.05 14.45 60.1 6.25 L62.85 7.1 63.15 8.9 62.35 9.95 Q41.25 37.25 6.9 30.75 -0.65 29.2 -7.5 25.7 L-19.85 19.1 -21.0 16.05 -20.55 14.35 Q-12.1 19.15 -2.5 21.35 4.5 22.9 11.95 22.9 27.75 22.85 42.75 17.65 M49.35 40.35 Q47.85 37.4 50.45 35.45 L51.15 35.2 51.95 35.1 Q56.1 35.65 55.75 39.55 55.55 41.45 53.65 42.0 50.7 42.85 49.35 40.35 M75.55 35.6 Q75.6 37.3 74.25 38.4 69.95 40.0 68.65 35.8 68.15 34.1 69.25 32.75 70.05 31.8 71.2 31.4 75.45 31.5 75.55 35.6 M21.05 49.25 Q13.65 51.0 14.0 45.2 21.0 40.6 21.6 48.7 L21.05 49.25 M11.85 13.45 Q10.9 11.0 13.0 9.5 L17.4 9.75 13.65 14.4 12.05 13.85 11.85 13.45 M5.3 73.45 Q5.4 73.35 5.55 73.3 7.2 72.85 8.7 73.7 14.0 80.2 5.6 80.3 L4.9 80.15 Q1.85 76.55 5.3 73.45 M33.55 61.05 Q34.65 59.3 36.3 60.45 39.7 63.05 35.7 66.05 29.95 66.55 33.55 61.05 M73.4 57.2 Q70.85 55.1 73.25 52.8 L73.95 52.5 Q80.4 54.75 74.8 57.55 74.15 57.8 73.4 57.2 M-8.05 -101.15 L-9.25 -100.9 Q-10.9 -99.8 -11.4 -98.0 L-11.15 -97.45 Q-9.45 -94.65 -5.9 -94.9 L0.0 -96.35 -4.25 -101.6 Q-6.35 -101.85 -8.05 -101.15 M-36.2 -68.35 Q-37.95 -70.5 -35.65 -72.15 -29.45 -76.65 -27.85 -70.55 -30.75 -61.6 -36.2 -68.35 M-8.0 -63.35 Q-11.9 -80.95 -29.5 -78.1 -42.75 -76.05 -46.95 -63.45 -49.75 -54.6 -45.35 -46.25 -38.15 -32.75 -23.65 -38.05 -6.0 -44.3 -8.0 -63.35 M-52.45 -51.3 Q-53.55 -61.75 -47.7 -70.4 -57.05 -66.0 -60.9 -56.35 L-61.5 -54.35 Q-63.15 -47.35 -54.7 -43.85 L-52.3 -50.15 -52.45 -51.3 M-46.95 -32.0 Q-30.25 -16.7 -11.9 -30.6 -8.9 -32.85 -7.25 -36.1 -5.25 -40.0 -5.2 -44.85 L-6.3 -43.3 Q-21.8 -24.9 -43.4 -34.25 -44.45 -34.7 -45.35 -35.4 -48.9 -38.4 -50.6 -43.5 -51.15 -40.75 -50.25 -38.15 -49.0 -34.65 -46.95 -32.0 M-72.9 -26.95 L-71.8 -26.95 Q-70.0 -25.9 -71.1 -24.2 L-71.8 -23.6 -72.9 -23.6 Q-74.65 -24.65 -73.55 -26.35 L-72.9 -26.95 M-37.2 -3.55 L-25.85 -4.55 -31.5 -15.65 -37.3 -4.85 -37.2 -3.55 M-7.05 -21.85 L-0.05 -30.8 1.7 -29.8 Q0.3 -23.05 -6.35 -21.25 L-7.05 -21.85 M-4.25 -10.85 L1.35 -11.95 -1.75 -16.7 -4.25 -10.85 M-32.1 11.4 Q-31.1 13.25 -32.7 14.65 -47.4 16.65 -51.3 4.8 L-49.65 4.4 Q-42.9 9.75 -32.95 10.25 -32.45 10.8 -32.1 11.4 M-25.85 32.75 Q-27.5 31.35 -26.55 29.3 -21.2 23.15 -18.2 29.65 -17.2 31.85 -19.6 33.05 -21.4 33.85 -23.25 33.1 -24.65 33.75 -25.85 32.75 M-74.7 16.0 Q-75.1 17.1 -76.2 17.35 -79.65 18.2 -79.65 15.05 -79.7 13.05 -77.7 12.6 L-76.85 12.4 Q-73.5 12.7 -74.7 16.0 M-73.2 25.55 Q-73.15 23.55 -71.35 23.5 -68.7 24.15 -69.55 26.95 -70.05 28.5 -71.65 27.95 -73.2 27.35 -73.2 25.55 M-62.7 28.65 Q-60.5 21.05 -56.55 27.25 -56.15 27.9 -56.65 29.05 -59.05 30.35 -61.65 29.75 -62.5 29.55 -62.7 28.65 M-59.25 60.65 Q-61.1 56.85 -57.45 55.0 -53.5 54.6 -52.8 58.0 -52.15 61.1 -55.05 62.3 L-57.1 62.45 Q-58.6 62.1 -59.25 60.65 M-77.1 62.6 Q-73.3 63.65 -73.9 67.7 -74.25 70.05 -76.35 70.5 -79.85 71.2 -80.15 67.9 -80.25 66.95 -79.85 66.05 -80.25 63.6 -77.95 62.8 L-77.1 62.6 M-16.7 56.35 Q-19.85 55.6 -21.0 52.75 -17.05 46.0 -10.65 51.0 -7.75 58.2 -16.7 56.35" fill="#000000" fill-rule="evenodd" stroke="none"/>
      <path d="M-23.6 -9.3 Q-15.5 -9.35 -7.55 -11.0 L-20.55 -6.45 Q-22.3 -7.75 -23.6 -9.3 M5.45 -14.85 Q11.05 -16.7 16.7 -17.55 L16.75 -14.1 6.7 -13.25 5.45 -14.85 M29.1 -18.4 L38.75 -18.85 40.9 -14.3 30.85 -13.35 29.1 -18.4 M62.6 -11.15 Q65.8 -10.5 65.15 -7.7 64.45 -4.7 61.55 -3.65 56.7 -1.85 51.5 -3.25 23.6 -10.65 -3.15 -0.25 -25.65 8.45 -46.35 -4.45 -22.45 1.25 2.1 -4.7 9.35 -6.55 17.05 -6.75 40.0 -7.85 62.6 -11.15 M-66.8 -14.95 L-68.3 -6.25 Q-77.4 -6.65 -77.6 -15.4 L-74.4 -15.9 -74.9 -17.55 -77.6 -16.85 Q-77.0 -30.6 -65.1 -28.2 L-63.3 -20.45 -66.8 -14.95 M-46.8 -8.75 L-46.15 -9.6 Q-43.15 -13.0 -38.65 -10.7 -39.85 -7.7 -40.3 -4.35 L-46.8 -8.75 M5.3 73.45 Q1.85 76.55 4.9 80.15 L5.6 80.3 Q14.0 80.2 8.7 73.7 31.55 76.1 51.95 65.75 L54.2 66.0 55.7 67.5 Q55.2 69.95 53.3 71.2 31.5 85.65 4.9 88.65 -11.2 90.1 -14.85 76.1 L-14.35 75.75 Q-4.75 72.55 5.3 73.45 M-5.9 -94.9 Q-9.45 -94.65 -11.15 -97.45 L-11.4 -98.0 Q-10.9 -99.8 -9.25 -100.9 L-8.05 -101.15 -5.9 -94.9 M-72.9 -26.95 L-73.55 -26.35 Q-74.65 -24.65 -72.9 -23.6 L-71.8 -23.6 -71.1 -24.2 Q-70.0 -25.9 -71.8 -26.95 L-72.9 -26.95 M-86.85 27.0 L-85.35 28.5 Q-82.7 45.7 -92.85 58.6 L-94.1 60.0 Q-91.45 64.05 -90.05 68.6 -88.7 73.05 -88.6 77.75 L-90.6 79.5 Q-106.95 73.8 -101.25 58.9 -95.4 43.6 -90.55 27.9 L-89.1 26.75 -86.85 27.0" fill="#ffff9a" fill-rule="evenodd" stroke="none"/>
      <path d="M52.25 -77.65 Q50.6 -76.8 49.5 -75.65 46.15 -79.5 41.3 -82.2 L43.4 -84.55 52.25 -77.65 M62.85 -66.9 Q66.2 -78.0 55.75 -78.25 54.45 -84.6 48.3 -86.6 L46.95 -87.0 Q59.95 -91.65 64.5 -77.7 66.4 -71.85 62.85 -66.9 M-10.6 -77.6 L-15.9 -82.6 Q-9.0 -92.35 3.1 -92.8 15.45 -89.95 11.6 -77.2 L11.5 -76.8 Q8.75 -89.5 -3.45 -84.4 -8.35 -82.4 -10.6 -77.6 M-23.6 -9.3 Q-27.1 -13.5 -27.15 -19.45 -10.15 -22.5 -1.75 -37.2 0.5 -41.2 -0.1 -45.9 2.45 -48.75 3.5 -52.7 4.2 -55.5 4.05 -58.25 L7.55 -47.45 Q2.85 -35.25 12.5 -27.2 14.8 -25.25 17.65 -25.85 L17.6 -28.4 9.0 -33.7 9.3 -44.05 Q18.95 -35.1 31.7 -36.55 L19.45 -34.75 19.3 -34.35 Q19.4 -27.65 27.15 -27.6 L26.8 -26.9 Q30.75 -25.6 34.55 -27.65 L37.15 -28.05 Q44.95 -29.55 50.7 -34.4 L50.7 -33.7 Q69.2 -40.75 86.65 -31.2 90.45 -29.2 91.0 -24.85 93.3 -5.55 75.3 5.45 L76.85 8.15 83.7 6.2 Q92.45 10.85 95.95 20.0 97.05 22.95 96.5 25.95 95.0 34.15 98.8 40.0 103.2 51.55 95.95 59.6 89.35 67.0 79.15 68.25 80.1 66.4 79.9 64.5 L79.75 62.65 77.55 60.95 Q47.3 87.6 6.2 89.65 -20.45 89.85 -40.95 73.15 -43.05 71.4 -45.85 70.65 L-51.7 69.55 -50.8 71.05 Q-72.25 84.1 -96.9 85.65 L-100.0 85.6 Q-115.15 64.05 -104.9 38.3 L-103.3 45.65 -100.25 45.35 Q-96.5 20.7 -77.15 4.95 L-73.0 6.45 -70.8 4.3 Q-80.8 -5.25 -79.3 -18.95 -77.85 -32.25 -64.65 -30.15 -62.1 -24.3 -56.05 -25.65 L-54.3 -30.15 -52.2 -32.35 Q-48.05 -24.55 -38.45 -21.15 -35.8 -20.15 -33.0 -19.5 -36.8 -15.55 -38.65 -10.7 -43.15 -13.0 -46.15 -9.6 L-46.8 -8.75 -59.35 -17.25 -58.9 -19.8 -63.3 -20.45 -65.1 -28.2 Q-77.0 -30.6 -77.6 -16.85 L-77.6 -15.4 Q-77.4 -6.65 -68.3 -6.25 L-66.8 -14.95 Q-67.05 -13.2 -66.35 -11.1 -65.65 -8.95 -63.3 -8.05 L-61.95 -9.4 -62.55 -14.55 Q-54.9 -7.95 -46.35 -4.45 -25.65 8.45 -3.15 -0.25 23.6 -10.65 51.5 -3.25 56.7 -1.85 61.55 -3.65 64.45 -4.7 65.15 -7.7 65.8 -10.5 62.6 -11.15 69.95 -12.8 74.65 -18.55 L75.8 -19.9 79.9 -15.65 82.05 -17.1 77.4 -26.15 67.7 -28.95 66.8 -27.4 71.85 -23.75 Q67.1 -16.2 58.4 -14.15 L57.1 -14.75 Q50.8 -27.0 36.45 -27.05 L34.8 -24.6 Q36.65 -21.55 38.75 -18.85 L29.1 -18.4 Q27.25 -21.6 24.15 -23.3 21.1 -24.95 17.95 -25.65 L16.6 -23.65 16.7 -17.55 Q11.05 -16.7 5.45 -14.85 L-1.0 -22.95 Q-5.8 -19.45 -7.1 -13.45 L-7.55 -11.0 Q-15.5 -9.35 -23.6 -9.3 M63.0 -43.7 L62.7 -42.65 61.65 -42.15 Q62.1 -50.7 58.2 -58.5 65.45 -54.15 63.0 -43.7 M83.7 42.75 Q86.95 42.5 86.5 39.05 86.1 36.0 82.75 36.55 80.6 37.35 80.6 39.8 80.65 43.05 83.7 42.75 M84.95 21.1 Q83.1 21.15 82.45 22.95 81.6 25.55 84.2 26.7 86.3 27.6 87.0 25.55 88.25 22.1 84.95 21.1 M90.25 -14.95 Q91.25 -17.85 88.2 -18.35 85.45 -17.7 85.9 -14.75 86.0 -13.85 86.8 -13.4 89.35 -12.1 90.25 -14.95 M84.95 -28.9 Q83.8 -28.85 82.75 -27.95 81.6 -26.95 82.25 -25.65 83.7 -22.75 86.45 -24.2 L87.0 -25.15 Q88.1 -28.15 84.95 -28.9 M80.45 -9.7 Q78.5 -9.6 78.4 -7.45 78.2 -4.8 80.95 -4.7 82.45 -4.65 82.9 -6.15 83.95 -9.45 80.45 -9.7 M75.3 -2.05 L75.25 -5.55 72.5 -6.3 60.4 0.0 60.4 3.15 Q68.3 4.75 74.6 -1.35 L75.3 -2.05 M92.2 54.1 Q92.85 57.4 96.15 56.4 L96.65 55.6 Q97.7 52.3 93.95 52.0 93.0 51.95 92.45 52.8 92.05 53.4 92.2 54.1 M112.0 52.9 Q110.3 45.45 106.3 39.45 111.4 45.1 112.0 52.9 M62.35 9.95 L63.15 8.9 62.85 7.1 60.1 6.25 Q53.05 14.45 42.75 17.65 20.65 15.35 -0.7 19.95 -2.0 20.25 -2.5 21.35 -12.1 19.15 -20.55 14.35 L-21.0 16.05 -19.85 19.1 -7.5 25.7 Q-9.55 38.0 3.65 38.8 37.75 40.0 63.25 16.85 65.0 15.25 64.0 13.05 L62.35 9.95 M11.85 13.45 L12.05 13.85 13.65 14.4 17.4 9.75 13.0 9.5 Q10.9 11.0 11.85 13.45 M21.05 49.25 L21.6 48.7 Q21.0 40.6 14.0 45.2 13.65 51.0 21.05 49.25 M75.55 35.6 Q75.45 31.5 71.2 31.4 70.05 31.8 69.25 32.75 68.15 34.1 68.65 35.8 69.95 40.0 74.25 38.4 75.6 37.3 75.55 35.6 M49.35 40.35 Q50.7 42.85 53.65 42.0 55.55 41.45 55.75 39.55 56.1 35.65 51.95 35.1 L51.15 35.2 50.45 35.45 Q47.85 37.4 49.35 40.35 M8.7 73.7 Q7.2 72.85 5.55 73.3 5.4 73.35 5.3 73.45 -4.75 72.55 -14.35 75.75 L-14.85 76.1 Q-11.2 90.1 4.9 88.65 31.5 85.65 53.3 71.2 55.2 69.95 55.7 67.5 L54.2 66.0 51.95 65.75 Q31.55 76.1 8.7 73.7 M73.4 57.2 Q74.15 57.8 74.8 57.55 80.4 54.75 73.95 52.5 L73.25 52.8 Q70.85 55.1 73.4 57.2 M33.55 61.05 Q29.95 66.55 35.7 66.05 39.7 63.05 36.3 60.45 34.65 59.3 33.55 61.05 M-5.9 -94.9 L-8.05 -101.15 Q-6.35 -101.85 -4.25 -101.6 L0.0 -96.35 -5.9 -94.9 M-61.5 -54.35 Q-60.85 -52.15 -58.1 -51.5 L-52.45 -51.3 -52.3 -50.15 -54.7 -43.85 Q-63.15 -47.35 -61.5 -54.35 M-45.35 -35.4 Q-46.4 -34.9 -47.1 -33.55 L-46.95 -32.0 Q-49.0 -34.65 -50.25 -38.15 -51.15 -40.75 -50.6 -43.5 -48.9 -38.4 -45.35 -35.4 M-7.25 -36.1 L-6.3 -43.3 -5.2 -44.85 Q-5.25 -40.0 -7.25 -36.1 M-7.05 -21.85 L-6.35 -21.25 Q0.3 -23.05 1.7 -29.8 L-0.05 -30.8 -7.05 -21.85 M-16.7 56.35 Q-7.75 58.2 -10.65 51.0 -17.05 46.0 -21.0 52.75 -19.85 55.6 -16.7 56.35 M-77.1 62.6 L-77.95 62.8 Q-80.25 63.6 -79.85 66.05 -80.25 66.95 -80.15 67.9 -79.85 71.2 -76.35 70.5 -74.25 70.05 -73.9 67.7 -73.3 63.65 -77.1 62.6 M-59.25 60.65 Q-58.6 62.1 -57.1 62.45 L-55.05 62.3 Q-52.15 61.1 -52.8 58.0 -53.5 54.6 -57.45 55.0 -61.1 56.85 -59.25 60.65 M-62.7 28.65 Q-62.5 29.55 -61.65 29.75 -59.05 30.35 -56.65 29.05 -56.15 27.9 -56.55 27.25 -60.5 21.05 -62.7 28.65 M-73.2 25.55 Q-73.2 27.35 -71.65 27.95 -70.05 28.5 -69.55 26.95 -68.7 24.15 -71.35 23.5 -73.15 23.55 -73.2 25.55 M-74.7 16.0 Q-73.5 12.7 -76.85 12.4 L-77.7 12.6 Q-79.7 13.05 -79.65 15.05 -79.65 18.2 -76.2 17.35 -75.1 17.1 -74.7 16.0 M-25.85 32.75 Q-24.65 33.75 -23.25 33.1 -21.4 33.85 -19.6 33.05 -17.2 31.85 -18.2 29.65 -21.2 23.15 -26.55 29.3 -27.5 31.35 -25.85 32.75 M-32.1 11.4 Q-32.45 10.8 -32.95 10.25 -42.9 9.75 -49.65 4.4 L-51.3 4.8 Q-47.4 16.65 -32.7 14.65 -31.1 13.25 -32.1 11.4 M-86.85 27.0 L-89.1 26.75 -90.55 27.9 Q-95.4 43.6 -101.25 58.9 -106.95 73.8 -90.6 79.5 L-88.6 77.75 Q-88.7 73.05 -90.05 68.6 -91.45 64.05 -94.1 60.0 L-92.85 58.6 Q-82.7 45.7 -85.35 28.5 L-86.85 27.0" fill="#ffff00" fill-rule="evenodd" stroke="none"/>
      <path d="M49.5 -75.65 Q50.6 -76.8 52.25 -77.65 L53.9 -76.35 55.75 -78.25 Q66.2 -78.0 62.85 -66.9 L55.7 -63.25 Q54.0 -70.5 49.5 -75.65 M11.5 -76.8 L6.5 -79.4 Q4.25 -76.85 5.4 -73.9 6.0 -72.25 7.6 -71.75 L5.85 -66.9 Q5.1 -77.0 -4.35 -80.3 L-4.75 -78.55 Q0.55 -73.35 1.55 -66.05 L-10.6 -77.6 Q-8.35 -82.4 -3.45 -84.4 8.75 -89.5 11.5 -76.8 M4.7 -81.85 Q5.2 -81.8 5.5 -82.15 7.2 -84.1 4.7 -84.9 3.55 -84.95 3.25 -83.8 2.7 -81.95 4.7 -81.85 M-52.2 -32.35 L-54.3 -30.15 -56.05 -25.65 Q-62.1 -24.3 -64.65 -30.15 L-59.85 -27.4 -58.5 -28.35 Q-65.25 -36.85 -70.0 -46.5 -74.35 -55.35 -65.65 -59.75 L-65.2 -50.9 Q-64.6 -41.7 -54.95 -41.45 L-52.2 -32.35 M-100.0 85.6 L-96.9 85.65 Q-72.25 84.1 -50.8 71.05 -46.15 78.55 -38.85 83.8 -58.4 93.85 -80.4 94.0 -91.0 94.05 -98.85 86.7 L-100.0 85.6 M79.15 68.25 Q89.35 67.0 95.95 59.6 103.2 51.55 98.8 40.0 L102.4 35.9 Q104.6 37.55 106.3 39.45 110.3 45.45 112.0 52.9 112.4 57.2 109.9 60.75 98.35 76.85 77.35 71.7 L79.15 68.25 M50.7 -34.4 Q44.95 -29.55 37.15 -28.05 L34.55 -27.65 37.85 -32.0 35.95 -32.15 Q30.35 -32.6 27.15 -27.6 19.4 -27.65 19.3 -34.35 L19.45 -34.75 31.7 -36.55 Q42.9 -37.75 50.25 -46.05 53.95 -50.3 55.65 -55.7 61.05 -43.05 50.7 -34.4 M42.75 17.65 Q27.75 22.85 11.95 22.9 4.5 22.9 -2.5 21.35 -2.0 20.25 -0.7 19.95 20.65 15.35 42.75 17.65 M-7.5 25.7 Q-0.65 29.2 6.9 30.75 41.25 37.25 62.35 9.95 L64.0 13.05 Q65.0 15.25 63.25 16.85 37.75 40.0 3.65 38.8 -9.55 38.0 -7.5 25.7 M-61.5 -54.35 L-60.9 -56.35 Q-57.05 -66.0 -47.7 -70.4 -53.55 -61.75 -52.45 -51.3 L-58.1 -51.5 Q-60.85 -52.15 -61.5 -54.35 M-46.95 -32.0 L-47.1 -33.55 Q-46.4 -34.9 -45.35 -35.4 -44.45 -34.7 -43.4 -34.25 -21.8 -24.9 -6.3 -43.3 L-7.25 -36.1 Q-8.9 -32.85 -11.9 -30.6 -30.25 -16.7 -46.95 -32.0" fill="#c9c900" fill-rule="evenodd" stroke="none"/>
      <path d="M46.05 -71.6 L44.05 -71.9 Q38.95 -67.65 40.55 -60.65 31.95 -52.15 20.2 -51.6 L11.0 -51.4 Q5.5 -70.55 24.8 -76.8 37.05 -80.85 46.05 -71.6 M30.9 -73.85 Q26.5 -66.0 36.6 -66.75 39.4 -71.85 33.0 -74.5 31.55 -75.05 30.9 -73.85 M23.7 -17.6 L25.7 -13.8 20.4 -14.1 21.0 -19.05 23.7 -17.6 M50.8 -16.7 L52.75 -12.95 44.65 -12.75 44.3 -20.45 50.8 -16.7 M-46.95 -63.45 Q-42.75 -76.05 -29.5 -78.1 -11.9 -80.95 -8.0 -63.35 -11.5 -53.15 -21.3 -48.3 -30.8 -43.5 -41.3 -45.5 L-46.95 -63.45 M-36.2 -68.35 Q-30.75 -61.6 -27.85 -70.55 -29.45 -76.65 -35.65 -72.15 -37.95 -70.5 -36.2 -68.35 M-37.2 -3.55 L-37.3 -4.85 -31.5 -15.65 -25.85 -4.55 -37.2 -3.55 M-4.25 -10.85 L-1.75 -16.7 1.35 -11.95 -4.25 -10.85" fill="#ffffff" fill-rule="evenodd" stroke="none"/>
      <path d="M11.0 -51.4 L20.2 -51.6 Q31.95 -52.15 40.55 -60.65 38.95 -67.65 44.05 -71.9 L46.05 -71.6 Q56.45 -57.85 42.0 -48.4 24.75 -37.05 11.0 -51.4 M-46.95 -63.45 L-41.3 -45.5 Q-30.8 -43.5 -21.3 -48.3 -11.5 -53.15 -8.0 -63.35 -6.0 -44.3 -23.65 -38.05 -38.15 -32.75 -45.35 -46.25 -49.75 -54.6 -46.95 -63.45" fill="#dadac2" fill-rule="evenodd" stroke="none"/>
    </g>
  </defs>
</svg>
