<?xml version="1.0" encoding="UTF-8" standalone="no"?>
<svg xmlns:xlink="http://www.w3.org/1999/xlink" height="235.4px" width="207.3px" xmlns="http://www.w3.org/2000/svg">
  <g transform="matrix(1.0, 0.0, 0.0, 1.0, 102.4, 117.85)">
    <use height="235.4" transform="matrix(1.0, 0.0, 0.0, 1.0, -102.4, -117.85)" width="207.3" xlink:href="#shape0"/>
  </g>
  <defs>
    <g id="shape0" transform="matrix(1.0, 0.0, 0.0, 1.0, 102.4, 117.85)">
      <path d="M39.6 -100.05 Q41.9 -105.65 35.75 -107.1 L34.5 -106.0 Q28.7 -97.8 37.95 -98.2 36.0 -95.4 36.45 -91.3 20.05 -87.35 20.35 -104.55 L20.45 -105.45 Q-6.05 -96.85 -33.55 -101.5 -39.1 -86.0 -55.05 -82.6 -44.8 -58.1 -60.9 -38.6 L-61.35 -36.65 -70.8 -46.35 Q-67.65 -55.45 -59.05 -60.35 -57.55 -61.15 -56.05 -62.0 L-58.85 -65.6 -60.35 -64.5 Q-74.45 -89.0 -53.9 -103.75 -43.55 -111.05 -31.0 -108.05 L-30.3 -108.55 Q0.65 -104.6 31.75 -109.3 39.05 -110.3 45.4 -106.95 44.6 -101.95 39.6 -100.05 M28.75 -107.85 L28.75 -107.8 27.5 -107.6 Q25.2 -105.15 27.45 -102.15 28.35 -101.0 29.45 -101.95 33.5 -105.5 28.75 -107.85 M-84.25 93.85 Q-107.75 55.0 -87.8 12.5 -80.65 -2.8 -74.35 -18.7 L-74.05 -18.7 -74.25 -18.95 -71.35 -26.75 -65.35 -19.75 -63.25 -18.15 -58.7 -18.6 Q-59.75 5.3 -67.4 27.95 -68.8 32.1 -67.5 35.1 -54.5 64.35 -70.4 91.65 L-74.75 93.15 Q-79.3 94.65 -84.25 93.85 M24.15 -50.75 Q23.3 -55.55 27.05 -58.85 L28.1 -59.75 Q38.55 -59.45 40.4 -48.0 41.4 -42.05 36.05 -39.15 36.05 -43.95 32.6 -47.35 29.1 -50.75 24.15 -50.75 M29.5 -45.2 L29.35 -45.5 29.6 -45.3 29.5 -45.2 M32.1 -3.8 L31.25 -4.3 Q-1.35 17.5 -37.55 0.7 -38.25 -2.45 -35.8 -3.4 -23.6 -8.7 -9.15 -7.05 1.3 -5.7 11.15 -9.5 26.25 -15.4 32.1 -3.8 M-51.75 -94.5 Q-51.15 -94.5 -50.75 -94.9 -50.35 -95.3 -50.35 -95.9 -50.35 -96.5 -50.75 -96.9 -51.15 -97.3 -51.75 -97.3 -52.35 -97.3 -52.75 -96.9 -53.15 -96.5 -53.15 -95.9 -53.15 -95.3 -52.75 -94.9 -52.35 -94.5 -51.75 -94.5 M-69.2 -14.05 Q-75.35 -12.65 -74.35 -6.6 L-74.15 -5.85 Q-76.75 -0.45 -71.15 0.45 L-69.9 0.65 -68.55 -3.0 -69.35 -2.8 Q-60.8 -7.05 -66.15 -14.2 L-69.2 -14.05 M-58.0 -46.3 Q-53.45 -49.4 -57.65 -53.25 -68.6 -51.6 -61.6 -46.15 -60.05 -44.95 -58.0 -46.3 M-40.2 -98.15 Q-39.55 -103.0 -44.3 -104.85 -57.2 -97.7 -43.3 -95.3 -40.65 -94.8 -40.2 -98.15 M-74.3 3.55 L-75.1 3.8 Q-78.5 5.85 -75.3 8.25 L-73.35 8.2 Q-69.9 5.15 -74.3 3.55" fill="#67c5dd" fill-rule="evenodd" stroke="none"/>
      <path d="M37.95 -98.2 Q28.7 -97.8 34.5 -106.0 L35.75 -107.1 Q41.9 -105.65 39.6 -100.05 L37.95 -98.2 M28.75 -107.85 Q33.5 -105.5 29.45 -101.95 28.35 -101.0 27.45 -102.15 25.2 -105.15 27.5 -107.6 L28.75 -107.8 28.75 -107.85 M-69.2 -14.05 L-66.15 -14.2 Q-60.8 -7.05 -69.35 -2.8 L-68.55 -3.0 -69.9 0.65 -71.15 0.45 Q-76.75 -0.45 -74.15 -5.85 L-74.35 -6.6 Q-75.35 -12.65 -69.2 -14.05 M-51.75 -94.5 Q-52.35 -94.5 -52.75 -94.9 -53.15 -95.3 -53.15 -95.9 -53.15 -96.5 -52.75 -96.9 -52.35 -97.3 -51.75 -97.3 -51.15 -97.3 -50.75 -96.9 -50.35 -96.5 -50.35 -95.9 -50.35 -95.3 -50.75 -94.9 -51.15 -94.5 -51.75 -94.5 M-58.0 -46.3 Q-60.05 -44.95 -61.6 -46.15 -68.6 -51.6 -57.65 -53.25 -53.45 -49.4 -58.0 -46.3 M-74.3 3.55 Q-69.9 5.15 -73.35 8.2 L-75.3 8.25 Q-78.5 5.85 -75.1 3.8 L-74.3 3.55 M-40.2 -98.15 Q-40.65 -94.8 -43.3 -95.3 -57.2 -97.7 -44.3 -104.85 -39.55 -103.0 -40.2 -98.15" fill="#def3f7" fill-rule="evenodd" stroke="none"/>
      <path d="M45.4 -106.95 Q39.05 -110.3 31.75 -109.3 0.65 -104.6 -30.3 -108.55 L-31.0 -108.05 Q-43.55 -111.05 -53.9 -103.75 -74.45 -89.0 -60.35 -64.5 L-58.85 -65.6 -56.05 -62.0 Q-57.55 -61.15 -59.05 -60.35 -67.65 -55.45 -70.8 -46.35 -73.2 -34.7 -65.15 -26.1 -61.85 -22.6 -63.25 -18.15 L-65.35 -19.75 -71.35 -26.75 -74.25 -18.95 -74.35 -18.7 Q-80.65 -2.8 -87.8 12.5 -107.75 55.0 -84.25 93.85 L-82.45 96.0 Q-74.95 104.6 -64.2 108.5 -56.9 111.2 -49.6 112.9 -26.5 118.35 -10.55 104.3 -6.9 100.65 -3.4 96.6 L1.25 101.1 6.85 104.2 Q50.4 121.3 85.3 90.05 93.15 83.05 93.45 72.75 95.1 12.65 58.9 -37.45 55.75 -27.65 49.75 -19.3 L48.45 -20.2 Q48.7 -21.9 49.35 -23.4 55.85 -37.9 51.3 -52.25 48.6 -58.2 43.25 -60.9 36.45 -64.3 32.95 -70.05 L48.25 -63.4 52.85 -61.4 53.3 -64.35 Q57.75 -87.8 45.4 -106.95 M8.75 -115.15 Q33.3 -122.1 53.0 -111.1 64.15 -84.85 56.9 -57.25 61.1 -51.4 60.55 -44.35 79.8 -16.7 91.8 14.75 98.15 31.4 102.55 48.65 109.25 75.2 96.95 97.75 93.95 103.3 88.15 105.25 37.05 122.2 -17.05 115.75 L-16.65 115.25 Q-66.0 124.0 -99.95 88.85 -101.2 87.6 -101.35 85.95 -107.8 23.45 -75.15 -31.5 -77.75 -35.9 -77.65 -41.15 -77.35 -54.35 -65.7 -61.2 -80.7 -84.6 -66.85 -106.75 -65.3 -109.25 -62.6 -109.7 -35.2 -113.8 -6.35 -113.3 1.5 -113.15 8.75 -115.15 M20.85 -81.65 L22.8 -82.3 Q23.8 -82.75 25.9 -81.4 22.95 -80.35 20.45 -78.9 17.75 -77.35 15.6 -75.35 10.5 -70.75 7.9 -63.7 L9.9 -60.9 14.0 -59.1 13.45 -58.0 Q8.5 -56.6 3.85 -56.9 L-6.8 -60.2 -9.15 -61.7 Q-10.95 -58.55 -13.2 -56.45 L-14.55 -55.35 Q-20.15 -51.15 -28.5 -52.35 -29.9 -52.7 -30.9 -53.65 L-26.4 -59.35 Q-27.3 -66.85 -23.75 -73.65 -38.45 -67.4 -51.4 -76.95 -29.45 -73.4 -11.9 -87.1 L-9.35 -85.45 Q4.95 -76.85 20.85 -81.65 M24.15 -50.75 Q29.1 -50.75 32.6 -47.35 36.05 -43.95 36.05 -39.15 35.5 -37.0 34.05 -35.45 L32.9 -34.2 Q31.15 -35.95 32.1 -38.45 32.75 -40.15 31.8 -41.9 12.45 -22.3 -13.15 -26.0 -20.15 -27.15 -26.15 -30.9 -37.0 -29.2 -45.3 -36.0 -45.15 -31.65 -42.7 -28.0 L-42.8 -27.15 -44.6 -26.35 Q-54.15 -35.95 -43.8 -44.75 L-41.3 -44.15 -44.5 -39.15 Q-27.2 -31.5 -9.95 -41.5 -7.85 -42.7 -5.35 -41.75 13.0 -34.95 29.5 -45.2 L29.6 -45.3 23.55 -50.4 24.15 -50.75 M3.35 -70.7 L1.1 -74.35 -3.7 -75.3 -7.35 -76.9 Q-10.5 -71.3 -8.05 -65.2 L-1.9 -62.65 3.35 -70.7 M-37.55 0.7 Q-1.35 17.5 31.25 -4.3 L32.1 -3.8 33.0 -3.25 Q31.85 -0.35 29.9 2.1 15.75 15.5 -4.15 15.2 L-7.75 15.3 Q-25.85 14.9 -38.65 1.45 L-37.55 0.7 M-14.6 -66.1 Q-17.3 -64.45 -18.35 -67.4 -18.55 -68.0 -18.4 -68.6 -17.9 -71.15 -15.65 -71.5 -12.55 -71.05 -13.25 -67.95 -13.55 -66.75 -14.6 -66.1 M-7.0 -68.0 Q-8.1 -69.9 -6.6 -71.75 -6.1 -72.35 -5.5 -72.6 -2.15 -72.85 -2.3 -69.6 -2.4 -66.95 -4.9 -66.8 -6.2 -66.75 -7.0 -68.0 M-12.65 -75.0 L-14.3 -78.1 -15.8 -77.3 -22.4 -68.85 -21.25 -60.65 Q-16.7 -59.65 -12.75 -62.3 -10.8 -68.55 -12.65 -75.0" fill="#000000" fill-rule="evenodd" stroke="none"/>
      <path d="M-61.35 -36.65 L-60.9 -38.6 Q-44.8 -58.1 -55.05 -82.6 -39.1 -86.0 -33.55 -101.5 -6.05 -96.85 20.45 -105.45 L20.35 -104.55 Q20.05 -87.35 36.45 -91.3 36.55 -89.0 37.0 -86.65 39.7 -73.45 48.25 -63.4 L32.95 -70.05 Q36.45 -64.3 43.25 -60.9 48.6 -58.2 51.3 -52.25 44.0 -56.5 43.05 -48.1 42.1 -39.65 41.65 -31.05 40.7 -11.3 63.0 -8.95 75.6 20.0 77.75 51.45 78.45 61.65 71.05 69.1 44.55 95.5 6.85 104.2 L1.25 101.1 -3.4 96.6 Q-6.9 100.65 -10.55 104.3 -9.2 86.2 -26.85 95.45 -44.55 104.65 -64.3 106.45 L-64.2 108.5 Q-74.95 104.6 -82.45 96.0 L-84.25 93.85 Q-79.3 94.65 -74.75 93.15 L-70.4 91.65 Q-54.5 64.35 -67.5 35.1 -68.8 32.1 -67.4 27.95 -59.75 5.3 -58.7 -18.6 -51.3 -26.2 -59.0 -34.35 L-61.35 -36.65 M-74.35 -18.7 L-74.25 -18.95 -74.05 -18.7 -74.35 -18.7 M20.45 -78.9 Q22.95 -80.35 25.9 -81.4 23.8 -82.75 22.8 -82.3 L20.85 -81.65 Q17.35 -87.55 10.6 -87.4 0.55 -87.15 -9.35 -85.45 L-11.9 -87.1 Q-29.45 -73.4 -51.4 -76.95 -38.45 -67.4 -23.75 -73.65 -27.3 -66.85 -26.4 -59.35 L-30.9 -53.65 Q-29.9 -52.7 -28.5 -52.35 -20.15 -51.15 -14.55 -55.35 -19.15 -51.3 -21.05 -45.55 -13.5 -43.55 -8.25 -49.35 L-7.1 -49.1 Q7.3 -45.95 3.85 -56.9 8.5 -56.6 13.45 -58.0 L14.0 -59.1 9.9 -60.9 7.9 -63.7 Q10.5 -70.75 15.6 -75.35 18.55 -75.5 20.15 -78.35 L20.45 -78.9 M-13.2 -56.45 Q-10.95 -58.55 -9.15 -61.7 L-6.8 -60.2 Q-10.45 -58.6 -13.2 -56.45 M36.05 -39.15 Q41.4 -42.05 40.4 -48.0 38.55 -59.45 28.1 -59.75 L27.05 -58.85 Q23.3 -55.55 24.15 -50.75 L23.55 -50.4 29.6 -45.3 29.35 -45.5 29.5 -45.2 Q13.0 -34.95 -5.35 -41.75 -7.85 -42.7 -9.95 -41.5 -27.2 -31.5 -44.5 -39.15 L-41.3 -44.15 -43.8 -44.75 Q-54.15 -35.95 -44.6 -26.35 L-42.8 -27.15 -42.7 -28.0 Q-45.15 -31.65 -45.3 -36.0 -37.0 -29.2 -26.15 -30.9 -20.15 -27.15 -13.15 -26.0 12.45 -22.3 31.8 -41.9 32.75 -40.15 32.1 -38.45 31.15 -35.95 32.9 -34.2 L34.05 -35.45 Q35.5 -37.0 36.05 -39.15 M-37.55 0.7 L-38.65 1.45 Q-25.85 14.9 -7.75 15.3 -19.4 16.3 -28.0 20.3 -2.6 39.05 24.15 23.35 39.1 14.55 29.9 2.1 31.85 -0.35 33.0 -3.25 L32.1 -3.8 Q26.25 -15.4 11.15 -9.5 1.3 -5.7 -9.15 -7.05 -23.6 -8.7 -35.8 -3.4 -38.25 -2.45 -37.55 0.7 M23.25 -32.45 Q12.6 -22.85 -1.6 -21.85 -9.15 -22.0 -7.35 -14.95 -0.05 -11.95 7.85 -12.3 19.8 -11.3 26.4 -21.0 31.95 -29.2 23.25 -32.45" fill="#01a0c6" fill-rule="evenodd" stroke="none"/>
      <path d="M3.35 -70.7 L-1.9 -62.65 -8.05 -65.2 Q-10.5 -71.3 -7.35 -76.9 L-3.7 -75.3 1.1 -74.35 3.35 -70.7 M-12.65 -75.0 Q-10.8 -68.55 -12.75 -62.3 -16.7 -59.65 -21.25 -60.65 L-22.4 -68.85 -15.8 -77.3 -14.3 -78.1 -12.65 -75.0 M-7.0 -68.0 Q-6.2 -66.75 -4.9 -66.8 -2.4 -66.95 -2.3 -69.6 -2.15 -72.85 -5.5 -72.6 -6.1 -72.35 -6.6 -71.75 -8.1 -69.9 -7.0 -68.0 M-14.6 -66.1 Q-13.55 -66.75 -13.25 -67.95 -12.55 -71.05 -15.65 -71.5 -17.9 -71.15 -18.4 -68.6 -18.55 -68.0 -18.35 -67.4 -17.3 -64.45 -14.6 -66.1" fill="#fffe02" fill-rule="evenodd" stroke="none"/>
      <path d="M37.95 -98.2 L39.6 -100.05 Q44.6 -101.95 45.4 -106.95 57.75 -87.8 53.3 -64.35 L52.85 -61.4 48.25 -63.4 Q39.7 -73.45 37.0 -86.65 36.55 -89.0 36.45 -91.3 36.0 -95.4 37.95 -98.2 M-70.8 -46.35 L-61.35 -36.65 -59.0 -34.35 Q-51.3 -26.2 -58.7 -18.6 L-63.25 -18.15 Q-61.85 -22.6 -65.15 -26.1 -73.2 -34.7 -70.8 -46.35 M51.3 -52.25 Q55.85 -37.9 49.35 -23.4 48.7 -21.9 48.45 -20.2 L49.75 -19.3 Q55.75 -27.65 58.9 -37.45 95.1 12.65 93.45 72.75 93.15 83.05 85.3 90.05 50.4 121.3 6.85 104.2 44.55 95.5 71.05 69.1 78.45 61.65 77.75 51.45 75.6 20.0 63.0 -8.95 40.7 -11.3 41.65 -31.05 42.1 -39.65 43.05 -48.1 44.0 -56.5 51.3 -52.25 M-10.55 104.3 Q-26.5 118.35 -49.6 112.9 -56.9 111.2 -64.2 108.5 L-64.3 106.45 Q-44.55 104.65 -26.85 95.45 -9.2 86.2 -10.55 104.3 M20.85 -81.65 Q4.95 -76.85 -9.35 -85.45 0.55 -87.15 10.6 -87.4 17.35 -87.55 20.85 -81.65 M-14.55 -55.35 L-13.2 -56.45 Q-10.45 -58.6 -6.8 -60.2 L3.85 -56.9 Q7.3 -45.95 -7.1 -49.1 L-8.25 -49.35 Q-13.5 -43.55 -21.05 -45.55 -19.15 -51.3 -14.55 -55.35 M15.6 -75.35 Q17.75 -77.35 20.45 -78.9 L20.15 -78.35 Q18.55 -75.5 15.6 -75.35 M-7.75 15.3 L-4.15 15.2 Q15.75 15.5 29.9 2.1 39.1 14.55 24.15 23.35 -2.6 39.05 -28.0 20.3 -19.4 16.3 -7.75 15.3 M23.25 -32.45 Q31.95 -29.2 26.4 -21.0 19.8 -11.3 7.85 -12.3 -0.05 -11.95 -7.35 -14.95 -9.15 -22.0 -1.6 -21.85 12.6 -22.85 23.25 -32.45" fill="#01708b" fill-rule="evenodd" stroke="none"/>
    </g>
  </defs>
</svg>
