<?xml version="1.0" encoding="UTF-8" standalone="no"?>
<svg xmlns:xlink="http://www.w3.org/1999/xlink" height="209.75px" width="219.75px" xmlns="http://www.w3.org/2000/svg">
  <g transform="matrix(1.0, 0.0, 0.0, 1.0, 109.85, 104.85)">
    <use height="209.75" transform="matrix(1.0, 0.0, 0.0, 1.0, -109.85, -104.85)" width="219.75" xlink:href="#shape0"/>
  </g>
  <defs>
    <g id="shape0" transform="matrix(1.0, 0.0, 0.0, 1.0, 109.85, 104.85)">
      <path d="M67.2 -74.75 L71.55 -75.6 Q79.95 -72.95 80.2 -65.1 L80.05 -62.45 78.35 -61.1 74.1 -67.95 Q66.6 -47.35 57.35 -27.1 43.75 -7.05 49.5 16.3 54.2 35.3 57.5 54.45 58.35 69.35 44.0 68.1 L33.0 67.8 Q1.25 68.0 -30.25 72.8 -49.0 75.6 -55.95 58.65 -50.2 45.15 -45.8 30.85 -37.45 3.9 -50.85 -20.15 L-71.1 -54.15 -76.8 -49.4 -77.2 -51.05 Q-76.95 -54.4 -72.55 -56.75 -67.9 -59.25 -61.3 -59.25 L-60.15 -58.25 -64.95 -56.75 -69.1 -55.4 Q-54.55 -29.8 -34.25 -9.15 -32.6 -7.4 -29.75 -7.2 -2.55 -4.05 24.85 -4.3 32.15 -4.35 38.4 -8.2 40.7 -10.15 42.55 -12.95 60.7 -40.25 72.7 -70.6 L72.15 -71.35 66.3 -73.0 66.45 -74.6 67.2 -74.75 M41.8 -84.25 L40.35 -84.6 40.55 -85.0 Q8.3 -102.25 -24.75 -86.1 -33.15 -81.9 -40.25 -75.6 L-38.5 -72.4 Q-55.7 -86.55 -75.7 -87.2 L-86.9 -86.55 -88.8 -86.25 Q-94.7 -84.75 -97.55 -79.05 -109.15 -62.15 -100.2 -44.45 -99.1 -42.3 -97.1 -40.75 -82.75 -29.75 -71.05 -16.5 -67.75 -11.55 -65.75 -5.75 L-68.4 -6.7 Q-62.55 26.3 -70.65 58.9 -74.4 73.9 -67.25 87.1 -54.85 101.25 -35.2 98.3 -27.25 97.25 -19.35 95.4 13.35 88.5 54.75 92.35 74.65 98.3 82.05 78.35 84.25 72.3 83.2 65.75 80.15 46.35 73.85 27.8 71.7 21.5 72.35 15.0 75.05 -11.95 89.0 -35.45 L81.4 -29.9 76.7 -26.5 81.6 -34.65 Q107.75 -51.85 101.45 -82.05 L100.7 -84.7 Q95.4 -98.75 78.2 -100.3 L41.8 -84.25 M29.5 -83.05 L30.15 -82.05 27.75 -80.95 13.75 -90.6 21.85 -90.3 Q26.0 -88.1 29.5 -83.05 M-6.55 -87.85 L-22.8 -78.85 -23.9 -81.5 Q-19.1 -90.9 -6.85 -88.75 L-6.55 -87.85 M33.45 -54.3 Q33.55 -68.05 22.75 -75.7 22.2 -75.55 21.75 -75.25 3.45 -63.5 5.35 -41.8 7.6 -30.5 17.1 -24.3 L17.75 -24.6 Q34.8 -34.5 33.45 -54.3 M16.6 -76.35 Q28.9 -79.2 33.75 -66.5 39.35 -52.0 33.5 -37.6 29.0 -28.2 19.75 -23.3 L19.0 -23.0 Q13.55 -21.1 3.7 -33.95 -2.45 -25.8 -9.9 -25.1 L-10.3 -25.05 -12.4 -25.05 Q-20.85 -25.65 -25.95 -32.55 -34.2 -59.85 -13.15 -79.1 L-11.15 -80.75 Q-8.5 -80.15 -6.2 -78.9 4.05 -73.2 6.1 -64.7 L16.6 -76.35 M33.4 -26.45 L30.15 -22.0 24.25 -22.55 34.0 -32.1 33.4 -26.45 M-22.35 -24.4 L-20.95 -21.5 Q-29.45 -23.2 -31.25 -31.75 L-31.2 -31.7 Q-25.25 -29.1 -22.35 -24.4 M18.45 -46.0 Q19.75 -37.1 11.9 -39.45 11.05 -39.7 10.8 -40.65 8.25 -49.2 16.2 -47.85 17.7 -47.45 18.45 -46.0 M13.8 -44.45 Q13.55 -43.4 14.0 -42.4 L14.1 -42.25 14.85 -42.25 15.45 -43.75 Q15.45 -44.4 14.85 -44.7 L13.95 -44.6 13.8 -44.45 M0.5 -45.75 L0.7 -43.9 1.15 -45.6 Q5.4 -63.3 -7.0 -76.25 -7.65 -76.95 -8.55 -76.55 -23.5 -68.65 -24.35 -51.55 -24.45 -46.75 -23.1 -41.45 -18.4 -22.9 -6.1 -32.65 -2.05 -35.9 -0.25 -41.05 -4.5 -36.8 -6.95 -41.6 L-7.35 -42.45 Q-10.55 -50.1 -3.15 -48.7 -0.25 -48.3 0.5 -45.75 M29.15 -0.7 Q35.75 13.25 30.65 28.1 29.5 31.45 27.7 34.55 43.65 27.05 43.25 9.55 43.05 2.2 39.8 -4.35 L29.15 -0.7 M5.55 -2.35 L3.15 3.3 Q6.95 20.35 2.0 37.05 L24.65 35.6 Q26.2 33.35 27.1 30.75 33.15 13.7 25.65 -0.7 L5.55 -2.35 M92.7 -36.9 Q71.95 6.7 82.6 39.1 93.25 71.45 84.7 86.9 76.15 102.3 57.2 97.85 38.2 93.4 12.05 96.15 -14.1 98.9 -50.0 104.9 -59.8 104.65 -66.3 98.05 -84.6 79.45 -76.55 54.45 -66.1 21.85 -73.05 -11.5 -84.85 -16.65 -94.4 -25.1 -112.95 -41.4 -109.25 -64.55 -105.85 -85.75 -86.65 -95.6 -61.7 -96.85 -43.6 -77.4 -28.7 -94.95 -6.3 -99.25 21.2 -104.35 44.6 -88.9 L59.6 -99.2 Q72.5 -108.0 86.85 -103.15 108.7 -95.5 109.85 -72.45 110.95 -50.0 92.7 -36.9 M27.95 37.95 Q16.0 41.3 3.55 39.95 9.15 52.6 4.55 65.05 L35.15 63.9 Q37.6 50.05 28.9 37.7 L27.95 37.95 M32.1 37.5 Q39.2 50.3 37.5 64.2 L41.4 65.1 Q59.95 68.95 55.55 47.35 L40.35 31.0 32.1 37.5 M1.1 40.0 L-23.05 37.75 Q-26.45 42.2 -28.4 47.6 -32.35 58.55 -27.85 68.4 L2.15 64.75 Q6.0 52.5 1.1 40.0 M-4.75 -43.7 L-4.55 -44.35 Q-4.2 -46.0 -5.5 -45.1 L-4.75 -43.7 M-27.05 -19.6 L-30.3 -22.35 Q-27.7 -25.3 -27.05 -19.6 M-33.0 35.1 L-35.45 29.6 Q-51.6 43.8 -49.85 62.35 -49.5 66.25 -46.25 68.8 L-32.3 66.7 Q-35.2 50.7 -26.25 37.25 L-33.0 35.1 M-20.35 34.55 L-21.55 33.5 Q-31.8 19.0 -27.25 1.75 L-38.05 -2.7 Q-38.65 16.15 -30.6 33.2 L-20.35 34.55 M-0.55 37.05 Q4.05 17.05 -1.2 -2.75 L-24.65 2.35 Q-27.6 14.8 -22.1 26.55 L-18.9 33.2 -19.7 34.6 -0.55 37.05" fill="#000000" fill-rule="evenodd" stroke="none"/>
      <path d="M80.2 -65.1 Q79.95 -72.95 71.55 -75.6 L67.2 -74.75 Q67.35 -77.1 69.8 -77.5 83.75 -77.95 80.2 -65.1 M38.4 -8.2 Q32.15 -4.35 24.85 -4.3 -2.55 -4.05 -29.75 -7.2 -32.6 -7.4 -34.25 -9.15 -54.55 -29.8 -69.1 -55.4 L-64.95 -56.75 -62.35 -55.7 Q-54.65 -36.5 -41.7 -20.4 -28.85 -4.45 -6.95 -8.4 L1.8 -9.3 38.4 -8.2 M-61.3 -59.25 Q-67.9 -59.25 -72.55 -56.75 -76.95 -54.4 -77.2 -51.05 -76.65 -63.75 -63.95 -62.75 L-61.3 -59.25 M-50.85 -20.15 Q-37.45 3.9 -45.8 30.85 -50.2 45.15 -55.95 58.65 -57.65 43.15 -50.0 28.9 -48.3 25.75 -48.1 22.0 -47.0 0.7 -50.85 -20.15 M57.5 54.45 Q54.2 35.3 49.5 16.3 43.75 -7.05 57.35 -27.1 48.75 -1.75 55.75 23.2 60.1 38.65 57.5 54.45 M100.7 -84.7 Q83.25 -101.1 62.45 -88.55 52.8 -82.7 41.8 -84.25 L78.2 -100.3 Q95.4 -98.75 100.7 -84.7 M40.35 -84.6 Q33.85 -86.2 27.3 -88.35 L21.85 -90.3 13.75 -90.6 -6.55 -87.85 -6.85 -88.75 Q-19.1 -90.9 -23.9 -81.5 L-40.65 -70.9 -71.35 -84.65 Q-73.4 -86.4 -75.7 -87.2 -55.7 -86.55 -38.5 -72.4 L-40.25 -75.6 Q-33.15 -81.9 -24.75 -86.1 8.3 -102.25 40.55 -85.0 L40.35 -84.6 M-65.75 -5.75 Q-51.85 25.3 -62.7 57.85 -67.55 72.5 -65.25 87.7 -66.25 87.3 -67.25 87.1 -74.4 73.9 -70.65 58.9 -62.55 26.3 -68.4 -6.7 L-65.75 -5.75 M72.45 -10.5 Q65.85 -18.7 73.6 -28.1 77.0 -32.2 81.6 -34.65 L76.7 -26.5 81.4 -29.9 72.45 -10.5 M-97.55 -79.05 Q-94.7 -84.75 -88.8 -86.25 L-86.9 -86.55 -90.9 -84.65 Q-94.8 -82.45 -97.55 -79.05" fill="#ac99c9" fill-rule="evenodd" stroke="none"/>
      <path d="M67.2 -74.75 L66.45 -74.6 66.3 -73.0 72.15 -71.35 72.7 -70.6 Q60.7 -40.25 42.55 -12.95 40.7 -10.15 38.4 -8.2 L1.8 -9.3 -6.95 -8.4 Q-28.85 -4.45 -41.7 -20.4 -54.65 -36.5 -62.35 -55.7 L-64.95 -56.75 -60.15 -58.25 -61.3 -59.25 -63.95 -62.75 Q-76.65 -63.75 -77.2 -51.05 L-76.8 -49.4 -71.1 -54.15 -50.85 -20.15 Q-47.0 0.7 -48.1 22.0 -48.3 25.75 -50.0 28.9 -57.65 43.15 -55.95 58.65 -49.0 75.6 -30.25 72.8 1.25 68.0 33.0 67.8 L44.0 68.1 Q58.35 69.35 57.5 54.45 60.1 38.65 55.75 23.2 48.75 -1.75 57.35 -27.1 66.6 -47.35 74.1 -67.95 L78.35 -61.1 80.05 -62.45 80.2 -65.1 Q83.75 -77.95 69.8 -77.5 67.35 -77.1 67.2 -74.75 M41.8 -84.25 Q52.8 -82.7 62.45 -88.55 83.25 -101.1 100.7 -84.7 L101.45 -82.05 Q107.75 -51.85 81.6 -34.65 77.0 -32.2 73.6 -28.1 65.85 -18.7 72.45 -10.5 60.35 20.75 70.7 52.2 73.95 62.2 72.8 72.3 72.15 78.1 66.65 80.1 52.55 85.4 38.35 89.1 L54.75 92.35 Q13.35 88.5 -19.35 95.4 L3.6 88.25 Q-17.35 92.05 -39.0 92.35 -52.55 92.5 -65.25 87.7 -67.55 72.5 -62.7 57.85 -51.85 25.3 -65.75 -5.75 -67.75 -11.55 -71.05 -16.5 -73.95 -26.3 -80.7 -34.25 L-83.15 -37.4 Q-92.15 -58.45 -81.65 -78.05 -80.8 -79.65 -80.35 -81.45 L-71.35 -84.65 -40.65 -70.9 -23.9 -81.5 -22.8 -78.85 -6.55 -87.85 13.75 -90.6 27.75 -80.95 30.15 -82.05 29.5 -83.05 27.3 -88.35 Q33.85 -86.2 40.35 -84.6 L41.8 -84.25 M33.5 -37.6 Q39.35 -52.0 33.75 -66.5 28.9 -79.2 16.6 -76.35 L6.65 -72.55 Q-0.1 -81.65 -11.15 -80.75 L-13.15 -79.1 Q-34.2 -59.85 -25.95 -32.55 L-30.3 -40.4 -31.2 -31.7 -31.25 -31.75 Q-29.45 -23.2 -20.95 -21.5 L-22.35 -24.4 -10.3 -25.05 -9.9 -25.1 Q-2.45 -25.8 3.7 -33.95 13.55 -21.1 19.0 -23.0 25.2 -17.35 30.15 -22.0 L33.4 -26.45 Q37.15 -33.4 35.75 -41.8 L33.5 -37.6 M8.5 84.75 L9.1 85.3 Q26.35 91.55 42.3 81.45 L43.8 80.4 8.5 84.75 M-27.05 -19.6 Q-27.7 -25.3 -30.3 -22.35 L-27.05 -19.6 M-13.65 75.25 Q10.8 87.85 30.9 70.65 L-15.9 74.1 -13.65 75.25" fill="#8169b0" fill-rule="evenodd" stroke="none"/>
      <path d="M27.3 -88.35 L29.5 -83.05 Q26.0 -88.1 21.85 -90.3 L27.3 -88.35 M-80.35 -81.45 Q-80.8 -79.65 -81.65 -78.05 -92.15 -58.45 -83.15 -37.4 -86.35 -41.6 -88.3 -46.4 -96.6 -66.85 -80.35 -81.45 M5.35 -41.8 Q3.45 -63.5 21.75 -75.25 22.2 -75.55 22.75 -75.7 33.55 -68.05 33.45 -54.3 30.8 -42.3 21.35 -35.15 20.0 -34.15 18.05 -34.55 10.45 -35.85 5.35 -41.8 M13.8 -44.45 L13.95 -44.6 14.85 -44.7 Q15.45 -44.4 15.45 -43.75 L14.85 -42.25 14.1 -42.25 14.0 -42.4 Q13.55 -43.4 13.8 -44.45 M18.45 -46.0 Q17.7 -47.45 16.2 -47.85 8.25 -49.2 10.8 -40.65 11.05 -39.7 11.9 -39.45 19.75 -37.1 18.45 -46.0 M1.15 -45.6 L0.5 -45.75 Q-0.25 -48.3 -3.15 -48.7 -10.55 -50.1 -7.35 -42.45 L-6.95 -41.6 Q-9.55 -39.65 -13.0 -38.8 L-15.3 -38.4 Q-19.8 -44.4 -19.6 -51.8 L-19.45 -53.8 -20.35 -54.95 -21.6 -55.05 -24.35 -51.55 Q-23.5 -68.65 -8.55 -76.55 -7.65 -76.95 -7.0 -76.25 5.4 -63.3 1.15 -45.6 M5.55 -2.35 L25.65 -0.7 Q33.15 13.7 27.1 30.75 26.2 33.35 24.65 35.6 L2.0 37.05 Q6.95 20.35 3.15 3.3 L5.55 -2.35 M29.15 -0.7 L39.8 -4.35 Q43.05 2.2 43.25 9.55 43.65 27.05 27.7 34.55 29.5 31.45 30.65 28.1 35.75 13.25 29.15 -0.7 M32.1 37.5 L40.35 31.0 55.55 47.35 Q59.95 68.95 41.4 65.1 L37.5 64.2 Q39.2 50.3 32.1 37.5 M27.95 37.95 L28.9 37.7 Q37.6 50.05 35.15 63.9 L4.55 65.05 Q9.15 52.6 3.55 39.95 16.0 41.3 27.95 37.95 M8.5 84.75 L43.8 80.4 42.3 81.45 Q26.35 91.55 9.1 85.3 L8.5 84.75 M1.1 40.0 Q6.0 52.5 2.15 64.75 L-27.85 68.4 Q-32.35 58.55 -28.4 47.6 -26.45 42.2 -23.05 37.75 L1.1 40.0 M-4.75 -43.7 L-5.5 -45.1 Q-4.2 -46.0 -4.55 -44.35 L-4.75 -43.7 M-0.55 37.05 L-19.7 34.6 -18.9 33.2 -22.1 26.55 Q-27.6 14.8 -24.65 2.35 L-1.2 -2.75 Q4.05 17.05 -0.55 37.05 M-20.35 34.55 L-30.6 33.2 Q-38.65 16.15 -38.05 -2.7 L-27.25 1.75 Q-31.8 19.0 -21.55 33.5 L-20.35 34.55 M-33.0 35.1 L-26.25 37.25 Q-35.2 50.7 -32.3 66.7 L-46.25 68.8 Q-49.5 66.25 -49.85 62.35 -51.6 43.8 -35.45 29.6 L-33.0 35.1" fill="#ffffff" fill-rule="evenodd" stroke="none"/>
      <path d="M-71.35 -84.65 L-80.35 -81.45 Q-96.6 -66.85 -88.3 -46.4 -86.35 -41.6 -83.15 -37.4 L-80.7 -34.25 Q-73.95 -26.3 -71.05 -16.5 -82.75 -29.75 -97.1 -40.75 -99.1 -42.3 -100.2 -44.45 -109.15 -62.15 -97.55 -79.05 -94.8 -82.45 -90.9 -84.65 L-86.9 -86.55 -75.7 -87.2 Q-73.4 -86.4 -71.35 -84.65 M-65.25 87.7 Q-52.55 92.5 -39.0 92.35 -17.35 92.05 3.6 88.25 L-19.35 95.4 Q-27.25 97.25 -35.2 98.3 -54.85 101.25 -67.25 87.1 -66.25 87.3 -65.25 87.7 M54.75 92.35 L38.35 89.1 Q52.55 85.4 66.65 80.1 72.15 78.1 72.8 72.3 73.95 62.2 70.7 52.2 60.35 20.75 72.45 -10.5 L81.4 -29.9 89.0 -35.45 Q75.05 -11.95 72.35 15.0 71.7 21.5 73.85 27.8 80.15 46.35 83.2 65.75 84.25 72.3 82.05 78.35 74.65 98.3 54.75 92.35 M33.5 -37.6 L35.75 -41.8 Q37.15 -33.4 33.4 -26.45 L34.0 -32.1 24.25 -22.55 30.15 -22.0 Q25.2 -17.35 19.0 -23.0 L19.75 -23.3 Q29.0 -28.2 33.5 -37.6 M-10.3 -25.05 L-22.35 -24.4 Q-25.25 -29.1 -31.2 -31.7 L-30.3 -40.4 -25.95 -32.55 Q-20.85 -25.65 -12.4 -25.05 L-10.3 -25.05 M-11.15 -80.75 Q-0.1 -81.65 6.65 -72.55 L16.6 -76.35 6.1 -64.7 Q4.05 -73.2 -6.2 -78.9 -8.5 -80.15 -11.15 -80.75 M-13.65 75.25 L-15.9 74.1 30.9 70.65 Q10.8 87.85 -13.65 75.25" fill="#5c4b7d" fill-rule="evenodd" stroke="none"/>
      <path d="M33.45 -54.3 Q34.8 -34.5 17.75 -24.6 L17.1 -24.3 Q7.6 -30.5 5.35 -41.8 10.45 -35.85 18.05 -34.55 20.0 -34.15 21.35 -35.15 30.8 -42.3 33.45 -54.3 M1.15 -45.6 L0.7 -43.9 0.5 -45.75 1.15 -45.6 M-6.95 -41.6 Q-4.5 -36.8 -0.25 -41.05 -2.05 -35.9 -6.1 -32.65 -18.4 -22.9 -23.1 -41.45 -24.45 -46.75 -24.35 -51.55 L-21.6 -55.05 -20.35 -54.95 -19.45 -53.8 -19.6 -51.8 Q-19.8 -44.4 -15.3 -38.4 L-13.0 -38.8 Q-9.55 -39.65 -6.95 -41.6" fill="#dcdcc5" fill-rule="evenodd" stroke="none"/>
    </g>
  </defs>
</svg>
