<?xml version="1.0" encoding="UTF-8" standalone="no"?>
<svg xmlns:xlink="http://www.w3.org/1999/xlink" height="205.6px" width="219.95px" xmlns="http://www.w3.org/2000/svg">
  <g transform="matrix(1.0, 0.0, 0.0, 1.0, 109.95, 102.8)">
    <use height="205.6" transform="matrix(1.0, 0.0, 0.0, 1.0, -109.95, -102.8)" width="219.95" xlink:href="#shape0"/>
  </g>
  <defs>
    <g id="shape0" transform="matrix(1.0, 0.0, 0.0, 1.0, 109.95, 102.8)">
      <path d="M45.45 -82.25 L45.75 -82.65 Q46.95 -84.0 48.55 -84.8 51.4 -84.9 52.95 -83.6 53.15 -80.6 52.3 -77.25 51.4 -73.9 49.9 -73.15 48.35 -72.45 47.1 -74.75 45.8 -77.1 45.45 -82.25 M56.2 -87.2 Q51.3 -94.9 37.1 -93.0 34.3 -92.05 32.05 -89.9 22.65 -81.0 31.8 -71.4 L31.85 -71.35 Q39.15 -66.45 48.25 -67.3 50.6 -68.15 52.75 -69.6 63.15 -76.35 56.2 -87.2 M50.55 -79.0 Q50.55 -79.5 50.2 -79.85 49.85 -80.25 49.35 -80.25 48.85 -80.25 48.5 -79.85 48.15 -79.5 48.15 -79.0 48.15 -78.5 48.5 -78.1 48.85 -77.75 49.35 -77.75 49.85 -77.75 50.2 -78.1 50.55 -78.5 50.55 -79.0 M13.0 -62.7 L22.15 -56.8 Q19.7 -55.85 17.25 -56.8 4.7 -61.15 -8.1 -58.1 L4.8 -63.55 1.85 -64.75 -9.6 -69.4 Q-24.2 -57.9 -41.6 -65.05 -53.0 -69.7 -57.3 -81.25 -79.9 -93.4 -94.5 -73.25 -108.6 -53.75 -92.8 -35.9 -90.45 -33.9 -87.5 -32.25 L-85.5 -31.05 Q-75.2 -24.75 -70.3 -13.55 L-69.35 -11.3 -86.2 -23.8 -83.35 -16.15 Q-79.25 -4.4 -80.3 8.0 -81.4 21.55 -88.25 33.3 -96.7 47.8 -101.35 63.6 -103.4 70.55 -101.1 77.6 -97.9 87.3 -88.9 92.55 L-88.6 92.75 Q-68.95 102.7 -49.0 92.5 -40.05 87.95 -32.6 80.9 L-41.7 73.15 Q-36.5 74.0 -31.4 75.6 L-27.05 76.75 Q-5.45 79.4 15.5 71.6 23.5 68.7 32.3 68.35 L34.3 68.6 19.4 79.05 20.1 85.75 Q27.0 88.4 34.15 89.4 L42.65 89.85 Q49.6 89.8 56.2 88.05 79.95 81.75 83.35 59.05 86.65 37.3 74.7 18.0 64.05 0.85 66.7 -19.05 L61.15 -16.7 Q71.4 -35.15 88.95 -49.5 109.05 -65.85 91.95 -83.3 78.05 -97.6 60.4 -87.3 63.85 -79.1 58.2 -72.35 45.05 -56.45 28.05 -69.65 L11.4 -63.8 11.35 -63.8 11.45 -63.75 13.0 -62.7 M25.0 -46.7 Q43.0 -40.6 60.45 -48.15 74.75 -54.3 78.9 -65.7 L80.35 -72.25 70.25 -72.55 77.3 -76.9 81.8 -76.1 Q86.6 -74.85 89.35 -70.75 90.8 -68.55 91.25 -65.85 L88.0 -61.2 82.65 -71.2 77.9 -57.0 Q76.0 -54.65 73.65 -52.6 L69.85 -49.45 Q56.7 -39.4 41.4 -36.65 L44.1 -31.2 45.8 -27.8 48.95 -21.4 57.2 -22.4 50.45 -15.95 50.75 -10.15 Q50.6 12.6 30.75 24.3 12.5 35.15 -8.3 29.3 -20.1 25.9 -27.8 16.3 -33.1 9.6 -33.5 2.25 L-31.85 -7.7 -44.75 -14.75 -27.75 -14.35 -27.65 -14.5 -26.4 -17.1 Q-26.1 -18.55 -26.5 -20.2 L-26.95 -21.85 Q-38.5 -39.15 -62.25 -41.5 -67.2 -42.25 -71.35 -45.2 -74.85 -47.65 -78.05 -50.75 L-82.35 -41.95 -83.05 -40.5 -83.3 -40.05 Q-83.7 -40.25 -83.9 -40.5 L-84.05 -40.9 Q-87.55 -58.45 -69.6 -60.8 L-66.45 -58.65 -68.45 -57.45 -76.75 -52.5 Q-63.15 -39.95 -44.35 -41.0 -23.65 -42.75 -3.4 -48.15 10.95 -51.9 25.0 -46.7 M59.45 -89.7 Q67.0 -96.85 77.55 -97.9 88.8 -98.8 98.05 -92.7 107.7 -86.45 109.95 -75.6 110.45 -67.35 106.15 -60.1 97.75 -45.75 84.0 -36.35 72.75 -28.6 71.15 -14.9 68.9 4.7 80.65 20.95 87.95 31.15 92.55 42.55 96.6 52.75 95.55 63.75 94.2 77.7 83.7 86.8 75.05 94.25 63.9 96.35 49.15 99.05 34.25 97.7 19.9 96.5 12.05 84.5 11.05 83.3 8.0 84.25 -7.45 88.75 -22.75 85.1 -25.85 88.55 -29.6 91.0 -42.15 99.3 -57.05 101.85 -72.05 104.25 -86.8 100.55 -97.15 97.9 -102.5 89.15 -110.85 75.7 -107.35 59.3 -103.6 41.65 -93.35 26.45 -79.7 6.25 -87.45 -16.2 -91.7 -28.6 -101.05 -38.15 -115.95 -53.4 -105.9 -72.7 -98.05 -87.7 -81.1 -90.5 -66.95 -92.95 -55.35 -84.25 -55.95 -89.5 -52.8 -93.6 -45.4 -103.0 -33.3 -102.8 -20.05 -101.8 -13.85 -89.6 L-12.55 -92.1 Q-7.4 -101.6 3.6 -101.35 18.1 -101.0 26.25 -92.75 32.1 -99.65 41.25 -99.55 53.25 -99.4 59.45 -89.7 M9.3 -79.9 L9.25 -81.0 Q9.4 -84.55 13.2 -85.2 L14.2 -85.35 Q16.6 -85.35 18.15 -84.3 L20.45 -79.15 Q18.1 -74.75 12.85 -76.1 11.55 -76.45 10.4 -77.45 L9.3 -79.9 M21.8 -85.1 Q20.65 -88.05 17.9 -90.45 13.2 -94.45 6.6 -94.45 0.0 -94.45 -4.65 -90.45 -9.35 -86.45 -9.35 -80.8 -9.35 -75.15 -4.65 -71.15 -2.0 -68.9 1.3 -67.9 7.1 -66.3 12.65 -68.4 24.7 -73.05 21.8 -85.1 M16.5 -78.8 Q18.4 -80.4 13.95 -80.75 14.6 -77.25 16.5 -78.8 M9.65 -31.8 L9.3 -33.3 Q8.35 -36.95 6.3 -39.05 5.15 -40.25 3.7 -41.0 -9.8 -47.6 -23.6 -41.3 L-28.25 -38.8 -30.6 -37.3 -22.8 -21.65 -19.9 -23.5 Q-20.3 -18.15 -24.15 -12.75 -30.25 -4.3 -29.4 6.2 -28.45 17.7 -17.7 22.2 -12.0 24.65 -5.95 26.0 L0.25 27.05 Q9.85 28.15 19.45 26.25 L20.05 26.15 23.4 25.2 Q31.6 22.45 38.15 16.25 46.15 8.7 46.35 -2.6 46.55 -13.45 40.4 -21.7 33.65 -30.85 34.65 -41.4 L6.35 -46.2 9.05 -38.5 11.0 -31.85 Q14.2 -20.45 8.5 -13.15 L8.4 -13.05 8.15 -13.3 Q5.85 -15.55 7.65 -19.15 L7.8 -19.45 8.85 -21.8 8.9 -21.95 9.8 -25.25 10.0 -28.55 9.65 -31.8 M-22.95 -91.4 L-23.8 -91.9 Q-37.45 -99.35 -45.75 -86.4 -50.35 -79.25 -46.0 -70.9 -43.45 -68.3 -40.25 -66.95 -29.25 -61.95 -20.2 -69.95 -14.2 -75.3 -16.05 -83.45 L-22.95 -91.4 M-29.2 -77.65 L-30.1 -78.3 Q-30.5 -78.65 -30.55 -79.25 -31.1 -83.85 -26.75 -85.8 L-25.35 -85.75 -22.7 -84.9 -20.55 -78.75 -29.2 -77.65 M-22.55 -79.15 L-24.7 -81.35 Q-26.05 -79.7 -22.55 -79.15" fill="#000000" fill-rule="evenodd" stroke="none"/>
      <path d="M52.95 -83.6 Q51.4 -84.9 48.55 -84.8 46.95 -84.0 45.75 -82.65 L45.45 -82.25 Q36.6 -82.85 32.9 -74.8 32.05 -72.95 31.85 -71.35 L31.8 -71.4 Q22.65 -81.0 32.05 -89.9 34.3 -92.05 37.1 -93.0 51.3 -94.9 56.2 -87.2 54.3 -85.85 52.95 -83.6 M18.15 -84.3 Q16.6 -85.35 14.2 -85.35 L13.2 -85.2 Q9.4 -84.55 9.25 -81.0 L9.3 -79.9 Q5.5 -78.85 2.9 -75.05 0.6 -71.7 1.3 -67.9 -2.0 -68.9 -4.65 -71.15 -9.35 -75.15 -9.35 -80.8 -9.35 -86.45 -4.65 -90.45 0.0 -94.45 6.6 -94.45 13.2 -94.45 17.9 -90.45 20.65 -88.05 21.8 -85.1 L18.15 -84.3 M-40.25 -66.95 Q-43.45 -68.3 -46.0 -70.9 -50.35 -79.25 -45.75 -86.4 -37.45 -99.35 -23.8 -91.9 L-22.95 -91.4 -25.35 -85.75 -26.75 -85.8 Q-31.1 -83.85 -30.55 -79.25 -30.5 -78.65 -30.1 -78.3 L-29.2 -77.65 Q-33.8 -77.65 -37.0 -74.5 -40.25 -71.4 -40.25 -66.95" fill="#ffff2f" fill-rule="evenodd" stroke="none"/>
      <path d="M50.55 -79.0 Q50.55 -78.5 50.2 -78.1 49.85 -77.75 49.35 -77.75 48.85 -77.75 48.5 -78.1 48.15 -78.5 48.15 -79.0 48.15 -79.5 48.5 -79.85 48.85 -80.25 49.35 -80.25 49.85 -80.25 50.2 -79.85 50.55 -79.5 50.55 -79.0 M16.5 -78.8 Q14.6 -77.25 13.95 -80.75 18.4 -80.4 16.5 -78.8 M8.9 60.25 Q7.05 60.25 5.7 58.9 4.4 57.6 4.4 55.75 4.4 53.9 5.7 52.55 7.05 51.25 8.9 51.25 10.75 51.25 12.05 52.55 13.4 53.9 13.4 55.75 13.4 57.6 12.05 58.9 10.75 60.25 8.9 60.25 M-87.2 -76.25 Q-84.65 -78.75 -81.05 -78.75 -77.45 -78.75 -74.95 -76.25 -72.4 -73.7 -72.4 -70.1 -72.4 -66.5 -74.95 -64.0 -77.45 -61.45 -81.05 -61.45 -84.65 -61.45 -87.2 -64.0 -89.7 -66.5 -89.7 -70.1 -89.7 -73.7 -87.2 -76.25 M-22.55 -79.15 Q-26.05 -79.7 -24.7 -81.35 L-22.55 -79.15 M-86.7 61.25 Q-85.1 62.85 -85.1 65.1 -85.1 67.35 -86.7 68.95 -88.3 70.55 -90.55 70.55 -92.8 70.55 -94.4 68.95 -96.0 67.35 -96.0 65.1 -96.0 62.85 -94.4 61.25 -92.8 59.65 -90.55 59.65 -88.3 59.65 -86.7 61.25" fill="#ffffff" fill-rule="evenodd" stroke="none"/>
      <path d="M45.45 -82.25 Q45.8 -77.1 47.1 -74.75 48.35 -72.45 49.9 -73.15 51.4 -73.9 52.3 -77.25 53.15 -80.6 52.95 -83.6 54.3 -85.85 56.2 -87.2 63.15 -76.35 52.75 -69.6 50.6 -68.15 48.25 -67.3 39.15 -66.45 31.85 -71.35 32.05 -72.95 32.9 -74.8 36.6 -82.85 45.45 -82.25 M9.3 -79.9 L10.4 -77.45 Q11.55 -76.45 12.85 -76.1 18.1 -74.75 20.45 -79.15 L18.15 -84.3 21.8 -85.1 Q24.7 -73.05 12.65 -68.4 7.1 -66.3 1.3 -67.9 0.6 -71.7 2.9 -75.05 5.5 -78.85 9.3 -79.9 M-22.95 -91.4 L-16.05 -83.45 Q-14.2 -75.3 -20.2 -69.95 -29.25 -61.95 -40.25 -66.95 -40.25 -71.4 -37.0 -74.5 -33.8 -77.65 -29.2 -77.65 L-20.55 -78.75 -22.7 -84.9 -25.35 -85.75 -22.95 -91.4" fill="#cccc00" fill-rule="evenodd" stroke="none"/>
      <path d="M13.0 -62.7 Q33.35 -59.3 53.4 -64.05 64.6 -66.7 75.9 -68.95 L78.9 -65.7 Q74.75 -54.3 60.45 -48.15 43.0 -40.6 25.0 -46.7 6.35 -55.2 -15.25 -47.1 -34.95 -39.65 -54.7 -43.85 -61.7 -45.4 -66.85 -50.45 L-67.75 -54.4 -54.65 -72.7 Q-47.6 -57.55 -26.3 -58.2 -10.2 -59.25 1.85 -64.75 L4.8 -63.55 -8.1 -58.1 Q4.7 -61.15 17.25 -56.8 19.7 -55.85 22.15 -56.8 L13.0 -62.7 M77.9 -57.0 L59.05 -29.6 45.8 -27.8 44.1 -31.2 Q59.1 -34.9 68.45 -47.55 L69.85 -49.45 73.65 -52.6 Q76.0 -54.65 77.9 -57.0 M-8.3 29.3 Q28.05 52.65 57.5 19.55 L69.1 51.25 Q64.65 57.55 57.5 59.75 26.9 69.0 42.65 89.85 L34.15 89.4 Q27.0 88.4 20.1 85.75 L19.4 79.05 34.3 68.6 32.3 68.35 Q29.4 66.25 26.35 65.0 19.8 42.9 -6.6 55.0 -16.85 59.65 -19.65 69.2 -27.1 69.75 -34.5 69.5 -33.95 74.45 -27.05 76.75 L-31.4 75.6 Q-36.5 74.0 -41.7 73.15 L-47.8 67.15 Q-53.9 75.05 -61.0 78.35 -86.05 70.55 -74.25 45.2 -68.35 32.4 -74.45 19.8 -101.3 57.35 -98.0 78.45 -96.75 86.5 -88.6 92.75 L-88.9 92.55 Q-97.9 87.3 -101.1 77.6 -103.4 70.55 -101.35 63.6 -96.7 47.8 -88.25 33.3 -81.4 21.55 -80.3 8.0 -79.25 -4.4 -83.35 -16.15 L-86.2 -23.8 Q-76.85 -10.7 -76.85 4.8 L-76.65 5.05 Q-55.9 -12.0 -33.5 2.25 -33.1 9.6 -27.8 16.3 -20.1 25.9 -8.3 29.3 M61.15 -16.7 L61.0 -16.7 61.15 -16.7 M11.4 -63.8 L11.45 -63.75 11.35 -63.8 11.4 -63.8 M-85.5 -31.05 L-87.5 -32.25 Q-90.45 -33.9 -92.8 -35.9 L-83.9 -40.5 Q-83.7 -40.25 -83.3 -40.05 L-83.05 -40.5 -82.1 -41.2 -81.05 -42.0 -74.15 -42.15 -72.95 -43.4 Q-60.45 -24.15 -36.4 -23.05 L-26.95 -21.85 -26.5 -20.2 Q-26.1 -18.55 -26.4 -17.1 -45.9 -16.1 -63.45 -24.1 -76.05 -29.8 -85.5 -31.05 M-27.75 -14.35 L-27.9 -14.5 -27.65 -14.5 -27.75 -14.35" fill="#ff8000" fill-rule="evenodd" stroke="none"/>
      <path d="M78.9 -65.7 L75.9 -68.95 Q64.6 -66.7 53.4 -64.05 33.35 -59.3 13.0 -62.7 L11.45 -63.75 11.4 -63.8 28.05 -69.65 Q45.05 -56.45 58.2 -72.35 63.85 -79.1 60.4 -87.3 78.05 -97.6 91.95 -83.3 109.05 -65.85 88.95 -49.5 71.4 -35.15 61.15 -16.7 L66.7 -19.05 Q64.05 0.85 74.7 18.0 86.65 37.3 83.35 59.05 79.95 81.75 56.2 88.05 49.6 89.8 42.65 89.85 26.9 69.0 57.5 59.75 64.65 57.55 69.1 51.25 L57.5 19.55 Q28.05 52.65 -8.3 29.3 12.5 35.15 30.75 24.3 50.6 12.6 50.75 -10.15 L50.45 -15.95 57.2 -22.4 48.95 -21.4 45.8 -27.8 59.05 -29.6 77.9 -57.0 82.65 -71.2 88.0 -61.2 91.25 -65.85 Q90.8 -68.55 89.35 -70.75 86.6 -74.85 81.8 -76.1 L77.3 -76.9 70.25 -72.55 80.35 -72.25 78.9 -65.7 M1.85 -64.75 Q-10.2 -59.25 -26.3 -58.2 -47.6 -57.55 -54.65 -72.7 -56.45 -76.5 -57.3 -81.25 -53.0 -69.7 -41.6 -65.05 -24.2 -57.9 -9.6 -69.4 L1.85 -64.75 M-67.75 -54.4 L-66.85 -50.45 Q-61.7 -45.4 -54.7 -43.85 -34.95 -39.65 -15.25 -47.1 6.35 -55.2 25.0 -46.7 10.95 -51.9 -3.4 -48.15 -23.65 -42.75 -44.35 -41.0 -63.15 -39.95 -76.75 -52.5 L-68.45 -57.45 -67.75 -54.4 M61.15 -16.7 L61.0 -16.7 61.15 -16.7 M32.3 68.35 Q23.5 68.7 15.5 71.6 -5.45 79.4 -27.05 76.75 -33.95 74.45 -34.5 69.5 -27.1 69.75 -19.65 69.2 -12.8 68.15 -1.2 64.7 10.35 61.25 26.35 65.0 29.4 66.25 32.3 68.35 M-41.7 73.15 L-32.6 80.9 Q-40.05 87.95 -49.0 92.5 -68.95 102.7 -88.6 92.75 -96.75 86.5 -98.0 78.45 -78.1 82.1 -61.0 78.35 -53.9 75.05 -47.8 67.15 L-41.7 73.15 M-86.2 -23.8 L-69.35 -11.3 -70.3 -13.55 Q-75.2 -24.75 -85.5 -31.05 -76.05 -29.8 -63.45 -24.1 -45.9 -16.1 -26.4 -17.1 L-27.65 -14.5 -27.9 -14.5 -27.75 -14.35 -44.75 -14.75 -31.85 -7.7 -33.5 2.25 Q-55.9 -12.0 -76.65 5.05 L-76.85 4.8 Q-76.85 -10.7 -86.2 -23.8 M-81.05 -42.0 L-82.35 -41.95 -78.05 -50.75 Q-74.85 -47.65 -71.35 -45.2 L-72.95 -43.4 -74.15 -42.15 -81.05 -42.0" fill="#cc6600" fill-rule="evenodd" stroke="none"/>
      <path d="M-28.25 -38.8 L-23.6 -41.3 Q-9.8 -47.6 3.7 -41.0 5.15 -40.25 6.3 -39.05 8.35 -36.95 9.3 -33.3 L9.65 -31.8 Q6.15 -32.9 2.35 -33.45 L-3.15 -34.2 Q-5.45 -34.5 -7.6 -33.65 -12.45 -31.75 -16.85 -28.9 -20.25 -26.65 -22.5 -29.5 L-25.0 -33.2 -26.95 -37.2 -28.25 -38.8 M10.0 -28.55 L9.8 -25.25 8.9 -21.95 8.85 -21.8 8.9 -22.15 Q9.25 -25.6 10.0 -29.0 L10.0 -28.55 M7.65 -19.15 Q5.85 -15.55 8.15 -13.3 7.15 -13.7 6.9 -14.85 6.35 -17.15 7.65 -19.15 M8.5 -13.15 Q14.2 -20.45 11.0 -31.85 L9.05 -38.5 6.35 -46.2 34.65 -41.4 Q33.65 -30.85 40.4 -21.7 46.55 -13.45 46.35 -2.6 46.15 8.7 38.15 16.25 31.6 22.45 23.4 25.2 L20.05 26.15 19.45 26.25 Q9.85 28.15 0.25 27.05 L-5.95 26.0 -7.25 25.55 -11.4 23.85 -15.0 22.2 Q-15.95 21.85 -16.25 20.95 -20.6 18.2 -19.0 13.7 -18.6 12.55 -17.5 12.0 -13.85 10.1 -9.55 10.6 -4.75 11.2 -0.3 12.95 3.45 14.4 7.5 14.0 L13.5 13.4 Q18.15 13.05 22.45 11.35 26.3 9.85 27.55 6.15 L27.95 4.3 28.35 2.45 Q28.3 -2.95 27.7 -8.25 27.35 -11.45 26.25 -14.5 L25.3 -17.05 Q24.1 -20.2 22.4 -23.0 L19.3 -27.75 Q18.45 -28.85 17.2 -29.4 L14.6 -18.75 14.15 -17.3 Q13.0 -14.45 10.3 -13.3 L8.6 -13.15 8.5 -13.15" fill="#cc0000" fill-rule="evenodd" stroke="none"/>
      <path d="M9.65 -31.8 L10.0 -28.55 10.0 -29.0 Q9.25 -25.6 8.9 -22.15 L8.85 -21.8 7.8 -19.45 7.65 -19.15 Q6.35 -17.15 6.9 -14.85 7.15 -13.7 8.15 -13.3 L8.4 -13.05 8.5 -13.15 8.6 -13.15 10.3 -13.3 Q13.0 -14.45 14.15 -17.3 L14.6 -18.75 17.2 -29.4 Q18.45 -28.85 19.3 -27.75 L22.4 -23.0 Q24.1 -20.2 25.3 -17.05 L26.25 -14.5 Q27.35 -11.45 27.7 -8.25 28.3 -2.95 28.35 2.45 L27.95 4.3 27.55 6.15 Q26.3 9.85 22.45 11.35 18.15 13.05 13.5 13.4 L7.5 14.0 Q3.45 14.4 -0.3 12.95 -4.75 11.2 -9.55 10.6 -13.85 10.1 -17.5 12.0 -18.6 12.55 -19.0 13.7 -20.6 18.2 -16.25 20.95 -15.95 21.85 -15.0 22.2 L-11.4 23.85 -7.25 25.55 -5.95 26.0 Q-12.0 24.65 -17.7 22.2 -28.45 17.7 -29.4 6.2 -30.25 -4.3 -24.15 -12.75 -20.3 -18.15 -19.9 -23.5 L-22.8 -21.65 -30.6 -37.3 -28.25 -38.8 -26.95 -37.2 -25.0 -33.2 -22.5 -29.5 Q-20.25 -26.65 -16.85 -28.9 -12.45 -31.75 -7.6 -33.65 -5.45 -34.5 -3.15 -34.2 L2.35 -33.45 Q6.15 -32.9 9.65 -31.8 M-15.7 9.35 Q-14.7 8.35 -14.7 6.9 -14.7 5.45 -15.7 4.45 -16.7 3.45 -18.15 3.45 -19.6 3.45 -20.6 4.45 -21.6 5.45 -21.6 6.9 -21.6 8.35 -20.6 9.35 -19.6 10.35 -18.15 10.35 -16.7 10.35 -15.7 9.35" fill="#fe0000" fill-rule="evenodd" stroke="none"/>
      <path d="M-54.65 -72.7 L-67.75 -54.4 -68.45 -57.45 -66.45 -58.65 -69.6 -60.8 Q-87.55 -58.45 -84.05 -40.9 L-83.9 -40.5 -92.8 -35.9 Q-108.6 -53.75 -94.5 -73.25 -79.9 -93.4 -57.3 -81.25 -56.45 -76.5 -54.65 -72.7 M69.85 -49.45 L68.45 -47.55 Q59.1 -34.9 44.1 -31.2 L41.4 -36.65 Q56.7 -39.4 69.85 -49.45 M-87.2 -76.25 Q-89.7 -73.7 -89.7 -70.1 -89.7 -66.5 -87.2 -64.0 -84.65 -61.45 -81.05 -61.45 -77.45 -61.45 -74.95 -64.0 -72.4 -66.5 -72.4 -70.1 -72.4 -73.7 -74.95 -76.25 -77.45 -78.75 -81.05 -78.75 -84.65 -78.75 -87.2 -76.25 M8.9 60.25 Q10.75 60.25 12.05 58.9 13.4 57.6 13.4 55.75 13.4 53.9 12.05 52.55 10.75 51.25 8.9 51.25 7.05 51.25 5.7 52.55 4.4 53.9 4.4 55.75 4.4 57.6 5.7 58.9 7.05 60.25 8.9 60.25 M-81.05 -42.0 L-82.1 -41.2 -83.05 -40.5 -82.35 -41.95 -81.05 -42.0 M-72.95 -43.4 L-71.35 -45.2 Q-67.2 -42.25 -62.25 -41.5 -38.5 -39.15 -26.95 -21.85 L-36.4 -23.05 Q-60.45 -24.15 -72.95 -43.4 M-98.0 78.45 Q-101.3 57.35 -74.45 19.8 -68.35 32.4 -74.25 45.2 -86.05 70.55 -61.0 78.35 -78.1 82.1 -98.0 78.45 M-19.65 69.2 Q-16.85 59.65 -6.6 55.0 19.8 42.9 26.35 65.0 10.35 61.25 -1.2 64.7 -12.8 68.15 -19.65 69.2 M-86.7 61.25 Q-88.3 59.65 -90.55 59.65 -92.8 59.65 -94.4 61.25 -96.0 62.85 -96.0 65.1 -96.0 67.35 -94.4 68.95 -92.8 70.55 -90.55 70.55 -88.3 70.55 -86.7 68.95 -85.1 67.35 -85.1 65.1 -85.1 62.85 -86.7 61.25" fill="#feaf15" fill-rule="evenodd" stroke="none"/>
      <path d="M-15.7 9.35 Q-16.7 10.35 -18.15 10.35 -19.6 10.35 -20.6 9.35 -21.6 8.35 -21.6 6.9 -21.6 5.45 -20.6 4.45 -19.6 3.45 -18.15 3.45 -16.7 3.45 -15.7 4.45 -14.7 5.45 -14.7 6.9 -14.7 8.35 -15.7 9.35" fill="#fcb89d" fill-rule="evenodd" stroke="none"/>
      <path d="M-15.7 9.35 Q-16.7 10.35 -18.15 10.35 -19.6 10.35 -20.6 9.35 -21.6 8.35 -21.6 6.9 -21.6 5.45 -20.6 4.45 -19.6 3.45 -18.15 3.45 -16.7 3.45 -15.7 4.45 -14.7 5.45 -14.7 6.9 -14.7 8.35 -15.7 9.35 Z" fill="none" stroke="#ff0000" stroke-linecap="round" stroke-linejoin="round" stroke-width="1.0"/>
    </g>
  </defs>
</svg>
