<?xml version="1.0" encoding="UTF-8" standalone="no"?>
<svg xmlns:xlink="http://www.w3.org/1999/xlink" height="209.9px" width="172.75px" xmlns="http://www.w3.org/2000/svg">
  <g transform="matrix(1.0, 0.0, 0.0, 1.0, 86.35, 104.75)">
    <use height="209.9" transform="matrix(1.0, 0.0, 0.0, 1.0, -86.35, -104.75)" width="172.75" xlink:href="#shape0"/>
  </g>
  <defs>
    <g id="shape0" transform="matrix(1.0, 0.0, 0.0, 1.0, 86.35, 104.75)">
      <path d="M19.2 -100.35 L19.3 -99.25 Q16.3 -100.65 14.0 -98.2 L14.25 -94.85 14.9 -94.5 Q17.85 -93.05 19.75 -95.8 20.05 -94.1 20.6 -92.45 L12.45 -90.6 9.2 -91.8 8.25 -90.75 8.45 -89.05 Q3.6 -86.9 -0.65 -83.55 -3.9 -82.15 -5.75 -83.1 -2.2 -82.8 -1.1 -88.4 6.75 -97.95 17.85 -100.2 L19.2 -100.35 M29.5 -0.55 L30.8 0.25 27.8 1.8 Q12.1 10.35 -5.05 6.2 1.5 6.95 7.95 6.2 9.65 5.85 9.7 4.45 L-8.9 3.3 -9.65 1.25 -9.05 1.25 Q10.55 4.1 29.5 -0.55 M53.15 -15.75 Q52.3 -17.65 50.1 -19.45 L52.65 -22.35 Q57.9 -21.9 61.5 -18.35 L58.7 -9.55 58.4 -10.3 Q56.8 -13.85 53.15 -15.75 M-22.2 -89.15 Q-57.25 -65.1 -58.1 -20.65 -58.15 -16.8 -58.65 -12.9 -59.55 -14.95 -61.45 -15.9 L-63.0 -16.6 Q-65.55 -66.05 -25.65 -94.4 L-25.7 -94.35 -27.45 -91.5 -28.15 -91.6 -30.75 -89.15 -30.9 -87.7 -30.3 -86.95 -26.55 -87.35 -25.7 -88.6 Q-24.8 -89.7 -22.2 -89.15 M-60.2 -11.35 L-67.45 -6.3 Q-68.55 -8.55 -71.1 -8.55 L-72.05 -8.7 Q-75.4 -6.75 -75.15 -3.3 L-74.45 -2.5 Q-78.15 5.95 -72.6 12.75 -65.55 25.45 -63.4 39.7 L-64.2 36.95 Q-75.65 24.75 -77.65 7.4 -80.0 -12.95 -60.6 -11.65 L-60.2 -11.35 M-63.5 57.15 Q-63.45 65.35 -59.15 72.05 -40.15 101.6 -6.4 84.55 L-5.75 84.7 Q0.15 84.15 5.75 82.45 17.8 79.05 29.55 83.8 -1.1 86.05 -31.05 93.05 -64.95 101.0 -72.05 67.0 L-68.95 66.3 Q-65.15 62.2 -63.5 57.15 M-13.2 79.05 Q-21.65 81.1 -28.5 76.5 -29.7 75.7 -28.8 75.2 -17.45 68.6 -4.5 63.6 L3.55 60.7 Q9.85 60.1 16.0 60.5 L12.65 63.9 Q12.3 63.0 11.25 62.6 L8.25 62.35 Q5.2 68.7 12.25 66.95 L14.25 70.2 Q6.9 69.5 -0.55 71.25 -7.65 72.8 -13.8 75.5 L-13.2 79.05 M-30.7 2.45 L-30.25 1.9 -16.85 1.1 -17.8 3.75 -30.7 2.45 M-65.9 75.85 Q-64.2 88.0 -52.3 91.35 L-49.25 92.0 -48.45 90.75 -48.45 90.05 Q-57.3 83.2 -64.05 74.7 L-65.9 75.85 M33.25 65.45 Q37.5 68.6 39.9 73.95 30.1 71.95 20.2 71.05 26.0 67.0 21.75 61.5 L21.2 61.05 Q26.8 61.45 31.65 64.4 L33.25 65.45" fill="#61be91" fill-rule="evenodd" stroke="none"/>
      <path d="M19.3 -99.25 L19.2 -100.35 Q59.3 -75.8 53.25 -26.5 49.95 -26.15 47.1 -24.55 L45.45 -23.25 46.5 -21.6 52.65 -22.35 50.1 -19.45 Q52.3 -17.65 53.15 -15.75 L44.7 -17.4 50.15 -12.9 30.8 0.25 29.5 -0.55 27.6 -1.7 Q12.85 -1.1 -0.65 -7.1 -24.25 6.9 -43.75 -9.55 L-43.5 -10.0 Q-41.25 -12.5 -37.55 -11.8 -27.95 -6.8 -17.45 -8.85 -6.9 -11.0 -1.35 -20.05 3.1 -20.45 6.65 -18.3 17.6 -11.55 26.95 -17.45 30.7 -18.0 32.6 -20.9 51.4 -49.75 27.75 -79.0 L24.5 -84.35 Q21.9 -88.25 20.6 -92.45 20.05 -94.1 19.75 -95.8 L19.3 -99.25 M-1.1 -88.4 Q-2.2 -82.8 -5.75 -83.1 -7.45 -83.25 -9.65 -84.7 -15.25 -88.35 -21.5 -89.05 -21.5 -91.25 -22.7 -92.8 -23.95 -94.35 -25.7 -94.35 L-25.65 -94.4 Q-12.65 -99.1 -3.8 -89.15 L-2.7 -87.85 -1.1 -88.4 M49.3 1.2 Q50.3 -5.55 53.35 -11.4 54.95 -7.3 58.05 -7.05 L58.7 -9.55 61.5 -18.35 Q71.1 -6.5 58.95 3.25 L57.85 4.3 58.05 5.45 59.5 5.8 62.3 3.9 Q66.2 33.75 79.4 60.6 80.5 62.9 79.55 66.05 71.35 92.6 42.6 85.5 36.2 83.85 29.55 83.8 17.8 79.05 5.75 82.45 0.15 84.15 -5.75 84.7 -9.5 83.8 -12.7 81.25 4.0 72.15 22.8 74.25 L23.35 73.55 22.65 71.8 19.2 70.95 20.2 71.05 Q30.1 71.95 39.9 73.95 64.9 77.9 67.05 55.1 67.75 47.35 63.55 40.85 53.75 25.5 49.0 7.7 L49.05 3.95 Q49.45 2.9 50.25 1.9 L49.3 1.2 M-63.4 39.7 Q-62.25 44.25 -62.25 48.95 -62.25 53.35 -63.5 57.15 -65.15 62.2 -68.95 66.3 L-72.05 67.0 Q-72.6 60.65 -72.35 54.15 -72.0 43.8 -69.85 33.7 L-64.2 36.95 -63.4 39.7 M-57.6 10.4 Q-57.6 12.9 -59.55 14.7 -61.5 16.45 -64.25 16.45 L-66.1 9.15 -57.6 10.4 M-60.1 -0.9 Q-56.85 1.25 -56.55 5.55 L-64.6 6.5 Q-64.3 4.4 -63.6 2.45 -62.7 0.0 -60.1 -0.9" fill="#2a8658" fill-rule="evenodd" stroke="none"/>
      <path d="M27.75 -79.0 Q51.4 -49.75 32.6 -20.9 30.7 -18.0 26.95 -17.45 19.55 -15.7 11.95 -18.05 5.7 -20.15 0.65 -24.65 -0.15 -22.2 -1.35 -20.05 -6.9 -11.0 -17.45 -8.85 -27.95 -6.8 -37.55 -11.8 -54.1 -25.65 -44.95 -48.7 -36.05 -71.1 -17.15 -86.8 L-16.2 -86.5 -16.0 -85.4 -4.05 -76.0 Q1.5 -83.35 8.45 -89.05 L8.25 -90.75 9.2 -91.8 12.45 -90.6 Q21.55 -86.85 27.75 -79.0 M30.8 0.25 L50.15 -12.9 44.7 -17.4 53.15 -15.75 Q56.8 -13.85 58.4 -10.3 L58.7 -9.55 58.05 -7.05 Q54.95 -7.3 53.35 -11.4 50.3 -5.55 49.3 1.2 49.1 2.55 49.05 3.95 L49.0 7.7 Q54.8 31.35 62.25 54.55 63.3 57.9 60.6 60.3 48.35 70.85 33.25 65.45 L31.65 64.4 Q26.8 61.45 21.2 61.05 L16.0 60.5 Q9.85 60.1 3.55 60.7 L-4.5 63.6 Q-23.25 69.6 -42.5 68.1 -45.85 68.35 -47.85 65.4 -60.75 46.65 -54.55 22.65 -52.75 15.75 -57.0 10.35 L-57.6 10.4 -66.1 9.15 -64.25 16.45 -65.15 18.4 Q-76.3 7.65 -62.15 -3.85 L-60.05 -3.05 -60.1 -0.9 Q-62.7 0.0 -63.6 2.45 -64.3 4.4 -64.6 6.5 L-56.55 5.55 -30.7 2.45 -17.8 3.75 -5.05 6.2 Q12.1 10.35 27.8 1.8 L30.8 0.25 M52.65 -22.35 L46.5 -21.6 45.45 -23.25 47.1 -24.55 Q49.95 -26.15 53.25 -26.5 59.3 -75.8 19.2 -100.35 L17.85 -100.2 Q6.75 -97.95 -1.1 -88.4 L-2.7 -87.85 -3.8 -89.15 Q-12.65 -99.1 -25.65 -94.4 -65.55 -66.05 -63.0 -16.6 L-61.45 -15.9 Q-59.55 -14.95 -58.65 -12.9 L-58.25 -11.85 -60.2 -11.35 -60.6 -11.65 Q-80.0 -12.95 -77.65 7.4 -75.65 24.75 -64.2 36.95 L-69.85 33.7 Q-72.0 43.8 -72.35 54.15 -72.6 60.65 -72.05 67.0 -64.95 101.0 -31.05 93.05 -1.1 86.05 29.55 83.8 36.2 83.85 42.6 85.5 71.35 92.6 79.55 66.05 80.5 62.9 79.4 60.6 66.2 33.75 62.3 3.9 L59.5 5.8 58.05 5.45 57.85 4.3 58.95 3.25 Q71.1 -6.5 61.5 -18.35 57.9 -21.9 52.65 -22.35 M-2.2 -72.1 Q2.95 -60.0 4.65 -47.0 5.65 -39.15 3.5 -31.85 L2.3 -28.5 Q4.7 -26.55 7.5 -25.05 34.3 -15.05 35.0 -42.95 35.65 -70.2 13.7 -85.65 L-2.5 -72.8 -2.2 -72.1 M7.95 -30.05 Q6.0 -32.6 8.0 -34.7 17.05 -44.35 15.75 -30.55 L13.75 -29.1 7.95 -30.05 M10.6 -35.15 Q12.3 -34.3 13.3 -35.7 12.95 -36.2 12.35 -36.25 L11.8 -36.35 Q11.0 -36.15 10.65 -35.4 L10.5 -35.2 10.6 -35.15 M71.05 -7.8 Q69.95 -1.55 64.8 2.2 66.2 26.25 81.2 45.7 85.3 51.05 86.05 58.0 89.35 88.1 59.95 92.35 46.95 94.05 34.75 89.45 -0.5 92.05 -34.2 104.55 L-40.0 104.95 Q-74.55 99.15 -77.2 64.6 -78.45 48.3 -73.75 32.7 -98.7 9.45 -74.3 -14.0 -71.4 -16.8 -67.25 -17.8 -72.55 -71.85 -28.2 -98.3 -11.75 -108.0 -1.5 -93.75 3.7 -101.85 12.9 -104.65 46.45 -106.75 53.7 -71.15 58.2 -48.85 57.35 -26.05 74.05 -24.8 71.05 -7.8 M-9.9 -74.45 L-17.5 -80.4 -18.55 -80.4 Q-49.3 -52.95 -35.45 -15.9 L-32.0 -14.9 Q-11.95 -9.0 -3.6 -30.2 5.65 -53.8 -9.9 -74.45 M-18.2 -32.6 Q-18.2 -35.2 -16.3 -37.0 -14.4 -38.85 -11.75 -38.85 -1.5 -31.65 -14.15 -29.15 -17.5 -28.65 -18.2 -32.6 M-12.7 81.25 L-13.2 79.05 -13.8 75.5 Q-7.65 72.8 -0.55 71.25 6.9 69.5 14.25 70.2 L19.2 70.95 22.65 71.8 23.35 73.55 22.8 74.25 Q4.0 72.15 -12.7 81.25 M-10.2 -32.2 Q-9.75 -32.65 -9.75 -33.25 -9.75 -33.85 -10.2 -34.25 -10.65 -34.7 -11.25 -34.7 -11.85 -34.7 -12.3 -34.25 -12.75 -33.85 -12.75 -33.25 -12.75 -32.65 -12.3 -32.2 -11.85 -31.8 -11.25 -31.8 -10.65 -31.8 -10.2 -32.2 M-45.8 14.2 Q-39.3 31.7 -21.7 27.55 L-18.3 26.65 Q-22.25 20.85 -24.75 14.25 L-26.85 5.3 Q-38.0 5.05 -48.4 8.3 L-45.8 14.2 M-21.8 6.45 L-24.2 6.0 -15.4 26.1 -9.75 26.85 Q-4.2 27.35 0.25 24.45 L0.5 18.85 0.8 10.85 -21.8 6.45 M-23.85 57.75 Q-25.2 44.8 -19.6 33.0 L-18.35 30.55 -30.85 32.6 Q-37.95 42.15 -42.4 53.1 L-44.85 63.05 -44.45 63.7 Q-33.75 69.35 -23.05 63.65 L-23.85 57.75 M0.75 50.25 Q1.4 39.5 0.9 28.6 -6.55 32.05 -13.65 29.5 L-16.45 30.55 Q-20.8 43.35 -20.2 56.65 L-19.8 61.65 -19.75 62.0 -19.5 61.95 Q-10.05 58.25 0.1 57.5 L0.75 50.25 M33.35 3.6 L32.05 4.05 Q31.4 4.25 30.8 4.6 30.4 16.8 23.1 26.15 L24.75 27.65 Q33.55 26.2 40.35 20.5 L44.25 2.8 45.75 -4.0 Q40.25 0.95 33.35 3.6 M24.55 12.5 L26.45 6.85 5.25 10.7 2.75 10.95 4.05 24.7 20.75 23.85 24.55 12.5 M25.55 50.65 Q25.8 39.9 22.7 29.5 L20.35 27.25 6.05 28.5 Q4.35 28.85 2.8 27.85 5.65 42.3 3.6 57.15 L5.8 56.65 Q15.5 54.65 25.1 57.2 L25.55 51.3 25.55 50.65 M48.5 56.15 Q47.95 49.8 46.65 43.6 44.4 32.8 34.75 28.35 L27.0 32.15 Q30.0 44.85 27.65 57.75 L32.2 59.05 48.85 63.75 48.5 56.15" fill="#000000" fill-rule="evenodd" stroke="none"/>
      <path d="M20.6 -92.45 Q21.9 -88.25 24.5 -84.35 L27.75 -79.0 Q21.55 -86.85 12.45 -90.6 L20.6 -92.45 M26.95 -17.45 Q17.6 -11.55 6.65 -18.3 3.1 -20.45 -1.35 -20.05 -0.15 -22.2 0.65 -24.65 5.7 -20.15 11.95 -18.05 19.55 -15.7 26.95 -17.45 M-37.55 -11.8 Q-41.25 -12.5 -43.5 -10.0 L-43.75 -9.55 Q-24.25 6.9 -0.65 -7.1 12.85 -1.1 27.6 -1.7 L29.5 -0.55 Q10.55 4.1 -9.05 1.25 L-9.65 1.25 -16.85 1.1 -30.25 1.9 -30.7 2.45 -56.55 5.55 Q-56.85 1.25 -60.1 -0.9 L-60.05 -3.05 -62.15 -3.85 Q-76.3 7.65 -65.15 18.4 L-64.25 16.45 Q-61.5 16.45 -59.55 14.7 -57.6 12.9 -57.6 10.4 L-57.0 10.35 Q-52.75 15.75 -54.55 22.65 -60.75 46.65 -47.85 65.4 -45.85 68.35 -42.5 68.1 -23.25 69.6 -4.5 63.6 -17.45 68.6 -28.8 75.2 -29.7 75.7 -28.5 76.5 -21.65 81.1 -13.2 79.05 L-12.7 81.25 Q-9.5 83.8 -5.75 84.7 L-6.4 84.55 Q-40.15 101.6 -59.15 72.05 -63.45 65.35 -63.5 57.15 -62.25 53.35 -62.25 48.95 -62.25 44.25 -63.4 39.7 -65.55 25.45 -72.6 12.75 -73.85 3.2 -68.85 -4.9 L-67.45 -6.3 -60.2 -11.35 -58.25 -11.85 -58.65 -12.9 Q-58.15 -16.8 -58.1 -20.65 -57.25 -65.1 -22.2 -89.15 L-21.5 -89.05 Q-15.25 -88.35 -9.65 -84.7 -7.45 -83.25 -5.75 -83.1 -3.9 -82.15 -0.65 -83.55 3.6 -86.9 8.45 -89.05 1.5 -83.35 -4.05 -76.0 L-16.0 -85.4 -16.2 -86.5 -17.15 -86.8 Q-36.05 -71.1 -44.95 -48.7 -54.1 -25.65 -37.55 -11.8 M49.05 3.95 Q49.1 2.55 49.3 1.2 L50.25 1.9 Q49.45 2.9 49.05 3.95 M49.0 7.7 Q53.75 25.5 63.55 40.85 67.75 47.35 67.05 55.1 64.9 77.9 39.9 73.95 37.5 68.6 33.25 65.45 48.35 70.85 60.6 60.3 63.3 57.9 62.25 54.55 54.8 31.35 49.0 7.7" fill="#37aa71" fill-rule="evenodd" stroke="none"/>
      <path d="M19.3 -99.25 L19.75 -95.8 Q17.85 -93.05 14.9 -94.5 L14.25 -94.85 14.0 -98.2 Q16.3 -100.65 19.3 -99.25 M3.5 -31.85 Q16.15 -51.35 3.8 -72.45 3.05 -73.75 1.2 -74.2 L-2.2 -72.1 -2.5 -72.8 13.7 -85.65 Q23.6 -62.55 26.7 -37.85 26.95 -35.65 26.85 -33.45 L15.75 -30.55 Q17.05 -44.35 8.0 -34.7 6.0 -32.6 7.95 -30.05 L7.7 -30.3 Q6.45 -27.75 7.5 -25.05 4.7 -26.55 2.3 -28.5 L3.5 -31.85 M10.65 -35.4 Q11.0 -36.15 11.8 -36.35 L12.35 -36.25 Q12.95 -36.2 13.3 -35.7 12.3 -34.3 10.6 -35.15 L10.65 -35.4 M-32.0 -14.9 L-35.45 -15.9 Q-49.3 -52.95 -18.55 -80.4 L-17.5 -80.4 -9.9 -74.45 -8.3 -56.8 Q-7.45 -47.1 -11.75 -38.85 -14.4 -38.85 -16.3 -37.0 -18.2 -35.2 -18.2 -32.6 L-25.55 -31.1 Q-41.15 -29.1 -32.0 -14.9 M-21.5 -89.05 L-22.2 -89.15 Q-24.8 -89.7 -25.7 -88.6 L-26.55 -87.35 -30.3 -86.95 -30.9 -87.7 -30.75 -89.15 -28.15 -91.6 -27.45 -91.5 -25.7 -94.35 Q-23.95 -94.35 -22.7 -92.8 -21.5 -91.25 -21.5 -89.05 M-67.45 -6.3 L-68.85 -4.9 Q-73.85 3.2 -72.6 12.75 -78.15 5.95 -74.45 -2.5 L-75.15 -3.3 Q-75.4 -6.75 -72.05 -8.7 L-71.1 -8.55 Q-68.55 -8.55 -67.45 -6.3 M-16.85 1.1 L-9.65 1.25 -8.9 3.3 9.7 4.45 Q9.65 5.85 7.95 6.2 1.5 6.95 -5.05 6.2 L-17.8 3.75 -16.85 1.1 M-10.2 -32.2 Q-10.65 -31.8 -11.25 -31.8 -11.85 -31.8 -12.3 -32.2 -12.75 -32.65 -12.75 -33.25 -12.75 -33.85 -12.3 -34.25 -11.85 -34.7 -11.25 -34.7 -10.65 -34.7 -10.2 -34.25 -9.75 -33.85 -9.75 -33.25 -9.75 -32.65 -10.2 -32.2 M-65.9 75.85 L-64.05 74.7 Q-57.3 83.2 -48.45 90.05 L-48.45 90.75 -49.25 92.0 -52.3 91.35 Q-64.2 88.0 -65.9 75.85 M14.25 70.2 L12.25 66.95 Q5.2 68.7 8.25 62.35 L11.25 62.6 Q12.3 63.0 12.65 63.9 L16.0 60.5 21.2 61.05 21.75 61.5 Q26.0 67.0 20.2 71.05 L19.2 70.95 14.25 70.2" fill="#ffffff" fill-rule="evenodd" stroke="none"/>
      <path d="M-2.2 -72.1 L1.2 -74.2 Q3.05 -73.75 3.8 -72.45 16.15 -51.35 3.5 -31.85 5.65 -39.15 4.65 -47.0 2.95 -60.0 -2.2 -72.1 M7.5 -25.05 Q6.45 -27.75 7.7 -30.3 L7.95 -30.05 13.75 -29.1 15.75 -30.55 26.85 -33.45 Q26.95 -35.65 26.7 -37.85 23.6 -62.55 13.7 -85.65 35.65 -70.2 35.0 -42.95 34.3 -15.05 7.5 -25.05 M-32.0 -14.9 Q-41.15 -29.1 -25.55 -31.1 L-18.2 -32.6 Q-17.5 -28.65 -14.15 -29.15 -1.5 -31.65 -11.75 -38.85 -7.45 -47.1 -8.3 -56.8 L-9.9 -74.45 Q5.65 -53.8 -3.6 -30.2 -11.95 -9.0 -32.0 -14.9" fill="#ceceb1" fill-rule="evenodd" stroke="none"/>
      <path d="M-45.8 14.2 Q-38.15 15.75 -30.25 12.6 -27.75 14.3 -24.75 14.25 -22.25 20.85 -18.3 26.65 L-21.7 27.55 Q-39.3 31.7 -45.8 14.2 M0.5 18.85 L0.25 24.45 Q-4.2 27.35 -9.75 26.85 L-15.4 26.1 -24.2 6.0 -21.8 6.45 Q-21.6 9.75 -18.9 11.85 -10.2 18.55 0.5 18.85 M-42.4 53.1 Q-37.95 42.15 -30.85 32.6 L-18.35 30.55 -19.6 33.0 Q-25.2 44.8 -23.85 57.75 L-32.35 59.25 -42.4 53.1 M-20.2 56.65 Q-20.8 43.35 -16.45 30.55 L-13.65 29.5 Q-6.55 32.05 0.9 28.6 1.4 39.5 0.75 50.25 -10.75 48.7 -19.65 56.05 L-20.2 56.65 M-19.5 61.95 L-19.75 62.0 -19.8 61.65 -19.5 61.95 M44.25 2.8 L40.35 20.5 Q33.55 26.2 24.75 27.65 L23.1 26.15 Q30.4 16.8 30.8 4.6 31.4 4.25 32.05 4.05 L33.35 3.6 32.85 6.8 Q38.95 9.65 44.25 2.8 M5.25 10.7 Q6.0 24.5 19.25 15.55 21.75 13.8 24.55 12.5 L20.75 23.85 4.05 24.7 2.75 10.95 5.25 10.7 M5.8 56.65 L3.6 57.15 Q5.65 42.3 2.8 27.85 4.35 28.85 6.05 28.5 L20.35 27.25 22.7 29.5 Q25.8 39.9 25.55 50.65 17.2 47.5 8.85 50.15 3.55 51.75 5.8 56.65 M32.2 59.05 L27.65 57.75 Q30.0 44.85 27.0 32.15 L34.75 28.35 Q44.4 32.8 46.65 43.6 47.95 49.8 48.5 56.15 43.8 52.65 38.15 51.35 28.8 49.05 29.0 57.35 L32.2 59.05" fill="#ffff00" fill-rule="evenodd" stroke="none"/>
      <path d="M-24.75 14.25 Q-27.75 14.3 -30.25 12.6 -38.15 15.75 -45.8 14.2 L-48.4 8.3 Q-38.0 5.05 -26.85 5.3 L-24.75 14.25 M0.5 18.85 Q-10.2 18.55 -18.9 11.85 -21.6 9.75 -21.8 6.45 L0.8 10.85 0.5 18.85 M-42.4 53.1 L-32.35 59.25 -23.85 57.75 -23.05 63.65 Q-33.75 69.35 -44.45 63.7 L-44.85 63.05 -42.4 53.1 M0.75 50.25 L0.1 57.5 Q-10.05 58.25 -19.5 61.95 L-19.8 61.65 -20.2 56.65 -19.65 56.05 Q-10.75 48.7 0.75 50.25 M44.25 2.8 Q38.95 9.65 32.85 6.8 L33.35 3.6 Q40.25 0.95 45.75 -4.0 L44.25 2.8 M5.25 10.7 L26.45 6.85 24.55 12.5 Q21.75 13.8 19.25 15.55 6.0 24.5 5.25 10.7 M5.8 56.65 Q3.55 51.75 8.85 50.15 17.2 47.5 25.55 50.65 L25.55 51.3 25.1 57.2 Q15.5 54.65 5.8 56.65 M32.2 59.05 L29.0 57.35 Q28.8 49.05 38.15 51.35 43.8 52.65 48.5 56.15 L48.85 63.75 32.2 59.05" fill="#c3c300" fill-rule="evenodd" stroke="none"/>
    </g>
  </defs>
</svg>
