<?xml version="1.0" encoding="UTF-8" standalone="no"?>
<svg xmlns:xlink="http://www.w3.org/1999/xlink" height="208.1px" width="122.75px" xmlns="http://www.w3.org/2000/svg">
  <g transform="matrix(1.0, 0.0, 0.0, 1.0, 60.65, 103.6)">
    <use height="208.1" transform="matrix(1.0, 0.0, 0.0, 1.0, -60.65, -103.6)" width="122.75" xlink:href="#shape0"/>
  </g>
  <defs>
    <g id="shape0" transform="matrix(1.0, 0.0, 0.0, 1.0, 60.65, 103.6)">
      <path d="M7.75 -84.85 L0.95 -76.75 Q-5.05 -84.65 -4.7 -73.65 -4.6 -71.0 -1.55 -72.05 -6.25 -63.45 -8.8 -53.5 L-10.4 -45.85 -16.0 -47.35 -16.6 -41.05 Q-21.25 -59.45 -9.7 -77.25 -2.1 -88.9 7.75 -84.85 M-4.15 -41.65 Q-7.9 -68.15 15.25 -82.05 L16.35 -82.45 18.75 -80.5 19.6 -76.15 Q12.95 -59.25 4.75 -43.45 2.0 -46.55 -1.5 -47.45 L-2.2 -46.95 Q-4.35 -44.8 -4.15 -41.65 M10.2 -77.55 Q7.2 -76.45 6.9 -73.4 6.65 -71.3 8.3 -70.05 10.5 -68.35 12.75 -69.75 L13.2 -70.3 Q14.75 -72.0 14.4 -74.2 L14.1 -75.3 Q13.05 -77.85 10.2 -77.55" fill="#fefefd" fill-rule="evenodd" stroke="none"/>
      <path d="M26.2 -103.45 L30.9 -100.7 Q62.55 -101.05 62.05 -68.1 61.9 -57.65 51.4 -54.8 L47.6 -53.75 Q38.8 -41.3 35.1 -26.7 38.7 -18.3 33.75 -10.75 31.7 -7.5 28.3 -5.65 26.6 26.3 51.3 48.5 55.7 52.45 58.3 58.0 67.75 78.45 53.6 92.7 50.2 96.1 45.2 96.0 15.05 95.3 -14.0 102.7 -48.0 111.25 -59.0 79.0 -60.85 73.55 -60.6 67.5 -59.25 34.75 -41.0 7.7 -45.45 -10.9 -32.6 -24.75 -30.25 -27.25 -28.9 -30.75 -26.4 -37.4 -21.4 -42.75 -18.85 -86.2 21.3 -103.05 23.45 -103.9 26.2 -103.45 M31.85 -92.05 L32.05 -90.05 31.05 -89.5 23.25 -99.05 12.2 -96.25 14.3 -95.65 14.5 -94.2 11.95 -91.8 9.65 -92.0 9.2 -94.15 3.45 -89.4 4.5 -89.25 7.15 -88.25 Q9.35 -86.95 10.4 -84.75 19.75 -85.8 21.8 -76.35 24.2 -65.3 19.6 -55.0 15.2 -45.25 7.05 -38.25 5.55 -37.0 4.0 -36.35 L0.25 -35.8 -1.2 -36.0 Q-3.45 -36.55 -5.15 -37.95 -9.0 -33.9 -13.1 -34.85 L-19.15 -38.9 -26.85 -25.15 -23.7 -25.55 -22.85 -24.4 Q-36.35 -17.4 -36.55 -2.5 -36.65 7.0 -32.9 15.7 L-34.5 15.7 -35.1 15.1 -38.0 12.05 -38.35 11.65 -38.65 12.15 -45.7 24.45 Q-61.35 50.8 -55.85 80.8 L-55.4 82.55 Q-52.9 88.35 -44.95 93.9 -41.85 96.0 -38.4 97.15 5.15 94.95 47.35 87.35 52.0 86.6 54.0 82.3 61.6 66.15 47.65 52.85 22.8 29.2 25.8 -4.7 L20.8 -0.35 19.9 -0.95 20.6 -2.05 28.5 -13.95 Q35.05 -23.4 26.2 -31.2 L24.15 -32.8 25.05 -34.55 25.45 -34.35 31.75 -31.05 Q33.0 -44.5 42.5 -54.15 L38.05 -54.0 36.5 -55.2 36.55 -55.95 54.5 -59.85 Q59.1 -70.3 55.85 -81.05 52.9 -90.75 43.9 -95.6 37.95 -98.75 31.2 -97.6 L31.6 -94.0 31.85 -92.05 M23.4 -92.5 L23.95 -92.45 26.35 -91.0 28.05 -88.7 Q28.75 -86.8 27.95 -84.25 L25.8 -84.15 23.4 -92.5 M0.95 -76.75 Q0.95 -74.8 0.25 -73.4 -0.5 -72.05 -1.55 -72.05 -4.6 -71.0 -4.7 -73.65 -5.05 -84.65 0.95 -76.75 M-16.6 -41.05 Q-12.0 -38.45 -7.85 -41.6 L-6.7 -42.5 Q-8.2 -66.15 9.15 -82.25 L7.75 -84.85 Q-2.1 -88.9 -9.7 -77.25 -21.25 -59.45 -16.6 -41.05 M19.6 -76.15 L18.75 -80.5 16.35 -82.45 15.25 -82.05 Q-7.9 -68.15 -4.15 -41.65 8.6 -34.3 15.15 -50.5 20.1 -62.8 19.6 -76.15 M10.2 -77.55 Q13.05 -77.85 14.1 -75.3 L14.4 -74.2 Q14.75 -72.0 13.2 -70.3 L12.75 -69.75 Q10.5 -68.35 8.3 -70.05 6.65 -71.3 6.9 -73.4 7.2 -76.45 10.2 -77.55 M11.8 -74.3 Q11.4 -74.7 10.85 -74.7 10.3 -74.7 9.9 -74.3 9.5 -73.9 9.5 -73.35 9.5 -72.8 9.9 -72.4 10.3 -72.0 10.85 -72.0 11.4 -72.0 11.8 -72.4 12.2 -72.8 12.2 -73.35 12.2 -73.9 11.8 -74.3 M12.55 -33.45 Q15.45 -36.25 17.45 -40.1 L19.0 -39.05 18.05 -36.25 Q13.15 -27.5 3.7 -26.3 L1.95 -26.35 -0.85 -26.8 1.25 -27.25 Q8.0 -29.05 12.55 -33.45 M-26.8 -11.35 Q-0.55 3.05 19.9 -21.7 L18.05 -24.5 21.85 -23.25 22.55 -22.4 Q24.9 -19.3 23.5 -15.8 22.9 -14.2 20.95 -14.35 L20.4 -19.0 Q9.7 -10.25 -1.35 -2.2 -16.8 9.05 -27.95 -9.5 L-28.65 -9.95 -28.3 -8.8 -27.3 -5.45 -28.25 -4.6 -29.55 -5.2 Q-37.45 -11.75 -26.85 -15.3 L-25.5 -14.45 -28.1 -11.65 -26.8 -11.35 M-2.85 -74.9 Q-2.3 -74.9 -1.9 -75.3 -1.5 -75.7 -1.5 -76.25 -1.5 -76.8 -1.9 -77.2 -2.3 -77.6 -2.85 -77.6 -3.4 -77.6 -3.8 -77.2 -4.2 -76.8 -4.2 -76.25 -4.2 -75.7 -3.8 -75.3 -3.4 -74.9 -2.85 -74.9 M-14.9 27.1 L-18.5 26.4 -18.35 25.25 -18.2 24.15 Q-7.5 25.75 -2.15 16.15 L-0.05 17.45 Q-1.1 19.95 -2.5 21.85 -6.95 27.95 -14.55 27.1 L-14.9 27.1" fill="#000000" fill-rule="evenodd" stroke="none"/>
      <path d="M11.8 -74.3 Q12.2 -73.9 12.2 -73.35 12.2 -72.8 11.8 -72.4 11.4 -72.0 10.85 -72.0 10.3 -72.0 9.9 -72.4 9.5 -72.8 9.5 -73.35 9.5 -73.9 9.9 -74.3 10.3 -74.7 10.85 -74.7 11.4 -74.7 11.8 -74.3 M-2.85 -74.9 Q-3.4 -74.9 -3.8 -75.3 -4.2 -75.7 -4.2 -76.25 -4.2 -76.8 -3.8 -77.2 -3.4 -77.6 -2.85 -77.6 -2.3 -77.6 -1.9 -77.2 -1.5 -76.8 -1.5 -76.25 -1.5 -75.7 -1.9 -75.3 -2.3 -74.9 -2.85 -74.9" fill="#0a86a5" fill-rule="evenodd" stroke="none"/>
      <path d="M0.95 -76.75 L7.75 -84.85 9.15 -82.25 Q-8.2 -66.15 -6.7 -42.5 L-7.85 -41.6 Q-12.0 -38.45 -16.6 -41.05 L-16.0 -47.35 -10.4 -45.85 -8.8 -53.5 Q-6.25 -63.45 -1.55 -72.05 -0.5 -72.05 0.25 -73.4 0.95 -74.8 0.95 -76.75 M19.6 -76.15 Q20.1 -62.8 15.15 -50.5 8.6 -34.3 -4.15 -41.65 -4.35 -44.8 -2.2 -46.95 L-1.5 -47.45 Q2.0 -46.55 4.75 -43.45 12.95 -59.25 19.6 -76.15" fill="#cdcdaf" fill-rule="evenodd" stroke="none"/>
      <path d="M7.05 -38.25 Q30.75 -45.35 24.25 -72.45 21.6 -83.5 12.05 -89.05 15.7 -91.75 19.95 -92.4 L22.55 -92.55 23.4 -92.5 25.8 -84.15 27.95 -84.25 Q28.75 -86.8 28.05 -88.7 L39.65 -90.15 Q44.9 -90.45 48.25 -86.6 52.35 -79.8 52.7 -72.05 L52.6 -70.4 Q26.25 -63.7 25.45 -34.35 L25.05 -34.55 24.15 -32.8 26.2 -31.2 Q27.15 -25.35 26.55 -19.65 25.5 -10.25 20.6 -2.05 L19.9 -0.95 Q14.6 25.1 35.85 43.45 53.1 58.3 39.5 73.5 37.8 75.4 35.05 75.45 L13.75 75.95 Q36.55 74.85 35.5 55.0 35.05 47.2 29.75 41.2 24.7 35.55 17.95 32.0 16.1 48.6 29.1 59.5 6.0 59.95 -5.55 78.9 -13.45 81.45 -20.5 85.8 -29.5 91.35 -38.4 97.15 -41.85 96.0 -44.95 93.9 -52.9 88.35 -55.4 82.55 -45.0 99.0 -34.2 85.85 -34.05 85.65 -34.5 85.15 -56.5 62.1 -39.4 33.4 -35.5 26.9 -35.1 19.4 -34.85 17.5 -35.05 15.6 L-34.5 15.7 -32.9 15.7 Q-25.75 10.45 -29.4 2.25 -30.95 -1.2 -29.55 -5.2 L-28.25 -4.6 -27.3 -5.45 -28.3 -8.8 -27.95 -9.5 Q-16.8 9.05 -1.35 -2.2 9.7 -10.25 20.4 -19.0 L20.95 -14.35 Q22.9 -14.2 23.5 -15.8 24.9 -19.3 22.55 -22.4 L21.85 -23.25 18.05 -24.5 19.9 -21.7 Q-0.55 3.05 -26.8 -11.35 L-21.9 -16.15 Q-14.7 -23.95 -13.1 -34.85 -9.0 -33.9 -5.15 -37.95 -3.45 -36.55 -1.2 -36.0 L0.25 -35.8 Q-4.7 -36.0 -5.8 -31.95 L-5.9 -31.2 Q-2.95 -28.1 1.25 -27.25 L-0.85 -26.8 1.95 -26.35 1.55 -23.4 Q8.75 -18.95 15.45 -24.9 22.5 -31.15 18.4 -37.05 L18.05 -36.25 19.0 -39.05 17.45 -40.1 Q15.45 -36.25 12.55 -33.45 8.9 -36.6 4.0 -36.35 5.55 -37.0 7.05 -38.25 M23.95 -92.45 L26.3 -91.95 26.35 -91.0 23.95 -92.45 M-38.65 12.15 L-38.35 11.65 -38.0 12.05 Q-38.2 11.9 -38.45 11.85 L-38.65 12.15 M24.2 -26.5 Q24.8 -27.15 24.8 -28.0 24.8 -28.85 24.2 -29.45 23.55 -30.1 22.7 -30.1 21.85 -30.1 21.25 -29.45 20.6 -28.85 20.6 -28.0 20.6 -27.15 21.25 -26.5 21.85 -25.9 22.7 -25.9 23.55 -25.9 24.2 -26.5 M-1.7 13.3 L-0.9 10.7 -3.55 9.45 -4.75 10.6 -4.8 12.45 -4.0 13.3 -17.9 13.2 Q-22.9 8.3 -24.15 16.5 -24.9 21.65 -20.35 24.25 L-18.35 25.25 -18.5 26.4 -14.9 27.1 Q-17.35 34.05 -8.45 32.8 6.75 31.2 -0.9 21.6 2.4 18.0 -0.2 13.7 L-0.5 13.3 -1.7 13.3" fill="#f98286" fill-rule="evenodd" stroke="none"/>
      <path d="M31.85 -92.05 L32.35 -91.2 44.5 -92.45 43.85 -95.1 Q37.2 -98.5 31.6 -94.0 L31.2 -97.6 Q37.95 -98.75 43.9 -95.6 L48.25 -86.6 Q44.9 -90.45 39.65 -90.15 L28.05 -88.7 26.35 -91.0 26.3 -91.95 23.95 -92.45 23.4 -92.5 22.55 -92.55 Q23.95 -93.4 23.55 -93.95 18.05 -100.75 19.95 -92.4 15.7 -91.75 12.05 -89.05 21.6 -83.5 24.25 -72.45 30.75 -45.35 7.05 -38.25 15.2 -45.25 19.6 -55.0 24.2 -65.3 21.8 -76.35 19.75 -85.8 10.4 -84.75 9.35 -86.95 7.15 -88.25 L4.5 -89.25 3.45 -89.4 9.2 -94.15 9.65 -92.0 11.95 -91.8 14.5 -94.2 14.3 -95.65 12.2 -96.25 23.25 -99.05 31.05 -89.5 32.05 -90.05 31.85 -92.05 M-55.4 82.55 L-55.85 80.8 Q-61.35 50.8 -45.7 24.45 -45.7 26.2 -44.85 27.8 L-44.05 27.85 Q-36.05 28.75 -35.1 19.4 -35.5 26.9 -39.4 33.4 -56.5 62.1 -34.5 85.15 -34.05 85.65 -34.2 85.85 -45.0 99.0 -55.4 82.55 M-35.1 15.1 L-34.5 15.7 -35.05 15.6 -35.1 15.1 M-32.9 15.7 Q-36.65 7.0 -36.55 -2.5 -36.35 -17.4 -22.85 -24.4 L-23.7 -25.55 -26.85 -25.15 -19.15 -38.9 -13.1 -34.85 Q-14.7 -23.95 -21.9 -16.15 L-26.8 -11.35 -28.1 -11.65 -25.5 -14.45 -26.85 -15.3 Q-37.45 -11.75 -29.55 -5.2 -30.95 -1.2 -29.4 2.25 -25.75 10.45 -32.9 15.7 M0.25 -35.8 L4.0 -36.35 Q8.9 -36.6 12.55 -33.45 8.0 -29.05 1.25 -27.25 -2.95 -28.1 -5.9 -31.2 L-5.8 -31.95 Q-4.7 -36.0 0.25 -35.8 M-28.3 -8.8 L-28.65 -9.95 -27.95 -9.5 -28.3 -8.8 M-5.55 78.9 Q6.0 59.95 29.1 59.5 16.1 48.6 17.95 32.0 24.7 35.55 29.75 41.2 35.05 47.2 35.5 55.0 36.55 74.85 13.75 75.95 L13.1 76.0 12.0 76.0 -5.55 78.9 M-26.7 -17.2 L-24.2 -16.3 Q-19.4 -19.3 -24.3 -21.7 L-27.3 -19.15 -29.0 -18.65 -29.1 -17.55 -27.8 -16.55 -26.7 -17.2 M-1.7 13.3 L-0.5 13.3 -0.2 13.7 Q2.4 18.0 -0.9 21.6 L-2.05 21.25 -2.5 21.85 Q-1.1 19.95 -0.05 17.45 L-2.15 16.15 Q-7.5 25.75 -18.2 24.15 L-18.35 25.25 -20.35 24.25 Q-24.9 21.65 -24.15 16.5 -22.9 8.3 -17.9 13.2 L-4.0 13.3 -1.7 13.3 M-10.4 14.75 Q-11.9 15.15 -12.2 16.8 -13.35 22.1 -7.65 21.3 L-7.05 20.4 Q-4.1 15.95 -9.3 14.55 L-10.4 14.75 M-39.05 89.95 Q-38.1 89.2 -38.2 88.15 -39.15 75.75 -46.85 83.7 -46.55 91.2 -39.05 89.95" fill="#fa9796" fill-rule="evenodd" stroke="none"/>
      <path d="M31.6 -94.0 Q37.2 -98.5 43.85 -95.1 L44.5 -92.45 32.35 -91.2 31.85 -92.05 31.6 -94.0 M19.95 -92.4 Q18.05 -100.75 23.55 -93.95 23.95 -93.4 22.55 -92.55 L19.95 -92.4 M24.2 -26.5 Q23.55 -25.9 22.7 -25.9 21.85 -25.9 21.25 -26.5 20.6 -27.15 20.6 -28.0 20.6 -28.85 21.25 -29.45 21.85 -30.1 22.7 -30.1 23.55 -30.1 24.2 -29.45 24.8 -28.85 24.8 -28.0 24.8 -27.15 24.2 -26.5 M-26.7 -17.2 L-27.8 -16.55 -29.1 -17.55 -29.0 -18.65 -27.3 -19.15 -24.3 -21.7 Q-19.4 -19.3 -24.2 -16.3 L-26.7 -17.2 M-4.0 13.3 L-4.8 12.45 -4.75 10.6 -3.55 9.45 -0.9 10.7 -1.7 13.3 -4.0 13.3 M-10.4 14.75 L-9.3 14.55 Q-4.1 15.95 -7.05 20.4 L-7.65 21.3 Q-13.35 22.1 -12.2 16.8 -11.9 15.15 -10.4 14.75 M-39.05 89.95 Q-46.55 91.2 -46.85 83.7 -39.15 75.75 -38.2 88.15 -38.1 89.2 -39.05 89.95" fill="#ffffff" fill-rule="evenodd" stroke="none"/>
      <path d="M48.25 -86.6 L43.9 -95.6 Q52.9 -90.75 55.85 -81.05 59.1 -70.3 54.5 -59.85 L36.55 -55.95 36.5 -55.2 38.05 -54.0 42.5 -54.15 Q33.0 -44.5 31.75 -31.05 L25.45 -34.35 Q26.25 -63.7 52.6 -70.4 L52.7 -72.05 Q52.35 -79.8 48.25 -86.6 M26.2 -31.2 Q35.05 -23.4 28.5 -13.95 L20.6 -2.05 Q25.5 -10.25 26.55 -19.65 27.15 -25.35 26.2 -31.2 M19.9 -0.95 L20.8 -0.35 25.8 -4.7 Q22.8 29.2 47.65 52.85 61.6 66.15 54.0 82.3 52.0 86.6 47.35 87.35 5.15 94.95 -38.4 97.15 -29.5 91.35 -20.5 85.8 -13.45 81.45 -5.55 78.9 L12.0 76.0 13.1 76.0 13.75 75.95 35.05 75.45 Q37.8 75.4 39.5 73.5 53.1 58.3 35.85 43.45 14.6 25.1 19.9 -0.95 M-45.7 24.45 L-38.65 12.15 -38.45 11.85 Q-38.2 11.9 -38.0 12.05 L-35.1 15.1 -35.05 15.6 Q-34.85 17.5 -35.1 19.4 -36.05 28.75 -44.05 27.85 L-44.85 27.8 Q-45.7 26.2 -45.7 24.45 M1.95 -26.35 L3.7 -26.3 Q13.15 -27.5 18.05 -36.25 L18.4 -37.05 Q22.5 -31.15 15.45 -24.9 8.75 -18.95 1.55 -23.4 L1.95 -26.35 M-0.9 21.6 Q6.75 31.2 -8.45 32.8 -17.35 34.05 -14.9 27.1 L-14.55 27.1 Q-6.95 27.95 -2.5 21.85 L-2.05 21.25 -0.9 21.6" fill="#c7676b" fill-rule="evenodd" stroke="none"/>
    </g>
  </defs>
</svg>
