<?xml version="1.0" encoding="UTF-8" standalone="no"?>
<svg xmlns:xlink="http://www.w3.org/1999/xlink" height="204.9px" width="183.15px" xmlns="http://www.w3.org/2000/svg">
  <g transform="matrix(1.0, 0.0, 0.0, 1.0, 91.7, 102.25)">
    <use height="204.9" transform="matrix(1.0, 0.0, 0.0, 1.0, -91.7, -102.25)" width="183.15" xlink:href="#shape0"/>
  </g>
  <defs>
    <g id="shape0" transform="matrix(1.0, 0.0, 0.0, 1.0, 91.7, 102.25)">
      <path d="M30.65 -101.35 Q62.8 -88.15 57.75 -53.45 L52.0 -24.65 Q59.85 -26.3 65.95 -21.45 78.8 -11.35 70.65 2.15 77.6 7.45 82.8 14.6 96.3 33.25 88.7 55.15 78.35 84.85 47.3 75.5 7.3 112.75 -44.6 94.8 -64.0 110.3 -82.25 95.15 -92.35 86.8 -91.25 74.3 -89.1 50.5 -91.45 26.9 -94.05 0.7 -69.6 -5.35 -79.0 -39.8 -64.0 -71.95 -59.0 -82.65 -47.95 -85.1 -26.35 -89.9 -4.35 -92.25 8.75 -93.25 20.2 -100.45 25.25 -103.55 30.65 -101.35 M28.55 -90.4 L25.05 -91.4 Q21.65 -89.55 18.2 -88.0 L12.9 -85.9 Q-6.2 -79.0 -28.6 -81.65 L-38.85 -81.35 Q-44.45 -80.6 -48.9 -78.55 -82.9 -41.4 -59.55 4.45 L-61.0 6.35 -66.5 2.05 Q-72.9 2.25 -76.6 7.25 -87.35 21.65 -74.45 35.95 L-75.9 37.5 -83.4 29.95 -84.45 33.25 -84.6 33.85 Q-87.55 44.05 -87.95 53.9 L-87.0 69.05 Q-85.6 77.6 -82.15 86.0 -80.35 90.3 -76.0 92.35 L-75.75 92.45 Q-63.0 98.35 -50.85 91.45 L-56.7 86.3 -58.75 84.5 -57.45 83.05 -56.7 83.4 Q6.15 108.45 53.95 62.75 L55.75 64.2 53.7 68.95 73.35 68.55 Q95.2 36.05 68.5 6.0 L64.5 11.9 65.35 10.25 Q74.45 -7.9 58.6 -20.1 L56.8 -20.75 56.3 -20.55 42.25 -15.5 Q56.9 -47.45 47.8 -68.05 39.9 -86.0 28.55 -90.4 M22.7 -79.8 Q35.7 -80.15 33.4 -65.8 L30.9 -68.35 Q26.15 -72.9 20.35 -76.45 L17.65 -78.05 18.7 -79.55 22.7 -79.8 M35.2 -55.0 Q51.25 -31.6 35.95 -7.7 L34.95 -6.35 Q23.1 10.65 9.45 6.35 33.9 1.35 34.35 -25.0 34.85 -57.0 4.55 -60.8 L3.5 -58.25 Q-12.25 -26.75 3.7 2.45 4.2 3.4 5.05 4.2 L6.2 5.05 Q3.6 3.75 0.9 1.7 -2.9 -1.15 -3.65 -5.95 -12.0 28.5 -43.5 15.0 -50.0 12.15 -52.1 4.85 -60.95 -18.3 -53.95 -39.9 -48.45 -66.75 -24.05 -66.45 L-21.85 -66.15 Q-12.6 -61.9 -8.2 -52.35 -6.35 -48.35 -4.95 -44.1 L-3.8 -54.15 Q-2.7 -57.8 0.05 -60.15 18.8 -76.05 35.2 -55.0 M42.05 -0.25 Q42.05 -1.15 42.8 -1.8 43.55 -2.45 44.6 -2.45 L45.85 -1.8 49.35 1.0 Q54.6 6.75 49.8 10.7 L49.15 10.95 48.45 10.4 47.15 5.5 Q25.15 46.7 -19.2 41.6 -41.45 39.1 -60.8 27.8 -64.85 25.4 -68.8 22.7 L-68.0 29.85 -68.45 30.5 -70.6 30.6 -72.35 26.6 -72.55 23.7 -72.35 22.05 Q-71.4 17.15 -67.3 14.95 L-65.95 14.4 -63.25 14.95 -63.05 15.7 -67.5 19.65 -63.15 22.9 Q-49.55 32.35 -33.2 35.55 17.45 45.6 45.25 1.85 L42.4 0.95 42.05 -0.25 M29.9 59.05 Q22.4 63.8 14.65 67.65 8.95 70.45 2.5 71.0 -3.9 71.4 -10.15 70.9 -23.6 69.75 -36.4 64.35 L-37.0 64.1 -35.7 64.15 -30.1 64.1 3.7 63.6 7.45 63.55 Q15.7 62.9 22.25 57.65 30.75 51.55 37.15 42.85 L37.85 42.9 Q35.35 52.65 29.9 59.05 M-41.95 -66.8 L-51.1 -57.5 -52.5 -56.1 -53.9 -56.25 -54.9 -57.15 Q-52.7 -71.65 -38.0 -70.85 L-41.95 -66.8 M16.05 -11.15 Q23.25 -0.7 10.4 -1.55 8.85 -1.75 8.2 -3.25 6.45 -11.5 14.85 -11.35 L16.05 -11.15 M11.95 -7.3 L11.65 -7.2 11.05 -6.45 10.95 -6.2 Q11.8 -5.1 13.3 -5.85 13.85 -6.1 14.05 -6.7 13.3 -7.45 12.2 -7.35 L11.95 -7.3 M-12.8 -52.15 Q-19.0 -63.25 -31.45 -58.55 L-39.05 -48.75 Q-59.85 -20.5 -45.65 12.0 L-44.2 12.85 Q-17.2 23.3 -8.45 -5.85 -1.2 -29.8 -12.8 -52.15 M-22.8 0.15 Q-25.15 -4.75 -20.65 -8.0 L-19.5 -8.7 Q-5.9 -4.5 -18.85 1.5 -21.15 2.55 -22.8 0.15 M-19.85 -4.15 Q-19.85 -3.75 -19.45 -3.45 -19.1 -3.15 -18.6 -3.15 -18.1 -3.15 -17.7 -3.45 -17.35 -3.75 -17.35 -4.15 -17.35 -4.55 -17.7 -4.85 L-18.6 -5.15 Q-19.1 -5.15 -19.45 -4.85 L-19.85 -4.15" fill="#000000" fill-rule="evenodd" stroke="none"/>
      <path d="M18.2 -88.0 Q21.65 -89.55 25.05 -91.4 L28.55 -90.4 Q28.35 -88.15 27.6 -86.25 26.2 -88.75 21.75 -88.7 L18.2 -88.0 M-76.0 92.35 Q-80.35 90.3 -82.15 86.0 -85.6 77.6 -87.0 69.05 -81.4 83.75 -70.9 74.35 L-69.95 73.3 Q-68.55 79.55 -69.95 86.2 -74.1 85.3 -76.05 81.05 L-77.8 81.2 -78.15 82.1 Q-79.55 87.6 -76.0 92.35 M-87.95 53.9 Q-87.55 44.05 -84.6 33.85 L-84.3 33.7 -84.45 33.25 -83.4 29.95 -75.9 37.5 -74.45 35.95 Q-87.35 21.65 -76.6 7.25 -72.9 2.25 -66.5 2.05 L-61.0 6.35 -59.55 4.45 Q-82.9 -41.4 -48.9 -78.55 L-38.85 -81.35 -28.6 -81.65 Q-6.2 -79.0 12.9 -85.9 L11.75 -85.3 Q5.0 -80.9 6.95 -73.2 L-37.6 -67.65 -41.95 -66.8 -38.0 -70.85 Q-52.7 -71.65 -54.9 -57.15 L-53.9 -56.25 -52.5 -56.1 -51.1 -57.5 -53.95 -39.9 Q-60.95 -18.3 -52.1 4.85 -57.15 10.7 -64.65 13.85 L-65.95 14.4 -67.3 14.95 Q-69.9 16.05 -72.4 17.3 L-72.55 23.7 -72.35 26.6 Q-68.75 38.9 -76.55 48.05 L-76.5 49.85 Q-83.3 47.75 -87.9 53.2 L-87.95 53.9 M-35.7 64.15 L-36.75 64.1 Q-46.65 52.2 -29.7 51.85 -25.55 51.15 -21.6 53.0 -3.4 45.75 17.4 46.05 L29.75 33.95 Q38.3 38.8 30.2 48.85 26.45 53.45 22.25 57.65 15.7 62.9 7.45 63.55 L3.7 63.6 Q4.6 53.15 -7.65 52.1 -24.35 50.3 -30.1 64.1 L-35.7 64.15 M-36.4 64.35 Q-23.6 69.75 -10.15 70.9 L-12.8 71.1 Q-26.25 71.95 -36.4 64.35" fill="#eeeee4" fill-rule="evenodd" stroke="none"/>
      <path d="M18.2 -88.0 L21.75 -88.7 Q26.2 -88.75 27.6 -86.25 L22.7 -79.8 18.7 -79.55 17.65 -78.05 20.35 -76.45 Q16.4 -74.4 12.1 -73.75 L6.95 -73.2 Q5.0 -80.9 11.75 -85.3 L12.9 -85.9 18.2 -88.0 M-87.0 69.05 L-87.95 53.9 -87.9 53.2 Q-83.3 47.75 -76.5 49.85 L-76.45 50.65 Q-74.65 62.45 -69.95 73.3 L-70.9 74.35 Q-81.4 83.75 -87.0 69.05 M45.05 -3.05 Q46.7 -6.1 46.3 -9.15 L46.1 -10.35 57.35 -9.35 59.85 -3.05 Q58.85 -0.9 57.25 0.7 52.6 2.3 49.35 1.0 L45.85 -1.8 45.05 -3.05 M11.95 -7.3 L12.2 -7.35 Q13.3 -7.45 14.05 -6.7 13.85 -6.1 13.3 -5.85 11.8 -5.1 10.95 -6.2 L11.05 -6.45 11.65 -7.2 11.95 -7.3 M3.7 63.6 L-30.1 64.1 Q-24.35 50.3 -7.65 52.1 4.6 53.15 3.7 63.6 M-19.85 -4.15 L-19.45 -4.85 Q-19.1 -5.15 -18.6 -5.15 L-17.7 -4.85 Q-17.35 -4.55 -17.35 -4.15 -17.35 -3.75 -17.7 -3.45 -18.1 -3.15 -18.6 -3.15 -19.1 -3.15 -19.45 -3.45 -19.85 -3.75 -19.85 -4.15" fill="#ffffff" fill-rule="evenodd" stroke="none"/>
      <path d="M27.6 -86.25 Q28.35 -88.15 28.55 -90.4 39.9 -86.0 47.8 -68.05 56.9 -47.45 42.25 -15.5 L56.3 -20.55 58.6 -20.1 Q74.45 -7.9 65.35 10.25 L64.5 11.9 68.5 6.0 Q95.2 36.05 73.35 68.55 L53.7 68.95 55.75 64.2 53.95 62.75 Q6.15 108.45 -56.7 83.4 L-52.8 77.95 Q-24.35 86.9 4.5 80.3 L0.75 80.65 Q-12.4 81.4 -24.7 76.25 L-24.9 74.05 -23.15 73.35 2.5 71.0 Q8.95 70.45 14.65 67.65 22.4 63.8 29.9 59.05 L59.0 48.5 Q66.6 37.05 62.5 23.95 60.25 22.15 59.8 19.8 57.7 8.8 59.85 -3.05 L57.35 -9.35 46.1 -10.35 46.3 -9.15 Q46.7 -6.1 45.05 -3.05 L44.6 -2.45 Q43.55 -2.45 42.8 -1.8 42.05 -1.15 42.05 -0.25 40.45 0.6 38.75 -0.55 35.7 -2.65 34.95 -6.35 L35.95 -7.7 Q51.25 -31.6 35.2 -55.0 L30.9 -68.35 33.4 -65.8 Q35.7 -80.15 22.7 -79.8 L27.6 -86.25 M-56.7 86.3 L-50.85 91.45 Q-63.0 98.35 -75.75 92.45 L-76.0 92.35 Q-79.55 87.6 -78.15 82.1 L-77.8 81.2 -76.05 81.05 Q-74.1 85.3 -69.95 86.2 L-69.2 86.3 Q-63.1 87.2 -56.7 86.3 M-21.85 -66.15 Q-11.3 -65.9 -5.3 -57.2 L-5.4 -56.45 -3.8 -54.15 -4.95 -44.1 Q-6.35 -48.35 -8.2 -52.35 -12.6 -61.9 -21.85 -66.15 M-60.8 27.8 Q-60.45 28.75 -60.5 29.95 -60.55 31.8 -62.05 32.95 -66.35 33.2 -68.45 30.5 L-68.0 29.85 -68.8 22.7 Q-64.85 25.4 -60.8 27.8 M-63.15 22.9 L-67.5 19.65 -63.05 15.7 Q-58.55 16.1 -58.1 20.6 L-63.15 22.9" fill="#999982" fill-rule="evenodd" stroke="none"/>
      <path d="M56.3 -20.55 L56.8 -20.75 58.6 -20.1 56.3 -20.55 M-56.7 83.4 L-57.45 83.05 -58.75 84.5 -56.7 86.3 Q-63.1 87.2 -69.2 86.3 L-69.95 86.2 Q-68.55 79.55 -69.95 73.3 -74.65 62.45 -76.45 50.65 L-76.5 49.85 -76.55 48.05 Q-68.75 38.9 -72.35 26.6 L-70.6 30.6 -68.45 30.5 Q-66.35 33.2 -62.05 32.95 -60.55 31.8 -60.5 29.95 -60.45 28.75 -60.8 27.8 -41.45 39.1 -19.2 41.6 25.15 46.7 47.15 5.5 L48.45 10.4 49.15 10.95 49.8 10.7 Q54.6 6.75 49.35 1.0 52.6 2.3 57.25 0.7 58.85 -0.9 59.85 -3.05 57.7 8.8 59.8 19.8 60.25 22.15 62.5 23.95 66.6 37.05 59.0 48.5 L29.9 59.05 Q35.35 52.65 37.85 42.9 L37.15 42.85 Q30.75 51.55 22.25 57.65 26.45 53.45 30.2 48.85 38.3 38.8 29.75 33.95 L17.4 46.05 Q-3.4 45.75 -21.6 53.0 -25.55 51.15 -29.7 51.85 -46.65 52.2 -36.75 64.1 L-35.7 64.15 -37.0 64.1 -36.4 64.35 Q-26.25 71.95 -12.8 71.1 L-10.15 70.9 Q-3.9 71.4 2.5 71.0 L-23.15 73.35 -24.9 74.05 -24.7 76.25 Q-12.4 81.4 0.75 80.65 L4.5 80.3 Q-24.35 86.9 -52.8 77.95 L-56.7 83.4 M-84.6 33.85 L-84.45 33.25 -84.3 33.7 -84.6 33.85 M-48.9 -78.55 Q-44.45 -80.6 -38.85 -81.35 L-48.9 -78.55 M30.9 -68.35 L35.2 -55.0 Q18.8 -76.05 0.05 -60.15 -2.7 -57.8 -3.8 -54.15 L-5.4 -56.45 -5.3 -57.2 Q-11.3 -65.9 -21.85 -66.15 L-24.05 -66.45 Q-48.45 -66.75 -53.95 -39.9 L-51.1 -57.5 -41.95 -66.8 -37.6 -67.65 6.95 -73.2 12.1 -73.75 Q16.4 -74.4 20.35 -76.45 26.15 -72.9 30.9 -68.35 M34.95 -6.35 Q35.7 -2.65 38.75 -0.55 40.45 0.6 42.05 -0.25 L42.4 0.95 45.25 1.85 Q17.45 45.6 -33.2 35.55 -49.55 32.35 -63.15 22.9 L-58.1 20.6 Q-58.55 16.1 -63.05 15.7 L-63.25 14.95 -65.95 14.4 -64.65 13.85 Q-57.15 10.7 -52.1 4.85 -50.0 12.15 -43.5 15.0 -12.0 28.5 -3.65 -5.95 -2.9 -1.15 0.9 1.7 3.6 3.75 6.2 5.05 7.8 5.8 9.45 6.35 23.1 10.65 34.95 -6.35 M44.6 -2.45 L45.05 -3.05 45.85 -1.8 44.6 -2.45 M-67.3 14.95 Q-71.4 17.15 -72.35 22.05 L-72.55 23.7 -72.4 17.3 Q-69.9 16.05 -67.3 14.95" fill="#ccccad" fill-rule="evenodd" stroke="none"/>
      <path d="M3.5 -58.25 Q30.05 -41.65 17.25 -13.5 L16.05 -11.15 14.85 -11.35 Q6.45 -11.5 8.2 -3.25 4.75 -0.25 5.05 4.2 4.2 3.4 3.7 2.45 -12.25 -26.75 3.5 -58.25 M-44.2 12.85 L-45.65 12.0 Q-59.85 -20.5 -39.05 -48.75 L-31.45 -58.55 Q-19.0 -63.25 -12.8 -52.15 -22.15 -35.1 -19.7 -14.4 -19.35 -11.6 -19.5 -8.7 L-20.65 -8.0 Q-25.15 -4.75 -22.8 0.15 -31.7 4.45 -41.2 8.15 -44.05 9.3 -44.2 12.85" fill="#ffff00" fill-rule="evenodd" stroke="none"/>
      <path d="M3.5 -58.25 L4.55 -60.8 Q34.85 -57.0 34.35 -25.0 33.9 1.35 9.45 6.35 7.8 5.8 6.2 5.05 L5.05 4.2 Q4.75 -0.25 8.2 -3.25 8.85 -1.75 10.4 -1.55 23.25 -0.7 16.05 -11.15 L17.25 -13.5 Q30.05 -41.65 3.5 -58.25 M-44.2 12.85 Q-44.05 9.3 -41.2 8.15 -31.7 4.45 -22.8 0.15 -21.15 2.55 -18.85 1.5 -5.9 -4.5 -19.5 -8.7 -19.35 -11.6 -19.7 -14.4 -22.15 -35.1 -12.8 -52.15 -1.2 -29.8 -8.45 -5.85 -17.2 23.3 -44.2 12.85" fill="#c1c100" fill-rule="evenodd" stroke="none"/>
    </g>
  </defs>
</svg>
