<?xml version="1.0" encoding="UTF-8" standalone="no"?>
<svg xmlns:xlink="http://www.w3.org/1999/xlink" height="209.25px" width="163.7px" xmlns="http://www.w3.org/2000/svg">
  <g transform="matrix(1.0, 0.0, 0.0, 1.0, 80.5, 101.75)">
    <use height="209.25" transform="matrix(1.0, 0.0, 0.0, 1.0, -80.5, -101.75)" width="163.7" xlink:href="#shape0"/>
  </g>
  <defs>
    <g id="shape0" transform="matrix(1.0, 0.0, 0.0, 1.0, 80.5, 101.75)">
      <path d="M52.35 -72.3 Q44.2 -67.75 52.2 -60.6 55.65 -57.5 60.2 -58.95 64.05 -69.95 52.35 -72.3 M55.05 -54.0 Q48.35 -56.6 46.6 -63.3 L45.8 -63.9 Q40.3 -69.85 46.1 -75.8 54.75 -75.2 62.0 -70.45 L63.8 -69.25 Q65.7 -65.8 65.65 -61.8 65.45 -50.7 55.05 -54.0 M-17.85 -77.25 Q-24.15 -73.3 -32.5 -72.65 -29.65 -66.15 -33.35 -60.3 -42.4 -45.95 -57.65 -51.55 L-57.9 -50.1 Q-60.25 -38.75 -51.8 -31.25 -57.15 -32.55 -61.55 -36.8 -65.65 -40.8 -68.85 -45.45 L-73.15 -46.1 -75.45 -35.4 Q-80.25 -52.35 -69.85 -66.5 -51.7 -91.25 -21.95 -84.65 L-17.85 -77.25 M48.9 -46.65 Q47.3 -39.5 42.1 -33.85 45.7 -30.75 44.35 -26.0 42.95 -21.1 38.5 -18.9 29.65 -14.8 26.9 -22.6 12.6 -17.9 -2.6 -17.1 L-2.7 -15.9 Q-3.45 -11.4 -6.25 -7.85 L-8.0 -7.9 Q-14.5 -1.45 -23.0 -3.45 -25.95 -4.15 -25.4 -0.95 L-29.6 -3.15 Q-30.65 -17.6 -15.55 -23.05 -11.7 -24.4 -7.95 -25.25 L-7.8 -25.15 -7.9 -25.25 Q5.05 -25.1 17.8 -27.4 39.3 -31.1 45.6 -52.5 L48.9 -46.65 M-20.9 12.65 Q-17.5 15.25 -15.4 19.9 -12.6 26.15 -11.65 32.55 L-16.2 29.45 Q-23.35 33.2 -19.55 44.2 L-21.35 44.75 Q-41.45 53.25 -31.1 72.1 L-31.95 72.95 Q-32.05 78.25 -34.5 83.0 -51.25 52.15 -24.65 24.25 -20.1 19.45 -20.9 12.65 M33.7 -30.7 Q31.75 -29.7 30.75 -27.55 29.7 -25.25 31.05 -23.3 34.5 -18.45 39.2 -22.25 41.25 -23.9 40.75 -26.5 39.75 -31.95 33.7 -30.7 M-45.45 -72.8 Q-62.25 -75.85 -58.95 -60.25 -48.4 -51.2 -40.9 -62.05 -34.8 -70.9 -45.45 -72.8 M-18.15 -8.7 Q-4.6 -6.75 -8.85 -19.0 -20.1 -25.15 -20.45 -11.75 -20.5 -9.0 -18.15 -8.7" fill="#c9eaf3" fill-rule="evenodd" stroke="none"/>
      <path d="M63.8 -69.25 L62.0 -70.45 Q54.75 -75.2 46.1 -75.8 L35.15 -75.5 Q34.3 -50.1 8.35 -55.85 -2.55 -58.2 -6.0 -68.9 -9.5 -70.05 -12.6 -72.25 -15.65 -74.4 -17.85 -77.25 L-21.95 -84.65 Q-51.7 -91.25 -69.85 -66.5 -80.25 -52.35 -75.45 -35.4 -64.35 -11.25 -37.1 -19.7 -23.7 -23.75 -10.65 -29.25 L0.8 -29.95 Q21.2 -27.95 33.4 -40.25 L34.5 -41.4 Q38.55 -45.85 41.65 -52.0 L37.1 -50.65 33.35 -49.55 Q34.1 -51.5 35.15 -52.95 37.65 -56.7 42.2 -56.65 55.25 -56.6 53.2 -44.1 L50.1 -44.5 48.9 -46.65 45.6 -52.5 Q39.3 -31.1 17.8 -27.4 5.05 -25.1 -7.9 -25.25 L-7.95 -25.25 Q-11.7 -24.4 -15.55 -23.05 -30.65 -17.6 -29.6 -3.15 -26.15 2.75 -21.55 7.7 L-20.9 12.65 Q-20.1 19.45 -24.65 24.25 -51.25 52.15 -34.5 83.0 L-32.8 83.85 Q-10.8 93.2 13.0 95.95 19.75 97.3 27.2 96.95 L43.55 97.7 51.85 97.2 Q71.5 93.55 69.95 73.7 69.2 56.95 58.2 43.9 56.5 41.95 55.6 39.65 45.8 13.9 64.95 -7.95 71.8 -15.75 75.1 -25.55 83.8 -51.25 63.8 -69.25 M34.65 -79.05 Q72.35 -84.0 81.95 -48.1 85.9 -33.35 77.55 -21.3 60.35 3.45 57.95 33.4 89.6 54.5 76.1 88.4 74.6 92.2 71.0 94.5 40.7 114.7 4.05 103.5 -17.0 97.1 -35.1 84.5 -40.55 80.75 -42.3 73.9 -50.0 44.3 -32.05 19.0 -30.2 16.45 -30.65 12.15 -31.85 0.0 -31.35 -12.05 -61.15 -0.6 -76.75 -27.2 -81.6 -35.5 -80.15 -45.1 -73.9 -86.0 -33.45 -88.8 -26.95 -89.25 -20.75 -87.7 -9.85 -109.55 10.65 -97.4 26.8 -95.25 33.9 -80.75 L34.65 -79.05 M30.05 -78.15 Q22.75 -91.5 5.45 -91.75 L3.8 -90.05 Q-7.45 -77.0 3.2 -63.45 9.0 -57.55 17.05 -59.1 32.9 -61.75 30.05 -78.15 M5.65 -94.9 L6.85 -96.05 Q-13.25 -104.1 -16.5 -83.05 -13.8 -75.85 -6.8 -72.6 L-6.05 -79.15 -6.6 -78.65 Q-13.0 -75.5 -14.55 -82.25 L-14.15 -84.65 -9.9 -87.5 -6.3 -85.65 -5.2 -83.0 Q-2.7 -91.6 5.65 -94.9 M4.3 -78.4 L5.75 -78.7 Q6.3 -79.0 6.3 -79.4 6.3 -79.8 5.75 -80.1 L4.3 -80.4 2.9 -80.1 Q2.3 -79.8 2.3 -79.4 2.3 -79.0 2.9 -78.7 L4.3 -78.4 M6.25 -75.85 Q2.15 -73.75 0.75 -78.15 -1.15 -83.95 6.1 -83.95 12.85 -79.1 6.25 -75.85 M-12.05 -82.55 Q-12.05 -81.75 -11.45 -81.15 -10.9 -80.6 -10.05 -80.6 -9.2 -80.6 -8.6 -81.15 -8.05 -81.75 -8.05 -82.55 -8.05 -83.35 -8.6 -83.9 -9.2 -84.5 -10.05 -84.5 -10.9 -84.5 -11.45 -83.9 -12.05 -83.35 -12.05 -82.55" fill="#000000" fill-rule="evenodd" stroke="none"/>
      <path d="M52.35 -72.3 Q64.05 -69.95 60.2 -58.95 55.65 -57.5 52.2 -60.6 44.2 -67.75 52.35 -72.3 M-11.65 32.55 Q-8.95 56.4 -28.8 70.35 L-31.1 72.1 Q-41.45 53.25 -21.35 44.75 L-19.55 44.2 Q-23.35 33.2 -16.2 29.45 L-11.65 32.55 M4.3 -78.4 L2.9 -78.7 Q2.3 -79.0 2.3 -79.4 2.3 -79.8 2.9 -80.1 L4.3 -80.4 5.75 -80.1 Q6.3 -79.8 6.3 -79.4 6.3 -79.0 5.75 -78.7 L4.3 -78.4 M33.7 -30.7 Q39.75 -31.95 40.75 -26.5 41.25 -23.9 39.2 -22.25 34.5 -18.45 31.05 -23.3 29.7 -25.25 30.75 -27.55 31.75 -29.7 33.7 -30.7 M-12.05 -82.55 Q-12.05 -83.35 -11.45 -83.9 -10.9 -84.5 -10.05 -84.5 -9.2 -84.5 -8.6 -83.9 -8.05 -83.35 -8.05 -82.55 -8.05 -81.75 -8.6 -81.15 -9.2 -80.6 -10.05 -80.6 -10.9 -80.6 -11.45 -81.15 -12.05 -81.75 -12.05 -82.55 M-45.45 -72.8 Q-34.8 -70.9 -40.9 -62.05 -48.4 -51.2 -58.95 -60.25 -62.25 -75.85 -45.45 -72.8 M-18.15 -8.7 Q-20.5 -9.0 -20.45 -11.75 -20.1 -25.15 -8.85 -19.0 -4.6 -6.75 -18.15 -8.7" fill="#ffffff" fill-rule="evenodd" stroke="none"/>
      <path d="M46.1 -75.8 Q40.3 -69.85 45.8 -63.9 L46.6 -63.3 Q48.35 -56.6 55.05 -54.0 59.35 -33.4 46.55 -16.7 26.7 9.35 37.9 42.2 39.85 48.0 43.55 52.8 52.0 63.65 42.1 69.2 36.6 72.25 30.85 70.75 3.3 63.1 -9.2 85.1 L-8.9 85.45 Q0.65 93.65 13.0 95.95 -10.8 93.2 -32.8 83.85 L-34.5 83.0 Q-32.05 78.25 -31.95 72.95 L-31.1 72.1 -28.8 70.35 Q-8.95 56.4 -11.65 32.55 -12.6 26.15 -15.4 19.9 -17.5 15.25 -20.9 12.65 L-21.55 7.7 Q-26.15 2.75 -29.6 -3.15 L-25.4 -0.95 Q-21.7 4.85 -17.05 10.2 -11.9 16.15 -4.15 15.2 12.0 13.25 22.3 -0.2 L22.55 -3.2 Q12.15 0.0 1.15 -0.15 L-1.3 -2.5 -1.5 -3.4 Q-2.35 -7.05 -6.25 -7.85 -3.45 -11.4 -2.7 -15.9 L-2.6 -17.1 Q12.6 -17.9 26.9 -22.6 29.65 -14.8 38.5 -18.9 42.95 -21.1 44.35 -26.0 45.7 -30.75 42.1 -33.85 47.3 -39.5 48.9 -46.65 L50.1 -44.5 53.2 -44.1 Q55.25 -56.6 42.2 -56.65 37.65 -56.7 35.15 -52.95 L32.5 -53.2 Q17.65 -40.1 -2.15 -43.1 -5.8 -43.7 -9.1 -42.05 -29.7 -31.8 -51.8 -31.25 -60.25 -38.75 -57.9 -50.1 L-57.65 -51.55 Q-42.4 -45.95 -33.35 -60.3 -29.65 -66.15 -32.5 -72.65 -24.15 -73.3 -17.85 -77.25 -15.65 -74.4 -12.6 -72.25 -9.5 -70.05 -6.0 -68.9 -2.55 -58.2 8.35 -55.85 34.3 -50.1 35.15 -75.5 L46.1 -75.8 M-10.65 -29.25 Q6.25 -34.35 24.0 -36.3 29.25 -36.6 33.4 -40.25 21.2 -27.95 0.8 -29.95 L-10.65 -29.25 M34.5 -41.4 Q37.85 -45.35 37.1 -50.65 L41.65 -52.0 Q38.55 -45.85 34.5 -41.4 M-7.9 -25.25 L-7.8 -25.15 -7.95 -25.25 -7.9 -25.25 M43.55 97.7 Q52.2 97.15 60.7 92.55 69.15 87.9 69.95 73.7 71.5 93.55 51.85 97.2 L43.55 97.7" fill="#81d0e3" fill-rule="evenodd" stroke="none"/>
      <path d="M55.05 -54.0 Q65.45 -50.7 65.65 -61.8 65.7 -65.8 63.8 -69.25 83.8 -51.25 75.1 -25.55 71.8 -15.75 64.95 -7.95 45.8 13.9 55.6 39.65 56.5 41.95 58.2 43.9 69.2 56.95 69.95 73.7 69.15 87.9 60.7 92.55 52.2 97.15 43.55 97.7 L27.2 96.95 Q19.75 97.3 13.0 95.95 0.65 93.65 -8.9 85.45 L-9.2 85.1 Q3.3 63.1 30.85 70.75 36.6 72.25 42.1 69.2 52.0 63.65 43.55 52.8 39.85 48.0 37.9 42.2 26.7 9.35 46.55 -16.7 59.35 -33.4 55.05 -54.0 M-51.8 -31.25 Q-29.7 -31.8 -9.1 -42.05 -5.8 -43.7 -2.15 -43.1 17.65 -40.1 32.5 -53.2 L35.15 -52.95 Q34.1 -51.5 33.35 -49.55 L37.1 -50.65 Q37.85 -45.35 34.5 -41.4 L33.4 -40.25 Q29.25 -36.6 24.0 -36.3 6.25 -34.35 -10.65 -29.25 -23.7 -23.75 -37.1 -19.7 -64.35 -11.25 -75.45 -35.4 L-73.15 -46.1 -68.85 -45.45 Q-65.65 -40.8 -61.55 -36.8 -57.15 -32.55 -51.8 -31.25 M-6.25 -7.85 Q-2.35 -7.05 -1.5 -3.4 L-1.3 -2.5 1.15 -0.15 Q12.15 0.0 22.55 -3.2 L22.3 -0.2 Q12.0 13.25 -4.15 15.2 -11.9 16.15 -17.05 10.2 -21.7 4.85 -25.4 -0.95 -25.95 -4.15 -23.0 -3.45 -14.5 -1.45 -8.0 -7.9 L-6.25 -7.85" fill="#5a929f" fill-rule="evenodd" stroke="none"/>
      <path d="M3.2 -63.45 Q-7.45 -77.0 3.8 -90.05 L5.45 -91.75 Q22.75 -91.5 30.05 -78.15 L19.95 -87.15 18.55 -84.4 19.5 -83.05 16.7 -67.9 Q14.15 -70.35 10.6 -69.7 4.05 -69.75 3.2 -63.45 M-16.5 -83.05 Q-13.25 -104.1 6.85 -96.05 L5.65 -94.9 Q0.7 -94.9 -2.8 -92.2 -6.3 -89.5 -6.3 -85.65 L-9.9 -87.5 -14.15 -84.65 -14.55 -82.25 -16.5 -83.05 M6.25 -75.85 Q12.85 -79.1 6.1 -83.95 -1.15 -83.95 0.75 -78.15 2.15 -73.75 6.25 -75.85" fill="#ffff00" fill-rule="evenodd" stroke="none"/>
      <path d="M3.2 -63.45 Q4.05 -69.75 10.6 -69.7 14.15 -70.35 16.7 -67.9 L19.5 -83.05 18.55 -84.4 19.95 -87.15 30.05 -78.15 Q32.9 -61.75 17.05 -59.1 9.0 -57.55 3.2 -63.45 M-16.5 -83.05 L-14.55 -82.25 Q-13.0 -75.5 -6.6 -78.65 L-6.05 -79.15 -6.8 -72.6 Q-13.8 -75.85 -16.5 -83.05 M-6.3 -85.65 Q-6.3 -89.5 -2.8 -92.2 0.7 -94.9 5.65 -94.9 -2.7 -91.6 -5.2 -83.0 L-6.3 -85.65" fill="#cccc00" fill-rule="evenodd" stroke="none"/>
    </g>
  </defs>
</svg>
