<?xml version="1.0" encoding="UTF-8" standalone="no"?>
<svg xmlns:xlink="http://www.w3.org/1999/xlink" height="208.0px" width="161.05px" xmlns="http://www.w3.org/2000/svg">
  <g transform="matrix(1.0, 0.0, 0.0, 1.0, 80.45, 103.85)">
    <use height="208.0" transform="matrix(1.0, 0.0, 0.0, 1.0, -80.45, -103.85)" width="161.05" xlink:href="#shape0"/>
  </g>
  <defs>
    <g id="shape0" transform="matrix(1.0, 0.0, 0.0, 1.0, 80.45, 103.85)">
      <path d="M69.05 -59.05 Q62.75 -46.8 48.9 -41.85 31.2 -6.35 52.15 26.75 76.5 33.85 80.3 58.85 81.8 68.55 76.25 76.7 59.7 101.05 31.0 92.7 L20.4 95.55 Q15.05 96.85 9.9 98.6 -22.7 110.1 -54.4 97.75 -67.6 92.65 -74.5 80.65 -84.65 63.1 -68.7 51.5 L-70.95 48.1 Q-85.5 22.9 -72.15 -4.0 -80.5 -16.3 -80.45 -31.05 -80.3 -58.5 -56.55 -71.0 -53.6 -77.2 -48.3 -81.65 -36.35 -91.85 -23.8 -83.4 L-9.05 -89.05 Q-2.2 -100.0 10.35 -102.4 46.45 -109.65 68.45 -81.2 74.75 -70.1 69.05 -59.05 M-60.7 86.65 L-56.85 88.85 Q-15.7 107.8 26.45 90.05 L15.75 85.4 Q28.85 83.6 41.15 88.55 57.8 95.3 69.1 81.55 72.05 77.95 73.2 73.35 79.7 46.45 54.95 34.1 52.25 32.75 49.2 33.1 33.05 33.8 19.5 25.45 L49.3 26.1 Q47.5 24.8 46.3 22.95 26.6 -7.7 43.3 -40.25 L31.15 -39.8 Q44.05 -44.25 56.05 -50.95 67.05 -57.1 65.25 -69.2 61.85 -92.05 39.2 -96.7 31.85 -98.65 24.4 -98.8 5.85 -100.2 -4.2 -86.0 L1.05 -71.05 Q1.85 -64.0 -1.2 -57.55 L-1.75 -61.15 Q-1.9 -72.85 -8.8 -81.15 L-10.7 -82.75 -24.2 -77.65 -27.5 -76.15 -28.05 -77.8 -30.6 -82.95 Q-40.25 -83.4 -48.0 -74.45 -49.9 -71.65 -48.15 -68.8 L-47.6 -68.0 Q-41.9 -71.7 -35.4 -72.7 L-33.25 -72.35 Q-15.2 -64.8 -10.05 -45.6 -4.35 -24.35 -16.2 -6.35 -18.65 -2.6 -22.4 -0.7 -38.1 7.2 -53.9 -3.15 L-70.25 9.4 Q-75.4 15.45 -75.75 23.2 -76.85 47.3 -53.55 56.25 -47.3 58.7 -41.2 61.1 -31.3 65.0 -23.7 60.2 -18.25 50.15 -8.35 44.6 1.1 39.25 6.8 45.95 L12.85 58.2 13.65 58.95 14.05 58.75 Q20.3 55.65 26.55 56.7 29.25 57.1 31.95 58.35 40.5 62.15 48.45 67.05 L50.95 68.6 55.3 59.65 56.6 56.9 Q58.2 63.5 55.15 69.45 52.05 75.5 45.4 76.85 L46.7 70.15 Q34.3 58.25 17.15 60.7 14.1 61.0 11.4 62.25 -13.3 74.55 -38.4 64.9 L-40.15 63.95 -41.6 63.15 Q-47.75 59.75 -54.3 57.8 L-55.8 57.4 -57.7 56.85 -67.4 55.35 Q-78.05 60.7 -73.25 71.65 -69.25 80.85 -60.7 86.65 M8.4 -78.5 Q10.95 -75.05 12.65 -71.0 21.25 -49.9 5.45 -34.95 L6.8 -38.85 Q19.5 -61.0 3.55 -81.45 L3.0 -82.25 1.95 -84.35 8.4 -78.5 M1.7 19.45 Q-3.25 29.9 -13.8 30.7 L1.2 15.05 Q2.95 16.9 1.7 19.45 M-0.25 65.05 Q5.1 63.65 10.2 60.55 L2.0 44.2 Q-15.55 48.45 -22.85 64.9 L-21.25 65.1 Q-10.6 67.05 -0.25 65.05 M-52.45 -16.5 Q-47.6 1.3 -30.7 -0.7 -26.9 -1.15 -24.5 -4.2 -11.55 -20.2 -14.65 -40.95 -15.0 -59.0 -29.95 -66.35 -38.75 -70.7 -44.7 -63.05 -60.9 -41.9 -52.45 -16.5 M-71.35 -11.4 Q-64.65 -4.1 -59.45 -10.4 -57.85 -12.35 -57.9 -15.55 -58.45 -40.5 -49.55 -63.65 L-51.8 -66.7 Q-59.3 -66.95 -65.2 -62.4 -84.8 -39.95 -72.5 -13.25 L-71.35 -11.4 M-45.5 -24.85 L-45.25 -24.1 -44.45 -24.0 -43.65 -25.7 Q-44.65 -26.8 -45.5 -24.85 M-40.6 -25.35 Q-38.95 -21.45 -42.8 -19.7 -48.4 -17.1 -49.4 -23.15 L-49.35 -25.8 Q-43.9 -33.25 -40.6 -25.35 M-72.4 -22.9 Q-76.75 -28.9 -68.4 -31.2 -62.9 -28.95 -65.6 -23.65 -68.65 -17.7 -72.4 -22.9 M-19.05 20.15 L-4.3 5.3 Q-1.1 13.65 -9.0 21.15 -21.35 32.85 -37.75 29.75 -48.45 27.95 -48.6 17.7 -44.95 23.45 -37.9 25.3 -27.1 28.4 -19.05 20.15" fill="#000000" fill-rule="evenodd" stroke="none"/>
      <path d="M39.2 -96.7 Q61.85 -92.05 65.25 -69.2 67.05 -57.1 56.05 -50.95 44.05 -44.25 31.15 -39.8 L43.3 -40.25 Q26.6 -7.7 46.3 22.95 47.5 24.8 49.3 26.1 L19.5 25.45 Q33.05 33.8 49.2 33.1 52.25 32.75 54.95 34.1 79.7 46.45 73.2 73.35 72.05 77.95 69.1 81.55 57.8 95.3 41.15 88.55 28.85 83.6 15.75 85.4 L26.45 90.05 Q-15.7 107.8 -56.85 88.85 L-60.7 86.65 Q-33.35 101.5 -6.15 88.6 8.2 81.75 23.85 79.85 26.0 79.65 27.85 80.55 43.75 88.3 57.5 78.4 59.95 76.65 60.25 73.8 62.3 54.1 42.6 47.1 24.4 40.6 16.8 23.65 L23.25 22.65 Q15.55 -3.6 20.85 -31.4 21.9 -37.0 25.7 -41.05 34.9 -50.9 45.8 -59.45 49.25 -62.2 51.15 -66.25 58.15 -81.2 44.5 -92.25 42.05 -94.65 39.2 -96.7 M55.3 59.65 L50.95 68.6 48.45 67.05 55.3 59.65 M26.55 56.7 Q20.3 55.65 14.05 58.75 13.45 58.65 12.85 58.2 L6.8 45.95 26.55 56.7 M-70.25 9.4 L-53.9 -3.15 Q-38.1 7.2 -22.4 -0.7 -18.65 -2.6 -16.2 -6.35 -4.35 -24.35 -10.05 -45.6 -15.2 -64.8 -33.25 -72.35 -21.65 -75.55 -15.15 -64.35 2.55 -34.1 -13.65 -3.25 -15.85 1.0 -20.45 2.5 -40.95 9.4 -62.6 7.25 L-70.25 9.4 M-35.4 -72.7 Q-41.9 -71.7 -47.6 -68.0 L-48.15 -68.8 Q-49.9 -71.65 -48.0 -74.45 L-46.2 -71.35 -37.45 -72.85 -35.4 -72.7 M6.8 -38.85 Q6.35 -39.75 6.7 -40.6 13.85 -57.95 5.85 -75.5 L3.0 -82.25 3.55 -81.45 Q19.5 -61.0 6.8 -38.85" fill="#006859" fill-rule="evenodd" stroke="none"/>
      <path d="M44.5 -92.25 Q58.15 -81.2 51.15 -66.25 49.25 -62.2 45.8 -59.45 34.9 -50.9 25.7 -41.05 21.9 -37.0 20.85 -31.4 15.55 -3.6 23.25 22.65 L16.8 23.65 Q24.4 40.6 42.6 47.1 62.3 54.1 60.25 73.8 59.95 76.65 57.5 78.4 43.75 88.3 27.85 80.55 26.0 79.65 23.85 79.85 8.2 81.75 -6.15 88.6 -33.35 101.5 -60.7 86.65 -64.6 81.4 -65.1 75.05 -66.0 64.3 -57.7 56.85 L-55.8 57.4 -54.55 58.15 -54.3 57.8 Q-47.75 59.75 -41.6 63.15 L-40.15 63.95 -40.25 64.4 -38.4 64.9 Q-13.3 74.55 11.4 62.25 14.1 61.0 17.15 60.7 34.3 58.25 46.7 70.15 L45.4 76.85 Q52.05 75.5 55.15 69.45 58.2 63.5 56.6 56.9 L55.3 59.65 48.45 67.05 Q40.5 62.15 31.95 58.35 29.25 57.1 26.55 56.7 L6.8 45.95 Q1.1 39.25 -8.35 44.6 -18.25 50.15 -23.7 60.2 -45.8 57.7 -59.75 40.55 -73.15 24.05 -62.6 7.25 -40.95 9.4 -20.45 2.5 -15.85 1.0 -13.65 -3.25 2.55 -34.1 -15.15 -64.35 -21.65 -75.55 -33.25 -72.35 L-35.4 -72.7 -37.45 -72.85 -28.05 -77.8 -27.5 -76.15 -24.2 -77.65 -1.75 -61.15 -1.2 -57.55 Q1.85 -64.0 1.05 -71.05 L5.85 -75.5 Q13.85 -57.95 6.7 -40.6 6.35 -39.75 6.8 -38.85 L5.45 -34.95 Q21.25 -49.9 12.65 -71.0 10.95 -75.05 8.4 -78.5 L19.6 -87.15 Q19.9 -79.2 29.1 -80.6 38.95 -82.35 32.7 -88.9 30.75 -90.95 27.75 -91.0 36.1 -93.85 44.5 -92.25 M14.05 58.75 L13.65 58.95 12.85 58.2 Q13.45 58.65 14.05 58.75 M1.7 19.45 Q2.95 16.9 1.2 15.05 L-13.8 30.7 Q-3.25 29.9 1.7 19.45 M-19.05 20.15 Q-27.1 28.4 -37.9 25.3 -44.95 23.45 -48.6 17.7 -48.45 27.95 -37.75 29.75 -21.35 32.85 -9.0 21.15 -1.1 13.65 -4.3 5.3 L-19.05 20.15 M-31.65 22.3 Q-21.4 19.95 -13.5 13.0 -8.1 8.3 -12.25 4.0 L-18.9 8.05 Q-34.3 5.9 -43.55 16.3 -40.8 24.55 -31.65 22.3" fill="#00947f" fill-rule="evenodd" stroke="none"/>
      <path d="M27.75 -91.0 Q30.75 -90.95 32.7 -88.9 38.95 -82.35 29.1 -80.6 19.9 -79.2 19.6 -87.15 L27.75 -91.0 M-14.65 -40.95 Q-16.65 -47.55 -21.45 -52.25 -27.4 -57.5 -26.05 -53.65 -23.55 -44.3 -22.75 -35.55 -21.45 -21.05 -26.0 -14.9 -37.5 0.6 -52.45 -16.5 -60.9 -41.9 -44.7 -63.05 -38.75 -70.7 -29.95 -66.35 -15.0 -59.0 -14.65 -40.95 M-65.2 -62.4 Q-51.6 -66.0 -57.15 -53.4 -63.35 -39.8 -62.65 -23.75 -62.45 -18.6 -71.15 -17.0 -73.65 -15.1 -71.35 -11.4 L-72.5 -13.25 Q-84.8 -39.95 -65.2 -62.4 M-72.4 -22.9 Q-68.65 -17.7 -65.6 -23.65 -62.9 -28.95 -68.4 -31.2 -76.75 -28.9 -72.4 -22.9 M-40.6 -25.35 Q-43.9 -33.25 -49.35 -25.8 L-49.4 -23.15 Q-48.4 -17.1 -42.8 -19.7 -38.95 -21.45 -40.6 -25.35 M-45.5 -24.85 Q-44.65 -26.8 -43.65 -25.7 L-44.45 -24.0 -45.25 -24.1 -45.5 -24.85 M-10.2 51.3 Q-9.0 50.15 -7.35 50.15 -5.7 50.15 -4.55 51.3 -3.35 52.5 -3.35 54.15 -3.35 55.8 -4.55 56.95 -5.7 58.15 -7.35 58.15 -9.0 58.15 -10.2 56.95 -11.35 55.8 -11.35 54.15 -11.35 52.5 -10.2 51.3" fill="#ffffff" fill-rule="evenodd" stroke="none"/>
      <path d="M39.2 -96.7 Q42.05 -94.65 44.5 -92.25 36.1 -93.85 27.75 -91.0 L19.6 -87.15 8.4 -78.5 1.95 -84.35 3.0 -82.25 5.85 -75.5 1.05 -71.05 -4.2 -86.0 Q5.85 -100.2 24.4 -98.8 31.85 -98.65 39.2 -96.7 M-60.7 86.65 Q-69.25 80.85 -73.25 71.65 -78.05 60.7 -67.4 55.35 L-57.7 56.85 Q-66.0 64.3 -65.1 75.05 -64.6 81.4 -60.7 86.65 M-55.8 57.4 L-54.3 57.8 -54.55 58.15 -55.8 57.4 M-40.15 63.95 L-38.4 64.9 -40.25 64.4 -40.15 63.95 M-23.7 60.2 Q-31.3 65.0 -41.2 61.1 -47.3 58.7 -53.55 56.25 -76.85 47.3 -75.75 23.2 -75.4 15.45 -70.25 9.4 L-62.6 7.25 Q-73.15 24.05 -59.75 40.55 -45.8 57.7 -23.7 60.2 M-48.0 -74.45 Q-40.25 -83.4 -30.6 -82.95 L-28.05 -77.8 -37.45 -72.85 -46.2 -71.35 -48.0 -74.45 M-24.2 -77.65 L-10.7 -82.75 -8.8 -81.15 Q-1.9 -72.85 -1.75 -61.15 L-24.2 -77.65 M-31.65 22.3 Q-40.8 24.55 -43.55 16.3 -34.3 5.9 -18.9 8.05 L-12.25 4.0 Q-8.1 8.3 -13.5 13.0 -21.4 19.95 -31.65 22.3" fill="#93d4be" fill-rule="evenodd" stroke="none"/>
      <path d="M-52.45 -16.5 Q-37.5 0.6 -26.0 -14.9 -21.45 -21.05 -22.75 -35.55 -23.55 -44.3 -26.05 -53.65 -27.4 -57.5 -21.45 -52.25 -16.65 -47.55 -14.65 -40.95 -11.55 -20.2 -24.5 -4.2 -26.9 -1.15 -30.7 -0.7 -47.6 1.3 -52.45 -16.5 M-65.2 -62.4 Q-59.3 -66.95 -51.8 -66.7 L-49.55 -63.65 Q-58.45 -40.5 -57.9 -15.55 -57.85 -12.35 -59.45 -10.4 -64.65 -4.1 -71.35 -11.4 -73.65 -15.1 -71.15 -17.0 -62.45 -18.6 -62.65 -23.75 -63.35 -39.8 -57.15 -53.4 -51.6 -66.0 -65.2 -62.4" fill="#cfcfb1" fill-rule="evenodd" stroke="none"/>
      <path d="M2.0 44.2 Q3.4 55.45 -0.25 65.05 -10.6 67.05 -21.25 65.1 L-22.85 64.9 Q-15.55 48.45 2.0 44.2 M-10.2 51.3 Q-11.35 52.5 -11.35 54.15 -11.35 55.8 -10.2 56.95 -9.0 58.15 -7.35 58.15 -5.7 58.15 -4.55 56.95 -3.35 55.8 -3.35 54.15 -3.35 52.5 -4.55 51.3 -5.7 50.15 -7.35 50.15 -9.0 50.15 -10.2 51.3" fill="#dede00" fill-rule="evenodd" stroke="none"/>
      <path d="M2.0 44.2 L10.2 60.55 Q5.1 63.65 -0.25 65.05 3.4 55.45 2.0 44.2" fill="#cdcd00" fill-rule="evenodd" stroke="none"/>
    </g>
  </defs>
</svg>
