<?xml version="1.0" encoding="UTF-8" standalone="no"?>
<svg xmlns:xlink="http://www.w3.org/1999/xlink" height="208.35px" width="214.25px" xmlns="http://www.w3.org/2000/svg">
  <g transform="matrix(1.0, 0.0, 0.0, 1.0, 106.9, 104.2)">
    <use height="208.35" transform="matrix(1.0, 0.0, 0.0, 1.0, -106.9, -104.2)" width="214.25" xlink:href="#shape0"/>
  </g>
  <defs>
    <g id="shape0" transform="matrix(1.0, 0.0, 0.0, 1.0, 106.9, 104.2)">
      <path d="M69.1 -97.25 Q66.8 -97.25 65.15 -95.6 63.5 -93.95 63.5 -91.65 63.5 -89.35 65.15 -87.7 66.8 -86.05 69.1 -86.05 71.4 -86.05 73.05 -87.7 74.7 -89.35 74.7 -91.65 74.7 -93.95 73.05 -95.6 71.4 -97.25 69.1 -97.25 M67.7 -63.0 Q56.0 -71.4 58.3 -85.15 L58.95 -88.0 Q41.0 -72.4 20.85 -60.6 18.15 -58.95 14.8 -58.25 6.05 -56.35 -2.6 -59.0 19.45 -61.25 36.2 -76.4 41.95 -81.6 47.35 -87.2 62.8 -103.15 83.2 -96.4 73.4 -91.15 72.0 -80.05 70.35 -67.2 83.2 -65.9 79.2 -65.05 75.3 -65.95 65.65 -68.55 59.0 -74.4 L67.7 -63.0 M-43.15 -76.65 Q-58.5 -85.45 -73.55 -80.1 -74.45 -80.1 -75.05 -79.5 L-79.75 -76.95 Q-88.95 -79.75 -88.75 -70.0 -88.7 -67.0 -85.9 -65.45 -87.65 -59.5 -86.95 -53.1 L-86.7 -51.65 -81.0 -36.3 Q-85.35 -41.8 -90.5 -46.85 -107.2 -63.3 -92.3 -82.45 -88.05 -87.85 -81.55 -89.3 -58.8 -94.05 -43.15 -76.65 M-50.95 72.9 L-81.75 78.5 Q-91.45 80.3 -94.25 69.5 -98.1 74.15 -93.8 85.25 L-95.95 82.2 Q-102.75 69.55 -97.2 55.95 -84.35 24.5 -84.8 -9.15 -85.0 -24.75 -91.4 -38.95 -84.85 -34.5 -82.25 -26.8 L-80.75 -26.8 Q-79.0 6.0 -86.7 37.8 -89.0 47.2 -84.65 55.8 -74.15 76.35 -50.95 72.9 M60.05 32.35 L60.55 32.35 Q64.35 47.1 51.45 41.3 L60.05 32.35 M19.7 47.35 L23.45 46.5 Q20.2 27.35 -0.55 25.65 -15.55 24.55 -24.85 36.8 -18.15 20.9 1.2 23.9 22.7 27.35 34.65 45.5 31.2 50.1 25.4 49.85 22.25 49.3 19.7 47.35 M-48.65 -1.3 Q-57.7 -12.6 -45.7 -18.95 L-42.25 0.95 Q-46.2 1.8 -48.65 -1.3 M-79.6 40.0 Q-81.4 30.05 -75.5 23.55 L-66.95 48.3 Q-77.25 52.75 -79.6 40.0" fill="#6ac8dc" fill-rule="evenodd" stroke="none"/>
      <path d="M69.1 -97.25 Q71.4 -97.25 73.05 -95.6 74.7 -93.95 74.7 -91.65 74.7 -89.35 73.05 -87.7 71.4 -86.05 69.1 -86.05 66.8 -86.05 65.15 -87.7 63.5 -89.35 63.5 -91.65 63.5 -93.95 65.15 -95.6 66.8 -97.25 69.1 -97.25 M-73.55 -80.1 Q-68.6 -77.2 -74.1 -76.0 -75.45 -75.7 -75.75 -77.2 -76.05 -78.5 -75.05 -79.5 -74.45 -80.1 -73.55 -80.1 M-79.75 -76.95 Q-77.85 -75.85 -77.5 -73.75 -75.7 -63.6 -85.9 -65.45 -88.7 -67.0 -88.75 -70.0 -88.95 -79.75 -79.75 -76.95 M1.25 -28.6 L7.9 -31.3 Q21.8 -22.75 10.85 -9.85 7.15 -5.55 1.45 -4.9 L1.75 -1.55 Q-4.35 -2.95 -5.1 -10.6 -6.25 -22.15 -0.7 -27.1 L-0.4 -26.85 Q-4.5 -18.1 4.45 -18.9 5.5 -19.1 6.05 -20.3 9.5 -27.75 1.5 -28.25 L1.25 -28.6 M4.15 -23.95 Q3.95 -22.75 3.15 -21.9 L2.6 -21.8 2.5 -22.0 Q2.05 -22.75 2.15 -23.7 L2.3 -23.85 2.8 -24.65 Q3.6 -24.7 4.15 -23.95 M-18.95 -31.5 L-18.3 -28.45 Q-24.2 -22.15 -16.45 -19.4 -15.1 -8.8 -26.25 -9.85 -33.45 -9.4 -32.45 -3.0 -41.65 -10.55 -36.85 -22.35 -31.4 -35.65 -18.95 -31.5 M-17.35 -24.15 L-16.7 -23.55 -16.7 -23.4 Q-16.6 -22.6 -16.8 -21.9 L-17.05 -21.9 -17.3 -22.1 Q-18.1 -23.05 -17.35 -24.15" fill="#ffffff" fill-rule="evenodd" stroke="none"/>
      <path d="M-2.6 -59.0 Q6.05 -56.35 14.8 -58.25 18.15 -58.95 20.85 -60.6 41.0 -72.4 58.95 -88.0 L58.3 -85.15 Q56.0 -71.4 67.7 -63.0 L68.65 -62.3 Q63.0 -28.8 44.15 -0.85 35.2 12.4 18.55 10.1 29.6 7.65 33.4 -3.15 36.95 -13.3 31.75 -22.55 L29.15 -22.2 Q26.6 -10.5 17.6 -2.9 29.45 -16.3 20.6 -30.45 17.75 -35.0 12.65 -35.95 -3.2 -38.25 -7.5 -22.45 -10.45 -40.05 -28.05 -34.75 -38.05 -31.85 -41.5 -21.65 -44.8 -11.9 -38.05 -4.55 -29.9 4.25 -18.35 2.1 L-8.9 6.05 -36.7 9.0 Q-41.4 9.6 -45.45 7.2 -60.95 -1.85 -64.15 -20.6 -66.25 -32.65 -69.0 -44.1 -65.4 -44.1 -62.85 -49.3 -60.35 -54.55 -60.35 -61.95 L-59.15 -65.5 -61.45 -66.3 Q-62.2 -63.8 -63.65 -62.1 -72.3 -51.8 -86.95 -53.1 -87.65 -59.5 -85.9 -65.45 -75.7 -63.6 -77.5 -73.75 -77.85 -75.85 -79.75 -76.95 L-75.05 -79.5 Q-76.05 -78.5 -75.75 -77.2 -75.45 -75.7 -74.1 -76.0 -68.6 -77.2 -73.55 -80.1 -58.5 -85.45 -43.15 -76.65 -31.0 -66.1 -15.8 -61.05 -9.25 -58.85 -2.6 -59.0 M18.1 -51.2 Q10.4 -57.9 5.7 -51.35 19.65 -45.0 24.7 -30.65 L26.15 -31.5 Q27.0 -43.45 18.1 -51.2 M85.95 -63.9 L85.1 -61.1 Q71.8 -51.75 68.7 -35.8 67.45 -29.4 65.45 -23.3 55.55 6.65 67.45 36.1 L66.65 36.35 Q64.75 50.25 51.4 54.25 52.45 55.1 53.75 55.0 67.75 53.75 68.5 39.6 76.55 55.95 65.45 68.45 61.0 73.45 54.45 74.55 34.5 78.4 14.6 72.55 -17.75 63.2 -49.95 72.75 L-50.95 72.9 Q-74.15 76.35 -84.65 55.8 -89.0 47.2 -86.7 37.8 -79.0 6.0 -80.75 -26.8 -79.05 -32.2 -81.0 -36.3 L-86.7 -51.65 -85.15 -50.8 -71.25 -42.8 Q-67.9 -21.3 -71.6 0.3 -73.8 13.05 -71.75 25.8 -69.7 38.45 -58.45 40.85 -52.2 42.1 -46.9 38.3 -29.5 25.8 -8.9 19.95 10.4 14.6 24.15 29.4 35.25 41.25 51.45 41.3 64.35 47.1 60.55 32.35 L60.05 32.35 Q59.85 13.4 58.05 -5.95 57.75 -8.95 58.6 -11.95 65.6 -36.3 71.1 -61.0 77.35 -59.0 83.1 -62.15 L85.95 -63.9 M-24.85 36.8 L-25.5 38.05 Q-0.85 32.7 19.7 47.35 22.25 49.3 25.4 49.85 31.2 50.1 34.65 45.5 22.7 27.35 1.2 23.9 -18.15 20.9 -24.85 36.8 M24.8 64.45 L27.6 66.45 27.7 65.5 Q13.5 46.25 -9.95 48.95 -23.3 50.1 -32.9 59.85 -27.05 57.2 -21.35 55.75 L-24.9 58.15 Q-1.4 64.35 22.8 67.55 26.7 67.9 24.8 64.45 M-25.9 -50.95 Q-31.7 -57.9 -38.95 -49.65 -47.55 -39.95 -46.55 -26.8 L-45.6 -27.15 Q-41.05 -43.7 -25.9 -50.95 M-48.65 -1.3 Q-46.2 1.8 -42.25 0.95 L-45.7 -18.95 Q-57.7 -12.6 -48.65 -1.3 M-13.15 -0.85 Q-10.55 -3.1 -8.35 -6.7 -6.85 -3.35 -3.95 -1.6 L-13.15 -0.85 M-79.6 40.0 Q-77.25 52.75 -66.95 48.3 L-75.5 23.55 Q-81.4 30.05 -79.6 40.0 M-59.85 53.05 Q-76.25 58.3 -80.7 42.35 L-81.5 42.45 Q-81.65 58.7 -67.1 57.4 -63.65 57.4 -61.95 54.1 L-60.75 53.9 -59.85 53.05" fill="#01a0c6" fill-rule="evenodd" stroke="none"/>
      <path d="M67.7 -63.0 L59.0 -74.4 Q65.65 -68.55 75.3 -65.95 79.2 -65.05 83.2 -65.9 88.35 -68.2 86.75 -64.95 L85.95 -63.9 83.1 -62.15 Q77.35 -59.0 71.1 -61.0 65.6 -36.3 58.6 -11.95 57.75 -8.95 58.05 -5.95 59.85 13.4 60.05 32.35 L51.45 41.3 Q35.25 41.25 24.15 29.4 10.4 14.6 -8.9 19.95 -29.5 25.8 -46.9 38.3 -52.2 42.1 -58.45 40.85 -69.7 38.45 -71.75 25.8 -73.8 13.05 -71.6 0.3 -67.9 -21.3 -71.25 -42.8 L-72.9 -49.9 -85.15 -50.8 -86.7 -51.65 -86.95 -53.1 Q-72.3 -51.8 -63.65 -62.1 -62.2 -63.8 -61.45 -66.3 L-59.15 -65.5 -60.35 -61.95 Q-63.4 -54.85 -70.7 -50.9 L-69.0 -44.1 Q-66.25 -32.65 -64.15 -20.6 -60.95 -1.85 -45.45 7.2 -41.4 9.6 -36.7 9.0 L-8.9 6.05 18.55 10.1 Q35.2 12.4 44.15 -0.85 63.0 -28.8 68.65 -62.3 L67.7 -63.0 M83.2 -96.4 Q62.8 -103.15 47.35 -87.2 41.95 -81.6 36.2 -76.4 19.45 -61.25 -2.6 -59.0 -9.25 -58.85 -15.8 -61.05 -31.0 -66.1 -43.15 -76.65 -58.8 -94.05 -81.55 -89.3 -88.05 -87.85 -92.3 -82.45 -107.2 -63.3 -90.5 -46.85 -85.35 -41.8 -81.0 -36.3 -79.05 -32.2 -80.75 -26.8 L-82.25 -26.8 Q-84.85 -34.5 -91.4 -38.95 -85.0 -24.75 -84.8 -9.15 -84.35 24.5 -97.2 55.95 -102.75 69.55 -95.95 82.2 L-93.8 85.25 Q-87.4 88.7 -80.3 90.05 -56.15 94.9 -33.2 84.45 -9.65 73.8 14.45 81.05 28.55 85.2 41.9 91.0 57.95 98.05 73.8 90.6 82.35 86.55 83.2 77.05 84.7 59.5 80.15 42.5 70.3 5.85 80.25 -30.45 L74.35 -29.05 Q93.0 -39.55 98.55 -60.25 105.15 -84.65 83.2 -96.4 M-18.35 2.1 Q-29.9 4.25 -38.05 -4.55 -44.8 -11.9 -41.5 -21.65 -38.05 -31.85 -28.05 -34.75 -10.45 -40.05 -7.5 -22.45 -3.2 -38.25 12.65 -35.95 17.75 -35.0 20.6 -30.45 29.45 -16.3 17.6 -2.9 L16.7 -2.2 Q6.8 4.05 -3.95 -1.6 -6.85 -3.35 -8.35 -6.7 -10.55 -3.1 -13.15 -0.85 -15.0 -0.5 -16.35 0.15 -18.25 1.05 -18.35 2.1 M18.1 -51.2 Q27.0 -43.45 26.15 -31.5 L24.7 -30.65 Q19.65 -45.0 5.7 -51.35 10.4 -57.9 18.1 -51.2 M7.9 -31.3 L1.25 -28.6 -0.7 -27.1 Q-6.25 -22.15 -5.1 -10.6 -4.35 -2.95 1.75 -1.55 18.6 0.15 19.55 -16.9 20.3 -30.7 7.9 -31.3 M1.5 -28.25 Q9.5 -27.75 6.05 -20.3 5.5 -19.1 4.45 -18.9 -4.5 -18.1 -0.4 -26.85 L1.5 -28.25 M4.15 -23.95 Q3.6 -24.7 2.8 -24.65 L2.3 -23.85 2.15 -23.7 Q2.05 -22.75 2.5 -22.0 L2.6 -21.8 3.15 -21.9 Q3.95 -22.75 4.15 -23.95 M67.45 36.1 L68.5 39.6 Q67.75 53.75 53.75 55.0 52.45 55.1 51.4 54.25 64.75 50.25 66.65 36.35 L67.45 36.1 M104.05 -85.45 Q108.75 -76.7 106.8 -66.65 102.65 -45.15 84.15 -33.3 71.65 10.7 91.6 52.0 94.75 58.5 94.85 65.75 95.15 88.85 75.9 100.8 71.7 103.45 66.75 104.1 50.1 104.85 35.65 95.15 28.6 90.45 20.55 87.5 -1.7 79.25 -25.1 86.0 -41.2 90.55 -56.3 97.45 -75.2 106.0 -91.45 93.35 -109.15 79.6 -105.2 57.85 -102.4 42.35 -95.4 28.15 -84.85 6.8 -90.1 -16.75 -95.15 -39.35 -105.35 -60.05 -107.1 -63.55 -106.85 -67.45 -105.45 -90.75 -83.45 -96.75 -64.45 -101.95 -48.25 -90.85 -38.65 -84.3 -31.1 -75.5 -27.6 -71.4 -22.35 -69.7 9.7 -59.05 32.85 -82.9 46.3 -96.8 64.8 -102.95 91.3 -109.05 104.05 -85.45 M-21.35 55.75 Q-27.05 57.2 -32.9 59.85 -23.3 50.1 -9.95 48.95 13.5 46.25 27.7 65.5 L27.6 66.45 24.8 64.45 Q5.75 51.15 -17.0 55.0 L-21.35 55.75 M-29.0 -51.75 Q-28.5 -52.1 -29.3 -51.75 L-29.0 -51.75 M-25.9 -50.95 Q-41.05 -43.7 -45.6 -27.15 L-46.55 -26.8 Q-47.55 -39.95 -38.95 -49.65 -31.7 -57.9 -25.9 -50.95 M-18.95 -31.5 Q-31.4 -35.65 -36.85 -22.35 -41.65 -10.55 -32.45 -3.0 -18.65 4.9 -11.9 -9.15 -4.75 -23.9 -18.95 -31.5 M-16.45 -19.4 Q-24.2 -22.15 -18.3 -28.45 -10.4 -25.1 -16.15 -19.4 L-16.45 -19.4 M-17.35 -24.15 Q-18.1 -23.05 -17.3 -22.1 L-17.05 -21.9 -16.8 -21.9 Q-16.6 -22.6 -16.7 -23.4 L-16.7 -23.55 -17.35 -24.15 M-59.85 53.05 L-60.75 53.9 -61.95 54.1 Q-63.65 57.4 -67.1 57.4 -81.65 58.7 -81.5 42.45 L-80.7 42.35 Q-76.25 58.3 -59.85 53.05" fill="#000000" fill-rule="evenodd" stroke="none"/>
      <path d="M1.75 -1.55 L1.45 -4.9 Q7.15 -5.55 10.85 -9.85 21.8 -22.75 7.9 -31.3 20.3 -30.7 19.55 -16.9 18.6 0.15 1.75 -1.55 M-18.3 -28.45 L-18.95 -31.5 Q-4.75 -23.9 -11.9 -9.15 -18.65 4.9 -32.45 -3.0 -33.45 -9.4 -26.25 -9.85 -15.1 -8.8 -16.45 -19.4 L-16.15 -19.4 Q-10.4 -25.1 -18.3 -28.45" fill="#ceceb1" fill-rule="evenodd" stroke="none"/>
      <path d="M83.2 -65.9 Q70.35 -67.2 72.0 -80.05 73.4 -91.15 83.2 -96.4 105.15 -84.65 98.55 -60.25 93.0 -39.55 74.35 -29.05 L80.25 -30.45 Q70.3 5.85 80.15 42.5 84.7 59.5 83.2 77.05 82.35 86.55 73.8 90.6 57.95 98.05 41.9 91.0 28.55 85.2 14.45 81.05 -9.65 73.8 -33.2 84.45 -56.15 94.9 -80.3 90.05 -87.4 88.7 -93.8 85.25 -98.1 74.15 -94.25 69.5 -91.45 80.3 -81.75 78.5 L-50.95 72.9 -49.95 72.75 Q-17.75 63.2 14.6 72.55 34.5 78.4 54.45 74.55 61.0 73.45 65.45 68.45 76.55 55.95 68.5 39.6 L67.45 36.1 Q55.55 6.65 65.45 -23.3 67.45 -29.4 68.7 -35.8 71.8 -51.75 85.1 -61.1 L85.95 -63.9 86.75 -64.95 Q88.35 -68.2 83.2 -65.9 M-60.35 -61.95 Q-60.35 -54.55 -62.85 -49.3 -65.4 -44.1 -69.0 -44.1 L-70.7 -50.9 Q-63.4 -54.85 -60.35 -61.95 M-8.9 6.05 L-18.35 2.1 Q-18.25 1.05 -16.35 0.15 -15.0 -0.5 -13.15 -0.85 L-3.95 -1.6 Q6.8 4.05 16.7 -2.2 L17.6 -2.9 Q26.6 -10.5 29.15 -22.2 L31.75 -22.55 Q36.95 -13.3 33.4 -3.15 29.6 7.65 18.55 10.1 L-8.9 6.05 M-71.25 -42.8 L-85.15 -50.8 -72.9 -49.9 -71.25 -42.8 M-24.85 36.8 Q-15.55 24.55 -0.55 25.65 20.2 27.35 23.45 46.5 L19.7 47.35 Q-0.85 32.7 -25.5 38.05 L-24.85 36.8 M-21.35 55.75 L-17.0 55.0 Q5.75 51.15 24.8 64.45 26.7 67.9 22.8 67.55 -1.4 64.35 -24.9 58.15 L-21.35 55.75" fill="#017590" fill-rule="evenodd" stroke="none"/>
    </g>
  </defs>
</svg>
