<?xml version="1.0" encoding="UTF-8" standalone="no"?>
<svg xmlns:xlink="http://www.w3.org/1999/xlink" height="208.1px" width="209.1px" xmlns="http://www.w3.org/2000/svg">
  <g transform="matrix(1.0, 0.0, 0.0, 1.0, 104.2, 104.05)">
    <use height="208.1" transform="matrix(1.0, 0.0, 0.0, 1.0, -104.2, -104.05)" width="209.1" xlink:href="#shape0"/>
  </g>
  <defs>
    <g id="shape0" transform="matrix(1.0, 0.0, 0.0, 1.0, 104.2, 104.05)">
      <path d="M64.1 -104.05 L66.85 -101.35 Q74.25 -91.95 70.9 -79.45 69.6 -74.65 67.65 -70.35 59.05 -51.25 52.7 -31.65 58.7 -27.5 60.6 -20.3 63.4 -9.65 56.75 -1.2 81.8 8.45 97.8 29.9 109.4 45.45 102.05 63.55 94.35 82.45 74.4 86.9 57.7 90.45 40.75 86.7 L39.4 85.5 Q10.75 82.5 -17.65 87.5 -29.9 89.7 -41.3 94.65 -56.1 101.05 -71.7 103.6 -89.7 106.35 -99.55 91.4 -104.95 83.2 -104.1 73.5 -100.5 32.35 -73.75 -0.4 -78.0 -9.0 -74.45 -17.65 -67.9 -33.65 -50.65 -31.6 -56.3 -43.1 -59.95 -55.2 -65.85 -74.95 -48.9 -85.8 -45.85 -87.7 -42.5 -86.95 -18.8 -81.45 5.1 -84.15 16.65 -85.5 26.65 -91.6 44.25 -102.35 64.1 -104.05 M48.95 5.75 Q52.05 -3.4 56.8 -12.0 58.55 -15.25 56.7 -18.65 49.7 -31.5 35.0 -31.35 L49.0 -33.85 Q56.4 -53.25 65.0 -72.15 66.45 -75.45 66.6 -79.1 67.1 -89.15 62.45 -98.1 L47.45 -96.1 Q18.6 -80.9 -13.85 -80.75 L-40.6 -81.55 Q-46.7 -81.75 -51.0 -77.4 -59.65 -68.5 -57.3 -55.6 -54.4 -39.75 -43.9 -27.7 -59.45 -30.45 -67.7 -19.15 -69.95 -16.15 -70.15 -12.35 -70.7 -0.15 -64.3 10.2 L-64.5 10.95 -72.5 1.8 Q-93.3 32.5 -101.0 68.2 -102.45 74.9 -100.05 81.35 -93.8 98.25 -75.0 97.8 -27.2 82.75 22.65 80.65 34.8 80.55 46.75 82.1 61.5 84.2 75.5 79.9 98.0 73.1 100.1 50.3 100.5 46.05 98.75 42.2 85.65 13.0 55.4 0.2 L49.15 6.05 48.75 6.4 48.95 5.75 M23.6 -30.05 Q24.65 -24.45 21.75 -22.35 19.55 -20.8 15.25 -21.2 L23.55 -30.15 23.6 -30.05 M40.6 -14.75 L43.1 -16.25 40.3 -21.25 47.15 -16.05 Q48.2 -13.85 48.3 -10.7 48.45 -5.85 45.3 -4.25 L44.95 -7.5 44.85 -8.3 Q36.25 7.4 48.35 21.95 56.55 31.85 64.15 42.35 68.15 47.8 64.3 53.35 56.55 64.65 42.95 64.4 6.1 56.95 -29.9 67.2 -37.0 69.35 -43.15 73.1 -58.35 82.5 -74.35 77.2 -77.3 69.65 -75.95 61.9 -73.35 47.2 -66.0 34.0 -54.65 13.6 -54.85 -9.0 L-56.05 -11.4 -58.8 -3.15 -59.05 -2.4 Q-65.35 -11.4 -55.3 -18.3 -52.35 -20.25 -49.4 -18.85 L-50.05 -18.1 -53.45 -13.25 -51.5 -13.0 Q-43.35 -12.2 -35.1 -15.45 L-31.3 -16.3 Q-17.65 -17.6 -4.5 -14.0 0.05 -12.75 4.35 -10.8 23.2 -2.1 40.6 -14.75 M12.95 -63.05 L5.25 -59.25 0.15 -53.9 Q2.15 -44.15 -0.7 -34.65 L7.2 -27.8 Q8.75 -27.8 10.0 -28.8 15.1 -32.75 17.4 -39.15 22.45 -52.9 12.95 -63.05 M5.25 -62.85 Q17.3 -70.4 22.6 -56.7 27.1 -41.35 16.0 -30.0 6.15 -19.95 -2.45 -31.1 -10.95 -15.0 -25.95 -24.1 -29.1 -26.1 -29.35 -29.7 -30.4 -46.25 -17.9 -57.8 -7.35 -67.55 -0.95 -56.3 1.3 -60.3 5.25 -62.85 M33.75 -69.85 Q39.1 -62.6 34.05 -56.8 32.1 -64.2 26.2 -70.95 L18.45 -73.45 20.35 -76.25 Q28.55 -76.85 33.75 -69.85 M9.45 -41.75 L8.6 -42.1 Q8.1 -42.1 7.8 -41.75 7.45 -41.45 7.45 -40.95 7.45 -40.45 7.8 -40.1 8.1 -39.8 8.6 -39.8 9.1 -39.8 9.45 -40.1 9.75 -40.45 9.75 -40.95 L9.45 -41.75 M13.0 -42.95 L13.45 -42.15 Q14.45 -39.35 12.25 -37.25 10.75 -35.8 8.55 -36.3 6.9 -36.7 5.6 -37.75 4.2 -38.8 4.45 -40.55 4.75 -42.85 6.65 -44.2 7.5 -44.85 8.45 -45.1 11.25 -45.05 13.0 -42.95 M5.65 4.65 L10.05 -2.6 10.4 -2.1 Q11.9 1.2 10.85 4.8 10.7 14.15 6.95 22.75 L9.65 21.75 Q22.85 17.65 22.55 3.15 L21.2 -2.5 Q1.15 -8.45 -18.9 -13.75 -23.9 -15.0 -29.0 -13.8 L-29.0 -6.75 Q-29.6 10.0 -22.3 24.55 -20.2 28.7 -15.85 30.75 L-11.6 0.75 -10.1 -9.95 -9.6 -9.25 Q-7.85 -4.4 -9.4 1.35 -10.75 16.6 -12.55 31.8 -5.6 33.55 -0.95 28.85 2.25 25.65 2.45 21.25 2.95 11.25 5.65 4.65 M11.55 56.95 L12.65 57.1 Q7.6 54.1 1.35 53.4 L1.75 54.0 2.95 55.9 11.55 56.95 M-12.85 56.0 L-12.35 58.75 0.4 56.9 0.1 56.5 Q-5.15 49.1 -12.7 51.9 L-13.1 54.55 -12.85 56.0 M5.3 71.55 Q6.9 71.95 8.55 72.6 L-15.75 75.45 -13.4 74.1 -12.4 73.55 Q-3.95 69.1 5.2 71.5 L5.3 71.55 M-72.8 88.0 L-70.8 88.65 -76.35 90.1 -76.4 90.1 Q-89.2 88.45 -91.35 75.85 L-91.6 74.25 Q-86.45 84.35 -75.35 87.25 L-72.8 88.0 M59.7 70.0 L58.45 68.95 Q68.9 67.4 73.9 59.0 74.8 56.7 75.0 53.8 75.2 57.15 74.65 60.35 72.45 73.75 59.7 70.0 M-12.8 -70.7 Q-18.9 -63.2 -27.9 -57.95 -31.75 -55.6 -33.25 -51.1 -33.5 -64.65 -20.35 -70.45 -17.5 -71.6 -14.35 -72.2 L-12.8 -70.7 M-38.55 -23.95 L-38.9 -25.65 -39.05 -27.85 -38.95 -28.2 -31.8 -20.3 Q-37.15 -19.7 -38.55 -23.95 M-31.05 -4.9 L-31.05 -13.25 -41.85 -11.1 Q-42.1 -7.5 -41.75 -4.0 -41.4 0.5 -40.05 4.9 -37.2 14.35 -31.15 15.55 L-31.05 -4.9 M-17.2 -25.2 Q-0.85 -29.45 -1.9 -47.0 -2.3 -53.65 -6.1 -59.15 -20.9 -57.5 -26.25 -42.15 -30.35 -30.3 -20.8 -25.4 L-17.2 -25.2 M-9.8 -38.15 L-9.7 -38.85 Q-9.55 -40.15 -11.4 -40.4 -12.25 -38.2 -9.8 -38.15 M-7.15 -41.4 Q-5.9 -40.15 -5.9 -38.35 -5.9 -36.55 -7.15 -35.25 -8.45 -34.0 -10.25 -34.0 -12.05 -34.0 -13.3 -35.25 -14.6 -36.55 -14.6 -38.35 -14.6 -40.15 -13.3 -41.4 -12.05 -42.7 -10.25 -42.7 -8.45 -42.7 -7.15 -41.4 M-7.6 -6.5 Q-7.8 -5.0 -7.55 -7.25 L-7.6 -6.5 M-15.25 58.4 L-16.1 53.4 -26.1 57.5 -26.35 58.65 -27.65 64.05 -14.95 60.3 -15.25 58.4 M-33.9 63.8 L-36.9 67.6 -30.45 65.1 -29.9 61.25 -29.45 58.1 -33.9 63.8" fill="#000000" fill-rule="evenodd" stroke="none"/>
      <path d="M47.45 -96.1 L62.45 -98.1 Q67.1 -89.15 66.6 -79.1 66.45 -75.45 65.0 -72.15 56.4 -53.25 49.0 -33.85 L35.0 -31.35 Q49.7 -31.5 56.7 -18.65 58.55 -15.25 56.8 -12.0 52.05 -3.4 48.95 5.75 48.05 4.25 48.05 2.9 47.95 -4.6 51.2 -11.35 L48.65 -15.5 47.15 -16.05 40.3 -21.25 43.1 -16.25 40.6 -14.75 38.65 -15.1 23.1 -17.65 21.75 -22.35 Q24.65 -24.45 23.6 -30.05 26.95 -35.35 31.3 -39.9 43.35 -52.3 48.85 -69.2 41.7 -81.2 46.7 -94.2 L47.45 -96.1 M49.15 6.05 L55.4 0.2 Q85.65 13.0 98.75 42.2 100.5 46.05 100.1 50.3 98.0 73.1 75.5 79.9 61.5 84.2 46.75 82.1 34.8 80.55 22.65 80.65 -27.2 82.75 -75.0 97.8 L-76.3 90.2 -76.35 90.1 -70.8 88.65 -72.8 88.0 Q-46.05 83.25 -19.85 75.8 L-13.4 74.1 -15.75 75.45 8.55 72.6 Q6.9 71.95 5.3 71.55 L5.3 71.5 Q30.15 74.15 54.65 70.9 L59.7 70.0 Q72.45 73.75 74.65 60.35 75.2 57.15 75.0 53.8 L74.55 53.7 Q76.3 34.95 61.9 21.75 54.2 14.75 49.15 6.05 M46.25 -88.65 Q45.2 -87.6 45.2 -86.15 45.2 -84.7 46.25 -83.65 47.3 -82.6 48.75 -82.6 50.2 -82.6 51.25 -83.65 52.3 -84.7 52.3 -86.15 52.3 -87.6 51.25 -88.65 50.2 -89.7 48.75 -89.7 47.3 -89.7 46.25 -88.65 M-51.5 -13.0 L-53.45 -13.25 -50.05 -18.1 -51.2 -14.0 -51.5 -13.0 M-58.8 -3.15 L-56.05 -11.4 -54.85 -9.0 -58.8 -3.15" fill="#c24e00" fill-rule="evenodd" stroke="none"/>
      <path d="M46.25 -88.65 Q47.3 -89.7 48.75 -89.7 50.2 -89.7 51.25 -88.65 52.3 -87.6 52.3 -86.15 52.3 -84.7 51.25 -83.65 50.2 -82.6 48.75 -82.6 47.3 -82.6 46.25 -83.65 45.2 -84.7 45.2 -86.15 45.2 -87.6 46.25 -88.65 M-45.95 -62.2 Q-48.85 -62.2 -50.9 -64.25 -52.95 -66.3 -52.95 -69.2 -52.95 -72.1 -50.9 -74.15 -48.85 -76.2 -45.95 -76.2 -43.05 -76.2 -41.0 -74.15 -38.95 -72.1 -38.95 -69.2 -38.95 -66.3 -41.0 -64.25 -43.05 -62.2 -45.95 -62.2 M-61.6 -16.5 Q-62.35 -16.9 -62.4 -17.6 -62.9 -24.25 -57.9 -20.1 L-57.85 -19.6 Q-57.85 -15.85 -61.6 -16.5 M-72.85 19.25 Q-72.85 20.8 -74.0 21.9 -75.1 23.05 -76.65 23.05 -78.2 23.05 -79.35 21.9 -80.45 20.8 -80.45 19.25 -80.45 17.7 -79.35 16.55 -78.2 15.45 -76.65 15.45 -75.1 15.45 -74.0 16.55 -72.85 17.7 -72.85 19.25" fill="#f8d5af" fill-rule="evenodd" stroke="none"/>
      <path d="M-75.0 97.8 Q-93.8 98.25 -100.05 81.35 -102.45 74.9 -101.0 68.2 -93.3 32.5 -72.5 1.8 L-64.5 10.95 -64.3 10.2 Q-70.7 -0.15 -70.15 -12.35 -69.95 -16.15 -67.7 -19.15 -59.45 -30.45 -43.9 -27.7 -54.4 -39.75 -57.3 -55.6 -59.65 -68.5 -51.0 -77.4 -46.7 -81.75 -40.6 -81.55 L-13.85 -80.75 Q18.6 -80.9 47.45 -96.1 L46.7 -94.2 Q41.7 -81.2 48.85 -69.2 47.1 -70.55 45.65 -72.05 40.1 -77.85 39.3 -86.0 7.15 -72.55 -27.5 -76.1 -30.65 -69.35 -36.55 -64.65 -40.1 -61.8 -44.7 -61.75 L-45.45 -59.35 Q-50.3 -40.55 -38.9 -25.65 L-38.55 -23.95 -40.8 -24.05 Q-50.2 -25.2 -57.9 -20.1 -62.9 -24.25 -62.4 -17.6 -62.35 -16.9 -61.6 -16.5 -65.4 -11.85 -66.35 -5.95 -63.25 -0.3 -61.3 5.9 -60.1 9.75 -62.15 13.3 -71.95 30.15 -78.9 48.3 -87.05 69.55 -75.35 87.25 -86.45 84.35 -91.6 74.25 L-91.35 75.85 Q-89.2 88.45 -76.4 90.1 L-76.3 90.2 -75.0 97.8 M38.65 -15.1 L40.6 -14.75 Q23.2 -2.1 4.35 -10.8 0.05 -12.75 -4.5 -14.0 -17.65 -17.6 -31.3 -16.3 -6.8 -19.85 16.7 -11.7 25.75 -8.7 34.35 -13.0 L38.65 -15.1 M42.95 64.4 Q56.55 64.65 64.3 53.35 68.15 47.8 64.15 42.35 56.55 31.85 48.35 21.95 36.25 7.4 44.85 -8.3 L44.95 -7.5 Q39.75 12.75 56.55 26.8 65.8 34.55 67.95 46.2 69.1 52.5 64.5 57.35 55.75 66.5 42.95 64.4 M-35.1 -15.45 Q-43.35 -12.2 -51.5 -13.0 L-51.2 -14.0 -35.1 -15.45 M-45.95 -62.2 Q-43.05 -62.2 -41.0 -64.25 -38.95 -66.3 -38.95 -69.2 -38.95 -72.1 -41.0 -74.15 -43.05 -76.2 -45.95 -76.2 -48.85 -76.2 -50.9 -74.15 -52.95 -72.1 -52.95 -69.2 -52.95 -66.3 -50.9 -64.25 -48.85 -62.2 -45.95 -62.2 M-72.85 19.25 Q-72.85 17.7 -74.0 16.55 -75.1 15.45 -76.65 15.45 -78.2 15.45 -79.35 16.55 -80.45 17.7 -80.45 19.25 -80.45 20.8 -79.35 21.9 -78.2 23.05 -76.65 23.05 -75.1 23.05 -74.0 21.9 -72.85 20.8 -72.85 19.25" fill="#fd8f2b" fill-rule="evenodd" stroke="none"/>
      <path d="M48.95 5.75 L48.75 6.4 49.15 6.05 Q54.2 14.75 61.9 21.75 76.3 34.95 74.55 53.7 L73.65 56.65 Q73.05 58.3 73.9 59.0 68.9 67.4 58.45 68.95 L59.7 70.0 54.65 70.9 Q30.15 74.15 5.3 71.5 L5.2 71.5 Q-3.95 69.1 -12.4 73.55 L-13.4 74.1 -19.85 75.8 Q-46.05 83.25 -72.8 88.0 L-75.35 87.25 Q-87.05 69.55 -78.9 48.3 -71.95 30.15 -62.15 13.3 -60.1 9.75 -61.3 5.9 -63.25 -0.3 -66.35 -5.95 -65.4 -11.85 -61.6 -16.5 -57.85 -15.85 -57.85 -19.6 L-57.9 -20.1 Q-50.2 -25.2 -40.8 -24.05 L-38.55 -23.95 Q-37.15 -19.7 -31.8 -20.3 L-38.95 -28.2 -39.05 -27.85 -38.9 -25.65 Q-50.3 -40.55 -45.45 -59.35 L-44.7 -61.75 Q-40.1 -61.8 -36.55 -64.65 -30.65 -69.35 -27.5 -76.1 7.15 -72.55 39.3 -86.0 40.1 -77.85 45.65 -72.05 47.1 -70.55 48.85 -69.2 43.35 -52.3 31.3 -39.9 26.95 -35.35 23.6 -30.05 L23.55 -30.15 15.25 -21.2 Q19.55 -20.8 21.75 -22.35 L23.1 -17.65 38.65 -15.1 34.35 -13.0 Q25.75 -8.7 16.7 -11.7 -6.8 -19.85 -31.3 -16.3 L-35.1 -15.45 -51.2 -14.0 -50.05 -18.1 -49.4 -18.85 Q-52.35 -20.25 -55.3 -18.3 -65.35 -11.4 -59.05 -2.4 L-58.8 -3.15 -54.85 -9.0 Q-54.65 13.6 -66.0 34.0 -73.35 47.2 -75.95 61.9 -77.3 69.65 -74.35 77.2 -58.35 82.5 -43.15 73.1 -37.0 69.35 -29.9 67.2 6.1 56.95 42.95 64.4 55.75 66.5 64.5 57.35 69.1 52.5 67.95 46.2 65.8 34.55 56.55 26.8 39.75 12.75 44.95 -7.5 L45.3 -4.25 Q48.45 -5.85 48.3 -10.7 48.2 -13.85 47.15 -16.05 L48.65 -15.5 51.2 -11.35 Q47.95 -4.6 48.05 2.9 48.05 4.25 48.95 5.75 M33.75 -69.85 Q28.55 -76.85 20.35 -76.25 L18.45 -73.45 26.2 -70.95 Q32.1 -64.2 34.05 -56.8 39.1 -62.6 33.75 -69.85 M5.25 -62.85 Q1.3 -60.3 -0.95 -56.3 -7.35 -67.55 -17.9 -57.8 -30.4 -46.25 -29.35 -29.7 -29.1 -26.1 -25.95 -24.1 -10.95 -15.0 -2.45 -31.1 6.15 -19.95 16.0 -30.0 27.1 -41.35 22.6 -56.7 17.3 -70.4 5.25 -62.85 M-12.8 -70.7 L-14.35 -72.2 Q-17.5 -71.6 -20.35 -70.45 -33.5 -64.65 -33.25 -51.1 -31.75 -55.6 -27.9 -57.95 -18.9 -63.2 -12.8 -70.7" fill="#ff6600" fill-rule="evenodd" stroke="none"/>
      <path d="M12.95 -63.05 Q22.45 -52.9 17.4 -39.15 15.1 -32.75 10.0 -28.8 8.75 -27.8 7.2 -27.8 L-0.7 -34.65 Q2.15 -44.15 0.15 -53.9 L5.25 -59.25 12.95 -63.05 M13.0 -42.95 Q11.25 -45.05 8.45 -45.1 7.5 -44.85 6.65 -44.2 4.75 -42.85 4.45 -40.55 4.2 -38.8 5.6 -37.75 6.9 -36.7 8.55 -36.3 10.75 -35.8 12.25 -37.25 14.45 -39.35 13.45 -42.15 L13.0 -42.95 M9.45 -41.75 L9.75 -40.95 Q9.75 -40.45 9.45 -40.1 9.1 -39.8 8.6 -39.8 8.1 -39.8 7.8 -40.1 7.45 -40.45 7.45 -40.95 7.45 -41.45 7.8 -41.75 8.1 -42.1 8.6 -42.1 L9.45 -41.75 M5.65 4.65 Q2.95 11.25 2.45 21.25 2.25 25.65 -0.95 28.85 -5.6 33.55 -12.55 31.8 -10.75 16.6 -9.4 1.35 -2.1 3.95 5.65 4.65 M-11.6 0.75 L-15.85 30.75 Q-20.2 28.7 -22.3 24.55 -29.6 10.0 -29.0 -6.75 -28.45 -4.25 -26.4 -3.25 -19.95 0.25 -11.6 0.75 M22.55 3.15 Q22.85 17.65 9.65 21.75 L6.95 22.75 Q10.7 14.15 10.85 4.8 L22.55 3.15 M1.75 54.0 L1.35 53.4 Q7.6 54.1 12.65 57.1 L11.55 56.95 Q7.0 54.35 1.85 54.0 L1.75 54.0 M-12.85 56.0 L-13.1 54.55 -12.7 51.9 Q-5.15 49.1 0.1 56.5 L-1.9 55.05 Q-8.8 49.7 -12.85 56.0 M-31.05 -4.9 L-31.15 15.55 Q-37.2 14.35 -40.05 4.9 -41.4 0.5 -41.75 -4.0 L-31.05 -4.9 M-7.15 -41.4 Q-8.45 -42.7 -10.25 -42.7 -12.05 -42.7 -13.3 -41.4 -14.6 -40.15 -14.6 -38.35 -14.6 -36.55 -13.3 -35.25 -12.05 -34.0 -10.25 -34.0 -8.45 -34.0 -7.15 -35.25 -5.9 -36.55 -5.9 -38.35 -5.9 -40.15 -7.15 -41.4 M-9.8 -38.15 Q-12.25 -38.2 -11.4 -40.4 -9.55 -40.15 -9.7 -38.85 L-9.8 -38.15 M-17.2 -25.2 L-20.8 -25.4 Q-30.35 -30.3 -26.25 -42.15 -20.9 -57.5 -6.1 -59.15 -2.3 -53.65 -1.9 -47.0 -0.85 -29.45 -17.2 -25.2 M-26.35 58.65 L-26.1 57.5 -16.1 53.4 -15.25 58.4 Q-20.15 54.6 -26.35 58.65 M-33.9 63.8 L-29.45 58.1 -29.9 61.25 -33.9 63.8" fill="#ffffff" fill-rule="evenodd" stroke="none"/>
      <path d="M10.85 4.8 Q11.9 1.2 10.4 -2.1 L10.05 -2.6 5.65 4.65 Q-2.1 3.95 -9.4 1.35 -7.85 -4.4 -9.6 -9.25 L-10.1 -9.95 -11.6 0.75 Q-19.95 0.25 -26.4 -3.25 -28.45 -4.25 -29.0 -6.75 L-29.0 -13.8 Q-23.9 -15.0 -18.9 -13.75 1.15 -8.45 21.2 -2.5 L22.55 3.15 10.85 4.8 M11.55 56.95 L2.95 55.9 1.75 54.0 1.85 54.0 Q7.0 54.35 11.55 56.95 M0.1 56.5 L0.4 56.9 -12.35 58.75 -12.85 56.0 Q-8.8 49.7 -1.9 55.05 L0.1 56.5 M-41.75 -4.0 Q-42.1 -7.5 -41.85 -11.1 L-31.05 -13.25 -31.05 -4.9 -41.75 -4.0 M-7.6 -6.5 L-7.55 -7.25 Q-7.8 -5.0 -7.6 -6.5 M-15.25 58.4 L-14.95 60.3 -27.65 64.05 -26.35 58.65 Q-20.15 54.6 -15.25 58.4 M-29.9 61.25 L-30.45 65.1 -36.9 67.6 -33.9 63.8 -29.9 61.25" fill="#ccccad" fill-rule="evenodd" stroke="none"/>
      <path d="M5.3 71.55 L5.2 71.5 5.3 71.5 5.3 71.55 M-76.35 90.1 L-76.3 90.2 -76.4 90.1 -76.35 90.1 M73.9 59.0 Q73.05 58.3 73.65 56.65 L74.55 53.7 75.0 53.8 Q74.8 56.7 73.9 59.0" fill="#e45c00" fill-rule="evenodd" stroke="none"/>
    </g>
  </defs>
</svg>
