<?xml version="1.0" encoding="UTF-8" standalone="no"?>
<svg xmlns:xlink="http://www.w3.org/1999/xlink" height="239.4px" width="135.95px" xmlns="http://www.w3.org/2000/svg">
  <g transform="matrix(1.0, 0.0, 0.0, 1.0, 69.0, 119.8)">
    <use height="239.4" transform="matrix(1.0, 0.0, 0.0, 1.0, -69.0, -119.8)" width="135.95" xlink:href="#shape0"/>
  </g>
  <defs>
    <g id="shape0" transform="matrix(1.0, 0.0, 0.0, 1.0, 69.0, 119.8)">
      <path d="M18.8 -110.55 L2.65 -107.5 Q-5.5 -105.85 -12.6 -106.35 -8.3 -100.45 -0.4 -98.95 10.35 -97.2 19.85 -93.1 26.7 -90.2 30.15 -83.15 35.8 -71.5 32.25 -59.15 25.25 -35.0 29.3 -10.15 12.8 -21.55 -2.8 -9.5 -5.45 -7.4 -7.45 -4.5 L-5.5 -3.4 Q10.3 -17.2 23.0 0.5 32.75 14.0 28.95 30.6 26.05 43.5 24.5 56.35 24.2 59.1 24.9 61.95 29.55 80.7 19.65 95.85 L17.7 98.0 18.8 99.7 Q37.15 92.7 31.85 73.4 28.75 62.05 29.6 50.1 30.25 41.1 32.75 32.45 30.55 49.85 34.9 66.9 40.4 88.45 23.05 101.55 18.6 100.35 14.35 98.75 -16.15 87.05 -47.8 97.65 -50.9 98.6 -53.5 100.25 -62.4 105.9 -54.95 113.85 -64.95 105.15 -59.9 90.85 L-59.05 88.45 Q-37.7 81.2 -14.8 83.1 6.85 85.1 11.7 64.6 12.0 63.4 11.5 62.35 2.15 41.65 7.65 19.55 L9.85 24.05 12.8 23.7 12.25 14.25 Q5.0 10.3 -1.7 15.0 L-0.3 16.9 3.8 16.95 Q-19.9 38.5 -51.75 30.55 L-53.1 26.55 Q-32.7 35.3 -19.7 18.45 -0.85 -6.1 -15.85 -33.5 -25.0 -50.25 -44.25 -49.85 L-49.7 -58.7 -45.0 -61.95 -46.6 -63.95 -51.9 -63.6 Q-62.65 -83.05 -47.7 -99.55 -35.4 -113.05 -17.0 -110.1 -6.3 -108.25 4.5 -109.2 L18.8 -110.55 M37.2 -103.65 L25.0 -110.75 Q29.85 -109.85 34.4 -106.8 L37.2 -103.65 M-28.4 -61.7 Q-32.6 -64.7 -37.8 -66.35 L-40.7 -60.9 Q-29.5 -59.4 -22.75 -50.35 L-12.6 -34.45 Q-13.55 -51.15 -28.4 -61.7" fill="#e6e6da" fill-rule="evenodd" stroke="none"/>
      <path d="M25.0 -110.75 L18.8 -110.55 4.5 -109.2 Q-6.3 -108.25 -17.0 -110.1 -35.4 -113.05 -47.7 -99.55 -62.65 -83.05 -51.9 -63.6 L-46.6 -63.95 -45.0 -61.95 -49.7 -58.7 -44.25 -49.85 -41.3 -45.05 Q-26.5 -49.65 -18.65 -34.85 -6.9 -12.75 -17.8 9.5 -25.7 25.55 -40.9 17.35 L-43.7 19.45 Q-47.1 22.65 -51.4 22.0 L-53.1 26.55 -51.75 30.55 Q-19.9 38.5 3.8 16.95 L-0.3 16.9 -1.7 15.0 Q5.0 10.3 12.25 14.25 L12.8 23.7 9.85 24.05 7.65 19.55 Q2.15 41.65 11.5 62.35 12.0 63.4 11.7 64.6 6.85 85.1 -14.8 83.1 -37.7 81.2 -59.05 88.45 L-59.9 90.85 Q-64.95 105.15 -54.95 113.85 -44.2 115.7 -33.3 113.1 -6.3 106.45 20.6 112.75 37.3 116.7 50.3 106.45 54.95 102.85 56.55 97.4 63.35 74.75 54.75 52.0 46.85 31.05 41.95 9.2 40.35 2.0 41.4 -5.35 44.1 -24.55 47.65 -43.5 53.85 -76.2 37.2 -103.65 L34.4 -106.8 Q29.85 -109.85 25.0 -110.75 M29.3 -10.15 L31.0 -8.15 Q43.7 10.65 32.75 32.45 30.25 41.1 29.6 50.1 28.75 62.05 31.85 73.4 37.15 92.7 18.8 99.7 L17.7 98.0 19.65 95.85 Q29.55 80.7 24.9 61.95 24.2 59.1 24.5 56.35 26.05 43.5 28.95 30.6 32.75 14.0 23.0 0.5 10.3 -17.2 -5.5 -3.4 L-7.45 -4.5 Q-5.45 -7.4 -2.8 -9.5 12.8 -21.55 29.3 -10.15 M46.0 -104.0 Q49.0 -99.35 50.55 -94.2 57.65 -70.3 53.85 -45.05 52.95 -39.15 51.4 -33.45 45.1 -10.6 50.35 12.1 51.6 17.55 53.75 22.6 67.7 55.25 66.9 90.25 66.6 102.3 57.3 109.9 42.3 122.0 23.5 117.55 -4.8 110.9 -32.95 118.0 -41.7 120.35 -50.55 119.2 -58.55 118.4 -62.45 111.3 -72.4 93.0 -56.95 77.55 -59.2 75.9 -60.5 73.5 -65.05 64.75 -59.2 56.45 -64.1 43.95 -56.45 31.45 -57.75 28.55 -57.7 25.3 -57.65 22.25 -56.3 19.65 -68.95 7.1 -69.0 -10.6 -69.05 -35.55 -49.45 -48.6 -58.2 -64.15 -61.05 -81.65 -64.6 -103.15 -44.3 -112.15 -38.05 -114.95 -31.35 -113.9 -12.0 -110.7 6.45 -117.25 31.45 -126.2 46.0 -104.0 M2.45 54.65 L0.9 54.5 Q-7.3 53.55 -11.55 60.25 -8.45 66.4 -8.5 73.2 -8.55 75.25 -8.85 77.35 -3.6 77.2 0.6 74.25 10.8 67.3 6.5 55.8 L5.15 55.95 Q3.85 55.0 2.45 54.65 M-28.4 -61.7 Q-13.55 -51.15 -12.6 -34.45 L-22.75 -50.35 Q-29.5 -59.4 -40.7 -60.9 L-37.8 -66.35 Q-32.6 -64.7 -28.4 -61.7 M-46.25 -34.35 L-43.95 -40.1 -45.25 -42.35 Q-58.0 -44.2 -62.0 -31.35 -68.85 -9.1 -58.95 11.95 L-56.7 8.65 -55.7 7.1 Q-48.05 9.05 -50.1 16.6 L-50.65 17.9 -46.2 17.7 -44.3 13.65 Q-54.5 -10.0 -46.25 -34.35 M-22.35 -33.3 Q-27.4 -40.0 -35.0 -43.8 -37.55 -42.55 -38.85 -40.3 -50.6 -20.3 -47.0 3.6 -45.35 14.5 -34.8 15.35 -16.6 12.7 -15.2 -6.95 -14.15 -21.4 -22.35 -33.3 M-33.9 14.8 Q-44.45 12.55 -37.85 4.0 -37.05 3.0 -35.75 3.35 -27.55 5.65 -31.25 12.95 L-33.9 14.8 M-37.0 7.05 Q-37.35 8.05 -37.05 9.0 -36.7 10.05 -35.9 10.65 L-36.0 7.55 -37.0 7.05 M-15.0 41.0 L-17.4 34.35 -38.15 36.95 Q-36.6 52.85 -20.75 55.2 -17.25 55.7 -14.1 54.05 -13.3 47.45 -15.0 41.0 M-14.9 33.05 Q-14.9 39.3 -11.05 43.7 -7.25 48.1 -1.8 48.1 L2.35 45.7 -3.65 28.0 -14.9 33.05 M-39.25 42.4 L-41.85 37.1 -53.45 33.45 -54.75 37.85 -57.55 45.85 Q-60.7 54.05 -51.9 56.3 -43.6 58.4 -37.8 53.45 -37.4 47.65 -39.25 42.4 M-34.3 76.3 Q-36.1 66.4 -41.35 58.75 L-56.9 58.75 Q-60.85 64.55 -58.1 71.65 -54.85 74.25 -51.3 76.0 L-33.8 79.25 -34.3 76.3 M-11.0 73.8 Q-10.6 66.9 -13.95 61.1 L-14.8 60.1 -29.35 58.1 -34.45 61.55 -31.6 73.0 -30.15 78.8 Q-20.65 80.9 -11.3 78.1 L-11.0 73.8" fill="#000000" fill-rule="evenodd" stroke="none"/>
      <path d="M18.8 -110.55 L25.0 -110.75 37.2 -103.65 Q53.85 -76.2 47.65 -43.5 44.1 -24.55 41.4 -5.35 40.35 2.0 41.95 9.2 46.85 31.05 54.75 52.0 63.35 74.75 56.55 97.4 54.95 102.85 50.3 106.45 37.3 116.7 20.6 112.75 -6.3 106.45 -33.3 113.1 -44.2 115.7 -54.95 113.85 -62.4 105.9 -53.5 100.25 -50.9 98.6 -47.8 97.65 -16.15 87.05 14.35 98.75 18.6 100.35 23.05 101.55 40.4 88.45 34.9 66.9 30.55 49.85 32.75 32.45 43.7 10.65 31.0 -8.15 L29.3 -10.15 Q25.25 -35.0 32.25 -59.15 35.8 -71.5 30.15 -83.15 26.7 -90.2 19.85 -93.1 10.35 -97.2 -0.4 -98.95 -8.3 -100.45 -12.6 -106.35 -5.5 -105.85 2.65 -107.5 L18.8 -110.55 M-44.25 -49.85 Q-25.0 -50.25 -15.85 -33.5 -0.85 -6.1 -19.7 18.45 -32.7 35.3 -53.1 26.55 L-51.4 22.0 Q-47.1 22.65 -43.7 19.45 L-40.9 17.35 Q-25.7 25.55 -17.8 9.5 -6.9 -12.75 -18.65 -34.85 -26.5 -49.65 -41.3 -45.05 L-44.25 -49.85" fill="#c8c8ae" fill-rule="evenodd" stroke="none"/>
      <path d="M-8.5 73.2 Q-8.45 66.4 -11.55 60.25 -7.3 53.55 0.9 54.5 L2.45 54.65 Q5.85 67.35 -6.3 71.2 -7.75 71.6 -8.5 73.2 M-38.15 36.95 Q-37.65 40.1 -34.6 41.3 -23.75 45.7 -15.0 41.0 -13.3 47.45 -14.1 54.05 -17.25 55.7 -20.75 55.2 -36.6 52.85 -38.15 36.95 M-1.8 48.1 Q-7.25 48.1 -11.05 43.7 -14.9 39.3 -14.9 33.05 -13.45 40.05 -5.95 39.1 L-3.15 39.05 -1.8 48.1 M-54.75 37.85 L-54.9 39.2 Q-47.65 44.2 -39.25 42.4 -37.4 47.65 -37.8 53.45 -43.6 58.4 -51.9 56.3 -60.7 54.05 -57.55 45.85 L-54.75 37.85 M-51.3 76.0 Q-54.85 74.25 -58.1 71.65 -60.85 64.55 -56.9 58.75 L-41.35 58.75 Q-36.1 66.4 -34.3 76.3 L-52.95 71.8 -53.2 74.0 -51.3 76.0 M-31.6 73.0 L-34.45 61.55 -29.35 58.1 -14.8 60.1 -13.95 61.1 Q-10.6 66.9 -11.0 73.8 -17.85 70.25 -25.6 71.9 L-31.6 73.0" fill="#ffff00" fill-rule="evenodd" stroke="none"/>
      <path d="M-8.5 73.2 Q-7.75 71.6 -6.3 71.2 5.85 67.35 2.45 54.65 3.85 55.0 5.15 55.95 L6.5 55.8 Q10.8 67.3 0.6 74.25 -3.6 77.2 -8.85 77.35 -8.55 75.25 -8.5 73.2 M-15.0 41.0 Q-23.75 45.7 -34.6 41.3 -37.65 40.1 -38.15 36.95 L-17.4 34.35 -15.0 41.0 M-1.8 48.1 L-3.15 39.05 -5.95 39.1 Q-13.45 40.05 -14.9 33.05 L-3.65 28.0 2.35 45.7 -1.8 48.1 M-39.25 42.4 Q-47.65 44.2 -54.9 39.2 L-54.75 37.85 -53.45 33.45 -41.85 37.1 -39.25 42.4 M-51.3 76.0 L-53.2 74.0 -52.95 71.8 -34.3 76.3 -33.8 79.25 -51.3 76.0 M-31.6 73.0 L-25.6 71.9 Q-17.85 70.25 -11.0 73.8 L-11.3 78.1 Q-20.65 80.9 -30.15 78.8 L-31.6 73.0" fill="#b8b800" fill-rule="evenodd" stroke="none"/>
      <path d="M-56.7 8.65 L-58.95 11.95 Q-68.85 -9.1 -62.0 -31.35 -58.0 -44.2 -45.25 -42.35 L-43.95 -40.1 -46.25 -34.35 -47.75 -34.9 Q-64.4 -24.0 -59.3 -3.65 -57.75 2.45 -56.7 8.65 M-22.35 -33.3 L-31.4 -36.65 -28.1 -30.5 Q-14.2 -6.9 -31.25 12.95 -27.55 5.65 -35.75 3.35 -37.05 3.0 -37.85 4.0 -44.45 12.55 -33.9 14.8 L-34.8 15.35 Q-45.35 14.5 -47.0 3.6 -50.6 -20.3 -38.85 -40.3 -37.55 -42.55 -35.0 -43.8 -27.4 -40.0 -22.35 -33.3 M-37.0 7.05 L-36.0 7.55 -35.9 10.65 Q-36.7 10.05 -37.05 9.0 -37.35 8.05 -37.0 7.05" fill="#ffffff" fill-rule="evenodd" stroke="none"/>
      <path d="M-56.7 8.65 Q-57.75 2.45 -59.3 -3.65 -64.4 -24.0 -47.75 -34.9 L-46.25 -34.35 Q-54.5 -10.0 -44.3 13.65 L-46.2 17.7 -50.65 17.9 -50.1 16.6 Q-48.05 9.05 -55.7 7.1 L-56.7 8.65 M-31.25 12.95 Q-14.2 -6.9 -28.1 -30.5 L-31.4 -36.65 -22.35 -33.3 Q-14.15 -21.4 -15.2 -6.95 -16.6 12.7 -34.8 15.35 L-33.9 14.8 -31.25 12.95" fill="#dedec8" fill-rule="evenodd" stroke="none"/>
    </g>
  </defs>
</svg>
